<svg width="173" height="30" viewBox="0 0 173 30" fill="none" xmlns="http://www.w3.org/2000/svg">
<path d="M157.823 29.3914H15.0341C7.16458 29.3914 0.771484 23.0166 0.771484 15.1366C0.771484 7.2714 7.14982 0.881836 15.0341 0.881836H157.838C165.707 0.881836 172.1 7.25664 172.1 15.1366C172.086 23.0166 165.707 29.3914 157.823 29.3914Z" fill="white" stroke="#495AD6" stroke-width="0.8956" stroke-miterlimit="10"/>
<path d="M155.742 14.1625C155.742 18.3533 152.346 21.7473 148.153 21.7473C143.959 21.7473 140.563 18.3533 140.563 14.1625C140.563 9.97163 143.959 6.57764 148.153 6.57764C152.346 6.57764 155.742 9.97163 155.742 14.1625Z" stroke="#495AD6" stroke-width="1.6716" stroke-miterlimit="10"/>
<path d="M153.512 19.519L157.705 23.6951" stroke="#495AD6" stroke-width="1.6716" stroke-miterlimit="10" stroke-linecap="round"/>
</svg>
