<svg width="750" height="536" viewBox="0 0 750 536" fill="none" xmlns="http://www.w3.org/2000/svg">
<title>Mobile App Development Services</title>
<g clip-path="url(#clip0_33_6375)">
<path d="M199.677 127.467V112.341C199.677 110.866 198.481 109.656 196.99 109.656H193.092C191.955 109.656 190.937 108.888 190.686 107.767C189.342 101.894 187.039 96.3749 183.938 91.4167C183.318 90.428 183.436 89.1442 184.263 88.3178L187.009 85.5731C188.058 84.5254 188.058 82.8284 187.009 81.7807L176.305 71.0822C175.257 70.0345 173.559 70.0345 172.51 71.0822L169.794 73.8417C168.967 74.6681 167.682 74.7861 166.693 74.1663C161.717 71.0675 156.21 68.7655 150.334 67.4226C149.226 67.1718 148.444 66.1536 148.444 65.0173V61.1364C148.444 59.6607 147.248 58.4507 145.757 58.4507H130.623C129.147 58.4507 127.936 59.646 127.936 61.1364V65.0173C127.936 66.1536 127.168 67.1718 126.046 67.4226C120.17 68.7655 114.648 71.0675 109.672 74.1663C108.683 74.7861 107.398 74.6681 106.571 73.8417L103.84 71.1117C102.792 70.064 101.094 70.064 100.045 71.1117L89.341 81.8102C88.2927 82.8579 88.2927 84.5549 89.341 85.6026L92.0725 88.3326C92.8993 89.1589 93.0174 90.4428 92.3973 91.4314C89.2968 96.4044 87.0082 101.909 85.6499 107.782C85.3989 108.888 84.3801 109.67 83.2432 109.67H79.3454C77.8689 109.67 76.6582 110.866 76.6582 112.356V127.482C76.6582 128.957 77.8541 130.167 79.3454 130.167H83.2432C84.3801 130.167 85.3989 130.935 85.6499 132.056C86.9935 137.929 89.2968 143.448 92.3973 148.406C93.0174 149.395 92.8993 150.679 92.0725 151.505L89.3263 154.25C88.278 155.298 88.278 156.995 89.3263 158.042L100.031 168.741C101.079 169.788 102.777 169.788 103.825 168.741L106.571 165.996C107.398 165.17 108.683 165.052 109.672 165.671C114.633 168.77 120.155 171.057 126.031 172.4C127.139 172.651 127.921 173.669 127.921 174.806V178.701C127.921 180.177 129.117 181.387 130.608 181.387H145.742C147.218 181.387 148.429 180.192 148.429 178.701V174.806C148.429 173.669 149.212 172.651 150.319 172.4C156.195 171.057 161.703 168.755 166.678 165.671C167.668 165.052 168.952 165.17 169.779 165.996L172.525 168.741C173.573 169.788 175.271 169.788 176.32 168.741L187.024 158.042C188.072 156.995 188.072 155.298 187.024 154.25L184.278 151.505C183.451 150.679 183.333 149.395 183.953 148.406C187.054 143.448 189.342 137.929 190.7 132.056C190.951 130.949 191.97 130.167 193.107 130.167H197.005C198.481 130.138 199.677 128.942 199.677 127.467ZM138.197 162.543C114.633 162.543 95.557 143.433 95.557 119.882C95.557 96.3601 114.633 77.2652 138.197 77.2652C161.762 77.2652 180.838 96.3749 180.838 119.882C180.838 143.433 161.762 162.543 138.197 162.543Z" stroke="#DEE3FC" stroke-width="0.7896" stroke-miterlimit="10"/>
<path d="M269.278 178.657V168.342C269.278 167.339 268.466 166.512 267.447 166.512H264.789C264.007 166.512 263.328 165.981 263.151 165.228C262.235 161.229 260.67 157.467 258.559 154.087C258.131 153.409 258.219 152.538 258.78 151.977L260.641 150.118C261.349 149.41 261.349 148.244 260.641 147.535L253.347 140.246C252.638 139.537 251.472 139.537 250.763 140.246L248.903 142.105C248.342 142.666 247.471 142.754 246.791 142.326C243.41 140.216 239.645 138.652 235.644 137.737C234.891 137.56 234.359 136.881 234.359 136.099V133.458C234.359 132.454 233.547 131.628 232.529 131.628H222.208C221.204 131.628 220.377 132.44 220.377 133.458V136.099C220.377 136.881 219.846 137.56 219.093 137.737C215.092 138.652 211.327 140.216 207.946 142.326C207.266 142.754 206.395 142.666 205.834 142.105L203.974 140.246C203.265 139.537 202.099 139.537 201.39 140.246L194.096 147.535C193.388 148.244 193.388 149.41 194.096 150.118L195.957 151.977C196.518 152.538 196.606 153.409 196.178 154.087C194.067 157.467 192.502 161.229 191.586 165.228C191.409 165.981 190.73 166.512 189.947 166.512H187.29C186.286 166.512 185.459 167.324 185.459 168.342V178.657C185.459 179.66 186.271 180.487 187.29 180.487H189.947C190.73 180.487 191.409 181.018 191.586 181.77C192.502 185.77 194.067 189.532 196.178 192.912C196.606 193.59 196.518 194.461 195.957 195.022L194.096 196.881C193.388 197.589 193.388 198.755 194.096 199.464L201.39 206.753C202.099 207.462 203.265 207.462 203.974 206.753L205.849 204.879C206.41 204.318 207.281 204.23 207.96 204.658C211.341 206.768 215.106 208.332 219.108 209.247C219.861 209.424 220.392 210.103 220.392 210.885V213.541C220.392 214.545 221.204 215.371 222.223 215.371H232.543C233.547 215.371 234.374 214.559 234.374 213.541V210.885C234.374 210.103 234.906 209.424 235.659 209.247C239.66 208.332 243.425 206.768 246.806 204.658C247.485 204.23 248.356 204.318 248.917 204.879L250.793 206.753C251.501 207.462 252.668 207.462 253.376 206.753L260.67 199.464C261.379 198.755 261.379 197.589 260.67 196.881L258.795 195.007C258.234 194.446 258.145 193.576 258.574 192.897C260.685 189.518 262.25 185.755 263.165 181.756C263.343 181.003 264.022 180.472 264.804 180.472H267.462C268.466 180.487 269.278 179.675 269.278 178.657ZM227.376 200.924C212.227 200.924 199.958 188.632 199.958 173.492C199.958 158.367 212.227 146.089 227.376 146.089C242.524 146.089 254.794 158.381 254.794 173.492C254.809 188.647 242.539 200.924 227.376 200.924Z" fill="#DEE3FC"/>
<path d="M75.0785 451.579C77.8428 451.579 80.0837 449.339 80.0837 446.576C80.0837 443.813 77.8428 441.574 75.0785 441.574C72.3142 441.574 70.0732 443.813 70.0732 446.576C70.0732 449.339 72.3142 451.579 75.0785 451.579Z" fill="#A4AFFF"/>
<path d="M744.847 315.051C747.611 315.051 749.852 312.812 749.852 310.049C749.852 307.286 747.611 305.046 744.847 305.046C742.083 305.046 739.842 307.286 739.842 310.049C739.842 312.812 742.083 315.051 744.847 315.051Z" fill="#A4AFFF"/>
<path d="M734.851 136.631C737.615 136.631 739.856 134.391 739.856 131.628C739.856 128.866 737.615 126.626 734.851 126.626C732.087 126.626 729.846 128.866 729.846 131.628C729.846 134.391 732.087 136.631 734.851 136.631Z" fill="#A4AFFF"/>
<path d="M555.092 74.1225C556.821 74.1225 558.222 72.7219 558.222 70.9941C558.222 69.2663 556.821 67.8657 555.092 67.8657C553.363 67.8657 551.962 69.2663 551.962 70.9941C551.962 72.7219 553.363 74.1225 555.092 74.1225Z" fill="#A4AFFF"/>
<path d="M94.6411 29.2476C94.6411 30.9741 93.2384 32.376 91.511 32.376C89.7835 32.376 88.3809 30.9741 88.3809 29.2476C88.3809 27.5211 89.7835 26.1193 91.511 26.1193C93.2384 26.1045 94.6411 27.5064 94.6411 29.2476Z" fill="#A4AFFF"/>
<path d="M164.049 222.248C164.049 223.975 162.647 225.376 160.919 225.376C159.192 225.376 157.789 223.975 157.789 222.248C157.789 220.521 159.192 219.12 160.919 219.12C162.647 219.12 164.049 220.521 164.049 222.248Z" fill="#A4AFFF"/>
<path d="M49.0034 451.579C49.0034 453.305 47.6007 454.707 45.8733 454.707C44.1458 454.707 42.7432 453.305 42.7432 451.579C42.7432 449.852 44.1458 448.45 45.8733 448.45C47.6007 448.45 49.0034 449.852 49.0034 451.579Z" fill="#A4AFFF"/>
<path d="M671.511 454.544C674.275 454.544 676.516 452.305 676.516 449.542C676.516 446.779 674.275 444.54 671.511 444.54C668.747 444.54 666.506 446.779 666.506 449.542C666.506 452.305 668.747 454.544 671.511 454.544Z" fill="#A4AFFF"/>
<path d="M180.837 20.6153C183.602 20.6153 185.842 18.3756 185.842 15.6128C185.842 12.85 183.602 10.6104 180.837 10.6104C178.073 10.6104 175.832 12.85 175.832 15.6128C175.832 18.3756 178.073 20.6153 180.837 20.6153Z" fill="#A4AFFF"/>
<path d="M525.784 242.951C525.784 246.64 522.787 249.636 519.096 249.636C515.404 249.636 512.407 246.64 512.407 242.951C512.407 239.262 515.404 236.267 519.096 236.267C522.787 236.267 525.784 239.262 525.784 242.951Z" fill="#A4AFFF"/>
<path d="M32.3934 160.285C32.3934 163.974 29.3962 166.97 25.705 166.97C22.0138 166.97 19.0166 163.974 19.0166 160.285C19.0166 156.596 22.0138 153.601 25.705 153.601C29.3962 153.601 32.3934 156.581 32.3934 160.285Z" fill="#A4AFFF"/>
<path d="M720.175 424.574H711.76C711.213 424.574 710.785 424.132 710.785 423.6V415.189C710.785 414.643 711.228 414.215 711.76 414.215H720.175C720.722 414.215 721.15 414.658 721.15 415.189V423.6C721.15 424.132 720.722 424.574 720.175 424.574Z" fill="#DEE3FC"/>
<path d="M734.054 424.574H725.639C725.092 424.574 724.664 424.132 724.664 423.6V415.189C724.664 414.643 725.107 414.215 725.639 414.215H734.054C734.601 414.215 735.029 414.658 735.029 415.189V423.6C735.029 424.132 734.601 424.574 734.054 424.574Z" fill="#DEE3FC"/>
<path d="M747.933 424.574H739.517C738.971 424.574 738.543 424.132 738.543 423.6V415.189C738.543 414.643 738.986 414.215 739.517 414.215H747.933C748.48 414.215 748.908 414.658 748.908 415.189V423.6C748.908 424.132 748.465 424.574 747.933 424.574Z" fill="#DEE3FC"/>
<path d="M78.695 418.893H70.2792C69.7329 418.893 69.3047 418.45 69.3047 417.919V409.508C69.3047 408.962 69.7476 408.534 70.2792 408.534H78.695C79.2413 408.534 79.6695 408.976 79.6695 409.508V417.919C79.6842 418.45 79.2413 418.893 78.695 418.893Z" fill="#DEE3FC"/>
<path d="M92.5739 418.893H84.1581C83.6118 418.893 83.1836 418.45 83.1836 417.919V409.508C83.1836 408.962 83.6265 408.534 84.1581 408.534H92.5739C93.1202 408.534 93.5484 408.976 93.5484 409.508V417.919C93.5632 418.45 93.1202 418.893 92.5739 418.893Z" fill="#DEE3FC"/>
<path d="M106.453 418.893H98.037C97.4907 418.893 97.0625 418.45 97.0625 417.919V409.508C97.0625 408.962 97.5054 408.534 98.037 408.534H106.453C106.999 408.534 107.427 408.976 107.427 409.508V417.919C107.427 418.45 106.999 418.893 106.453 418.893Z" fill="#DEE3FC"/>
<path d="M454.766 507.992H255C237.593 507.992 223.478 493.885 223.478 476.487V32.0808C223.478 14.6829 237.593 0.575684 255 0.575684H454.766C472.173 0.575684 486.288 14.6829 486.288 32.0808V476.487C486.288 493.9 472.173 507.992 454.766 507.992Z" fill="#3945BA"/>
<path d="M453.747 500.791H256.004C240.753 500.791 228.395 488.44 228.395 473.197V32.6269C228.395 17.3834 240.753 5.03223 256.004 5.03223H453.747C468.999 5.03223 481.357 17.3834 481.357 32.6269V473.197C481.357 488.44 468.999 500.791 453.747 500.791Z" fill="white"/>
<path d="M470.284 31.756V471.824C470.284 482.139 461.912 490.506 451.591 490.506H258.16C247.839 490.506 239.468 482.139 239.468 471.824V31.756C239.468 21.4412 247.839 13.0742 258.16 13.0742H290.421C292.207 13.0742 293.846 14.0777 294.643 15.6861L298.069 22.5184C299.634 25.6763 302.852 27.6537 306.352 27.6537H403.385C406.884 27.6537 410.103 25.6763 411.668 22.5184L415.093 15.6861C415.891 14.0924 417.529 13.0742 419.316 13.0742H451.577C461.912 13.0595 470.284 21.4264 470.284 31.756Z" fill="#DEE3FC"/>
<path d="M395.604 19.641H317.44C315.624 19.641 314.147 18.1653 314.147 16.3503C314.147 14.5352 315.624 13.0596 317.44 13.0596H395.589C397.405 13.0596 398.882 14.5352 398.882 16.3503C398.897 18.1653 397.42 19.641 395.604 19.641Z" fill="#DEE3FC"/>
<path d="M439.587 475.233H265.675C258.839 475.233 253.302 469.699 253.302 462.867V401.495C253.302 394.663 258.839 389.129 265.675 389.129H439.587C446.423 389.129 451.96 394.663 451.96 401.495V462.867C451.96 469.699 446.409 475.233 439.587 475.233Z" stroke="#698BD1" stroke-miterlimit="10" stroke-linecap="round" stroke-linejoin="round" stroke-dasharray="2.84 2.84"/>
<path d="M430.774 263.935H344.504C339.572 263.935 335.586 259.936 335.586 255.022V212.405C335.586 207.476 339.587 203.492 344.504 203.492H430.774C435.705 203.492 439.692 207.491 439.692 212.405V255.022C439.692 259.951 435.69 263.935 430.774 263.935Z" stroke="#698BD1" stroke-miterlimit="10" stroke-linecap="round" stroke-linejoin="round" stroke-dasharray="2.84 2.84"/>
<path d="M449.346 374.8H271.167C265.29 374.8 260.536 370.049 260.536 364.176V289.065C260.536 283.192 265.29 278.44 271.167 278.44H449.346C455.223 278.44 459.977 283.192 459.977 289.065V364.176C459.977 370.049 455.208 374.8 449.346 374.8Z" fill="#4B5A9B"/>
<path d="M451.96 281.259V356.414C451.96 362.272 447.206 367.009 441.344 367.009H263.918C258.056 367.009 253.302 362.272 253.302 356.414V281.259C253.302 275.401 258.056 270.649 263.918 270.649H441.344C447.206 270.649 451.96 275.401 451.96 281.259Z" fill="#7F95F4"/>
<path d="M321.928 359.173H269.661C265.704 359.173 262.485 355.956 262.485 352.001V299.763C262.485 295.809 265.704 292.592 269.661 292.592H321.928C325.885 292.592 329.103 295.809 329.103 299.763V352.001C329.103 355.956 325.885 359.173 321.928 359.173Z" fill="white"/>
<path d="M383.866 301.003H337.829C336.574 301.003 335.556 299.985 335.556 298.731C335.556 297.476 336.574 296.458 337.829 296.458H383.866C385.121 296.458 386.139 297.476 386.139 298.731C386.139 300 385.121 301.003 383.866 301.003Z" fill="#B2C1F9"/>
<path d="M362.9 310.049H337.844C336.589 310.049 335.57 309.031 335.57 307.776C335.57 306.522 336.589 305.504 337.844 305.504H362.9C364.155 305.504 365.173 306.522 365.173 307.776C365.159 309.045 364.14 310.049 362.9 310.049Z" fill="#B2C1F9"/>
<path d="M439.912 310.049H372.113C370.858 310.049 369.839 309.031 369.839 307.776C369.839 306.522 370.858 305.504 372.113 305.504H439.912C441.167 305.504 442.186 306.522 442.186 307.776C442.186 309.045 441.167 310.049 439.912 310.049Z" fill="#B2C1F9"/>
<path d="M376.601 319.094H337.829C336.574 319.094 335.556 318.076 335.556 316.822C335.556 315.568 336.574 314.549 337.829 314.549H376.601C377.856 314.549 378.875 315.568 378.875 316.822C378.875 318.076 377.856 319.094 376.601 319.094Z" fill="#B2C1F9"/>
<path d="M409.511 319.094H385.135C383.88 319.094 382.876 318.076 382.876 316.822C382.876 315.568 383.895 314.549 385.135 314.549H409.511C410.766 314.549 411.785 315.568 411.785 316.822C411.785 318.076 410.766 319.094 409.511 319.094Z" fill="#B2C1F9"/>
<path d="M439.912 319.094H417.47C416.215 319.094 415.196 318.076 415.196 316.822C415.196 315.568 416.215 314.549 417.47 314.549H439.912C441.167 314.549 442.186 315.568 442.186 316.822C442.186 318.076 441.167 319.094 439.912 319.094Z" fill="#B2C1F9"/>
<path d="M439.912 328.14H337.829C336.574 328.14 335.556 327.122 335.556 325.868C335.556 324.613 336.574 323.595 337.829 323.595H439.912C441.167 323.595 442.186 324.613 442.186 325.868C442.186 327.122 441.167 328.14 439.912 328.14Z" fill="#B2C1F9"/>
<path d="M394.024 337.186H337.844C336.589 337.186 335.57 336.168 335.57 334.914C335.57 333.659 336.589 332.641 337.844 332.641H394.024C395.279 332.641 396.297 333.659 396.297 334.914C396.283 336.168 395.264 337.186 394.024 337.186Z" fill="#B2C1F9"/>
<path d="M439.912 337.186H403.075C401.82 337.186 400.801 336.168 400.801 334.914C400.801 333.659 401.82 332.641 403.075 332.641H439.912C441.167 332.641 442.186 333.659 442.186 334.914C442.186 336.168 441.167 337.186 439.912 337.186Z" fill="#B2C1F9"/>
<path d="M370.843 346.232H337.829C336.574 346.232 335.556 345.213 335.556 343.959C335.556 342.705 336.574 341.687 337.829 341.687H370.843C372.098 341.687 373.117 342.705 373.117 343.959C373.117 345.213 372.098 346.232 370.843 346.232Z" fill="#B2C1F9"/>
<path d="M412.789 346.232H379.776C378.521 346.232 377.502 345.213 377.502 343.959C377.502 342.705 378.521 341.687 379.776 341.687H412.789C414.044 341.687 415.063 342.705 415.063 343.959C415.063 345.213 414.044 346.232 412.789 346.232Z" fill="#B2C1F9"/>
<path d="M439.912 346.232H420.762C419.507 346.232 418.488 345.213 418.488 343.959C418.488 342.705 419.507 341.687 420.762 341.687H439.912C441.167 341.687 442.186 342.705 442.186 343.959C442.186 345.213 441.167 346.232 439.912 346.232Z" fill="#B2C1F9"/>
<path d="M383.866 355.277H337.829C336.574 355.277 335.556 354.259 335.556 353.005C335.556 351.751 336.574 350.732 337.829 350.732H383.866C385.121 350.732 386.139 351.751 386.139 353.005C386.139 354.259 385.121 355.277 383.866 355.277Z" fill="#B2C1F9"/>
<path d="M439.912 301.003H393.876C392.621 301.003 391.603 299.985 391.603 298.731C391.603 297.476 392.621 296.458 393.876 296.458H439.912C441.167 296.458 442.186 297.476 442.186 298.731C442.186 300 441.167 301.003 439.912 301.003Z" fill="#B2C1F9"/>
<path d="M451.96 281.259V284.417H253.302V281.259C253.302 275.401 258.056 270.649 263.918 270.649H441.344C447.206 270.649 451.96 275.401 451.96 281.259Z" fill="#3052CE"/>
<path d="M414.503 277.776C414.503 279.134 413.395 280.241 412.037 280.241C410.679 280.241 409.571 279.134 409.571 277.776C409.571 276.419 410.679 275.312 412.037 275.312C413.395 275.312 414.503 276.419 414.503 277.776Z" fill="#DEE3FC"/>
<path d="M427.096 277.776C427.096 279.134 425.989 280.241 424.631 280.241C423.272 280.241 422.165 279.134 422.165 277.776C422.165 276.419 423.272 275.312 424.631 275.312C425.989 275.312 427.096 276.419 427.096 277.776Z" fill="#DEE3FC"/>
<path d="M439.691 277.776C439.691 279.134 438.584 280.241 437.225 280.241C435.867 280.241 434.76 279.134 434.76 277.776C434.76 276.419 435.867 275.312 437.225 275.312C438.584 275.312 439.691 276.419 439.691 277.776Z" fill="#DEE3FC"/>
<path d="M314.797 263.935H275.479C269.647 263.935 264.922 259.213 264.922 253.384V214.088C264.922 208.259 269.647 203.537 275.479 203.537H314.797C320.629 203.537 325.354 208.259 325.354 214.088V253.384C325.354 259.213 320.629 263.935 314.797 263.935Z" stroke="#495AD6" stroke-width="0.8956" stroke-miterlimit="10"/>
<path d="M285.71 225.007L277.014 233.699L285.784 242.479" stroke="#495AD6" stroke-width="1.6716" stroke-miterlimit="10" stroke-linecap="round" stroke-linejoin="round"/>
<path d="M304.565 225.007L313.276 233.699L304.506 242.479" stroke="#495AD6" stroke-width="1.6716" stroke-miterlimit="10" stroke-linecap="round" stroke-linejoin="round"/>
<path d="M299.219 225.007L291.069 242.479" stroke="#495AD6" stroke-width="1.6716" stroke-miterlimit="10" stroke-linecap="round" stroke-linejoin="round"/>
<path d="M451.96 56.1191V178.996C451.96 185.666 446.556 191.067 439.883 191.067H265.379C258.72 191.067 253.302 185.666 253.302 178.996V56.1191C253.302 49.4492 258.72 44.0483 265.379 44.0483H439.883C446.556 44.0483 451.96 49.4492 451.96 56.1191Z" fill="#B2C1F9"/>
<path d="M411.727 111.648C427.627 111.648 440.518 98.7649 440.518 82.8728C440.518 66.9807 427.627 54.0977 411.727 54.0977C395.826 54.0977 382.936 66.9807 382.936 82.8728C382.936 98.7649 395.826 111.648 411.727 111.648Z" fill="#F0F4FF"/>
<path d="M370.075 191.067H265.379C258.72 191.067 253.302 185.666 253.302 178.996V159.651L299.116 80.3345C301.508 76.188 307.503 76.188 309.895 80.3345L344.488 140.216L370.179 184.692C371.419 186.817 371.227 189.237 370.075 191.067Z" fill="white"/>
<path d="M415.226 191.067H315.106L344.488 140.217L360.316 112.814C362.471 109.08 367.861 109.08 370.016 112.814L415.226 191.067Z" fill="#F0F4FF"/>
<path d="M613.812 419.395H536.622V535.322H613.812V419.395Z" fill="#3B47BC"/>
<path d="M613.805 535.313H643.364V419.386H613.805V535.313Z" fill="#495AD6"/>
<path d="M639.738 423.836H618.034V427.54H639.738V423.836Z" fill="#B2C1F9"/>
<path d="M639.738 431.79H618.034V435.493H639.738V431.79Z" fill="#B2C1F9"/>
<path d="M639.738 439.744H618.034V443.448H639.738V439.744Z" fill="#B2C1F9"/>
<path d="M639.738 447.683H618.034V451.387H639.738V447.683Z" fill="#B2C1F9"/>
<path d="M639.738 455.636H618.034V459.34H639.738V455.636Z" fill="#B2C1F9"/>
<path d="M639.738 463.575H618.034V467.279H639.738V463.575Z" fill="#B2C1F9"/>
<path d="M639.738 471.529H618.034V475.233H639.738V471.529Z" fill="#B2C1F9"/>
<path d="M639.738 479.482H618.034V483.186H639.738V479.482Z" fill="#B2C1F9"/>
<path d="M639.738 487.422H618.034V491.126H639.738V487.422Z" fill="#B2C1F9"/>
<path d="M639.738 495.375H618.034V499.079H639.738V495.375Z" fill="#B2C1F9"/>
<path d="M639.738 503.329H618.034V507.033H639.738V503.329Z" fill="#B2C1F9"/>
<path d="M639.738 511.268H618.034V514.972H639.738V511.268Z" fill="#B2C1F9"/>
<path d="M639.738 519.222H618.034V522.926H639.738V519.222Z" fill="#B2C1F9"/>
<path d="M639.738 527.161H618.034V530.865H639.738V527.161Z" fill="#B2C1F9"/>
<path d="M524.087 535.321H563.316C563.316 535.321 565.502 528.342 560.762 519.694C560.762 519.694 557.602 522.218 548.153 520.506C548.153 520.506 544.211 523.856 541.479 525.169C538.718 526.497 523.024 529.566 524.087 535.321Z" fill="#281616"/>
<path d="M526.818 424.766C529.357 439.876 541.036 490.993 546.071 521.185C555.254 521.967 559.669 520.919 562.002 520.373C561.544 509.837 560.643 484.648 560.747 473.61C560.924 454.943 561.795 430.329 553.571 416.812L525.917 418.981C526.079 420.442 526.242 421.623 526.375 422.478C526.508 423.305 526.67 424.057 526.818 424.766Z" fill="#002C54"/>
<path d="M453.128 535.321H492.357C492.357 535.321 494.542 528.342 489.803 519.694C489.803 519.694 486.643 522.218 477.194 520.506C477.194 520.506 473.252 523.856 470.52 525.169C467.774 526.497 452.065 529.566 453.128 535.321Z" fill="#281616"/>
<path d="M476.042 520.314C483.542 522.173 488.961 521.982 491.53 521.701C493.612 509.557 496.904 482.862 499.872 470.334C504.479 450.87 508.982 424.117 505.852 414.569L478.655 407.737C478.567 408.607 476.352 490.506 476.042 520.314Z" fill="#052635"/>
<path d="M584.282 379.877C583.736 374.505 583.101 370.58 583.101 370.58L552.716 378.017L526.907 383.89C517.339 386.015 505.779 388.583 495.591 390.885C484.149 393.482 476.559 402.159 479.069 413.61L481.934 427.496C497.924 427.275 573.135 420.073 579.558 416.827C586.837 413.153 589.022 400.196 584.282 379.877Z" fill="#052635"/>
<path d="M629.653 379.876C629.107 374.505 626.479 368.735 626.479 368.735L598.087 378.002L572.278 383.876C562.711 386 551.15 388.568 540.962 390.87C529.52 393.467 521.931 402.144 524.441 413.595L527.305 427.481C543.295 427.26 610.149 424.928 624.929 416.812C632.06 412.902 634.378 400.196 629.653 379.876Z" fill="#002C54"/>
<path d="M544.595 336.36C544.595 336.36 558.09 330.265 561.81 336.374C563.848 339.724 562.43 345.936 557.839 348.548C553.232 351.16 527.231 362.154 502.678 368.278C502.678 368.278 501.63 364.869 499.932 361.283C499.932 361.283 510.946 356.723 521.887 349.035C532.842 341.332 544.595 336.36 544.595 336.36Z" fill="#E5918F"/>
<path d="M547.976 294.23L536.415 340.403C536.415 340.403 537.611 352.075 549.408 346.35C561.205 340.624 569.015 303.836 569.015 303.836L547.976 294.23Z" fill="#E5918F"/>
<path d="M567.539 320.054C566.107 319.714 564.748 319.331 563.42 318.932C562.076 318.534 560.791 318.121 559.566 317.693C548.581 313.93 542.631 309.4 542.631 309.4C546.086 294.392 550.249 284.299 553.955 277.658C554.059 277.496 554.147 277.348 554.236 277.171C554.339 277.009 554.428 276.847 554.531 276.684C556.524 273.379 559.389 270.605 562.578 268.317C562.903 268.081 563.213 267.875 563.552 267.639L564.911 291.751L565.147 294.23L567.539 320.054Z" fill="white"/>
<path d="M567.539 320.054C566.107 319.714 564.749 319.331 563.42 318.932C562.076 318.534 560.792 318.121 559.566 317.693C561.87 301.461 563.966 291.249 563.966 291.249L565.147 294.23L567.539 320.054Z" fill="#C7E5F2"/>
<path d="M635.826 278.366C635.545 285.509 634.29 296.96 633.212 308.47C632.873 312.114 632.533 315.789 632.253 319.316C632.061 321.514 628.739 333.275 628.606 335.385C628.015 345.449 623.084 352.975 627.749 368.307C628.871 371.982 629.152 373.87 629.152 375.376C629.152 376.423 627.794 377.53 627.247 377.825C625.284 378.961 621.445 379.744 616.764 380.319H616.75C607.551 381.441 595.149 381.647 587.663 381.647C577.609 381.647 562.519 380.053 560.614 377.515C558.872 375.199 560.482 371.819 561.308 367.171C565.014 346.172 563.7 335.223 563.464 320.053C563.464 319.67 563.449 319.301 563.449 318.902C563.065 295.513 561.53 275.504 562.608 268.288C562.933 268.052 563.243 267.845 563.582 267.609C565.177 266.517 566.742 265.558 568.248 264.702C568.381 264.643 568.543 264.54 568.705 264.436C569.163 264.171 569.65 263.92 570.093 263.684C570.256 263.58 570.433 263.507 570.625 263.418C574.036 261.751 578.996 259.98 581.846 258.991C582.215 258.873 582.54 258.755 582.82 258.681C585.508 258.519 588.416 258.489 591.561 258.563C594.293 258.652 598.471 259.006 603.019 259.596C603.033 259.596 603.033 259.596 603.033 259.596C608.171 260.26 613.782 261.219 618.241 262.444C618.241 262.444 618.285 262.459 618.33 262.474C619.171 262.739 624.619 264.776 630.289 270.841C632.134 272.892 634.083 275.356 635.826 278.366Z" fill="white"/>
<path d="M627.749 368.322C628.871 371.997 629.152 373.885 629.152 375.391C629.152 376.438 627.793 377.545 627.247 377.84C625.283 378.976 621.445 379.759 616.764 380.334C618.684 380.098 622.006 377.058 622.006 374.299C622.006 372.366 619.51 359.35 620.19 350.954C620.884 342.572 622.242 329.218 619.643 318.519C617.03 307.835 614.579 293.772 614.579 293.772L629.24 302.626C629.24 302.626 631.13 305.268 633.212 308.485C632.873 312.13 632.533 315.804 632.252 319.331C632.061 321.529 623.069 352.99 627.749 368.322Z" fill="#C7E5F2"/>
<path d="M563.257 216.566C563.257 216.566 564.527 231.884 569.606 232.917C574.685 233.95 573.444 227.442 573.444 227.442L572.736 220.167L563.257 216.566Z" fill="#002C54"/>
<path d="M586.689 272.11C576.737 270.929 580.458 261.264 581.816 259.036C582.185 258.917 583.883 258.401 584.016 258.312C584.031 258.298 584.046 258.298 584.046 258.298C584.371 258.032 584.622 257.634 584.813 257.147C585.788 254.594 585.345 249.518 585.301 249.193C585.301 249.178 585.301 249.178 585.301 249.178V248.263C585.463 247.658 585.626 247.083 585.758 246.537L590.985 242.42L602.059 233.713C602.059 233.713 599.12 248.263 601.483 257.442C601.66 258.135 602.029 259.109 602.945 259.641C602.945 259.655 602.959 259.641 602.959 259.641C603.255 259.832 603.624 259.965 604.067 260.039C606.813 261.308 603.033 274.043 586.689 272.11Z" fill="#E5918F"/>
<path d="M595.473 242.951C595.473 242.951 595.385 252.661 584.828 257.132C585.803 254.594 585.36 249.518 585.33 249.193L589.745 245.725L595.473 242.951Z" fill="#CC6362"/>
<path d="M565.678 218.75C565.678 218.75 567.981 250.55 576.574 253.251C576.574 253.251 587.515 254.284 595.369 243.718C597.628 240.678 600.493 239.985 601.423 236.31C602.944 230.334 605.085 219.326 602.353 212.685C598.47 203.241 566.047 195.73 565.678 218.75Z" fill="#E5918F"/>
<path d="M602.486 207.447C602.339 201.677 596.492 199.508 596.492 199.508C590.675 196.778 578.568 197.958 566.092 200.747C563.168 201.397 559.492 199.611 557.454 201.028C554.989 202.74 557.439 210.561 557.439 210.561C562.253 225.125 579.956 220.388 585.286 218.588C586.555 222.336 586.393 227.545 589.538 230.246C591.339 231.78 594.454 231.825 597.644 231.293C598.028 232.031 599.504 232.695 599.799 233.713C600.803 237.122 600.656 242.449 600.626 246.552L602.132 245.814C602.339 244.692 617.871 207.919 602.486 207.447Z" fill="#002C54"/>
<path d="M574.493 229.449C574.936 232.09 573.637 234.51 571.584 234.864C569.532 235.218 567.494 233.359 567.051 230.718C566.609 228.076 567.908 225.656 569.96 225.302C572.012 224.963 574.05 226.807 574.493 229.449Z" stroke="white" stroke-width="0.501" stroke-miterlimit="10"/>
<path d="M584.873 227.516C585.316 230.157 584.016 232.577 581.964 232.931C579.912 233.285 577.874 231.426 577.431 228.785C576.988 226.143 578.288 223.723 580.34 223.369C582.392 223.015 584.43 224.874 584.873 227.516Z" stroke="white" stroke-width="0.501" stroke-miterlimit="10"/>
<path d="M574.493 229.449C574.493 229.449 574.951 228.711 577.343 228.917" stroke="white" stroke-width="0.501" stroke-miterlimit="10"/>
<path d="M584.961 228.15L593.834 226.733" stroke="white" stroke-width="0.501" stroke-miterlimit="10"/>
<path d="M594.484 237.993C600.596 240.339 602.501 225.302 596.698 224.638C592.299 224.136 592.121 230.275 592.121 230.275C592.121 230.275 590.999 236.65 594.484 237.993Z" fill="#E5918F"/>
<g opacity="0.5">
<g opacity="0.5">
<path opacity="0.5" d="M596.506 226.896C596.506 226.896 596.108 227.309 595.753 227.973C595.384 228.637 595.074 229.552 595.015 230.541C594.956 231.028 594.971 231.53 595 232.002C595.015 232.474 595.074 232.931 595.104 233.315C595.148 233.713 595.178 234.053 595.207 234.289C595.237 234.525 595.237 234.673 595.237 234.673C595.237 234.673 595.148 234.569 595.015 234.363C594.897 234.156 594.676 233.876 594.513 233.492C594.336 233.108 594.159 232.651 594.07 232.135C593.952 231.618 593.923 231.043 593.967 230.452C594.026 229.877 594.174 229.301 594.41 228.8C594.646 228.298 594.986 227.899 595.296 227.604C595.931 227.014 596.506 226.896 596.506 226.896Z" fill="#CC6362"/>
</g>
<g opacity="0.5">
<path opacity="0.5" d="M597.451 229.744C597.451 229.744 597.2 229.774 596.86 229.906C596.521 230.024 596.093 230.275 595.783 230.585C595.458 230.91 595.251 231.293 595.148 231.603C595.03 231.913 595 232.12 595 232.12L593.996 231.766C593.996 231.766 594.114 231.515 594.365 231.175C594.601 230.836 595 230.423 595.473 230.157C595.945 229.892 596.462 229.759 596.846 229.744C597.215 229.715 597.451 229.744 597.451 229.744Z" fill="#CC6362"/>
</g>
</g>
<path d="M653.233 342.439C653.233 342.439 653.233 342.439 653.233 342.454C650.546 345.568 640.358 347.84 635.456 343.531C633.921 342.159 632.179 338.544 630.466 334.058C626.125 322.592 622.006 305.43 622.006 305.43L644.817 293.787C644.817 293.787 647.755 306.935 650.28 319.434C650.28 319.434 650.31 319.567 650.354 319.788C651.181 323.787 651.948 327.727 652.539 331.106C652.569 331.195 652.569 331.283 652.583 331.372C653.174 335.386 653.558 339.591 653.233 342.439Z" fill="#E5918F"/>
<path d="M613.383 289.463C615.583 298.612 622.507 315.966 622.507 315.966C627.35 316.763 633.861 315.877 639.25 313.944C645.466 311.716 649.911 307.024 649.911 307.024C649.911 307.024 645.319 294.126 641.199 284.859C637.508 276.537 635.279 273.438 633.684 271.785C631.278 269.262 627.38 266.369 624.633 265.056L613.383 289.463Z" fill="white"/>
<path d="M642.233 295.44L628.856 289.67L618.314 262.518C618.314 262.518 620.249 263.108 622.788 264.127C622.788 264.127 622.788 264.127 622.803 264.127C622.847 264.156 622.965 264.186 623.142 264.259C623.202 264.289 623.275 264.304 623.334 264.348C625.608 265.41 634.423 270.605 640.535 289.478C640.579 289.641 640.638 289.803 640.683 289.95C641.332 292.12 641.805 293.876 642.071 294.776C642.1 294.864 642.115 294.953 642.145 295.041C642.174 295.189 642.189 295.322 642.233 295.44Z" fill="white"/>
<path d="M653.234 342.439C653.234 342.439 653.234 342.439 653.234 342.454C653.042 344.122 652.584 345.317 651.757 345.745C651.624 345.833 649.749 346.94 649.616 347.029C646.826 348.726 641.776 351.633 635.486 354.333C620.235 360.914 598.073 368.558 586.128 372.056C586.128 372.056 584.947 368.676 583.102 365.164C583.102 365.164 593.909 360.147 604.525 352.016C615.156 343.9 630.467 334.043 630.467 334.043L634.335 329.498C634.335 329.498 648.066 316.866 650.281 319.404C650.281 319.404 650.31 319.537 650.354 319.759C650.679 321.072 651.772 325.927 652.54 331.077C652.569 331.165 652.569 331.254 652.584 331.342C653.174 335.386 653.558 339.591 653.234 342.439Z" fill="#E5918F"/>
<path d="M584.681 364.397C584.681 364.397 581.994 366.02 579.262 365.445C577.742 365.12 577.136 364.515 576.014 364.309C574.892 364.117 571.91 363.748 570.433 363.025C568.957 362.302 568.381 362.213 568.44 363.704C568.499 365.179 571.408 366.463 572.19 366.876C572.987 367.289 573.977 368.603 574.08 368.765C574.183 368.927 569.222 371.524 567.894 370.993C567.894 370.993 567.495 372.189 567.716 372.853C567.938 373.517 568.957 373.753 569.045 374.092C569.119 374.431 568.809 375.11 569.03 375.642C569.252 376.173 570.167 376.173 570.536 377.043C570.906 377.914 570.507 377.914 570.773 378.829C571.038 379.729 572.19 379.891 572.412 380.349C572.633 380.806 572.515 381.352 573.002 381.677C573.489 382.002 577.948 380.57 579.572 379.862C581.196 379.168 585.552 372.897 590.365 370.772L584.681 364.397Z" fill="#E5918F"/>
<path d="M607.477 392.346H572.78V388.952H607.477C608.407 388.952 609.175 389.704 609.175 390.649C609.175 391.593 608.407 392.346 607.477 392.346Z" fill="#375F84"/>
<path d="M588.696 392.346H501.836C500.802 392.346 499.887 391.652 499.606 390.649L481.83 326.679C481.431 325.263 482.509 323.861 483.971 323.861H567.967C569.93 323.861 571.643 325.159 572.16 327.048L589.877 390.782C590.099 391.578 589.508 392.346 588.696 392.346Z" fill="#375F84"/>
<path d="M585.566 392.346H498.706C497.672 392.346 496.757 391.652 496.477 390.649L478.7 326.679C478.301 325.263 479.379 323.861 480.841 323.861H564.837C566.801 323.861 568.513 325.159 569.03 327.048L586.748 390.782C586.954 391.578 586.364 392.346 585.566 392.346Z" fill="#467CDB"/>
<path d="M241.284 351.013L251.354 340.698C251.354 340.698 251.708 336.094 252.254 335.135C252.801 334.161 254.218 330.575 254.927 330.177C255.635 329.779 257.038 330.177 257.038 330.177C257.038 330.177 258.441 329.705 259.061 329.705C259.681 329.705 260.862 330.28 260.862 330.28C260.862 330.28 262.368 330.177 262.988 330.177C263.608 330.177 263.815 330.354 263.815 330.354C263.815 330.354 266.236 327.565 267.418 326.621C268.599 325.676 270.385 323.95 270.917 323.964C271.419 323.964 271.64 324.85 271.271 325.794C270.902 326.739 269.307 328.244 269.307 328.244L264.73 335.194C264.73 335.194 265.513 334.884 265.926 334.619C266.34 334.353 269.145 331.741 269.307 331.638C269.47 331.535 270.725 330.693 271.463 331.535C272.201 332.376 266.665 338.987 265.779 339.887C264.893 340.772 259.814 343.354 259.814 343.354C259.814 343.354 254.439 353.005 253.923 353.625C253.406 354.245 241.284 351.013 241.284 351.013Z" fill="#E49191"/>
<path d="M250.749 303.423C250.749 303.423 245.123 335.961 239.837 336.714C239.837 336.714 218.724 337.57 214.014 311.952C209.939 289.744 226.298 285.007 233.961 286.704C241.609 288.416 252.402 289.523 250.749 303.423Z" fill="#E49191"/>
<path d="M232.086 331.52C232.086 331.52 229.134 335.504 228.085 345.155C228.085 345.155 219.285 346.409 211.18 342.233C211.18 342.233 215.55 328.613 216.082 313.827" fill="#E49191"/>
<path d="M226.136 281.274C214.59 283.827 215.52 291.013 215.52 291.013C210.116 292.356 208.95 294.584 208.994 304.545C209.039 314.52 212.641 326.488 214.634 327.462C216.628 328.436 227.908 328.48 228.853 328.141C229.798 327.801 233.74 318.652 232.824 317.044C231.909 315.435 232.869 309.105 235.497 308.869C238.125 308.632 237.608 312.705 237.608 312.705L239.764 312.233L241.432 308.145C256.684 309.046 260.626 291.677 260.626 291.677C256.965 289.287 237.667 278.721 226.136 281.274Z" fill="#002C54"/>
<path d="M98.0086 501.559L109.673 503.241L105.804 516.861L93.1658 513.674C93.1658 513.674 88.0277 506.709 95.7939 501.559C96.1778 501.323 97.4033 501.426 98.0086 501.559Z" fill="#E5918F"/>
<path d="M185.119 466.586L167.919 414.54C167.919 414.54 162.707 412.68 160.034 414.54C160.034 414.54 142.11 424.176 144.029 451.623C145.476 472.326 149.847 494.771 151.618 503.772L105.73 502.075C105.73 502.075 100.075 508.804 103.737 517.555C103.737 517.555 161.407 533.049 169.528 534.481C176.128 535.646 183.362 536.546 186.847 533.551C192.974 528.298 185.119 466.586 185.119 466.586Z" fill="black"/>
<path d="M152.343 501.559L164.007 503.241L160.138 516.861L147.5 513.674C147.5 513.674 142.362 506.709 150.128 501.559C150.512 501.323 151.737 501.426 152.343 501.559Z" fill="#E5918F"/>
<path d="M148.12 508.701C147.854 511.386 150.202 513.792 149.773 514.471C149.345 515.135 141.505 528.297 141.505 528.297C141.505 528.297 147.426 530.88 146.466 534.598H131.465C131.465 534.598 127.553 531.072 127.641 526.01C127.641 526.01 128.66 520.181 131.332 515.031C134.005 509.881 140.088 498.238 140.088 498.238C140.088 498.238 141.933 497.486 145.093 498.327C148.784 499.316 152.342 501.573 152.342 501.573C152.342 501.573 148.755 502.075 148.12 508.701Z" fill="#467CDB"/>
<path d="M268.259 522.631C264.553 508.819 229.724 449.867 217.927 433.944C193.713 423.438 167.919 414.525 167.919 414.525C157.244 417.078 151.988 438.563 158.041 452.892C162.19 462.72 188.53 487.451 204.668 502.016L159.902 501.957C159.902 501.957 154.631 509.837 159.414 517.319C159.414 517.319 233.858 534.23 240.384 535.189C246.91 536.148 261.571 535.189 261.571 535.189C261.571 535.189 271.375 534.259 268.259 522.631Z" fill="#002C54"/>
<path d="M93.7857 508.701C93.52 511.386 95.8675 513.792 95.4394 514.471C95.0112 515.135 87.1712 528.297 87.1712 528.297C87.1712 528.297 93.0918 530.88 92.1321 534.598H77.1312C77.1312 534.598 73.2186 531.072 73.3071 526.01C73.3071 526.01 74.3259 520.181 76.9983 515.031C79.6707 509.881 85.7537 498.238 85.7537 498.238C85.7537 498.238 87.5993 497.486 90.759 498.327C94.4501 499.316 98.0084 501.573 98.0084 501.573C98.0084 501.573 94.4206 502.075 93.7857 508.701Z" fill="#467CDB"/>
<path d="M324.306 340.993L300.299 383.197L283.098 366.064L268.865 387.24L272.999 389.217L271.508 390.457C271.508 390.457 304.684 406.601 308.671 403.044C312.642 399.488 331.172 345.789 331.172 345.789L324.306 340.993Z" fill="#E49191"/>
<path d="M286.169 368.765C286.169 368.765 281.636 387.875 272.571 396.935L249.375 388.111C249.375 388.111 238.612 406.202 228.085 420.074C224.039 425.43 222.696 432.971 217.941 433.959C217.646 433.856 217.366 433.767 217.07 433.694C204.181 429.828 185.164 433.93 169.469 428.101C152.135 421.652 155.502 418.022 155.502 418.022C155.502 418.022 166.014 399.09 171.979 379.036C174.637 370.167 176.482 361.948 177.708 355.529C179.908 344.166 189.017 335.283 200.504 333.733C200.637 333.718 200.755 333.689 200.888 333.674C214.029 332.007 248.43 336.065 255.119 338.928C261.807 341.79 286.169 368.765 286.169 368.765Z" fill="#467CDB"/>
<path d="M249.375 388.111C249.375 388.111 238.612 406.202 228.085 420.073C224.039 425.43 222.696 432.971 217.941 433.959C220.023 433.221 223.478 422.272 224.704 419.808C225.944 417.358 227.908 414.894 232.16 406.291C236.397 397.673 242.155 385.042 242.155 385.042L249.375 388.111Z" fill="#5996EF"/>
<path d="M204.668 502.016C204.668 502.016 205.037 501.928 205.672 501.854C206.322 501.78 207.237 501.647 208.344 501.603C210.559 501.485 213.527 501.574 216.465 501.972C217.927 502.179 219.388 502.444 220.747 502.784C222.105 503.108 223.345 503.477 224.394 503.861C225.442 504.215 226.283 504.613 226.889 504.879C227.479 505.145 227.804 505.322 227.804 505.322C227.804 505.322 227.435 505.277 226.8 505.174C226.165 505.041 225.25 504.923 224.172 504.731C222.002 504.363 219.137 503.905 216.258 503.521C214.826 503.3 213.379 503.138 212.021 502.961C210.662 502.784 209.393 502.636 208.315 502.488C206.13 502.223 204.668 502.016 204.668 502.016Z" fill="black"/>
<path d="M342.246 325.47C341.862 325.425 339.396 327.403 338.215 328.377L339.588 325.75C339.588 325.75 341.404 324.009 342.054 323.05C342.703 322.09 342.364 321.131 341.847 321.087C341.478 321.057 339.322 322.769 338.067 323.787L338.348 323.256C338.348 323.256 340.164 321.515 340.813 320.556C341.463 319.597 341.124 318.637 340.607 318.578C340.09 318.534 335.926 322.017 335.926 322.017L333.904 324.732L335.439 321.766C335.439 321.766 336.251 320.777 336.783 319.715C337.314 318.652 336.93 318.313 336.635 317.959C336.34 317.604 333.535 319.685 332.811 320.526C332.102 321.367 329.829 324.747 329.651 325.219L327.304 330.059C327.156 328.657 326.92 326.252 326.758 324.717C326.521 322.518 324.513 321.987 324.454 323.064C324.38 324.142 323.273 329.41 323.524 332.272C323.775 335.135 324.262 337.009 324.439 338.618C324.617 340.226 322.948 343.443 322.948 343.443C322.948 343.443 329.637 347.59 330.729 346.35C331.837 345.111 334.184 342.351 335.321 340.492C336.886 337.939 337.934 334.589 337.934 334.589L340.016 330.133C340.016 330.133 341.832 328.391 342.482 327.432C343.102 326.473 342.762 325.514 342.246 325.47Z" fill="#E49191"/>
<path d="M725.757 191.067H647.415C642.395 191.067 638.32 195.14 638.32 200.157V218.662C638.32 223.296 641.79 227.117 646.264 227.678C646.913 227.767 647.415 228.313 647.415 228.977V239.1C647.415 239.69 648.168 239.926 648.508 239.454L656.496 228.298C656.747 227.944 657.145 227.752 657.573 227.752H725.771C730.791 227.752 734.866 223.679 734.866 218.662V200.157C734.852 195.14 730.777 191.067 725.757 191.067Z" stroke="#DFE2F2" stroke-miterlimit="10"/>
<path d="M659.419 209.38C659.419 211.033 658.076 212.376 656.422 212.376C654.768 212.376 653.425 211.033 653.425 209.38C653.425 207.728 654.768 206.385 656.422 206.385C658.09 206.385 659.419 207.728 659.419 209.38Z" fill="#DEE3FC"/>
<path d="M674.494 209.38C674.494 211.033 673.151 212.376 671.497 212.376C669.844 212.376 668.5 211.033 668.5 209.38C668.5 207.728 669.844 206.385 671.497 206.385C673.166 206.385 674.494 207.728 674.494 209.38Z" fill="#DEE3FC"/>
<path d="M689.569 209.38C689.569 211.033 688.225 212.376 686.571 212.376C684.918 212.376 683.574 211.033 683.574 209.38C683.574 207.728 684.918 206.385 686.571 206.385C688.24 206.385 689.569 207.728 689.569 209.38Z" fill="#DEE3FC"/>
<path d="M704.644 209.38C704.644 211.033 703.3 212.376 701.647 212.376C699.993 212.376 698.649 211.033 698.649 209.38C698.649 207.728 699.993 206.385 701.647 206.385C703.315 206.385 704.644 207.728 704.644 209.38Z" fill="#DEE3FC"/>
<path d="M719.718 209.38C719.718 211.033 718.374 212.376 716.721 212.376C715.067 212.376 713.724 211.033 713.724 209.38C713.724 207.728 715.067 206.385 716.721 206.385C718.374 206.385 719.718 207.728 719.718 209.38Z" fill="#DEE3FC"/>
<path d="M106.675 272.169H185.016C190.036 272.169 194.111 276.242 194.111 281.259V299.764C194.111 304.397 190.642 308.219 186.168 308.78C185.518 308.868 185.016 309.414 185.016 310.078V320.201C185.016 320.792 184.263 321.028 183.924 320.555L175.936 309.4C175.685 309.045 175.286 308.854 174.858 308.854H106.675C101.655 308.854 97.5801 304.781 97.5801 299.764V281.259C97.5801 276.227 101.655 272.169 106.675 272.169Z" stroke="#DEE3FC" stroke-miterlimit="10"/>
<path d="M172.998 290.467C172.998 292.119 174.342 293.462 175.995 293.462C177.649 293.462 178.993 292.119 178.993 290.467C178.993 288.814 177.649 287.471 175.995 287.471C174.342 287.486 172.998 288.814 172.998 290.467Z" stroke="#DEE3FC" stroke-width="0.8956" stroke-miterlimit="10"/>
<path d="M157.924 290.467C157.924 292.119 159.267 293.462 160.921 293.462C162.575 293.462 163.918 292.119 163.918 290.467C163.918 288.814 162.575 287.471 160.921 287.471C159.267 287.486 157.924 288.814 157.924 290.467Z" stroke="#DEE3FC" stroke-width="0.8956" stroke-miterlimit="10"/>
<path d="M142.849 290.467C142.849 292.119 144.192 293.462 145.846 293.462C147.499 293.462 148.843 292.119 148.843 290.467C148.843 288.814 147.499 287.471 145.846 287.471C144.192 287.486 142.849 288.814 142.849 290.467Z" stroke="#DEE3FC" stroke-width="0.8956" stroke-miterlimit="10"/>
<path d="M127.773 290.467C127.773 292.119 129.117 293.462 130.771 293.462C132.424 293.462 133.768 292.119 133.768 290.467C133.768 288.814 132.424 287.471 130.771 287.471C129.117 287.486 127.773 288.814 127.773 290.467Z" stroke="#DEE3FC" stroke-width="0.8956" stroke-miterlimit="10"/>
<path d="M112.699 290.467C112.699 292.119 114.043 293.462 115.696 293.462C117.35 293.462 118.694 292.119 118.694 290.467C118.694 288.814 117.35 287.471 115.696 287.471C114.043 287.486 112.699 288.814 112.699 290.467Z" stroke="#DEE3FC" stroke-width="0.8956" stroke-miterlimit="10"/>
<path d="M363.521 536H327.598C321.309 536 316.215 530.909 316.215 524.623V488.735C316.215 482.449 321.309 477.358 327.598 477.358H363.521C369.811 477.358 374.904 482.449 374.904 488.735V524.638C374.89 530.909 369.796 536 363.521 536Z" fill="#193091"/>
<path d="M352.817 536H316.894C310.605 536 305.511 530.909 305.511 524.623V488.735C305.511 482.449 310.605 477.358 316.894 477.358H352.817C359.106 477.358 364.2 482.449 364.2 488.735V524.638C364.2 530.909 359.106 536 352.817 536Z" fill="#495AD6"/>
<path d="M327.924 495.612L344.77 505.336C345.804 505.941 345.804 507.432 344.77 508.037L327.924 517.761C326.89 518.366 325.591 517.614 325.591 516.418V496.984C325.591 495.759 326.89 495.007 327.924 495.612Z" fill="white"/>
<path d="M526.094 164.816H495.93C494.675 164.816 493.671 163.797 493.671 162.543C493.671 161.289 494.69 160.271 495.93 160.271H526.094C527.349 160.271 528.368 161.289 528.368 162.543C528.368 163.797 527.349 164.816 526.094 164.816Z" fill="#F0F4FF"/>
<path d="M556.273 164.816H534.451C533.196 164.816 532.177 163.797 532.177 162.543C532.177 161.289 533.196 160.271 534.451 160.271H556.273C557.528 160.271 558.546 161.289 558.546 162.543C558.532 163.797 557.528 164.816 556.273 164.816Z" fill="#F0F4FF"/>
<path d="M508.746 174.776H495.93C494.675 174.776 493.671 173.758 493.671 172.503C493.671 171.249 494.69 170.231 495.93 170.231H508.746C510.001 170.231 511.019 171.249 511.019 172.503C511.019 173.758 510.001 174.776 508.746 174.776Z" fill="#F0F4FF"/>
<path d="M556.273 174.776H516.365C515.11 174.776 514.091 173.758 514.091 172.503C514.091 171.249 515.11 170.231 516.365 170.231H556.273C557.528 170.231 558.547 171.249 558.547 172.503C558.532 173.758 557.528 174.776 556.273 174.776Z" fill="#F0F4FF"/>
<path d="M535.691 184.737H495.93C494.675 184.737 493.671 183.719 493.671 182.464C493.671 181.21 494.69 180.192 495.93 180.192H535.691C536.946 180.192 537.965 181.21 537.965 182.464C537.965 183.719 536.946 184.737 535.691 184.737Z" fill="#F0F4FF"/>
<path d="M556.273 184.737H543.457C542.202 184.737 541.184 183.719 541.184 182.464C541.184 181.21 542.202 180.192 543.457 180.192H556.273C557.528 180.192 558.547 181.21 558.547 182.464C558.532 183.719 557.528 184.737 556.273 184.737Z" fill="#F0F4FF"/>
<path d="M144.162 396.182H38.8608C35.7455 396.182 33.2207 393.659 33.2207 390.545V337.422C33.2207 334.309 35.7455 331.785 38.8608 331.785H144.162C147.278 331.785 149.802 334.309 149.802 337.422V390.545C149.802 393.659 147.278 396.182 144.162 396.182Z" fill="#193091"/>
<path d="M38.167 340.477H144.842" stroke="white" stroke-width="0.8956" stroke-miterlimit="10" stroke-linecap="round"/>
<path d="M142.037 337.348C142.754 337.348 143.336 336.767 143.336 336.05C143.336 335.332 142.754 334.751 142.037 334.751C141.319 334.751 140.737 335.332 140.737 336.05C140.737 336.767 141.319 337.348 142.037 337.348Z" fill="white"/>
<path d="M135.289 337.348C136.006 337.348 136.588 336.767 136.588 336.05C136.588 335.332 136.006 334.751 135.289 334.751C134.571 334.751 133.989 335.332 133.989 336.05C133.989 336.767 134.571 337.348 135.289 337.348Z" fill="white"/>
<path d="M128.556 337.348C129.274 337.348 129.855 336.767 129.855 336.05C129.855 335.332 129.274 334.751 128.556 334.751C127.839 334.751 127.257 335.332 127.257 336.05C127.257 336.767 127.839 337.348 128.556 337.348Z" fill="white"/>
<path d="M58.055 349.139H39.9535C38.9643 349.139 38.167 348.342 38.167 347.353C38.167 346.365 38.9643 345.568 39.9535 345.568H58.055C59.0442 345.568 59.8415 346.365 59.8415 347.353C59.8415 348.342 59.0442 349.139 58.055 349.139Z" fill="#6589D1"/>
<path d="M58.055 357.388H39.9535C38.9643 357.388 38.167 356.591 38.167 355.602C38.167 354.614 38.9643 353.817 39.9535 353.817H58.055C59.0442 353.817 59.8415 354.614 59.8415 355.602C59.8415 356.591 59.0442 357.388 58.055 357.388Z" fill="#6589D1"/>
<path d="M58.055 365.622H39.9535C38.9643 365.622 38.167 364.825 38.167 363.836C38.167 362.848 38.9643 362.051 39.9535 362.051H58.055C59.0442 362.051 59.8415 362.848 59.8415 363.836C59.8415 364.825 59.0442 365.622 58.055 365.622Z" fill="#6589D1"/>
<path d="M58.055 373.856H39.9535C38.9643 373.856 38.167 373.059 38.167 372.071C38.167 371.082 38.9643 370.285 39.9535 370.285H58.055C59.0442 370.285 59.8415 371.082 59.8415 372.071C59.8415 373.059 59.0442 373.856 58.055 373.856Z" fill="#6589D1"/>
<path d="M58.055 382.105H39.9535C38.9643 382.105 38.167 381.308 38.167 380.319C38.167 379.331 38.9643 378.534 39.9535 378.534H58.055C59.0442 378.534 59.8415 379.331 59.8415 380.319C59.8415 381.308 59.0442 382.105 58.055 382.105Z" fill="#6589D1"/>
<path d="M58.055 390.339H39.9535C38.9643 390.339 38.167 389.542 38.167 388.554C38.167 387.565 38.9643 386.768 39.9535 386.768H58.055C59.0442 386.768 59.8415 387.565 59.8415 388.554C59.8415 389.542 59.0442 390.339 58.055 390.339Z" fill="#6589D1"/>
<path d="M143.055 349.139H65.0531C64.0639 349.139 63.2666 348.342 63.2666 347.353C63.2666 346.365 64.0639 345.568 65.0531 345.568H143.055C144.044 345.568 144.841 346.365 144.841 347.353C144.841 348.342 144.044 349.139 143.055 349.139Z" fill="#3B5FB7"/>
<path d="M143.055 357.388H65.0531C64.0639 357.388 63.2666 356.591 63.2666 355.602C63.2666 354.614 64.0639 353.817 65.0531 353.817H143.055C144.044 353.817 144.841 354.614 144.841 355.602C144.841 356.591 144.044 357.388 143.055 357.388Z" fill="#3B5FB7"/>
<path d="M143.055 365.622H65.0531C64.0639 365.622 63.2666 364.825 63.2666 363.836C63.2666 362.848 64.0639 362.051 65.0531 362.051H143.055C144.044 362.051 144.841 362.848 144.841 363.836C144.841 364.825 144.044 365.622 143.055 365.622Z" fill="#3B5FB7"/>
<path d="M143.055 373.856H65.0531C64.0639 373.856 63.2666 373.059 63.2666 372.071C63.2666 371.082 64.0639 370.285 65.0531 370.285H143.055C144.044 370.285 144.841 371.082 144.841 372.071C144.841 373.059 144.044 373.856 143.055 373.856Z" fill="#3B5FB7"/>
<path d="M143.055 382.105H65.0531C64.0639 382.105 63.2666 381.308 63.2666 380.319C63.2666 379.331 64.0639 378.534 65.0531 378.534H143.055C144.044 378.534 144.841 379.331 144.841 380.319C144.841 381.308 144.044 382.105 143.055 382.105Z" fill="#3B5FB7"/>
<path d="M143.055 390.339H65.0531C64.0639 390.339 63.2666 389.542 63.2666 388.554C63.2666 387.565 64.0639 386.768 65.0531 386.768H143.055C144.044 386.768 144.841 387.565 144.841 388.554C144.841 389.542 144.044 390.339 143.055 390.339Z" fill="#3B5FB7"/>
<path d="M690.752 59.7156C696.928 33.9493 681.036 8.05708 655.256 1.88376C629.475 -4.28957 603.569 11.5937 597.392 37.3601C591.215 63.1264 607.107 89.0186 632.888 95.192C658.668 101.365 684.575 85.482 690.752 59.7156Z" stroke="#DEE3FC" stroke-width="0.7896" stroke-miterlimit="10"/>
<path d="M660.957 86.7072C682.031 77.3888 691.557 52.7604 682.233 31.6983C672.909 10.6362 648.267 1.1161 627.194 10.4346C606.12 19.753 596.594 44.3813 605.918 65.4435C615.242 86.5056 639.884 96.0257 660.957 86.7072Z" fill="#3945BA"/>
<path d="M647.859 48.5493C647.859 50.6447 646.161 52.3417 644.064 52.3417C641.967 52.3417 640.27 50.6447 640.27 48.5493C640.27 46.4538 641.967 44.7568 644.064 44.7568C646.161 44.7568 647.859 46.4538 647.859 48.5493Z" fill="white"/>
<path d="M643.651 47.7967C643.075 48.1213 642.352 47.9148 642.041 47.3393L629.772 25.2193C629.447 24.6438 629.654 23.9207 630.23 23.6108C630.806 23.2862 631.529 23.4928 631.839 24.0683L644.109 46.1882C644.433 46.7637 644.227 47.4868 643.651 47.7967Z" fill="white"/>
<path d="M644.669 49.1541C645.127 48.6967 645.88 48.6967 646.353 49.1541L656.968 59.764C657.426 60.2215 657.426 60.9741 656.968 61.4463C656.511 61.9037 655.758 61.9037 655.285 61.4463L644.669 50.8364C644.212 50.3642 644.212 49.6116 644.669 49.1541Z" fill="white"/>
<path d="M644.315 15.1699V10.374" stroke="white" stroke-width="2" stroke-miterlimit="10" stroke-linecap="round"/>
<path d="M677.462 48.7998H682.26" stroke="white" stroke-width="2" stroke-miterlimit="10" stroke-linecap="round"/>
<path d="M643.813 81.9282V86.7241" stroke="white" stroke-width="2" stroke-miterlimit="10" stroke-linecap="round"/>
<path d="M610.667 48.2983H605.868" stroke="white" stroke-width="2" stroke-miterlimit="10" stroke-linecap="round"/>
<g opacity="0.5">
<path opacity="0.5" d="M627.586 19.5084L625.194 15.3618" stroke="#DEE3FC" stroke-miterlimit="10" stroke-linecap="round"/>
<path opacity="0.5" d="M673.121 32.081L677.27 29.6904" stroke="#DEE3FC" stroke-miterlimit="10" stroke-linecap="round"/>
<path opacity="0.5" d="M660.541 77.5898L662.948 81.7364" stroke="#DEE3FC" stroke-miterlimit="10" stroke-linecap="round"/>
<path opacity="0.5" d="M615.022 65.0176L610.858 67.4229" stroke="#DEE3FC" stroke-miterlimit="10" stroke-linecap="round"/>
</g>
<g opacity="0.5">
<path opacity="0.5" d="M615.273 31.6381L611.109 29.2476" stroke="#DEE3FC" stroke-miterlimit="10" stroke-linecap="round"/>
<path opacity="0.5" d="M660.984 19.7741L663.391 15.6128" stroke="#DEE3FC" stroke-miterlimit="10" stroke-linecap="round"/>
<path opacity="0.5" d="M672.855 65.4604L677.019 67.851" stroke="#DEE3FC" stroke-miterlimit="10" stroke-linecap="round"/>
<path opacity="0.5" d="M627.144 77.3242L624.752 81.4855" stroke="#DEE3FC" stroke-miterlimit="10" stroke-linecap="round"/>
</g>
<path d="M711.554 385.056H680.533C675.941 385.056 672.221 381.338 672.221 376.748V345.745C672.221 341.156 675.941 337.437 680.533 337.437H711.554C716.146 337.437 719.866 341.156 719.866 345.745V376.748C719.866 381.338 716.146 385.056 711.554 385.056Z" fill="#193091"/>
<path d="M709.516 380.924H675.188C671.512 380.924 668.529 377.944 668.529 374.269V339.96C668.529 336.286 671.512 333.305 675.188 333.305H709.516C713.192 333.305 716.175 336.286 716.175 339.96V374.269C716.175 377.944 713.192 380.924 709.516 380.924Z" fill="#7E89FD" stroke="#DEE3FC" stroke-miterlimit="10"/>
<path d="M682.718 371.333C682.585 371.333 682.453 371.318 682.32 371.274C681.537 371.052 681.079 370.241 681.301 369.458L688.506 343.959C688.727 343.177 689.554 342.72 690.322 342.941C691.105 343.162 691.562 343.974 691.341 344.756L684.136 370.255C683.959 370.905 683.353 371.333 682.718 371.333Z" fill="white"/>
<path d="M694.766 371.333C694.633 371.333 694.5 371.318 694.368 371.274C693.585 371.052 693.127 370.241 693.349 369.458L700.554 343.959C700.775 343.177 701.602 342.72 702.37 342.941C703.153 343.162 703.61 343.974 703.389 344.756L696.184 370.255C696.006 370.905 695.416 371.333 694.766 371.333Z" fill="white"/>
<path d="M705.101 352.798H679.588C678.776 352.798 678.111 352.134 678.111 351.323C678.111 350.511 678.776 349.847 679.588 349.847H705.101C705.913 349.847 706.578 350.511 706.578 351.323C706.578 352.134 705.913 352.798 705.101 352.798Z" fill="white"/>
<path d="M705.101 364.456H679.588C678.776 364.456 678.111 363.792 678.111 362.981C678.111 362.169 678.776 361.505 679.588 361.505H705.101C705.913 361.505 706.578 362.169 706.578 362.981C706.578 363.792 705.913 364.456 705.101 364.456Z" fill="white"/>
<path d="M136.175 233.743H117.719C116.597 233.743 115.696 232.843 115.696 231.721C115.696 230.6 116.597 229.7 117.719 229.7H136.175C137.297 229.7 138.198 230.6 138.198 231.721C138.198 232.828 137.297 233.743 136.175 233.743Z" fill="#F0F4FF"/>
<path d="M154.764 242.715H117.719C116.597 242.715 115.696 241.815 115.696 240.694C115.696 239.572 116.597 238.672 117.719 238.672H154.764C155.886 238.672 156.786 239.572 156.786 240.694C156.786 241.815 155.886 242.715 154.764 242.715Z" fill="#F0F4FF"/>
<path d="M122.089 251.687H117.719C116.597 251.687 115.696 250.787 115.696 249.665C115.696 248.544 116.597 247.644 117.719 247.644H122.089C123.212 247.644 124.112 248.544 124.112 249.665C124.112 250.787 123.212 251.687 122.089 251.687Z" fill="#F0F4FF"/>
<path d="M154.764 251.687H128.97C127.848 251.687 126.947 250.787 126.947 249.665C126.947 248.544 127.848 247.644 128.97 247.644H154.764C155.886 247.644 156.787 248.544 156.787 249.665C156.787 250.787 155.886 251.687 154.764 251.687Z" fill="#F0F4FF"/>
<path d="M154.763 233.743H143.572C142.449 233.743 141.549 232.843 141.549 231.721C141.549 230.6 142.449 229.7 143.572 229.7H154.763C155.885 229.7 156.786 230.6 156.786 231.721C156.786 232.828 155.885 233.743 154.763 233.743Z" fill="#F0F4FF"/>
<path d="M50.702 509.572C48.2954 509.572 46.0511 510.236 44.117 511.372C43.3492 504.481 37.5024 499.139 30.4006 499.139C22.7821 499.139 16.5957 505.307 16.5957 512.936C16.5957 513.452 16.6252 513.954 16.6843 514.441C16.0494 514.323 15.3997 514.264 14.7353 514.264C8.91805 514.264 4.19336 518.986 4.19336 524.8C4.19336 530.614 8.91805 535.336 14.7353 535.336H50.6872C57.8038 535.336 63.5768 529.567 63.5768 522.454C63.5768 515.341 57.8186 509.572 50.702 509.572Z" fill="#DEE3FC"/>
</g>
<defs>
<clipPath id="clip0_33_6375">
<rect width="750" height="536" fill="white"/>
</clipPath>
</defs>
</svg>
