<svg width="88" height="89" viewBox="0 0 88 89" fill="none" xmlns="http://www.w3.org/2000/svg">
<path d="M73.8385 88.9357H21.1434C13.3477 88.9357 7.01367 82.6199 7.01367 74.8138V22.1479C7.01367 14.3564 13.3329 8.02588 21.1434 8.02588H73.8385C81.6342 8.02588 87.9683 14.3417 87.9683 22.1479V74.8138C87.9683 82.6199 81.649 88.9357 73.8385 88.9357Z" fill="#193091"/>
<path d="M70.3831 81.9265H12.0628C5.81732 81.9265 0.738281 76.8651 0.738281 70.6083V12.3202C0.738281 6.07818 5.80256 1.00195 12.0628 1.00195H70.3831C76.6286 1.00195 81.7076 6.06343 81.7076 12.3202V70.6083C81.6929 76.8651 76.6286 81.9265 70.3831 81.9265Z" fill="#7E89FD" stroke="#DEE3FC" stroke-miterlimit="10"/>
<path d="M55.2343 32.2121H54.8061V27.5786C54.8061 19.9642 48.6197 13.7812 41.0011 13.7812C33.3826 13.7812 27.1962 19.9642 27.1962 27.5786V32.2121H27.1076C24.9667 32.2121 23.2393 33.9386 23.2393 36.0783V53.55C23.2393 55.6897 24.9667 57.4162 27.1076 57.4162H55.2343C57.3751 57.4162 59.1026 55.6897 59.1026 53.55V36.0783C59.1174 33.9386 57.3751 32.2121 55.2343 32.2121ZM30.6954 27.5786C30.6954 21.8973 35.3167 17.2785 41.0011 17.2785C46.6855 17.2785 51.3069 21.8973 51.3069 27.5786V32.2121H30.6954V27.5786Z" fill="#DEE3FC"/>
<path d="M45.7258 41.184C45.7258 38.395 43.1863 36.1963 40.2924 36.7718C38.5945 37.1112 37.1771 38.5131 36.8227 40.2101C36.3946 42.2612 37.369 44.1353 38.9489 45.065C39.2737 45.2568 39.4509 45.611 39.3623 45.9651L38.5797 48.8574C38.1073 50.5692 39.4066 52.2661 41.1931 52.2661C42.9796 52.2661 44.2641 50.5692 43.8064 48.8574L43.0387 45.9946C42.9353 45.6257 43.1273 45.2716 43.4521 45.0797C44.7957 44.3124 45.7258 42.8662 45.7258 41.184Z" fill="#7E89FD"/>
<path d="M57.449 63.5403H24.9077C23.9923 63.5403 23.2393 62.8025 23.2393 61.8876C23.2393 60.9727 23.9775 60.2349 24.9077 60.2349H57.449C58.3644 60.2349 59.1026 60.9727 59.1026 61.8876C59.1174 62.8025 58.3644 63.5403 57.449 63.5403Z" fill="#DEE3FC"/>
<path d="M57.449 69.1771H24.9077C23.9923 69.1771 23.2393 68.4392 23.2393 67.5243C23.2393 66.6094 23.9775 65.8716 24.9077 65.8716H57.449C58.3644 65.8716 59.1026 66.6094 59.1026 67.5243C59.1174 68.4245 58.3644 69.1771 57.449 69.1771Z" fill="#DEE3FC"/>
</svg>
