<svg width="91" height="77" viewBox="0 0 91 77" fill="none" xmlns="http://www.w3.org/2000/svg">
<path d="M76.1177 77H29.1513C20.9422 77 14.2686 70.3448 14.2686 62.1255V15.1851C14.2686 6.98046 20.9274 0.310547 29.1513 0.310547H76.1177C84.3268 0.310547 91.0004 6.9657 91.0004 15.1851V62.1255C91.0004 70.3448 84.3416 77 76.1177 77Z" fill="#193091"/>
<path d="M62.1352 77H15.1689C6.95973 77 0.286133 70.3448 0.286133 62.1255V15.1851C0.286133 6.98046 6.94496 0.310547 15.1689 0.310547H62.1352C70.3444 0.310547 77.0179 6.9657 77.0179 15.1851V62.1255C77.0179 70.3448 70.3591 77 62.1352 77Z" fill="#495AD6"/>
<path d="M47.8726 19.1397C47.8726 24.2307 43.7532 28.3477 38.6594 28.3477C33.5656 28.3477 29.4463 24.2159 29.4463 19.1397C29.4463 14.0487 33.5804 9.93164 38.6594 9.93164C43.7532 9.93164 47.8726 14.0634 47.8726 19.1397Z" fill="white"/>
<path d="M57.8679 50.3349V63.9404C57.8679 65.1652 56.8639 66.1687 55.6384 66.1687H21.665C20.4396 66.1687 19.4355 65.1652 19.4355 63.9404V50.3349C19.4355 39.725 28.0434 31.1367 38.6444 31.1367C49.2749 31.1367 57.8679 39.725 57.8679 50.3349Z" fill="white"/>
</svg>
