<svg width="22" height="16" viewBox="0 0 22 16" fill="none" xmlns="http://www.w3.org/2000/svg">
<path d="M21.5467 2.93664C21.2932 1.99415 20.5501 1.2512 19.6077 0.997409C17.8862 0.526367 10.9997 0.526367 10.9997 0.526367C10.9997 0.526367 4.1136 0.526367 2.39202 0.979568C1.46778 1.23308 0.70658 1.99432 0.453063 2.93664C0 4.65808 0 8.22817 0 8.22817C0 8.22817 0 11.8162 0.453063 13.5196C0.70682 14.462 1.44967 15.205 2.39216 15.4587C4.13171 15.9299 11 15.9299 11 15.9299C11 15.9299 17.8862 15.9299 19.6077 15.4767C20.5502 15.2231 21.2932 14.4801 21.547 13.5377C21.9999 11.8162 21.9999 8.24625 21.9999 8.24625C21.9999 8.24625 22.018 4.65804 21.5467 2.93664ZM8.80724 11.5263V4.92995L14.5336 8.2281L8.80724 11.5263Z" fill="#0467FF"/>
</svg>
