<svg width="208" height="48" viewBox="0 0 208 48" fill="none" xmlns="http://www.w3.org/2000/svg">
<g filter="url(#filter0_ii_259_698)">
<path d="M21.5424 4.80973L1.70094 43.7577C0.806915 45.5126 0.359905 46.3901 0.754334 47.0337C1.14876 47.6773 2.13353 47.6773 4.10306 47.6773H6.54701C7.37061 47.6773 7.7824 47.6773 8.11123 47.4707C8.44006 47.264 8.6187 46.893 8.97599 46.1509L12.8781 38.0466C13.4276 36.9052 13.7024 36.3345 14.1865 36.1394C14.6706 35.9442 15.3203 36.1856 16.6196 36.6682C27.218 40.6052 39.6865 36.3875 44.1212 29.6919C44.8771 28.5506 45.2551 27.9799 44.8737 27.2698C44.4923 26.5597 43.6886 26.5597 42.0811 26.5597H36.0227C35.4754 26.5597 35.2017 26.5597 34.9884 26.6331C34.775 26.7066 34.4624 26.951 33.8371 27.4398L33.837 27.4398C30.6612 29.9222 24.1897 30.4767 19.9575 29.3012C18.9885 29.0321 18.5041 28.8975 18.2458 28.3163C17.9876 27.735 18.253 27.2041 18.784 26.1421L21.7666 20.1769C22.5785 18.5531 22.9845 17.7412 23.5716 17.5849C23.8126 17.5207 24.0668 17.5247 24.3057 17.5964C24.8876 17.7709 25.268 18.5951 26.0288 20.2435C26.2927 20.8152 26.4246 21.101 26.6477 21.2924C26.7432 21.3743 26.8497 21.4425 26.9642 21.4949C27.2314 21.6172 27.5462 21.6172 28.1759 21.6172H30.3884C32.3435 21.6172 33.321 21.6172 33.7161 20.978C34.1112 20.3387 33.674 19.4644 32.7997 17.7157L26.3557 4.82782C25.3122 2.74065 24.7904 1.69707 23.9608 1.69395C23.1312 1.69083 22.6016 2.73046 21.5424 4.80973Z" fill="black"/>
</g>
<g filter="url(#filter1_ii_259_698)">
<path d="M38.3791 40.4888H35.9448C34.1775 40.4888 33.2938 40.4888 32.8918 41.0689C32.4897 41.6491 32.8 42.4765 33.4205 44.1312L34.0945 45.9285C34.4118 46.7746 34.5705 47.1977 34.9168 47.4377C35.2632 47.6778 35.715 47.6778 36.6187 47.6778H39.1654C41.0254 47.6778 41.9554 47.6778 42.3545 47.0676C42.7535 46.4575 42.3808 45.6054 41.6352 43.9013L40.8489 42.1041C40.506 41.3203 40.3346 40.9285 39.9985 40.7086C39.6623 40.4888 39.2346 40.4888 38.3791 40.4888Z" fill="url(#paint0_linear_259_698)"/>
</g>
<g filter="url(#filter2_ii_259_698)">
<path d="M34.9562 22.3631L35.6953 11.9911C35.7799 10.8036 35.8222 10.2098 36.2104 9.84833C36.5986 9.48682 37.1939 9.48682 38.3844 9.48682H42.0888C43.2949 9.48682 43.898 9.48682 44.2877 9.85487C44.6773 10.2229 44.7116 10.825 44.7803 12.0293L45.3715 22.4013C45.4477 23.7377 45.4858 24.406 45.0869 24.8283C44.6879 25.2506 44.0186 25.2506 42.68 25.2506H37.6453C36.2893 25.2506 35.6113 25.2506 35.2115 24.8213C34.8117 24.392 34.8599 23.7157 34.9562 22.3631Z" fill="url(#paint1_linear_259_698)"/>
</g>
<g filter="url(#filter3_ii_259_698)">
<circle cx="40.3669" cy="4.76894" r="4.26846" fill="black"/>
</g>
<g filter="url(#filter4_ii_259_698)">
<path d="M61.3845 20.0195L57.2694 29.6975C57.1805 29.9388 57.0408 30.1293 56.8503 30.269C56.6725 30.396 56.4756 30.4595 56.2597 30.4595C55.9168 30.4595 55.6628 30.3643 55.4977 30.1737C55.3326 29.9832 55.25 29.7483 55.25 29.4689C55.25 29.3546 55.2691 29.2339 55.3072 29.1069L60.0509 17.7144C60.1525 17.4604 60.3049 17.2635 60.5081 17.1238C60.724 16.9841 60.9526 16.9269 61.1939 16.9523C61.4226 16.9523 61.6321 17.0222 61.8226 17.1619C62.0258 17.2889 62.1719 17.4731 62.2608 17.7144L66.9474 28.8783C67.0109 29.0434 67.0426 29.1958 67.0426 29.3355C67.0426 29.6784 66.9283 29.9515 66.6997 30.1547C66.4838 30.3579 66.2425 30.4595 65.9758 30.4595C65.7471 30.4595 65.5376 30.3897 65.3471 30.25C65.1693 30.1102 65.0296 29.9197 64.9279 29.6784L60.832 20.1338L61.3845 20.0195ZM57.86 27.3732L58.9078 25.1824H64.0516L64.4136 27.3732H57.86ZM77.1816 19.9814C77.5119 19.9814 77.7849 20.0894 78.0008 20.3053C78.2167 20.5212 78.3247 20.8006 78.3247 21.1436V29.2021C78.3247 29.5324 78.2167 29.8118 78.0008 30.0404C77.7849 30.2563 77.5119 30.3643 77.1816 30.3643C76.8514 30.3643 76.5784 30.2563 76.3624 30.0404C76.1465 29.8118 76.0386 29.5324 76.0386 29.2021V28.2686L76.4577 28.4401C76.4577 28.6052 76.3688 28.8084 76.191 29.0497C76.0132 29.2783 75.7719 29.507 75.467 29.7356C75.1622 29.9642 74.8003 30.161 74.3811 30.3262C73.9747 30.4786 73.5302 30.5548 73.0476 30.5548C72.1712 30.5548 71.3774 30.3325 70.6662 29.888C69.9549 29.4308 69.3898 28.8084 68.9706 28.021C68.5642 27.2208 68.361 26.3064 68.361 25.2776C68.361 24.2362 68.5642 23.3217 68.9706 22.5343C69.3898 21.7341 69.9486 21.1118 70.6471 20.6673C71.3457 20.2101 72.1204 19.9814 72.9714 19.9814C73.5175 19.9814 74.0192 20.064 74.4764 20.2291C74.9336 20.3942 75.3273 20.6038 75.6576 20.8578C76.0005 21.1118 76.2608 21.3722 76.4386 21.6389C76.6292 21.8929 76.7244 22.1088 76.7244 22.2866L76.0386 22.5343V21.1436C76.0386 20.8133 76.1465 20.5403 76.3624 20.3244C76.5784 20.0957 76.8514 19.9814 77.1816 19.9814ZM73.3333 28.4592C73.8922 28.4592 74.3811 28.3194 74.8003 28.04C75.2194 27.7606 75.5432 27.3796 75.7719 26.897C76.0132 26.4143 76.1338 25.8746 76.1338 25.2776C76.1338 24.668 76.0132 24.1219 75.7719 23.6392C75.5432 23.1566 75.2194 22.7756 74.8003 22.4962C74.3811 22.2168 73.8922 22.0771 73.3333 22.0771C72.7872 22.0771 72.3046 22.2168 71.8854 22.4962C71.4663 22.7756 71.1361 23.1566 70.8948 23.6392C70.6662 24.1219 70.5519 24.668 70.5519 25.2776C70.5519 25.8746 70.6662 26.4143 70.8948 26.897C71.1361 27.3796 71.4663 27.7606 71.8854 28.04C72.3046 28.3194 72.7872 28.4592 73.3333 28.4592ZM89.1444 16.2665C89.4746 16.2665 89.7476 16.3744 89.9635 16.5904C90.1795 16.8063 90.2874 17.0857 90.2874 17.4286V29.2021C90.2874 29.5324 90.1795 29.8118 89.9635 30.0404C89.7476 30.2563 89.4746 30.3643 89.1444 30.3643C88.8141 30.3643 88.5411 30.2563 88.3252 30.0404C88.1092 29.8118 88.0013 29.5324 88.0013 29.2021V28.2686L88.4204 28.4401C88.4204 28.6052 88.3315 28.8084 88.1537 29.0497C87.9759 29.2783 87.7346 29.507 87.4298 29.7356C87.1249 29.9642 86.763 30.161 86.3438 30.3262C85.9374 30.4786 85.4929 30.5548 85.0103 30.5548C84.1339 30.5548 83.3401 30.3325 82.6289 29.888C81.9177 29.4308 81.3525 28.8084 80.9334 28.021C80.5269 27.2208 80.3237 26.3064 80.3237 25.2776C80.3237 24.2362 80.5269 23.3217 80.9334 22.5343C81.3525 21.7341 81.9113 21.1118 82.6098 20.6673C83.3084 20.2101 84.0831 19.9814 84.9341 19.9814C85.4802 19.9814 85.9819 20.064 86.4391 20.2291C86.8963 20.3942 87.2901 20.6038 87.6203 20.8578C87.9632 21.1118 88.2236 21.3722 88.4014 21.6389C88.5919 21.8929 88.6871 22.1088 88.6871 22.2866L88.0013 22.5343V17.4286C88.0013 17.0984 88.1092 16.8253 88.3252 16.6094C88.5411 16.3808 88.8141 16.2665 89.1444 16.2665ZM85.296 28.4592C85.8549 28.4592 86.3438 28.3194 86.763 28.04C87.1821 27.7606 87.506 27.3796 87.7346 26.897C87.9759 26.4143 88.0965 25.8746 88.0965 25.2776C88.0965 24.668 87.9759 24.1219 87.7346 23.6392C87.506 23.1566 87.1821 22.7756 86.763 22.4962C86.3438 22.2168 85.8549 22.0771 85.296 22.0771C84.7499 22.0771 84.2673 22.2168 83.8482 22.4962C83.429 22.7756 83.0988 23.1566 82.8575 23.6392C82.6289 24.1219 82.5146 24.668 82.5146 25.2776C82.5146 25.8746 82.6289 26.4143 82.8575 26.897C83.0988 27.3796 83.429 27.7606 83.8482 28.04C84.2673 28.3194 84.7499 28.4592 85.296 28.4592ZM98.1161 19.9814C99.0305 19.9814 99.7227 20.1783 100.193 20.572C100.675 20.9657 101.005 21.4928 101.183 22.1533C101.361 22.801 101.45 23.5249 101.45 24.3251V29.2021C101.45 29.5324 101.342 29.8118 101.126 30.0404C100.91 30.2563 100.637 30.3643 100.307 30.3643C99.9767 30.3643 99.7036 30.2563 99.4877 30.0404C99.2718 29.8118 99.1639 29.5324 99.1639 29.2021V24.3251C99.1639 23.906 99.1131 23.5313 99.0115 23.2011C98.9098 22.8581 98.7257 22.5851 98.459 22.3819C98.1923 22.1787 97.8112 22.0771 97.3159 22.0771C96.8333 22.0771 96.4205 22.1787 96.0776 22.3819C95.7347 22.5851 95.4743 22.8581 95.2965 23.2011C95.1314 23.5313 95.0488 23.906 95.0488 24.3251V29.2021C95.0488 29.5324 94.9409 29.8118 94.725 30.0404C94.5091 30.2563 94.236 30.3643 93.9058 30.3643C93.5756 30.3643 93.3025 30.2563 93.0866 30.0404C92.8707 29.8118 92.7627 29.5324 92.7627 29.2021V17.4286C92.7627 17.0984 92.8707 16.8253 93.0866 16.6094C93.3025 16.3808 93.5756 16.2665 93.9058 16.2665C94.236 16.2665 94.5091 16.3808 94.725 16.6094C94.9409 16.8253 95.0488 17.0984 95.0488 17.4286V22.1533L94.7631 22.0961C94.8774 21.8802 95.0361 21.6516 95.2393 21.4103C95.4426 21.1563 95.6902 20.9213 95.9823 20.7054C96.2745 20.4895 96.5983 20.318 96.9539 20.191C97.3096 20.0513 97.6969 19.9814 98.1161 19.9814ZM111.396 20.172C111.726 20.172 111.999 20.2863 112.215 20.5149C112.431 20.7308 112.539 21.0038 112.539 21.3341V29.4308C112.539 30.5992 112.316 31.5264 111.872 32.2122C111.44 32.9107 110.856 33.4124 110.119 33.7172C109.383 34.0221 108.557 34.1745 107.643 34.1745C107.236 34.1745 106.804 34.1427 106.347 34.0792C105.89 34.0157 105.515 33.9205 105.223 33.7934C104.842 33.6283 104.575 33.4188 104.423 33.1648C104.283 32.9234 104.258 32.6631 104.347 32.3837C104.461 32.0153 104.645 31.7613 104.899 31.6216C105.153 31.4946 105.42 31.4819 105.699 31.5835C105.903 31.647 106.169 31.7423 106.5 31.8693C106.83 32.009 107.211 32.0789 107.643 32.0789C108.227 32.0789 108.709 31.9963 109.09 31.8312C109.484 31.6788 109.776 31.4121 109.967 31.031C110.17 30.6627 110.272 30.1547 110.272 29.507V28.2305L110.672 28.6878C110.456 29.1069 110.183 29.4562 109.853 29.7356C109.535 30.0023 109.154 30.2055 108.709 30.3452C108.265 30.4849 107.757 30.5548 107.185 30.5548C106.512 30.5548 105.922 30.4024 105.414 30.0975C104.918 29.78 104.531 29.3482 104.252 28.8021C103.972 28.2432 103.832 27.6082 103.832 26.897V21.3341C103.832 21.0038 103.94 20.7308 104.156 20.5149C104.372 20.2863 104.645 20.172 104.975 20.172C105.306 20.172 105.579 20.2863 105.795 20.5149C106.011 20.7308 106.119 21.0038 106.119 21.3341V26.2111C106.119 27.0367 106.296 27.6209 106.652 27.9638C107.02 28.294 107.528 28.4592 108.176 28.4592C108.621 28.4592 108.995 28.3766 109.3 28.2115C109.605 28.0337 109.84 27.7797 110.005 27.4494C110.17 27.1065 110.253 26.6938 110.253 26.2111V21.3341C110.253 21.0038 110.361 20.7308 110.576 20.5149C110.792 20.2863 111.065 20.172 111.396 20.172ZM123.358 19.9814C123.688 19.9814 123.961 20.0894 124.177 20.3053C124.393 20.5212 124.501 20.8006 124.501 21.1436V29.2021C124.501 29.5324 124.393 29.8118 124.177 30.0404C123.961 30.2563 123.688 30.3643 123.358 30.3643C123.028 30.3643 122.755 30.2563 122.539 30.0404C122.323 29.8118 122.215 29.5324 122.215 29.2021V28.2686L122.634 28.4401C122.634 28.6052 122.545 28.8084 122.367 29.0497C122.19 29.2783 121.948 29.507 121.643 29.7356C121.339 29.9642 120.977 30.161 120.558 30.3262C120.151 30.4786 119.707 30.5548 119.224 30.5548C118.348 30.5548 117.554 30.3325 116.843 29.888C116.131 29.4308 115.566 28.8084 115.147 28.021C114.741 27.2208 114.537 26.3064 114.537 25.2776C114.537 24.2362 114.741 23.3217 115.147 22.5343C115.566 21.7341 116.125 21.1118 116.824 20.6673C117.522 20.2101 118.297 19.9814 119.148 19.9814C119.694 19.9814 120.196 20.064 120.653 20.2291C121.11 20.3942 121.504 20.6038 121.834 20.8578C122.177 21.1118 122.437 21.3722 122.615 21.6389C122.806 21.8929 122.901 22.1088 122.901 22.2866L122.215 22.5343V21.1436C122.215 20.8133 122.323 20.5403 122.539 20.3244C122.755 20.0957 123.028 19.9814 123.358 19.9814ZM119.51 28.4592C120.069 28.4592 120.558 28.3194 120.977 28.04C121.396 27.7606 121.72 27.3796 121.948 26.897C122.19 26.4143 122.31 25.8746 122.31 25.2776C122.31 24.668 122.19 24.1219 121.948 23.6392C121.72 23.1566 121.396 22.7756 120.977 22.4962C120.558 22.2168 120.069 22.0771 119.51 22.0771C118.964 22.0771 118.481 22.2168 118.062 22.4962C117.643 22.7756 117.313 23.1566 117.071 23.6392C116.843 24.1219 116.728 24.668 116.728 25.2776C116.728 25.8746 116.843 26.4143 117.071 26.897C117.313 27.3796 117.643 27.7606 118.062 28.04C118.481 28.3194 118.964 28.4592 119.51 28.4592Z" fill="#0467FF"/>
<path d="M134.888 29.2021C134.888 29.5324 134.767 29.8118 134.526 30.0404C134.285 30.2563 134.005 30.3643 133.688 30.3643C133.332 30.3643 133.046 30.2563 132.83 30.0404C132.614 29.8118 132.506 29.5324 132.506 29.2021V18.1906C132.506 17.8604 132.621 17.5874 132.849 17.3714C133.078 17.1428 133.37 17.0285 133.726 17.0285C134.031 17.0285 134.297 17.1428 134.526 17.3714C134.767 17.5874 134.888 17.8604 134.888 18.1906V29.2021ZM143.011 19.9814C143.951 19.9814 144.662 20.1783 145.145 20.572C145.64 20.9657 145.977 21.4928 146.154 22.1533C146.345 22.801 146.44 23.5249 146.44 24.3251V29.2021C146.44 29.5324 146.332 29.8118 146.116 30.0404C145.9 30.2563 145.627 30.3643 145.297 30.3643C144.967 30.3643 144.694 30.2563 144.478 30.0404C144.262 29.8118 144.154 29.5324 144.154 29.2021V24.3251C144.154 23.906 144.097 23.5313 143.983 23.2011C143.881 22.8581 143.691 22.5851 143.411 22.3819C143.132 22.1787 142.732 22.0771 142.211 22.0771C141.703 22.0771 141.271 22.1787 140.915 22.3819C140.572 22.5851 140.306 22.8581 140.115 23.2011C139.937 23.5313 139.849 23.906 139.849 24.3251V29.2021C139.849 29.5324 139.741 29.8118 139.525 30.0404C139.309 30.2563 139.036 30.3643 138.705 30.3643C138.375 30.3643 138.102 30.2563 137.886 30.0404C137.67 29.8118 137.562 29.5324 137.562 29.2021V21.3341C137.562 21.0038 137.67 20.7308 137.886 20.5149C138.102 20.2863 138.375 20.172 138.705 20.172C139.036 20.172 139.309 20.2863 139.525 20.5149C139.741 20.7308 139.849 21.0038 139.849 21.3341V22.1533L139.563 22.0961C139.677 21.8802 139.842 21.6516 140.058 21.4103C140.274 21.1563 140.528 20.9213 140.82 20.7054C141.112 20.4895 141.442 20.318 141.811 20.191C142.179 20.0513 142.579 19.9814 143.011 19.9814ZM154.15 16.2665C154.43 16.2665 154.703 16.3046 154.969 16.3808C155.236 16.457 155.458 16.584 155.636 16.7618C155.814 16.9269 155.903 17.1492 155.903 17.4286C155.903 17.7461 155.808 18.0001 155.617 18.1906C155.439 18.3685 155.23 18.4574 154.988 18.4574C154.874 18.4574 154.703 18.432 154.474 18.3812C154.245 18.3176 154.023 18.2859 153.807 18.2859C153.49 18.2859 153.242 18.3558 153.064 18.4955C152.899 18.6352 152.785 18.8003 152.721 18.9908C152.658 19.1686 152.626 19.3274 152.626 19.4671V29.2021C152.626 29.5324 152.518 29.8118 152.302 30.0404C152.086 30.2563 151.813 30.3643 151.483 30.3643C151.153 30.3643 150.88 30.2563 150.664 30.0404C150.448 29.8118 150.34 29.5324 150.34 29.2021V19.4861C150.34 18.5844 150.658 17.8223 151.293 17.2C151.928 16.5777 152.88 16.2665 154.15 16.2665ZM154.36 20.3625C154.665 20.3625 154.919 20.4641 155.122 20.6673C155.325 20.8578 155.427 21.1055 155.427 21.4103C155.427 21.7151 155.325 21.9691 155.122 22.1723C154.919 22.3628 154.665 22.4581 154.36 22.4581H149.311C149.006 22.4581 148.752 22.3628 148.549 22.1723C148.346 21.9691 148.244 21.7151 148.244 21.4103C148.244 21.1055 148.346 20.8578 148.549 20.6673C148.752 20.4641 149.006 20.3625 149.311 20.3625H154.36ZM166.538 25.2776C166.538 26.3191 166.303 27.2399 165.833 28.04C165.376 28.8275 164.754 29.4435 163.966 29.888C163.192 30.3325 162.322 30.5548 161.356 30.5548C160.391 30.5548 159.515 30.3325 158.727 29.888C157.952 29.4435 157.33 28.8275 156.86 28.04C156.403 27.2399 156.174 26.3191 156.174 25.2776C156.174 24.2362 156.403 23.3217 156.86 22.5343C157.33 21.7341 157.952 21.1118 158.727 20.6673C159.515 20.2101 160.391 19.9814 161.356 19.9814C162.322 19.9814 163.192 20.2101 163.966 20.6673C164.754 21.1118 165.376 21.7341 165.833 22.5343C166.303 23.3217 166.538 24.2362 166.538 25.2776ZM164.252 25.2776C164.252 24.6299 164.119 24.0711 163.852 23.6011C163.598 23.1185 163.249 22.7438 162.804 22.4771C162.372 22.2104 161.89 22.0771 161.356 22.0771C160.823 22.0771 160.334 22.2104 159.889 22.4771C159.458 22.7438 159.108 23.1185 158.842 23.6011C158.588 24.0711 158.461 24.6299 158.461 25.2776C158.461 25.9127 158.588 26.4715 158.842 26.9541C159.108 27.424 159.458 27.7924 159.889 28.0591C160.334 28.3258 160.823 28.4592 161.356 28.4592C161.89 28.4592 162.372 28.3258 162.804 28.0591C163.249 27.7924 163.598 27.424 163.852 26.9541C164.119 26.4715 164.252 25.9127 164.252 25.2776ZM168.653 20.3625H173.168C173.473 20.3625 173.727 20.4641 173.93 20.6673C174.134 20.8705 174.235 21.1245 174.235 21.4293C174.235 21.7214 174.134 21.9691 173.93 22.1723C173.727 22.3628 173.473 22.4581 173.168 22.4581H168.653C168.348 22.4581 168.094 22.3565 167.891 22.1533C167.688 21.95 167.586 21.696 167.586 21.3912C167.586 21.0991 167.688 20.8578 167.891 20.6673C168.094 20.4641 168.348 20.3625 168.653 20.3625ZM170.692 17.9811C171.022 17.9811 171.289 18.0954 171.492 18.324C171.708 18.5399 171.816 18.813 171.816 19.1432V27.6209C171.816 27.7987 171.848 27.9448 171.911 28.0591C171.987 28.1734 172.082 28.2559 172.197 28.3067C172.324 28.3575 172.457 28.3829 172.597 28.3829C172.749 28.3829 172.889 28.3575 173.016 28.3067C173.143 28.2432 173.289 28.2115 173.454 28.2115C173.632 28.2115 173.791 28.294 173.93 28.4592C174.083 28.6243 174.159 28.8529 174.159 29.145C174.159 29.5006 173.962 29.7927 173.568 30.0213C173.187 30.25 172.775 30.3643 172.33 30.3643C172.063 30.3643 171.765 30.3452 171.435 30.3071C171.117 30.2563 170.812 30.1483 170.52 29.9832C170.241 29.8054 170.006 29.5387 169.815 29.1831C169.625 28.8275 169.53 28.3385 169.53 27.7162V19.1432C169.53 18.813 169.638 18.5399 169.853 18.324C170.082 18.0954 170.362 17.9811 170.692 17.9811ZM181.042 30.5548C179.963 30.5548 179.023 30.3325 178.223 29.888C177.435 29.4308 176.825 28.8148 176.394 28.04C175.975 27.2653 175.765 26.3889 175.765 25.411C175.765 24.2679 175.994 23.2963 176.451 22.4962C176.921 21.6833 177.53 21.061 178.28 20.6292C179.029 20.1974 179.823 19.9814 180.661 19.9814C181.309 19.9814 181.918 20.1148 182.49 20.3815C183.074 20.6482 183.589 21.0165 184.033 21.4865C184.478 21.9437 184.827 22.4771 185.081 23.0868C185.348 23.6964 185.481 24.3441 185.481 25.03C185.468 25.3348 185.348 25.5824 185.119 25.773C184.89 25.9635 184.624 26.0587 184.319 26.0587H177.041L176.47 24.1536H183.462L183.042 24.5346V24.0203C183.017 23.6519 182.884 23.3217 182.642 23.0296C182.414 22.7375 182.122 22.5089 181.766 22.3438C181.423 22.166 181.055 22.0771 180.661 22.0771C180.28 22.0771 179.924 22.1279 179.594 22.2295C179.264 22.3311 178.978 22.5025 178.737 22.7438C178.496 22.9852 178.305 23.309 178.165 23.7154C178.026 24.1219 177.956 24.6362 177.956 25.2586C177.956 25.9444 178.096 26.5286 178.375 27.0113C178.667 27.4812 179.035 27.8432 179.48 28.0972C179.937 28.3385 180.42 28.4592 180.928 28.4592C181.398 28.4592 181.772 28.4211 182.052 28.3448C182.331 28.2686 182.553 28.1797 182.719 28.0781C182.896 27.9638 183.055 27.8686 183.195 27.7924C183.423 27.6781 183.639 27.6209 183.843 27.6209C184.122 27.6209 184.351 27.7162 184.528 27.9067C184.719 28.0972 184.814 28.3194 184.814 28.5735C184.814 28.9164 184.636 29.2275 184.281 29.507C183.951 29.7864 183.487 30.034 182.89 30.25C182.293 30.4532 181.677 30.5548 181.042 30.5548ZM192.013 19.9814C192.736 19.9814 193.365 20.0576 193.899 20.2101C194.445 20.3625 194.864 20.5784 195.156 20.8578C195.461 21.1245 195.613 21.4484 195.613 21.8294C195.613 22.0834 195.537 22.3247 195.385 22.5533C195.232 22.7692 195.01 22.8772 194.718 22.8772C194.515 22.8772 194.343 22.8518 194.203 22.801C194.076 22.7375 193.962 22.6613 193.86 22.5724C193.759 22.4835 193.638 22.4009 193.499 22.3247C193.372 22.2485 193.175 22.1914 192.908 22.1533C192.654 22.1025 192.463 22.0771 192.336 22.0771C191.689 22.0771 191.136 22.2168 190.679 22.4962C190.234 22.7756 189.892 23.1566 189.65 23.6392C189.409 24.1092 189.288 24.6553 189.288 25.2776C189.288 25.8873 189.409 26.4334 189.65 26.916C189.904 27.3859 190.247 27.7606 190.679 28.04C191.123 28.3194 191.632 28.4592 192.203 28.4592C192.521 28.4592 192.794 28.4401 193.022 28.402C193.251 28.3639 193.441 28.3067 193.594 28.2305C193.772 28.1289 193.93 28.021 194.07 27.9067C194.21 27.7924 194.419 27.7352 194.699 27.7352C195.029 27.7352 195.283 27.8432 195.461 28.0591C195.639 28.2623 195.727 28.5163 195.727 28.8211C195.727 29.1386 195.55 29.4308 195.194 29.6975C194.838 29.9515 194.369 30.161 193.784 30.3262C193.213 30.4786 192.59 30.5548 191.917 30.5548C190.914 30.5548 190.044 30.3262 189.307 29.8689C188.571 29.399 187.999 28.764 187.593 27.9638C187.199 27.1637 187.002 26.2683 187.002 25.2776C187.002 24.2362 187.212 23.3217 187.631 22.5343C188.063 21.7341 188.653 21.1118 189.403 20.6673C190.165 20.2101 191.035 19.9814 192.013 19.9814ZM202.729 19.9814C203.644 19.9814 204.336 20.1783 204.806 20.572C205.289 20.9657 205.619 21.4928 205.797 22.1533C205.974 22.801 206.063 23.5249 206.063 24.3251V29.2021C206.063 29.5324 205.955 29.8118 205.739 30.0404C205.523 30.2563 205.25 30.3643 204.92 30.3643C204.59 30.3643 204.317 30.2563 204.101 30.0404C203.885 29.8118 203.777 29.5324 203.777 29.2021V24.3251C203.777 23.906 203.726 23.5313 203.625 23.2011C203.523 22.8581 203.339 22.5851 203.072 22.3819C202.806 22.1787 202.425 22.0771 201.929 22.0771C201.447 22.0771 201.034 22.1787 200.691 22.3819C200.348 22.5851 200.088 22.8581 199.91 23.2011C199.745 23.5313 199.662 23.906 199.662 24.3251V29.2021C199.662 29.5324 199.554 29.8118 199.338 30.0404C199.122 30.2563 198.849 30.3643 198.519 30.3643C198.189 30.3643 197.916 30.2563 197.7 30.0404C197.484 29.8118 197.376 29.5324 197.376 29.2021V17.4286C197.376 17.0984 197.484 16.8253 197.7 16.6094C197.916 16.3808 198.189 16.2665 198.519 16.2665C198.849 16.2665 199.122 16.3808 199.338 16.6094C199.554 16.8253 199.662 17.0984 199.662 17.4286V22.1533L199.376 22.0961C199.491 21.8802 199.649 21.6516 199.853 21.4103C200.056 21.1563 200.304 20.9213 200.596 20.7054C200.888 20.4895 201.212 20.318 201.567 20.191C201.923 20.0513 202.31 19.9814 202.729 19.9814Z" fill="black"/>
</g>
<defs>
<filter id="filter0_ii_259_698" x="-1.11135" y="-0.0276097" width="47.8569" height="49.4263" filterUnits="userSpaceOnUse" color-interpolation-filters="sRGB">
<feFlood flood-opacity="0" result="BackgroundImageFix"/>
<feBlend mode="normal" in="SourceGraphic" in2="BackgroundImageFix" result="shape"/>
<feColorMatrix in="SourceAlpha" type="matrix" values="0 0 0 0 0 0 0 0 0 0 0 0 0 0 0 0 0 0 127 0" result="hardAlpha"/>
<feOffset dx="-1.72146" dy="-1.72146"/>
<feGaussianBlur stdDeviation="2.8691"/>
<feComposite in2="hardAlpha" operator="arithmetic" k2="-1" k3="1"/>
<feColorMatrix type="matrix" values="0 0 0 0 0 0 0 0 0 0 0 0 0 0 0 0 0 0 0.4 0"/>
<feBlend mode="normal" in2="shape" result="effect1_innerShadow_259_698"/>
<feColorMatrix in="SourceAlpha" type="matrix" values="0 0 0 0 0 0 0 0 0 0 0 0 0 0 0 0 0 0 127 0" result="hardAlpha"/>
<feOffset dx="1.72146" dy="1.72146"/>
<feGaussianBlur stdDeviation="2.8691"/>
<feComposite in2="hardAlpha" operator="arithmetic" k2="-1" k3="1"/>
<feColorMatrix type="matrix" values="0 0 0 0 1 0 0 0 0 1 0 0 0 0 1 0 0 0 0.4 0"/>
<feBlend mode="normal" in2="effect1_innerShadow_259_698" result="effect2_innerShadow_259_698"/>
</filter>
<filter id="filter1_ii_259_698" x="30.9898" y="38.7673" width="13.2485" height="10.6319" filterUnits="userSpaceOnUse" color-interpolation-filters="sRGB">
<feFlood flood-opacity="0" result="BackgroundImageFix"/>
<feBlend mode="normal" in="SourceGraphic" in2="BackgroundImageFix" result="shape"/>
<feColorMatrix in="SourceAlpha" type="matrix" values="0 0 0 0 0 0 0 0 0 0 0 0 0 0 0 0 0 0 127 0" result="hardAlpha"/>
<feOffset dx="-1.72146" dy="-1.72146"/>
<feGaussianBlur stdDeviation="2.8691"/>
<feComposite in2="hardAlpha" operator="arithmetic" k2="-1" k3="1"/>
<feColorMatrix type="matrix" values="0 0 0 0 0 0 0 0 0 0 0 0 0 0 0 0 0 0 0.4 0"/>
<feBlend mode="normal" in2="shape" result="effect1_innerShadow_259_698"/>
<feColorMatrix in="SourceAlpha" type="matrix" values="0 0 0 0 0 0 0 0 0 0 0 0 0 0 0 0 0 0 127 0" result="hardAlpha"/>
<feOffset dx="1.72146" dy="1.72146"/>
<feGaussianBlur stdDeviation="2.8691"/>
<feComposite in2="hardAlpha" operator="arithmetic" k2="-1" k3="1"/>
<feColorMatrix type="matrix" values="0 0 0 0 1 0 0 0 0 1 0 0 0 0 1 0 0 0 0.4 0"/>
<feBlend mode="normal" in2="effect1_innerShadow_259_698" result="effect2_innerShadow_259_698"/>
</filter>
<filter id="filter2_ii_259_698" x="33.1677" y="7.76536" width="13.9742" height="19.2066" filterUnits="userSpaceOnUse" color-interpolation-filters="sRGB">
<feFlood flood-opacity="0" result="BackgroundImageFix"/>
<feBlend mode="normal" in="SourceGraphic" in2="BackgroundImageFix" result="shape"/>
<feColorMatrix in="SourceAlpha" type="matrix" values="0 0 0 0 0 0 0 0 0 0 0 0 0 0 0 0 0 0 127 0" result="hardAlpha"/>
<feOffset dx="-1.72146" dy="-1.72146"/>
<feGaussianBlur stdDeviation="2.8691"/>
<feComposite in2="hardAlpha" operator="arithmetic" k2="-1" k3="1"/>
<feColorMatrix type="matrix" values="0 0 0 0 0 0 0 0 0 0 0 0 0 0 0 0 0 0 0.4 0"/>
<feBlend mode="normal" in2="shape" result="effect1_innerShadow_259_698"/>
<feColorMatrix in="SourceAlpha" type="matrix" values="0 0 0 0 0 0 0 0 0 0 0 0 0 0 0 0 0 0 127 0" result="hardAlpha"/>
<feOffset dx="1.72146" dy="1.72146"/>
<feGaussianBlur stdDeviation="2.8691"/>
<feComposite in2="hardAlpha" operator="arithmetic" k2="-1" k3="1"/>
<feColorMatrix type="matrix" values="0 0 0 0 1 0 0 0 0 1 0 0 0 0 1 0 0 0 0.4 0"/>
<feBlend mode="normal" in2="effect1_innerShadow_259_698" result="effect2_innerShadow_259_698"/>
</filter>
<filter id="filter3_ii_259_698" x="34.377" y="-1.22097" width="11.9798" height="11.98" filterUnits="userSpaceOnUse" color-interpolation-filters="sRGB">
<feFlood flood-opacity="0" result="BackgroundImageFix"/>
<feBlend mode="normal" in="SourceGraphic" in2="BackgroundImageFix" result="shape"/>
<feColorMatrix in="SourceAlpha" type="matrix" values="0 0 0 0 0 0 0 0 0 0 0 0 0 0 0 0 0 0 127 0" result="hardAlpha"/>
<feOffset dx="-1.72146" dy="-1.72146"/>
<feGaussianBlur stdDeviation="1.43455"/>
<feComposite in2="hardAlpha" operator="arithmetic" k2="-1" k3="1"/>
<feColorMatrix type="matrix" values="0 0 0 0 0 0 0 0 0 0 0 0 0 0 0 0 0 0 0.5 0"/>
<feBlend mode="normal" in2="shape" result="effect1_innerShadow_259_698"/>
<feColorMatrix in="SourceAlpha" type="matrix" values="0 0 0 0 0 0 0 0 0 0 0 0 0 0 0 0 0 0 127 0" result="hardAlpha"/>
<feOffset dx="1.72146" dy="1.72146"/>
<feGaussianBlur stdDeviation="1.43455"/>
<feComposite in2="hardAlpha" operator="arithmetic" k2="-1" k3="1"/>
<feColorMatrix type="matrix" values="0 0 0 0 1 0 0 0 0 1 0 0 0 0 1 0 0 0 0.3 0"/>
<feBlend mode="normal" in2="effect1_innerShadow_259_698" result="effect2_innerShadow_259_698"/>
</filter>
<filter id="filter4_ii_259_698" x="53.0173" y="14.0339" width="155.279" height="22.3731" filterUnits="userSpaceOnUse" color-interpolation-filters="sRGB">
<feFlood flood-opacity="0" result="BackgroundImageFix"/>
<feBlend mode="normal" in="SourceGraphic" in2="BackgroundImageFix" result="shape"/>
<feColorMatrix in="SourceAlpha" type="matrix" values="0 0 0 0 0 0 0 0 0 0 0 0 0 0 0 0 0 0 127 0" result="hardAlpha"/>
<feOffset dx="2.23269" dy="2.23269"/>
<feGaussianBlur stdDeviation="2.23269"/>
<feComposite in2="hardAlpha" operator="arithmetic" k2="-1" k3="1"/>
<feColorMatrix type="matrix" values="0 0 0 0 0 0 0 0 0 0 0 0 0 0 0 0 0 0 0.3 0"/>
<feBlend mode="normal" in2="shape" result="effect1_innerShadow_259_698"/>
<feColorMatrix in="SourceAlpha" type="matrix" values="0 0 0 0 0 0 0 0 0 0 0 0 0 0 0 0 0 0 127 0" result="hardAlpha"/>
<feOffset dx="-2.23269" dy="-2.23269"/>
<feGaussianBlur stdDeviation="2.23269"/>
<feComposite in2="hardAlpha" operator="arithmetic" k2="-1" k3="1"/>
<feColorMatrix type="matrix" values="0 0 0 0 1 0 0 0 0 1 0 0 0 0 1 0 0 0 0.1 0"/>
<feBlend mode="normal" in2="effect1_innerShadow_259_698" result="effect2_innerShadow_259_698"/>
</filter>
<linearGradient id="paint0_linear_259_698" x1="31.0111" y1="40.6066" x2="31.9543" y2="48.9577" gradientUnits="userSpaceOnUse">
<stop stop-color="#0598F0"/>
<stop offset="1" stop-color="#0467FF"/>
</linearGradient>
<linearGradient id="paint1_linear_259_698" x1="33.7487" y1="9.74524" x2="38.2345" y2="27.1337" gradientUnits="userSpaceOnUse">
<stop stop-color="#0598F0"/>
<stop offset="1" stop-color="#0467FF"/>
</linearGradient>
</defs>
</svg>
