<svg width="20" height="21" viewBox="0 0 20 21" fill="none" xmlns="http://www.w3.org/2000/svg">
<path d="M20 20.5264V13.2014C20 9.60137 19.225 6.85137 15.025 6.85137C13 6.85137 11.65 7.95137 11.1 9.00137H11.05V7.17637H7.075V20.5264H11.225V13.9014C11.225 12.1514 11.55 10.4764 13.7 10.4764C15.825 10.4764 15.85 12.4514 15.85 14.0014V20.5014H20V20.5264ZM0.325 7.17637H4.475V20.5264H0.325V7.17637ZM2.4 0.526367C1.075 0.526367 0 1.60137 0 2.92637C0 4.25137 1.075 5.35137 2.4 5.35137C3.725 5.35137 4.8 4.25137 4.8 2.92637C4.8 1.60137 3.725 0.526367 2.4 0.526367Z" fill="#0467FF"/>
</svg>
