<svg width="20" height="18" viewBox="0 0 20 18" fill="none" xmlns="http://www.w3.org/2000/svg">
<path d="M19.9117 3.50444C19.8537 3.41012 19.7706 3.3338 19.6718 3.28402C19.5729 3.23424 19.4621 3.21298 19.3518 3.22261L18.3545 3.30948L19.3078 1.38788C19.3632 1.27626 19.3822 1.15009 19.3622 1.0271C19.3422 0.904112 19.2842 0.790471 19.1963 0.702136C19.1085 0.613801 18.9951 0.55521 18.8722 0.534591C18.7493 0.513971 18.6231 0.532358 18.5112 0.58717L15.9883 1.82276C14.4295 0.999866 12.4821 1.24412 11.1421 2.46479C10.0238 3.48355 9.43593 5.05023 9.54554 6.61258C6.62252 6.31961 4.1483 4.64652 2.68525 1.94315C2.63748 1.85491 2.56823 1.78014 2.48389 1.72577C2.39955 1.6714 2.30287 1.63918 2.20277 1.63211C2.10268 1.62503 2.00242 1.64332 1.91127 1.68528C1.82013 1.72725 1.74104 1.79153 1.68134 1.87217C0.773912 3.09804 0.71024 4.77882 1.42161 6.1616C1.22552 6.11207 1.01684 6.04504 0.785436 5.96773C0.687944 5.93513 0.583681 5.92829 0.482765 5.94787C0.38185 5.96744 0.287708 6.01277 0.209477 6.07946C0.131246 6.14615 0.0715819 6.23193 0.0362756 6.32847C0.000969312 6.42501 -0.00878041 6.52905 0.00797264 6.63047C0.289458 8.33704 1.28462 9.6486 2.85665 10.4249C2.65198 10.4962 2.44289 10.5542 2.23071 10.5984C2.12707 10.62 2.03105 10.6687 1.9525 10.7397C1.87395 10.8107 1.81571 10.9013 1.78376 11.0022C1.75181 11.1031 1.7473 11.2108 1.7707 11.314C1.79409 11.4172 1.84455 11.5124 1.91688 11.5897C3.04896 12.7998 4.68428 13.3954 5.84584 13.6811C4.52513 14.7153 3.09947 14.8884 1.02782 14.8173C0.788014 14.81 0.567076 14.9451 0.466255 15.1625C0.416956 15.2688 0.40009 15.3874 0.417764 15.5033C0.435438 15.6191 0.486869 15.7273 0.56563 15.8141C1.42923 16.766 4.57556 17.8394 7.88307 17.9198C8.01389 17.923 8.14733 17.9247 8.28358 17.9247C10.6059 17.9247 13.6751 17.4269 15.8781 15.2239C17.5456 13.5564 18.5885 11.6369 18.9779 9.51864C19.2925 7.80782 19.0937 6.43781 18.9982 5.77937C18.9911 5.73097 18.9837 5.67961 18.9776 5.63468L19.9104 4.13116C19.9688 4.03711 19.9998 3.92867 20 3.81798C20.0002 3.7073 19.9696 3.59873 19.9117 3.50444Z" fill="#0467FF"/>
</svg>
