<svg width="20" height="21" viewBox="0 0 20 21" fill="none" xmlns="http://www.w3.org/2000/svg">
<path d="M9.99991 6.8584C7.97591 6.8584 6.33191 8.5024 6.33191 10.5264C6.33191 12.5504 7.97591 14.1984 9.99991 14.1984C12.0239 14.1984 13.6719 12.5504 13.6719 10.5264C13.6719 8.5024 12.0239 6.8584 9.99991 6.8584Z" fill="#0467FF"/>
<path d="M15.536 0.526367H4.464C2.004 0.526367 0 2.53037 0 4.99037V16.0624C0 18.5264 2.004 20.5264 4.464 20.5264H15.536C18 20.5264 20 18.5264 20 16.0624V4.99037C20 2.53037 18 0.526367 15.536 0.526367ZM10 17.0064C6.428 17.0064 3.52 14.0984 3.52 10.5264C3.52 6.95437 6.428 4.05037 10 4.05037C13.572 4.05037 16.48 6.95437 16.48 10.5264C16.48 14.0984 13.572 17.0064 10 17.0064ZM16.616 5.22637C15.86 5.22637 15.244 4.61437 15.244 3.85837C15.244 3.10237 15.86 2.48637 16.616 2.48637C17.372 2.48637 17.988 3.10237 17.988 3.85837C17.988 4.61437 17.372 5.22637 16.616 5.22637Z" fill="#0467FF"/>
</svg>
