<svg width="692" height="600" viewBox="0 0 692 600" fill="none" xmlns="http://www.w3.org/2000/svg">
<title>Mobile Game Development Services </title>
<path d="M499.538 559.87H484.03V560.316H499.538V559.87Z" fill="#EBEBEB"/>
<path d="M310.255 549.012H143.081V549.459H310.255V549.012Z" fill="#EBEBEB"/>
<path d="M61.3316 10.499L39.9531 40.8958V257.809H206.823V10.499H61.3316Z" fill="white"/>
<path d="M61.3323 10.499L39.9538 40.8958C39.9538 40.8958 39.0437 47.5813 55.1043 52.484C55.0865 52.484 47.9484 25.2963 61.3323 10.499Z" fill="#9FBDFF"/>
<path opacity="0.1" d="M193.097 0.000633252L184.92 8.16943L208.264 31.4909L216.44 23.3221L193.097 0.000633252Z" fill="#1785FF"/>
<path opacity="0.1" d="M37.9843 236.414L29.8076 244.583L53.1515 267.904L61.3282 259.736L37.9843 236.414Z" fill="#1785FF"/>
<path d="M184.916 259.75L193.093 267.918L216.437 244.597L208.26 236.428L184.916 259.75Z" fill="#EBEBEB"/>
<path d="M81.442 52.4487H74.875V59.0094H81.442V52.4487Z" fill="#C5D7FF"/>
<path d="M81.4238 59.0098H81.406H74.8746H68.3076V65.5526H74.8746H81.406H81.4238H87.973V59.0098H81.4238Z" fill="#C5D7FF"/>
<path d="M101.09 52.4487H94.5234V59.0094H101.09V52.4487Z" fill="#D1E7FF"/>
<path d="M101.091 59.0098H101.055H94.5238H87.9746V65.5526H94.5238H101.055H101.091H107.622V59.0098H101.091Z" fill="#D1E7FF"/>
<path d="M81.4244 65.5522H81.4066H74.8753H68.3082H61.7412V72.113H68.3082H74.8753H81.4066H81.4244H87.9736V65.5522H81.4244Z" fill="#C5D7FF"/>
<path d="M81.4238 72.1123H81.406H74.8746H68.3076V78.6552H74.8746H81.406H81.4238H87.973V72.1123H81.4238Z" fill="#C5D7FF"/>
<path d="M101.091 72.1123H101.055H94.5238H87.9746V78.6552H94.5238H101.055H101.091H107.622V72.1123H101.091Z" fill="#D1E7FF"/>
<path d="M81.4242 78.6562H81.4063H74.875V85.217H81.4063H81.4242H87.9734V78.6562H81.4242Z" fill="#C5D7FF"/>
<path d="M94.5238 78.6562H87.9746V85.217H94.5238H101.091V78.6562H94.5238Z" fill="#D1E7FF"/>
<path d="M87.9742 85.2168H81.4072V91.7775H87.9742V85.2168Z" fill="#C5D7FF"/>
<path d="M94.5416 85.2168H87.9746V91.7775H94.5416V85.2168Z" fill="#D1E7FF"/>
<path d="M107.622 65.5522H101.091H101.055H94.5238H87.9746V72.113H94.5238H101.055H101.091H107.622H114.189V65.5522H107.622Z" fill="#D1E7FF"/>
<path d="M61.7601 94.8438H58.4766V98.1241H61.7601V94.8438Z" fill="#C5D7FF"/>
<path d="M61.7604 98.124H61.7425H58.4769H55.1934V101.404H58.4769H61.7425H61.7604H65.026V98.124H61.7604Z" fill="#C5D7FF"/>
<path d="M71.5921 94.8438H68.3086V98.1241H71.5921V94.8438Z" fill="#D1E7FF"/>
<path d="M71.5924 98.124H71.5746H68.3089H65.0254V101.404H68.3089H71.5746H71.5924H74.8581V98.124H71.5924Z" fill="#D1E7FF"/>
<path d="M61.7604 101.405H61.7426H58.4769H55.1934H51.9277V104.668H55.1934H58.4769H61.7426H61.7604H65.0261V101.405H61.7604Z" fill="#C5D7FF"/>
<path d="M61.7604 104.667H61.7425H58.4769H55.1934V107.947H58.4769H61.7425H61.7604H65.026V104.667H61.7604Z" fill="#C5D7FF"/>
<path d="M71.5924 104.667H71.5746H68.3089H65.0254V107.947H68.3089H71.5746H71.5924H74.8581V104.667H71.5924Z" fill="#D1E7FF"/>
<path d="M61.7601 107.947H61.7422H58.4766V111.228H61.7422H61.7601H65.0257V107.947H61.7601Z" fill="#C5D7FF"/>
<path d="M68.3089 107.947H65.0254V111.228H68.3089H71.5924V107.947H68.3089Z" fill="#D1E7FF"/>
<path d="M65.0267 111.228H61.7432V114.508H65.0267V111.228Z" fill="#C5D7FF"/>
<path d="M68.3089 111.228H65.0254V114.508H68.3089V111.228Z" fill="#D1E7FF"/>
<path d="M74.8581 101.405H71.5924H71.5746H68.3089H65.0254V104.668H68.3089H71.5746H71.5924H74.8581H78.1416V101.405H74.8581Z" fill="#D1E7FF"/>
<path d="M96.7356 107.947H94.6846V109.997H96.7356V107.947Z" fill="#C5D7FF"/>
<path d="M96.7382 109.997H96.7203H94.686H92.6338V112.047H94.686H96.7203H96.7382H98.7725V109.997H96.7382Z" fill="#C5D7FF"/>
<path d="M102.875 107.947H100.824V109.997H102.875V107.947Z" fill="#D1E7FF"/>
<path d="M102.877 109.997H100.825H98.7725V112.047H100.825H102.877H104.929V109.997H102.877Z" fill="#D1E7FF"/>
<path d="M96.7376 112.046H96.7198H94.6854H92.6333H90.5811V114.097H92.6333H94.6854H96.7198H96.7376H98.772V112.046H96.7376Z" fill="#C5D7FF"/>
<path d="M96.7382 114.097H96.7203H94.686H92.6338V116.147H94.686H96.7203H96.7382H98.7725V114.097H96.7382Z" fill="#C5D7FF"/>
<path d="M102.877 114.097H100.825H98.7725V116.147H100.825H102.877H104.929V114.097H102.877Z" fill="#D1E7FF"/>
<path d="M96.7368 116.148H96.7189H94.6846V118.198H96.7189H96.7368H98.7711V116.148H96.7368Z" fill="#C5D7FF"/>
<path d="M100.825 116.148H98.7725V118.198H100.825H102.877V116.148H100.825Z" fill="#D1E7FF"/>
<path d="M98.7717 118.198H96.7207V120.248H98.7717V118.198Z" fill="#C5D7FF"/>
<path d="M100.823 118.198H98.7725V120.248H100.823V118.198Z" fill="#D1E7FF"/>
<path d="M104.929 112.046H102.877H100.825H98.7725V114.097H100.825H102.877H104.929H106.963V112.046H104.929Z" fill="#D1E7FF"/>
<path d="M157.321 87.0714C157.321 96.0032 150.076 94.1134 141.136 94.1134C132.195 94.1134 124.95 96.0032 124.95 87.0714C124.95 78.1395 132.195 70.9014 141.136 70.9014C150.076 70.9192 157.321 78.1574 157.321 87.0714Z" fill="#6695FF"/>
<path d="M147.4 89.2642C147.4 88.355 144.598 87.624 141.136 87.624C137.674 87.624 134.873 88.355 134.873 89.2642L133.267 101.441C133.267 102.582 136.782 103.491 141.136 103.491C145.473 103.491 149.006 102.564 149.006 101.441L147.4 89.2642Z" fill="#C5D7FF"/>
<path d="M125.29 83.8273C126.468 84.6653 127.878 85.1644 129.43 85.1644C133.374 85.1644 136.568 81.9732 136.568 78.0332C136.568 75.8404 135.551 73.8971 133.998 72.5957C129.591 74.7707 126.307 78.889 125.29 83.8273Z" fill="#D1E7FF"/>
<path d="M157.304 86.572C157.143 81.6515 154.805 77.3015 151.218 74.4312C149.862 75.7326 149.023 77.5332 149.023 79.5656C149.023 83.5056 152.218 86.6968 156.162 86.6968C156.536 86.679 156.929 86.6255 157.304 86.572Z" fill="#D1E7FF"/>
<path d="M180.45 70.5088C178.273 76.6951 173.705 73.6108 167.512 71.4358C161.32 69.2608 155.842 68.7973 158.019 62.6109C160.196 56.4246 166.995 53.1799 173.187 55.3728C179.379 57.5478 182.627 64.3403 180.45 70.5088Z" fill="#6695FF"/>
<path d="M173.044 69.6167C173.258 68.9928 171.509 67.7983 169.1 66.9604C166.709 66.1225 164.585 65.9442 164.353 66.5682L160.267 74.6086C159.981 75.393 162.212 76.8906 165.21 77.9603C168.226 79.0299 170.885 79.2439 171.17 78.4594L173.044 69.6167Z" fill="#C5D7FF"/>
<path d="M159.053 60.4357C159.659 61.3092 160.516 62.0045 161.587 62.3789C164.317 63.3416 167.315 61.9154 168.279 59.1877C168.814 57.6723 168.582 56.0678 167.815 54.7842C164.246 55.2121 160.962 57.2623 159.053 60.4357Z" fill="#D1E7FF"/>
<path d="M180.556 70.1528C181.644 66.712 181.091 63.1286 179.306 60.2583C178.057 60.8288 177.022 61.8807 176.523 63.2712C175.559 65.9989 176.986 68.994 179.717 69.9567C180.002 70.0459 180.288 70.1172 180.556 70.1528Z" fill="#D1E7FF"/>
<path opacity="0.2" d="M161.928 117.236C152.255 117.236 143.886 122.799 139.817 130.875L142.298 134.619H147.259L150.614 138.327H154.647L157.538 141.589L161.928 141.982L155.753 143.069L154.361 145.779L149.293 146.332L146.92 149.523H142.53L139.835 153.088C143.922 161.165 152.273 166.727 161.945 166.727C175.633 166.727 186.714 155.638 186.714 141.982C186.714 128.325 175.615 117.236 161.928 117.236Z" fill="#1785FF"/>
<path d="M164.568 127.754C165.174 129.84 163.961 132.033 161.873 132.639C159.785 133.245 157.59 132.033 156.983 129.947L164.568 127.754Z" fill="white"/>
<path d="M156.769 129.163C156.162 127.077 157.375 124.884 159.463 124.278C161.551 123.672 163.746 124.884 164.353 126.97L156.769 129.163Z" fill="white"/>
<path d="M134.087 141.055H131.785V138.755C131.785 137.864 131.053 137.133 130.161 137.133C129.269 137.133 128.537 137.864 128.537 138.755V141.055H126.235C125.343 141.055 124.611 141.786 124.611 142.677C124.611 143.569 125.343 144.3 126.235 144.3H128.537V146.599C128.537 147.491 129.269 148.222 130.161 148.222C131.053 148.222 131.785 147.491 131.785 146.599V144.3H134.087C134.979 144.3 135.711 143.569 135.711 142.677C135.711 141.786 134.979 141.055 134.087 141.055Z" fill="#D1E7FF"/>
<path d="M111.709 141.055H109.389V138.755C109.389 137.864 108.658 137.133 107.765 137.133C106.873 137.133 106.141 137.864 106.141 138.755V141.055H103.857C102.965 141.055 102.233 141.786 102.233 142.677C102.233 143.569 102.965 144.3 103.857 144.3H106.159V146.599C106.159 147.491 106.891 148.222 107.783 148.222C108.676 148.222 109.407 147.491 109.407 146.599V144.3H111.709C112.601 144.3 113.333 143.569 113.333 142.677C113.315 141.786 112.601 141.055 111.709 141.055Z" fill="#D1E7FF"/>
<path d="M89.3137 141.055H87.0116V138.755C87.0116 137.864 86.28 137.133 85.3877 137.133C84.4955 137.133 83.7638 137.864 83.7638 138.755V141.055H81.4618C80.5695 141.055 79.8379 141.786 79.8379 142.677C79.8379 143.569 80.5695 144.3 81.4618 144.3H83.7638V146.599C83.7638 147.491 84.4955 148.222 85.3877 148.222C86.28 148.222 87.0116 147.491 87.0116 146.599V144.3H89.3137C90.2059 144.3 90.9376 143.569 90.9376 142.677C90.9376 141.786 90.2059 141.055 89.3137 141.055Z" fill="#D1E7FF"/>
<path d="M117 173H105V241H117V173Z" fill="#9FBDFF"/>
<path d="M120.294 241.783H99.9326L104.787 238.146H116.225L120.294 241.783Z" fill="#9FBDFF"/>
<path d="M146.829 241.854H143.153L143.189 238.681L146.829 241.854Z" fill="#C5D7FF"/>
<path d="M143.189 172.966L143.153 241.854L120.293 241.782L116.225 238.145V172.841L143.189 172.966Z" fill="#C5D7FF"/>
<path d="M346 600C537.091 600 692 590.965 692 579.819C692 568.673 537.091 559.638 346 559.638C154.909 559.638 0 568.673 0 579.819C0 590.965 154.909 600 346 600Z" fill="#C7E0F6"/>
<path d="M611.104 584.294H613.496C615.334 584.294 616.815 582.814 616.815 580.978V356.809H607.785V580.978C607.785 582.814 609.266 584.294 611.104 584.294Z" fill="#407BFF"/>
<path opacity="0.3" d="M611.104 584.294H613.496C615.334 584.294 616.815 582.814 616.815 580.978V356.809H607.785V580.978C607.785 582.814 609.266 584.294 611.104 584.294Z" fill="white"/>
<path d="M610.355 547.497V543.914C610.355 542.416 609.141 541.186 607.624 541.186H450.658V550.207H607.624C609.141 550.207 610.355 548.995 610.355 547.497Z" fill="#407BFF"/>
<path opacity="0.4" d="M610.355 547.497V543.914C610.355 542.416 609.141 541.186 607.624 541.186H450.658V550.207H607.624C609.141 550.207 610.355 548.995 610.355 547.497Z" fill="white"/>
<path d="M451.443 584.294H453.835C455.673 584.294 457.154 582.814 457.154 580.978V356.809H448.124V580.978C448.124 582.814 449.605 584.294 451.443 584.294Z" fill="#407BFF"/>
<path opacity="0.2" d="M616.815 356.809H607.785V364.938H616.815V356.809Z" fill="black"/>
<path opacity="0.2" d="M457.154 356.809H448.124V364.938H457.154V356.809Z" fill="black"/>
<path d="M243.327 356.799L616.809 356.799V341.325L243.327 341.325V356.799Z" fill="#407BFF"/>
<path opacity="0.3" d="M243.327 356.799L616.809 356.799V341.325L243.327 341.325V356.799Z" fill="white"/>
<path opacity="0.1" d="M446.843 356.799H616.818V341.325H446.843V356.799Z" fill="black"/>
<path d="M223.984 342.437L636.172 342.437V332.774L223.984 332.774V342.437Z" fill="#407BFF"/>
<path opacity="0.5" d="M223.984 342.437L636.172 342.437V332.774L223.984 332.774V342.437Z" fill="white"/>
<path opacity="0.2" d="M446.837 342.437H636.174V332.774H446.837V342.437Z" fill="black"/>
<path opacity="0.3" d="M457.155 356.809H448.125V580.693C448.125 582.689 449.731 584.294 451.73 584.294H453.55C455.549 584.294 457.155 582.689 457.155 580.693" fill="white"/>
<path d="M407.349 584.294H409.741C411.579 584.294 413.06 582.814 413.06 580.978V356.809H404.03V580.978C404.03 582.814 405.511 584.294 407.349 584.294Z" fill="#407BFF"/>
<path opacity="0.3" d="M407.349 584.294H409.741C411.579 584.294 413.06 582.814 413.06 580.978V356.809H404.03V580.978C404.03 582.814 405.511 584.294 407.349 584.294Z" fill="white"/>
<path d="M406.617 547.497V543.914C406.617 542.416 405.404 541.186 403.887 541.186H246.921V550.207H403.887C405.386 550.207 406.617 548.995 406.617 547.497Z" fill="#407BFF"/>
<path opacity="0.4" d="M406.617 547.497V543.914C406.617 542.416 405.404 541.186 403.887 541.186H246.921V550.207H403.887C405.386 550.207 406.617 548.995 406.617 547.497Z" fill="white"/>
<path d="M247.688 584.294H250.08C251.918 584.294 253.399 582.814 253.399 580.978V356.809H244.369V580.978C244.369 582.814 245.85 584.294 247.688 584.294Z" fill="#407BFF"/>
<path opacity="0.2" d="M413.06 356.809H404.03V364.938H413.06V356.809Z" fill="black"/>
<path opacity="0.2" d="M253.399 356.809H244.369V364.938H253.399V356.809Z" fill="black"/>
<path opacity="0.3" d="M253.399 356.809H244.369V580.693C244.369 582.689 245.975 584.294 247.974 584.294H249.794C251.793 584.294 253.399 582.689 253.399 580.693" fill="white"/>
<path d="M333.973 322.578H393.986V334.255H273.941V328.319L333.973 322.578Z" fill="#263238"/>
<path opacity="0.7" d="M333.973 322.578H393.986V334.255H273.941V328.319L333.973 322.578Z" fill="white"/>
<path opacity="0.5" d="M333.973 334.255H393.986V322.578L333.973 328.319V334.255Z" fill="black"/>
<path d="M597.527 425.677H527.11V584.292H597.527V425.677Z" fill="#263238"/>
<path opacity="0.3" d="M597.527 425.677H527.11V584.292H597.527V425.677Z" fill="white"/>
<path d="M539.066 425.677H468.649V584.292H539.066V425.677Z" fill="#104984"/>
<path opacity="0.7" d="M539.066 425.677H468.649V584.292H539.066V425.677Z" fill="white"/>
<path opacity="0.4" d="M512.727 471.423H495.007L468.649 425.677H539.084L512.727 471.423Z" fill="white"/>
<path opacity="0.4" d="M512.727 491.979H495.007L468.649 584.293H539.084L512.727 491.979Z" fill="white"/>
<path opacity="0.7" d="M512.711 471.423H495.009V491.979H512.711V471.423Z" fill="white"/>
<path d="M503.875 488.43C502.179 488.43 500.573 487.771 499.378 486.559C498.182 485.364 497.504 483.76 497.504 482.066C497.504 480.372 498.164 478.768 499.378 477.573L501.091 479.285C500.341 480.033 499.931 481.032 499.931 482.084C499.931 483.136 500.341 484.134 501.091 484.883C502.59 486.38 505.177 486.38 506.676 484.883C507.426 484.134 507.836 483.153 507.836 482.084C507.836 481.032 507.426 480.033 506.676 479.285L508.389 477.573C509.585 478.768 510.263 480.372 510.263 482.066C510.263 483.76 509.603 485.364 508.389 486.559C507.176 487.753 505.57 488.43 503.875 488.43Z" fill="#407BFF"/>
<path d="M505.085 474.971H502.659V480.89H505.085V474.971Z" fill="#407BFF"/>
<path d="M298.584 296.247H290.446V327.499H298.584V296.247Z" fill="#263238"/>
<path opacity="0.3" d="M298.584 296.247H290.446V327.499H298.584V296.247Z" fill="white"/>
<path d="M304.08 321.206H284.95C284.129 321.206 283.309 321.366 282.541 321.669L267.319 327.873C264.91 328.854 263.34 331.189 263.34 333.792H325.691C325.691 331.189 324.12 328.854 321.711 327.873L306.489 321.669C305.722 321.366 304.901 321.206 304.08 321.206Z" fill="#263238"/>
<path opacity="0.5" d="M304.08 321.206H284.95C284.129 321.206 283.309 321.366 282.541 321.669L267.319 327.873C264.91 328.854 263.34 331.189 263.34 333.792H325.691C325.691 331.189 324.12 328.854 321.711 327.873L306.489 321.669C305.722 321.366 304.901 321.206 304.08 321.206Z" fill="white"/>
<path opacity="0.1" d="M298.584 296.247H290.446V307.71H298.584V296.247Z" fill="black"/>
<path d="M354.011 212.615H235.02V300.4H354.011V212.615Z" fill="#263238"/>
<path opacity="0.5" d="M354.011 212.615H235.02V300.4H354.011V212.615Z" fill="white"/>
<path d="M354.012 300.4L358.33 296.532V216.484L354.012 212.615V300.4Z" fill="#263238"/>
<path opacity="0.3" d="M354.012 300.4L358.33 296.532V216.484L354.012 212.615V300.4Z" fill="white"/>
<path d="M349.176 217.465H239.856V293.644H349.176V217.465Z" fill="#407BFF"/>
<path opacity="0.4" d="M349.176 217.465H239.856V293.644H349.176V217.465Z" fill="white"/>
<path d="M304.044 262.445C301.939 264.655 298.227 263.336 297.941 260.305C297.299 253.584 296.353 249.555 297.763 246.078C299.797 241.069 305.508 238.644 310.522 240.659C315.537 242.691 317.964 248.396 315.947 253.406L304.044 262.445Z" fill="#407BFF"/>
<path d="M304.044 260.804C301.939 263.015 298.227 261.696 297.941 258.665C297.299 251.944 296.353 247.915 297.763 244.438C299.797 239.429 305.508 237.004 310.522 239.019C315.537 241.051 317.964 246.756 315.947 251.766L304.044 260.804Z" fill="#407BFF"/>
<path opacity="0.3" d="M304.044 260.804C301.939 263.015 298.227 261.696 297.941 258.665C297.299 251.944 296.353 247.915 297.763 244.438C299.797 239.429 305.508 237.004 310.522 239.019C315.537 241.051 317.964 246.756 315.947 251.766L304.044 260.804Z" fill="white"/>
<path d="M339.986 262.445C342.091 264.655 345.803 263.336 346.089 260.305C346.731 253.584 347.677 249.555 346.267 246.078C344.233 241.069 338.522 238.644 333.508 240.659C328.493 242.691 326.066 248.396 328.083 253.406L339.986 262.445Z" fill="#407BFF"/>
<path opacity="0.3" d="M339.611 260.804C341.716 263.015 345.428 261.696 345.714 258.665C346.356 251.944 347.302 247.915 345.892 244.438C343.858 239.429 338.147 237.004 333.133 239.019C328.118 241.051 325.691 246.756 327.708 251.766L339.611 260.804Z" fill="white"/>
<path d="M336.575 249.145H306.863V257.399H336.575V249.145Z" fill="#407BFF"/>
<path opacity="0.3" d="M336.575 249.145H306.863V257.399H336.575V249.145Z" fill="white"/>
<path d="M336.575 238.876H306.863V253.049H336.575V238.876Z" fill="#407BFF"/>
<path opacity="0.6" d="M336.575 238.876H306.863V253.049H336.575V238.876Z" fill="white"/>
<path d="M315.947 251.766C313.912 256.775 308.202 259.2 303.187 257.185C298.173 255.153 295.746 249.448 297.762 244.438C299.797 239.429 305.507 237.004 310.522 239.019C315.554 241.051 317.963 246.756 315.947 251.766Z" fill="#407BFF"/>
<path opacity="0.7" d="M315.947 251.766C313.912 256.775 308.202 259.2 303.187 257.185C298.173 255.153 295.746 249.448 297.762 244.438C299.797 239.429 305.507 237.004 310.522 239.019C315.554 241.051 317.963 246.756 315.947 251.766Z" fill="white"/>
<path d="M312.592 247.986C312.592 251.196 309.986 253.781 306.792 253.781C303.58 253.781 300.992 251.178 300.992 247.986C300.992 244.795 303.598 242.192 306.792 242.192C310.004 242.192 312.592 244.795 312.592 247.986Z" fill="#407BFF"/>
<path opacity="0.3" d="M312.592 247.986C312.592 251.196 309.986 253.781 306.792 253.781C303.58 253.781 300.992 251.178 300.992 247.986C300.992 244.795 303.598 242.192 306.792 242.192C310.004 242.192 312.592 244.795 312.592 247.986Z" fill="black"/>
<path d="M327.511 251.766C329.545 256.775 335.255 259.2 340.27 257.185C345.284 255.153 347.711 249.448 345.695 244.438C343.66 239.429 337.95 237.004 332.935 239.019C327.921 241.051 325.494 246.756 327.511 251.766Z" fill="#407BFF"/>
<path opacity="0.7" d="M327.511 251.766C329.545 256.775 335.255 259.2 340.27 257.185C345.284 255.153 347.711 249.448 345.695 244.438C343.66 239.429 337.95 237.004 332.935 239.019C327.921 241.051 325.494 246.756 327.511 251.766Z" fill="white"/>
<path d="M324.281 243.761H319.124V245.276H324.281V243.761Z" fill="#407BFF"/>
<path d="M333.881 245.935C334.041 246.791 333.488 247.611 332.65 247.772C331.794 247.932 330.973 247.38 330.813 246.542C330.652 245.686 331.205 244.866 332.044 244.705C332.9 244.527 333.72 245.08 333.881 245.935Z" fill="#407BFF"/>
<path d="M337.609 245.045C337.77 245.9 337.217 246.72 336.378 246.881C335.522 247.041 334.702 246.489 334.541 245.651C334.381 244.795 334.934 243.975 335.772 243.814C336.61 243.636 337.431 244.207 337.609 245.045Z" fill="#407BFF"/>
<path d="M334.844 250.838C335.005 251.694 334.452 252.514 333.614 252.675C332.758 252.835 331.937 252.282 331.777 251.444C331.616 250.589 332.169 249.769 333.007 249.608C333.846 249.43 334.684 249.983 334.844 250.838Z" fill="#407BFF"/>
<path d="M338.557 249.947C338.718 250.803 338.165 251.623 337.327 251.783C336.471 251.944 335.65 251.391 335.49 250.553C335.329 249.697 335.882 248.877 336.72 248.717C337.576 248.556 338.397 249.109 338.557 249.947Z" fill="#407BFF"/>
<path d="M341.358 244.26C341.519 245.115 340.966 245.935 340.127 246.096C339.271 246.256 338.451 245.704 338.29 244.866C338.13 244.01 338.683 243.19 339.521 243.03C340.377 242.851 341.198 243.404 341.358 244.26Z" fill="#407BFF"/>
<path d="M342.322 249.162C342.482 250.018 341.93 250.838 341.091 250.999C340.235 251.159 339.415 250.607 339.254 249.769C339.094 248.913 339.647 248.093 340.485 247.932C341.341 247.754 342.161 248.307 342.322 249.162Z" fill="#407BFF"/>
<path opacity="0.3" d="M310.238 247.968C310.238 249.876 308.703 251.409 306.794 251.409C304.884 251.409 303.35 249.876 303.35 247.968C303.35 246.061 304.884 244.527 306.794 244.527C308.703 244.527 310.238 246.061 310.238 247.968Z" fill="#407BFF"/>
<path d="M294.497 227.128H244.655V284.819H294.497V227.128Z" fill="#263238"/>
<path opacity="0.5" d="M294.497 227.128H244.655V284.819H294.497V227.128Z" fill="white"/>
<path d="M293.049 231.354H246.099V282.805H293.049V231.354Z" fill="black"/>
<path d="M259.166 236.88H252.206V239.055H259.166V236.88Z" fill="#407BFF"/>
<path d="M267.356 236.88H260.396V239.055H267.356V236.88Z" fill="#407BFF"/>
<path d="M283.774 236.88H276.814V239.055H283.774V236.88Z" fill="#407BFF"/>
<path d="M286.967 241.659H279.294V243.834H286.967V241.659Z" fill="#407BFF"/>
<path d="M268.909 246.454H263.895V248.629H268.909V246.454Z" fill="#407BFF"/>
<path d="M277.939 246.454H270.266V248.629H277.939V246.454Z" fill="#407BFF"/>
<path d="M284.79 246.454H279.294V248.629H284.79V246.454Z" fill="#407BFF"/>
<path d="M270.728 256.01H261.234V258.185H270.728V256.01Z" fill="#407BFF"/>
<path d="M277.937 256.01H272.084V258.185H277.937V256.01Z" fill="#407BFF"/>
<path d="M279.686 265.583H272.013V267.759H279.686V265.583Z" fill="#407BFF"/>
<path d="M286.968 265.583H281.043V267.759H286.968V265.583Z" fill="#407BFF"/>
<path d="M259.879 275.157H252.206V277.332H259.879V275.157Z" fill="#407BFF"/>
<path d="M271.407 241.658H259.165V243.833H271.407V241.658Z" fill="#407BFF"/>
<path d="M268.889 251.232H259.842V253.407H268.889V251.232Z" fill="#407BFF"/>
<path d="M286.967 256.009H279.294V258.184H286.967V256.009Z" fill="#407BFF"/>
<path d="M267.159 260.806H259.485V262.981H267.159V260.806Z" fill="#407BFF"/>
<path d="M276.187 260.806H268.514V262.981H276.187V260.806Z" fill="#407BFF"/>
<path d="M259.879 265.583H252.205V267.758H259.879V265.583Z" fill="#407BFF"/>
<path d="M276.189 270.379H270.265V272.554H276.189V270.379Z" fill="#407BFF"/>
<path d="M286.967 270.379H277.545V272.554H286.967V270.379Z" fill="#407BFF"/>
<path d="M270.657 275.157H261.234V277.332H270.657V275.157Z" fill="#407BFF"/>
<g opacity="0.5">
<path opacity="0.5" d="M271.407 241.658H259.165V243.833H271.407V241.658Z" fill="white"/>
<path opacity="0.5" d="M268.889 251.232H259.842V253.407H268.889V251.232Z" fill="white"/>
<path opacity="0.5" d="M286.967 256.009H279.294V258.184H286.967V256.009Z" fill="white"/>
<path opacity="0.5" d="M267.159 260.806H259.485V262.981H267.159V260.806Z" fill="white"/>
<path opacity="0.5" d="M276.187 260.806H268.514V262.981H276.187V260.806Z" fill="white"/>
<path opacity="0.5" d="M259.879 265.583H252.205V267.758H259.879V265.583Z" fill="white"/>
<path opacity="0.5" d="M276.189 270.379H270.265V272.554H276.189V270.379Z" fill="white"/>
<path opacity="0.5" d="M286.967 270.379H277.545V272.554H286.967V270.379Z" fill="white"/>
<path opacity="0.5" d="M270.657 275.157H261.234V277.332H270.657V275.157Z" fill="white"/>
</g>
<path d="M275.564 236.88H268.604V239.055H275.564V236.88Z" fill="#407BFF"/>
<path d="M277.938 241.659H272.763V243.834H277.938V241.659Z" fill="#407BFF"/>
<path d="M262.537 246.454H252.205V248.629H262.537V246.454Z" fill="#407BFF"/>
<path d="M279.616 251.231H270.265V253.406H279.616V251.231Z" fill="#407BFF"/>
<path d="M286.968 251.231H280.972V253.406H286.968V251.231Z" fill="#407BFF"/>
<path d="M259.879 256.01H252.205V258.185H259.879V256.01Z" fill="#407BFF"/>
<path d="M285.218 260.805H277.545V262.98H285.218V260.805Z" fill="#407BFF"/>
<path d="M270.657 265.583H261.234V267.759H270.657V265.583Z" fill="#407BFF"/>
<path d="M268.891 270.379H262.967V272.554H268.891V270.379Z" fill="#407BFF"/>
<path d="M279.685 275.157H272.012V277.332H279.685V275.157Z" fill="#407BFF"/>
<g opacity="0.4">
<path opacity="0.4" d="M275.564 236.88H268.604V239.055H275.564V236.88Z" fill="black"/>
<path opacity="0.4" d="M277.938 241.659H272.763V243.834H277.938V241.659Z" fill="black"/>
<path opacity="0.4" d="M262.537 246.454H252.205V248.629H262.537V246.454Z" fill="black"/>
<path opacity="0.4" d="M279.616 251.231H270.265V253.406H279.616V251.231Z" fill="black"/>
<path opacity="0.4" d="M286.968 251.231H280.972V253.406H286.968V251.231Z" fill="black"/>
<path opacity="0.4" d="M259.879 256.01H252.205V258.185H259.879V256.01Z" fill="black"/>
<path opacity="0.4" d="M285.218 260.805H277.545V262.98H285.218V260.805Z" fill="black"/>
<path opacity="0.4" d="M270.657 265.583H261.234V267.759H270.657V265.583Z" fill="black"/>
<path opacity="0.4" d="M268.891 270.379H262.967V272.554H268.891V270.379Z" fill="black"/>
<path opacity="0.4" d="M279.685 275.157H272.012V277.332H279.685V275.157Z" fill="black"/>
</g>
<path d="M285.237 275.157H281.043V277.332H285.237V275.157Z" fill="#407BFF"/>
<path d="M543.407 296.247H535.27V327.499H543.407V296.247Z" fill="#263238"/>
<path opacity="0.3" d="M543.407 296.247H535.27V327.499H543.407V296.247Z" fill="white"/>
<path d="M548.904 321.206H529.774C528.953 321.206 528.132 321.366 527.364 321.669L512.143 327.873C509.733 328.854 508.163 331.189 508.163 333.792H570.514C570.514 331.189 568.944 328.854 566.535 327.873L551.313 321.669C550.545 321.366 549.742 321.206 548.904 321.206Z" fill="#263238"/>
<path opacity="0.5" d="M548.904 321.206H529.774C528.953 321.206 528.132 321.366 527.364 321.669L512.143 327.873C509.733 328.854 508.163 331.189 508.163 333.792H570.514C570.514 331.189 568.944 328.854 566.535 327.873L551.313 321.669C550.545 321.366 549.742 321.206 548.904 321.206Z" fill="white"/>
<path opacity="0.1" d="M543.407 296.247H535.27V307.71H543.407V296.247Z" fill="black"/>
<path d="M598.834 212.615H479.843V300.4H598.834V212.615Z" fill="#263238"/>
<path opacity="0.5" d="M598.834 212.615H479.843V300.4H598.834V212.615Z" fill="white"/>
<path d="M598.836 300.4L603.154 296.532V216.484L598.836 212.615V300.4Z" fill="#263238"/>
<path opacity="0.3" d="M598.836 300.4L603.154 296.532V216.484L598.836 212.615V300.4Z" fill="white"/>
<path d="M593.999 217.465H484.68V293.644H593.999V217.465Z" fill="#407BFF"/>
<path opacity="0.6" d="M593.999 217.465H484.68V293.644H593.999V217.465Z" fill="white"/>
<path d="M582.093 217.215H581.611H569.94H569.458H557.788H557.306H545.635H545.153H533.482H533.001H521.33H520.848H509.177H508.695H497.043H496.561H484.408V229.909V230.39V242.602V243.084V255.296V255.777V267.99V268.471V280.683V281.164V293.858H496.561H497.043H508.695H509.177H520.848H521.33H533.001H533.482H545.153H545.635H557.306H557.788H569.458H569.94H581.611H582.093H594.245V281.164V280.683V268.471V267.99V255.777V255.296V243.084V242.602V230.39V229.909V217.215H582.093ZM569.94 217.697H581.611V229.909H569.94V217.697ZM581.611 242.602H569.94V230.39H581.611V242.602ZM581.611 255.296H569.94V243.084H581.611V255.296ZM581.611 268.007H569.94V255.795H581.611V268.007ZM581.611 280.701H569.94V268.489H581.611V280.701ZM497.078 268.489H508.731V280.701H497.078V268.489ZM497.078 255.795H508.731V268.007H497.078V255.795ZM497.078 243.084H508.731V255.296H497.078V243.084ZM497.078 230.39H508.731V242.602H497.078V230.39ZM569.458 242.602H557.788V230.39H569.458V242.602ZM569.458 255.296H557.788V243.084H569.458V255.296ZM569.458 268.007H557.788V255.795H569.458V268.007ZM509.213 255.795H520.884V268.007H509.213V255.795ZM509.213 243.084H520.884V255.296H509.213V243.084ZM557.324 255.296H545.653V243.084H557.324V255.296ZM545.171 255.296H533.5V243.084H545.171V255.296ZM533.018 255.296H521.348V243.084H533.018V255.296ZM521.366 255.795H533.036V268.007H521.366V255.795ZM533.518 255.795H545.189V268.007H533.518V255.795ZM545.653 255.795H557.324V268.007H545.653V255.795ZM557.324 242.602H545.653V230.39H557.324V242.602ZM545.171 242.602H533.5V230.39H545.171V242.602ZM533.018 242.602H521.348V230.39H533.018V242.602ZM520.884 242.602H509.213V230.39H520.884V242.602ZM509.213 268.489H520.884V280.701H509.213V268.489ZM521.366 268.489H533.036V280.701H521.366V268.489ZM533.518 268.489H545.189V280.701H533.518V268.489ZM545.653 268.489H557.324V280.701H545.653V268.489ZM557.805 268.489H569.476V280.701H557.805V268.489ZM557.805 217.697H569.476V229.909H557.805V217.697ZM545.653 217.697H557.324V229.909H545.653V217.697ZM533.518 217.697H545.189V229.909H533.518V217.697ZM521.366 217.697H533.036V229.909H521.366V217.697ZM509.213 217.697H520.884V229.909H509.213V217.697ZM497.078 217.697H508.731V229.909H497.078V217.697ZM484.926 217.697H496.596V229.909H484.926V217.697ZM484.926 230.39H496.596V242.602H484.926V230.39ZM484.926 243.084H496.596V255.296H484.926V243.084ZM484.926 255.795H496.596V268.007H484.926V255.795ZM484.926 268.489H496.596V280.701H484.926V268.489ZM496.596 293.394H484.926V281.182H496.596V293.394ZM508.731 293.394H497.078V281.182H508.731V293.394ZM520.884 293.394H509.213V281.182H520.884V293.394ZM533.018 293.394H521.348V281.182H533.018V293.394ZM545.171 293.394H533.5V281.182H545.171V293.394ZM557.324 293.394H545.653V281.182H557.324V293.394ZM569.458 293.394H557.788V281.182H569.458V293.394ZM581.611 293.394H569.94V281.182H581.611V293.394ZM593.763 293.394H582.093V281.182H593.763V293.394ZM593.763 280.701H582.093V268.489H593.763V280.701ZM593.763 268.007H582.093V255.795H593.763V268.007ZM593.763 255.296H582.093V243.084H593.763V255.296ZM593.763 242.602H582.093V230.39H593.763V242.602ZM582.093 229.909V217.697H593.763V229.909H582.093Z" fill="#407BFF"/>
<path d="M577.025 226.396H561.786L558.234 232.529H550.775V229.195H522.705V245.829H513.55C509.642 245.829 506.483 248.985 506.483 252.889C506.483 256.793 509.642 259.949 513.55 259.949H522.705V278.329H537.944V289.472H546.171V289.597H558.841V281.378H546.171V278.329H550.775V246.649H558.234L561.786 252.782H577.025L584.645 239.589L577.025 226.396Z" fill="white"/>
<path d="M559.574 290.31H545.459V290.185H537.232V279.043H521.993V260.662H513.57C509.269 260.662 505.789 257.168 505.789 252.889C505.789 248.593 509.287 245.116 513.57 245.116H521.993V228.483H551.508V231.816H557.826L561.359 225.684H577.437L585.486 239.589L577.437 253.495H561.359L557.826 247.362H551.508V279.043H546.904V280.647H559.574V290.31ZM546.904 288.866H558.129V282.091H545.459V277.581H550.063V245.901H558.664L562.198 252.033H576.599L583.79 239.572L576.599 227.11H562.198L558.664 233.243H550.063V229.909H523.456V246.542H513.587C510.09 246.542 507.252 249.377 507.252 252.871C507.252 256.366 510.09 259.2 513.587 259.2H523.456V277.581H538.696V288.723H546.922V288.866H546.904Z" fill="#263238"/>
<path d="M546.905 268.827H539.892V251.355H546.905V268.827ZM541.337 267.383H545.441V252.817H541.337V267.383Z" fill="#263238"/>
<path d="M573.459 244.009H565.464V236.022H573.459V244.009ZM566.927 242.565H572.013V237.484H566.927V242.565Z" fill="#263238"/>
<path d="M530.326 240.017L528.881 232.85L540.409 240.017H530.326Z" fill="#407BFF"/>
<path opacity="0.7" d="M530.326 240.017L528.881 232.85L540.409 240.017H530.326Z" fill="white"/>
<path d="M530.326 240.018L528.881 247.202L540.409 240.018H530.326Z" fill="#407BFF"/>
<path opacity="0.3" d="M530.326 240.018L528.881 247.202L540.409 240.018H530.326Z" fill="black"/>
<path d="M532.177 271.162H490.58V289.026H532.177V271.162Z" fill="#263238"/>
<path opacity="0.5" d="M532.177 271.162H490.58V289.026H532.177V271.162Z" fill="white"/>
<path d="M530.962 274.674H491.774V287.332H530.962V274.674Z" fill="black"/>
<path d="M502.769 277.616H496.951V279.435H502.769V277.616Z" fill="#407BFF"/>
<path d="M509.621 277.616H506.248V279.435H509.621V277.616Z" fill="#407BFF"/>
<path d="M523.309 277.616H517.491V279.435H523.309V277.616Z" fill="#407BFF"/>
<path d="M525.966 281.61H519.56V283.429H525.966V281.61Z" fill="#407BFF"/>
<path d="M502.769 281.61H496.951V283.429H502.769V281.61Z" fill="#407BFF"/>
<path d="M513.083 281.61H506.248V283.429H513.083V281.61Z" fill="#407BFF"/>
<path d="M516.455 277.616H510.638V279.435H516.455V277.616Z" fill="#407BFF"/>
<path d="M518.438 281.61H514.119V283.429H518.438V281.61Z" fill="#407BFF"/>
<path d="M416.307 289.666H406.617V326.855H416.307V289.666Z" fill="#263238"/>
<path d="M416.307 289.666H406.617V326.855H416.307V289.666Z" fill="#263238"/>
<path d="M422.84 319.386H400.069C399.088 319.386 398.106 319.582 397.196 319.957L379.083 327.338C376.228 328.496 374.354 331.278 374.354 334.38H448.555C448.555 331.295 446.681 328.514 443.826 327.338L425.713 319.957C424.803 319.565 423.821 319.386 422.84 319.386Z" fill="#263238"/>
<path opacity="0.1" d="M416.307 289.666H406.617V300.202H416.307V289.666Z" fill="black"/>
<path d="M482.265 190.15H340.646V294.605H482.265V190.15Z" fill="#263238"/>
<path opacity="0.2" d="M482.265 190.15H340.646V294.605H482.265V190.15Z" fill="white"/>
<path d="M482.265 294.622L487.779 290.005V194.75L482.265 190.15V294.622Z" fill="#263238"/>
<path d="M435.316 225.737H387.598L346.786 197.248H476.146L435.316 225.737Z" fill="#407BFF"/>
<path opacity="0.3" d="M435.316 225.737H387.598L346.786 197.248H476.146L435.316 225.737Z" fill="white"/>
<path d="M435.316 259.04H387.598L346.786 287.529H476.146L435.316 259.04Z" fill="#407BFF"/>
<path opacity="0.5" d="M435.316 259.04H387.598L346.786 287.529H476.146L435.316 259.04Z" fill="white"/>
<path d="M435.316 259.039V225.737L476.146 197.248V287.529L435.316 259.039Z" fill="#407BFF"/>
<path opacity="0.2" d="M435.316 259.039V225.737L476.146 197.248V287.529L435.316 259.039Z" fill="white"/>
<path d="M387.598 259.039V225.737L346.786 197.248V287.529L387.598 259.039Z" fill="#407BFF"/>
<path opacity="0.2" d="M387.598 259.039V225.737L346.786 197.248V287.529L387.598 259.039Z" fill="white"/>
<path d="M435.334 225.736H387.599V259.056H435.334V225.736Z" fill="#407BFF"/>
<path opacity="0.7" d="M435.334 225.736H387.599V259.056H435.334V225.736Z" fill="white"/>
<path d="M476.144 287.528V279.345C472.254 276.225 466.811 273.158 463.635 277.009C460.637 280.628 459.655 284.265 460.119 287.528H476.144Z" fill="#407BFF"/>
<path d="M455.677 287.528H463.493L466.848 275.637C466.848 275.637 460.352 266.527 448.699 262.105C437.046 257.684 439.563 277.206 443.221 280.593C445.255 282.465 450.966 285.335 455.677 287.528Z" fill="#FF8B7B"/>
<path d="M458.962 287.528L456.446 264.654H451.128L448.594 287.528H458.962Z" fill="#263238"/>
<path opacity="0.2" d="M458.962 287.528L456.446 264.654H451.128L448.594 287.528H458.962Z" fill="white"/>
<path d="M454.107 287.528L451.573 264.654H446.255L443.739 287.528H454.107Z" fill="#263238"/>
<path opacity="0.4" d="M454.107 287.528L451.573 264.654H446.255L443.739 287.528H454.107Z" fill="white"/>
<path d="M448.467 263.442C448.467 263.442 451.001 265.118 452.089 274.014C453.178 282.911 449.663 283.142 447.253 282.055C444.826 280.967 443.238 280.308 443.238 280.308C443.238 280.308 439.152 261.392 448.467 263.442Z" fill="#FF8B7B"/>
<path d="M456.694 287.064L457.657 287.528H460.334L458.996 271.054C458.996 271.054 452.714 265.118 452.108 274.014C451.483 282.892 456.694 287.064 456.694 287.064Z" fill="#FF8B7B"/>
<path d="M464.065 252.086L439.332 239.588H432.872L430.748 246.506V252.086L451.841 269.843H467.099V261.927L464.065 252.086Z" fill="#263238"/>
<path opacity="0.5" d="M464.065 252.086L439.332 239.588H432.872L430.748 246.506V252.086L451.841 269.843H467.099V261.927L464.065 252.086Z" fill="white"/>
<path opacity="0.3" d="M464.066 252.085H454.875L451.842 261.927V269.842H467.099V261.927L464.066 252.085Z" fill="black"/>
<path opacity="0.1" d="M462.763 254.618H456.196L454.019 261.66V263.443H464.922V261.66L462.763 254.618Z" fill="black"/>
<path d="M456.196 254.618L454.019 261.66V262.195H463.673V260.412L461.888 254.618H456.196Z" fill="#407BFF"/>
<path opacity="0.2" d="M456.196 254.618L454.019 261.66V262.195H463.673V260.412L461.888 254.618H456.196Z" fill="black"/>
<path opacity="0.5" d="M454.876 252.086H464.066L439.333 239.588H432.873L454.876 252.086Z" fill="white"/>
<path opacity="0.2" d="M430.748 246.505V252.086L451.841 269.842V261.927L430.748 246.505Z" fill="black"/>
<path d="M437.421 250.143L439.187 244.384L440.15 244.919L438.348 250.82L437.421 250.143Z" fill="#407BFF"/>
<path d="M435.586 248.805L437.28 243.296L438.243 243.831L436.513 249.483L435.586 248.805Z" fill="#407BFF"/>
<path d="M433.746 247.468L435.369 242.209L436.314 242.744L434.674 248.128L433.746 247.468Z" fill="#407BFF"/>
<path d="M439.277 238.715L437.314 234.757H436.315L435.423 237.663V239.998L438.332 241.335H439.724V240.159L439.277 238.715Z" fill="#263238"/>
<path opacity="0.5" d="M439.277 238.715L437.314 234.757H436.315L435.423 237.663V239.998L438.332 241.335H439.724V240.159L439.277 238.715Z" fill="white"/>
<path opacity="0.2" d="M439.276 238.715H438.777L438.331 240.159V241.336H439.722V240.159L439.276 238.715Z" fill="black"/>
<path opacity="0.5" d="M438.776 238.715H439.275L437.313 234.757H436.314L438.776 238.715Z" fill="white"/>
<g opacity="0.9">
<path opacity="0.9" d="M382.24 208.833H377.083V210.295H382.24V208.833Z" fill="white"/>
<path opacity="0.9" d="M363.556 208.833H358.881V210.295H363.556V208.833Z" fill="white"/>
<path opacity="0.9" d="M371.873 208.833H366.358V210.295H371.873V208.833Z" fill="white"/>
<path opacity="0.9" d="M376.191 208.833H372.711V210.295H376.191V208.833Z" fill="white"/>
</g>
<g opacity="0.9">
<g opacity="0.9">
<path opacity="0.9" d="M363.556 205.606H358.881V207.068H363.556V205.606Z" fill="white"/>
<path opacity="0.9" d="M369.069 205.606H366.358V207.068H369.069V205.606Z" fill="white"/>
<path opacity="0.9" d="M380.097 205.606H375.422V207.068H380.097V205.606Z" fill="white"/>
<path opacity="0.9" d="M374.585 205.606H369.909V207.068H374.585V205.606Z" fill="white"/>
</g>
<g opacity="0.9">
<path opacity="0.9" d="M370.106 212.042H366.358V213.504H370.106V212.042Z" fill="white"/>
<path opacity="0.9" d="M376.173 212.042H371.016V213.504H376.173V212.042Z" fill="white"/>
<path opacity="0.9" d="M380.777 212.042H377.083V213.504H380.777V212.042Z" fill="white"/>
<path opacity="0.9" d="M363.556 212.042H358.881V213.504H363.556V212.042Z" fill="white"/>
</g>
</g>
<path d="M228.041 189.368C228.041 189.368 243.816 193.897 243.459 184.644C243.102 175.391 229.789 185.036 226.256 182.594C222.741 180.151 228.041 189.368 228.041 189.368Z" fill="#263238"/>
<path opacity="0.6" d="M228.041 189.368C228.041 189.368 243.816 193.897 243.459 184.644C243.102 175.391 229.789 185.036 226.256 182.594C222.741 180.151 228.041 189.368 228.041 189.368Z" fill="black"/>
<path d="M291.82 533.984L289.928 568.642L277.347 569.604L274.046 534.216L291.82 533.984Z" fill="#FF8B7B"/>
<path d="M292.195 568.518C292.052 568.5 291.945 568.393 291.909 568.268C291.874 568.144 291.927 568.001 292.034 567.912C292.231 567.769 296.817 564.721 299.155 565.184C299.583 565.273 299.975 565.505 300.225 565.879C300.564 566.272 300.618 566.842 300.35 567.288C299.833 568.054 298.102 568.5 296.406 568.607C294.997 568.696 293.587 568.678 292.195 568.518ZM293.212 568.001C295.782 568.144 299.226 567.876 299.815 566.931C299.904 566.807 299.975 566.61 299.708 566.236C299.565 566.004 299.315 565.862 299.048 565.826C298.833 565.79 298.637 565.772 298.423 565.79C296.549 566.2 294.783 566.949 293.212 568.001Z" fill="#407BFF"/>
<path d="M292.018 568.518C291.911 568.464 291.857 568.357 291.857 568.233C291.857 568.054 291.964 564.346 293.606 562.795C294.07 562.332 294.713 562.1 295.373 562.118C296.265 562.135 296.586 562.581 296.64 562.938C297.033 564.453 293.963 567.644 292.375 568.5C292.339 568.518 292.286 568.536 292.232 568.518C292.161 568.536 292.089 568.536 292.018 568.518ZM295.194 562.742C294.784 562.759 294.391 562.938 294.106 563.223C293.16 564.471 292.643 565.986 292.589 567.537C294.213 566.414 296.212 563.936 296.069 563.027C296.033 562.938 295.98 562.706 295.391 562.706L295.194 562.742Z" fill="#407BFF"/>
<path d="M290.661 566.699L275.725 567.751C275.154 567.787 274.708 568.215 274.618 568.767L272.763 581.104C272.584 582.192 273.334 583.226 274.44 583.386C274.583 583.404 274.726 583.422 274.868 583.404C280.258 582.941 285.022 582.299 291.732 581.835C299.655 581.283 297.71 582.37 307.025 581.853C312.629 581.532 313.218 575.096 310.826 574.954C299.852 574.348 298.495 571.139 294.016 567.555C293.017 566.878 291.839 566.575 290.661 566.699Z" fill="#263238"/>
<path opacity="0.1" d="M290.554 557.143L276.188 557.178L274.886 543.201L291.321 543.005L290.554 557.143Z" fill="black"/>
<path d="M156.625 381.323C156.625 381.323 149.291 417.71 179.896 424.484C210.5 431.259 267.248 423.914 267.248 423.914C267.248 423.914 260.752 443.685 274.921 550.35L291.856 550.368C291.856 550.368 307.613 430.457 297.37 411.773C287.145 393.089 225.526 384.157 156.625 381.323Z" fill="#407BFF"/>
<path d="M156.625 381.323C156.625 381.323 149.291 417.71 179.896 424.484C210.5 431.259 267.248 423.914 267.248 423.914C267.248 423.914 260.752 443.685 274.921 550.35L291.856 550.368C291.856 550.368 307.613 430.457 297.37 411.773C287.145 393.089 225.526 384.157 156.625 381.323Z" fill="#407BFF"/>
<path opacity="0.2" d="M296.085 409.812C296.567 410.453 297.013 411.095 297.37 411.755C302.563 421.221 301.064 456.771 298.334 489.485C285.646 449.693 286.395 439.638 286.395 439.638C286.395 439.638 278.026 439.103 265.855 438.443C266.177 427.229 267.247 423.913 267.247 423.913C267.247 423.913 286.609 405.372 296.085 409.812Z" fill="black"/>
<path d="M293.588 545.679L292.642 552.4L274.047 552.418L273.119 545.982L293.588 545.679Z" fill="#407BFF"/>
<path opacity="0.3" d="M293.588 545.679L292.642 552.4L274.047 552.418L273.119 545.982L293.588 545.679Z" fill="white"/>
<path d="M346.158 566.734L334.826 568.891L330.329 553.47L326.082 538.869L324.119 532.147L340.787 527.869L341.5 533.092L343.838 550.029L346.158 566.734Z" fill="#FF8B7B"/>
<path d="M347.623 567.749C347.498 567.714 347.391 567.607 347.373 567.464C347.355 567.321 347.426 567.197 347.551 567.143C347.765 567.036 352.726 564.629 354.975 565.414C355.385 565.556 355.742 565.842 355.939 566.234C356.224 566.679 356.188 567.232 355.867 567.642C355.26 568.338 353.476 568.534 351.763 568.409C350.389 568.32 348.997 568.088 347.623 567.749ZM348.711 567.375C351.245 567.856 354.689 568.07 355.385 567.232C355.492 567.125 355.582 566.947 355.367 566.519C355.243 566.269 355.028 566.091 354.761 566.02C354.564 565.949 354.35 565.913 354.154 565.895C352.262 566.056 350.407 566.555 348.711 567.375Z" fill="#407BFF"/>
<path d="M347.463 567.714C347.374 567.642 347.321 567.536 347.338 567.411C347.374 567.232 347.981 563.578 349.819 562.258C350.354 561.866 351.014 561.706 351.657 561.831C352.549 561.973 352.799 562.455 352.799 562.829C352.995 564.38 349.498 567.125 347.802 567.749C347.767 567.767 347.713 567.767 347.66 567.749C347.606 567.767 347.517 567.749 347.463 567.714ZM351.407 562.437C350.997 562.401 350.586 562.526 350.265 562.775C349.159 563.881 348.427 565.307 348.159 566.84C349.926 565.949 352.246 563.774 352.21 562.847C352.192 562.758 352.174 562.526 351.586 562.437H351.407Z" fill="#407BFF"/>
<path d="M346.355 565.734L331.401 564.736C330.83 564.7 330.331 565.057 330.17 565.592L326.654 577.554C326.333 578.606 326.94 579.729 327.993 580.05C328.136 580.086 328.26 580.121 328.403 580.121C333.792 580.389 338.611 580.425 345.32 580.87C353.244 581.405 351.174 582.207 360.471 582.974C366.074 583.42 367.538 577.126 365.164 576.645C354.368 574.541 353.458 571.19 349.532 567.018C348.675 566.233 347.533 565.77 346.355 565.734Z" fill="#263238"/>
<path opacity="0.1" d="M344.158 549.939L343.837 550.029L330.328 553.469L326.081 538.868L341.499 533.092L341.553 533.074L344.158 549.939Z" fill="black"/>
<path d="M165.994 383.551C165.994 383.551 162.068 424.235 193.422 423.539C224.776 422.844 289.661 427.016 289.661 427.016C289.661 427.016 288.073 447.75 327.243 547.997L343.697 543.985C343.697 543.985 332.169 419.689 317.785 403.982C303.367 388.276 233.592 369.913 165.994 383.551Z" fill="#407BFF"/>
<path d="M345.213 538.904L345.962 546.285L325.993 551.152L323.299 544.555L345.213 538.904Z" fill="#407BFF"/>
<path opacity="0.3" d="M345.213 538.904L345.962 546.285L325.993 551.152L323.299 544.555L345.213 538.904Z" fill="white"/>
<path d="M239.409 207.285L245.351 215.629C245.351 215.629 242.603 217.893 238.517 216.663L239.409 207.285Z" fill="#FF5652"/>
<path d="M237.304 201.082C237.5 201.1 237.697 201.01 237.804 200.85C238.66 199.655 240.052 198.925 241.533 198.925C241.855 198.942 242.122 198.711 242.158 198.39C242.176 198.069 241.944 197.784 241.623 197.766C239.749 197.73 237.982 198.621 236.894 200.137C236.697 200.386 236.751 200.761 237.001 200.957C237.09 201.028 237.197 201.082 237.304 201.082Z" fill="#1A2E35"/>
<path d="M242.656 205.912C242.727 207.018 242.21 207.963 241.479 208.016C240.748 208.07 240.052 207.16 240.017 206.073C239.981 204.985 240.462 204.023 241.194 203.987C241.925 203.951 242.567 204.807 242.656 205.912Z" fill="#1A2E35"/>
<path d="M199.276 201.207C199.561 216.04 199.365 222.333 206.521 230.231C217.621 238.432 235.484 238.539 239.624 223.92C243.371 210.762 242.265 188.781 228.025 182.202C217.871 177.513 205.825 181.952 201.132 192.097C199.811 194.949 199.187 198.069 199.276 201.207Z" fill="#FF8B7B"/>
<path opacity="0.2" d="M221.956 235.757L222.027 235.026C222.188 233.403 223.616 230.355 225.204 230.711L231.414 233.974C228.577 235.329 225.311 235.899 221.956 235.757Z" fill="#1A2E35"/>
<path d="M222.312 231.977L218.279 254.244L197.775 251.499L204.414 228.59L222.312 231.977Z" fill="#FF8B7B"/>
<path d="M221.831 244.778L228.773 240.784C228.773 240.784 206.574 233.546 197.027 236.31C187.48 239.073 191.637 243.476 191.637 243.476L221.831 244.778Z" fill="#407BFF"/>
<path opacity="0.3" d="M221.831 244.778L228.773 240.784C228.773 240.784 206.574 233.546 197.027 236.31C187.48 239.073 191.637 243.476 191.637 243.476L221.831 244.778Z" fill="black"/>
<path d="M196.671 275.977C196.671 275.977 206.379 312.881 210.127 316.464C212.536 318.764 254.686 313.897 254.686 313.897L266.41 309.778C268.391 309.083 270.586 309.511 272.174 310.866C275.743 313.915 281.65 319.423 281.846 322.65C281.918 323.916 280.187 326.483 278.973 326.822C276.564 327.5 269.836 322.704 269.836 322.704L254.543 324.041C254.543 324.041 216.551 335.451 205.415 334.363C192.496 333.097 180.593 286.566 180.593 286.566L196.671 275.977Z" fill="#FF8B7B"/>
<path opacity="0.1" d="M196.671 275.977C196.671 275.977 206.379 312.881 210.127 316.464C212.536 318.764 254.686 313.897 254.686 313.897L266.41 309.778C268.391 309.083 270.586 309.511 272.174 310.866C275.743 313.915 281.65 319.423 281.846 322.65C281.918 323.916 280.187 326.483 278.973 326.822C276.564 327.5 269.836 322.704 269.836 322.704L254.543 324.041C254.543 324.041 216.551 335.451 205.415 334.363C192.496 333.097 180.593 286.566 180.593 286.566L196.671 275.977Z" fill="black"/>
<path d="M181.788 248.825C181.788 248.825 192.762 250.108 200.918 286.584C200.918 286.584 190.799 289.294 182.662 296.8C182.662 296.8 176.149 280.149 175.506 271.074C174.667 258.951 181.788 248.825 181.788 248.825Z" fill="#407BFF"/>
<path opacity="0.3" d="M181.788 248.825C181.788 248.825 192.762 250.108 200.918 286.584C200.918 286.584 190.799 289.294 182.662 296.8C182.662 296.8 176.149 280.149 175.506 271.074C174.667 258.951 181.788 248.825 181.788 248.825Z" fill="black"/>
<path d="M241.532 255.082C241.532 255.082 229.665 337.964 228.291 380.948C228.291 380.948 201.202 384.086 155.144 384.781C155.144 384.781 148.113 250.803 191.637 243.476C232.217 236.648 241.532 255.082 241.532 255.082Z" fill="#407BFF"/>
<path opacity="0.3" d="M241.533 255.082C241.533 255.082 230.362 325.77 228.987 368.753C228.987 368.753 202.309 368.058 156.251 368.753C156.251 368.753 148.095 250.803 191.62 243.476C232.217 236.648 241.533 255.082 241.533 255.082Z" fill="black"/>
<path opacity="0.2" d="M229.934 262.98L238.518 277.189C237.626 283.982 236.609 291.969 235.573 300.562C226.116 280.398 227.668 263.087 227.668 263.087L229.934 262.98Z" fill="black"/>
<path d="M243.87 258.166C243.87 258.166 261.537 296.995 265.998 300.186C268.854 302.236 302.224 298.92 302.224 298.92C302.224 298.92 312.788 290.809 316.893 291.272C321.764 291.825 330.848 299.188 331.847 303.983C332.115 305.285 330.705 308.227 329.474 308.761C327.064 309.831 321.961 305.909 319.337 305.838C315.304 305.731 307.506 308.494 303.598 309.528C290.964 312.844 275.528 319.03 263.768 319.565C250.116 320.189 228.72 271.643 228.72 271.643L243.87 258.166Z" fill="#FF8B7B"/>
<path d="M231.45 246.542C231.45 246.542 243.085 246.168 257.308 282.822C257.308 282.822 247.207 287.226 239.909 296.336C239.909 296.336 230.504 280.041 228.416 270.681C225.633 258.202 231.45 246.542 231.45 246.542Z" fill="#407BFF"/>
<path opacity="0.3" d="M231.45 246.542C231.45 246.542 243.085 246.168 257.308 282.822C257.308 282.822 247.207 287.226 239.909 296.336C239.909 296.336 230.504 280.041 228.416 270.681C225.633 258.202 231.45 246.542 231.45 246.542Z" fill="black"/>
<path d="M218.118 231.193C218.118 231.193 227.701 224.311 228.772 211.493C228.772 211.493 230.467 206.911 231.216 202.686C231.966 198.443 231.395 188.78 231.395 188.78C231.395 188.78 236.07 189.297 236.07 184.679C236.07 184.679 237.73 177.067 233.001 171.826C228.254 166.584 224.792 175.338 224.792 175.338C224.792 175.338 220.777 165.372 216.333 166.905C211.89 168.42 212.283 174.625 212.283 174.625C212.283 174.625 201.593 168.955 199.238 173.608C196.9 178.244 202.325 181.096 202.325 181.096C202.325 181.096 190.208 180.543 191.297 185.642C192.385 190.741 196.632 190.491 196.632 190.491C196.632 190.491 190.422 190.527 190.048 195.715C189.673 200.903 194.634 198.71 195.33 205.11C195.972 210.869 197.364 219.694 202.164 227.502C203.11 229.036 204.788 229.998 206.59 229.963C208.91 229.909 212.764 230.087 218.118 231.193Z" fill="#263238"/>
<path d="M229.792 205.556C230.862 208.39 230.773 211.528 229.506 214.291C227.811 217.946 225.83 217.09 223.724 213.917C221.815 211.047 220.423 205.716 223.367 203.095C226.33 200.475 228.435 202.115 229.792 205.556Z" fill="#FF8B7B"/>
<path d="M223.951 181.434C221.898 177.066 218.704 171.522 213.957 168.616C213.957 168.616 208.211 172.645 207.658 172.77C207.39 172.502 215.349 179.206 217.348 184.215C220.792 192.808 221.006 203.487 221.006 203.487L227.805 201.901C227.787 201.883 228.59 191.15 223.951 181.434Z" fill="#407BFF"/>
<g opacity="0.3">
<path opacity="0.3" d="M223.951 181.434C221.898 177.066 218.704 171.522 213.957 168.616C213.957 168.616 208.211 172.645 207.658 172.77C207.39 172.502 215.349 179.206 217.348 184.215C220.792 192.808 221.006 203.487 221.006 203.487L227.805 201.901C227.787 201.883 228.59 191.15 223.951 181.434Z" fill="black"/>
</g>
<path d="M232.035 196.784C237.942 200.67 239.583 208.604 235.693 214.505C231.803 220.406 223.862 222.046 217.955 218.16C214.654 216.27 211.816 208.372 215.707 202.471C219.615 196.588 226.164 192.933 232.035 196.784Z" fill="#407BFF"/>
<path opacity="0.3" d="M233.64 201.188C237.138 203.595 237.549 209.175 234.551 213.739C231.535 218.303 226.27 220.121 222.737 217.804C219.204 215.486 219.882 209.745 222.88 205.181C225.824 200.617 230.143 198.781 233.64 201.188Z" fill="black"/>
<path d="M221.132 209.745L236.247 207.873L235.372 209.958L222.113 211.777L221.132 209.745Z" fill="#263238"/>
<path d="M136.907 547.016C148.739 545.072 166.28 542.327 174.097 541.756C175.81 541.632 177.969 541.542 180.325 541.471V480.856H195.19V541.471C197.563 541.542 199.704 541.632 201.418 541.756C209.234 542.327 226.776 545.09 238.607 547.016C245.424 548.139 250.42 554.022 250.42 560.922V563.988H236.001L234.074 559.674C234.074 559.674 206.985 554.985 197.866 554.307C192.834 553.933 182.698 553.933 177.666 554.307C168.547 554.985 141.458 559.674 141.458 559.674L139.531 563.988H125.094V560.922C125.094 554.022 130.09 548.139 136.907 547.016Z" fill="#263238"/>
<path d="M120.971 574.15C120.971 579.748 125.521 584.294 131.125 584.294C136.728 584.294 141.279 579.748 141.279 574.15C141.279 568.552 136.728 564.006 131.125 564.006C125.521 564.006 120.971 568.534 120.971 574.15Z" fill="#263238"/>
<path opacity="0.5" d="M126.057 574.15C126.057 576.949 128.323 579.231 131.143 579.231C133.944 579.231 136.228 576.967 136.228 574.15C136.228 571.333 133.962 569.069 131.143 569.069C128.323 569.069 126.057 571.333 126.057 574.15Z" fill="white"/>
<path d="M234.216 574.15C234.216 579.748 238.766 584.294 244.37 584.294C249.973 584.294 254.524 579.748 254.524 574.15C254.524 568.552 249.973 564.006 244.37 564.006C238.766 563.988 234.216 568.534 234.216 574.15Z" fill="#263238"/>
<path opacity="0.5" d="M239.285 574.15C239.285 576.949 241.552 579.231 244.371 579.231C247.173 579.231 249.457 576.967 249.457 574.15C249.457 571.333 247.191 569.069 244.371 569.069C241.569 569.069 239.285 571.333 239.285 574.15Z" fill="white"/>
<path opacity="0.1" d="M195.19 480.856H180.325V499.112H195.19V480.856Z" fill="black"/>
<path d="M182.178 489.557H193.313C196.829 489.557 199.684 486.704 199.684 483.192V431.419H175.825V483.192C175.825 486.704 178.68 489.557 182.178 489.557Z" fill="#263238"/>
<path opacity="0.3" d="M182.178 489.557H193.313C196.829 489.557 199.684 486.704 199.684 483.192V431.419H175.825V483.192C175.825 486.704 178.68 489.557 182.178 489.557Z" fill="white"/>
<path opacity="0.2" d="M199.684 431.419H175.825V445.575H199.684V431.419Z" fill="black"/>
<path d="M107.105 419.35C121.346 415.731 135.961 413.735 150.63 413.36C165.745 412.986 222.314 413.307 235.751 413.307C252.097 413.307 268.461 415.321 284.326 419.35C294.301 421.9 291.232 436.269 282.22 436.43C281.417 436.447 110.407 436.394 109.782 436.43C100.342 436.858 96.9158 421.953 107.105 419.35Z" fill="#263238"/>
<path d="M78.8019 295.927C83.1204 295.927 86.7608 292.682 87.2605 288.403L89.4019 269.791C89.9016 265.494 93.5242 262.268 97.8605 262.268H111.405H120.274H133.819C137.78 262.268 141.224 265.013 142.117 268.864L146.828 289.348C147.72 293.217 151.146 295.945 155.126 295.945H157.892C162.21 295.945 165.851 299.189 166.35 303.468L179.877 420.616C180.466 425.661 176.504 430.083 171.418 430.083H157.874H105.873H92.3285C88.01 430.083 84.3696 426.838 83.8699 422.559L70.3433 305.411C69.7544 300.348 73.716 295.927 78.8019 295.927Z" fill="#263238"/>
<path opacity="0.3" d="M78.8019 295.927C83.1204 295.927 86.7608 292.682 87.2605 288.403L89.4019 269.791C89.9016 265.494 93.5242 262.268 97.8605 262.268H111.405H120.274H133.819C137.78 262.268 141.224 265.013 142.117 268.864L146.828 289.348C147.72 293.217 151.146 295.945 155.126 295.945H157.892C162.21 295.945 165.851 299.189 166.35 303.468L179.877 420.616C180.466 425.661 176.504 430.083 171.418 430.083H157.874H105.873H92.3285C88.01 430.083 84.3696 426.838 83.8699 422.559L70.3433 305.411C69.7544 300.348 73.716 295.927 78.8019 295.927Z" fill="white"/>
<path d="M87.2608 288.403L89.4022 269.791C89.9018 265.494 93.5244 262.268 97.8608 262.268H120.274C124.236 262.268 127.68 265.013 128.572 268.864L133.283 289.348C134.176 293.217 137.62 295.945 141.581 295.945H144.347C148.666 295.945 152.306 299.189 152.806 303.468L166.333 420.616C166.922 425.661 162.96 430.083 157.874 430.083H92.3109C87.9924 430.083 84.352 426.838 83.8523 422.559L70.3257 305.411C69.7368 300.366 73.6984 295.945 78.7843 295.945C83.1207 295.927 86.7611 292.682 87.2608 288.403Z" fill="#263238"/>
<path opacity="0.1" d="M87.2608 288.403L89.4022 269.791C89.9018 265.494 93.5244 262.268 97.8608 262.268H120.274C124.236 262.268 127.68 265.013 128.572 268.864L133.283 289.348C134.176 293.217 137.62 295.945 141.581 295.945H144.347C148.666 295.945 152.306 299.189 152.806 303.468L166.333 420.616C166.922 425.661 162.96 430.083 157.874 430.083H92.3109C87.9924 430.083 84.352 426.838 83.8523 422.559L70.3257 305.411C69.7368 300.366 73.6984 295.945 78.7843 295.945C83.1207 295.927 86.7611 292.682 87.2608 288.403Z" fill="white"/>
<path opacity="0.3" d="M279.686 436.125C250.955 428.798 220.529 428.798 191.798 436.125C180.931 438.889 176.291 422.112 187.176 419.349C218.905 411.273 252.597 411.273 284.326 419.349C295.175 422.112 290.571 438.906 279.686 436.125Z" fill="white"/>
<path d="M234.218 430.083C236.36 430.083 238.091 428.353 238.091 426.214V381.751C238.091 379.612 236.36 377.882 234.218 377.882C232.077 377.882 230.346 379.612 230.346 381.751V426.214C230.346 428.353 232.077 430.083 234.218 430.083Z" fill="#263238"/>
<path opacity="0.5" d="M234.218 430.083C236.36 430.083 238.091 428.353 238.091 426.214V381.751C238.091 379.612 236.36 377.882 234.218 377.882C232.077 377.882 230.346 379.612 230.346 381.751V426.214C230.346 428.353 232.077 430.083 234.218 430.083Z" fill="white"/>
<path opacity="0.2" d="M234.218 377.865C236.36 377.865 238.091 379.594 238.091 381.733V393.25H230.346V381.733C230.346 379.612 232.077 377.865 234.218 377.865Z" fill="black"/>
<path d="M275.262 386.582C244.675 386.582 223.761 386.582 193.174 386.582C185.697 386.582 185.697 374.976 193.174 374.976C223.761 374.976 244.675 374.976 275.262 374.976C282.739 374.994 282.739 386.582 275.262 386.582Z" fill="#263238"/>
<g opacity="0.1">
<path opacity="0.1" d="M275.262 386.582C244.675 386.582 223.761 386.582 193.174 386.582C185.697 386.582 185.697 374.976 193.174 374.976C223.761 374.976 244.675 374.976 275.262 374.976C282.739 374.994 282.739 386.582 275.262 386.582Z" fill="white"/>
</g>
<path d="M275.262 386.582C244.676 386.582 237.306 386.582 206.719 386.582C199.242 386.582 199.242 374.976 206.719 374.976C237.306 374.976 244.676 374.976 275.262 374.976C282.74 374.994 282.74 386.582 275.262 386.582Z" fill="#263238"/>
<g opacity="0.3">
<path opacity="0.3" d="M275.262 386.582C244.676 386.582 237.306 386.582 206.719 386.582C199.242 386.582 199.242 374.976 206.719 374.976C237.306 374.976 244.676 374.976 275.262 374.976C282.74 374.994 282.74 386.582 275.262 386.582Z" fill="white"/>
</g>
<path opacity="0.1" d="M183.18 544.324H192.334L199.294 554.451C198.776 554.397 198.294 554.361 197.848 554.326C192.816 553.951 182.68 553.951 177.648 554.326C177.219 554.361 176.72 554.397 176.202 554.451L183.18 544.324Z" fill="black"/>
<path d="M177.396 574.15C177.396 579.748 181.947 584.294 187.55 584.294C193.154 584.294 197.704 579.748 197.704 574.15C197.704 568.552 193.154 564.006 187.55 564.006C181.947 564.006 177.396 568.534 177.396 574.15Z" fill="#263238"/>
<path opacity="0.5" d="M182.484 574.15C182.484 576.949 184.751 579.231 187.57 579.231C190.372 579.231 192.656 576.967 192.656 574.15C192.656 571.333 190.39 569.069 187.57 569.069C184.751 569.069 182.484 571.333 182.484 574.15Z" fill="white"/>
<path d="M183.179 563.151H192.333L194.26 542.399H181.233L183.179 563.151Z" fill="#263238"/>
<path opacity="0.2" d="M183.179 563.151H192.333L194.26 542.399H181.233L183.179 563.151Z" fill="white"/>
</svg>
