<svg width="119" height="78" viewBox="0 0 119 78" fill="none" xmlns="http://www.w3.org/2000/svg">
<path d="M118.365 3.86914H0.461914V77.9089H118.365V3.86914Z" fill="#407BFF"/>
<path opacity="0.9" d="M112.993 9.25342H5.85059V72.5428H112.993V9.25342Z" fill="white"/>
<path d="M79.5319 51.3802H62.918C59.5809 51.3802 56.5472 49.2765 55.3516 46.1566L51.8896 37.0287L55.0304 35.8521L58.4924 44.98C59.1883 46.7984 60.955 48.0286 62.918 48.0286H79.5319V51.3802Z" fill="#263238"/>
<path d="M68.202 36.4404L66.3818 43.7856H69.4512L73.6627 36.4404H68.202Z" fill="#263238"/>
<g opacity="0.2">
<g opacity="0.2">
<path opacity="0.2" d="M79.5319 51.3802H62.918C59.5809 51.3802 56.5472 49.2765 55.3516 46.1566L51.8896 37.0287L55.0304 35.8521L58.4924 44.98C59.1883 46.7984 60.955 48.0286 62.918 48.0286H79.5319V51.3802Z" fill="white"/>
</g>
<path opacity="0.2" d="M68.202 36.4404L66.3818 43.7856H69.4512L73.6627 36.4404H68.202Z" fill="white"/>
</g>
<path d="M95.9854 62.9685H82.0483L73.6611 36.4404H87.5982L95.9854 62.9685Z" fill="#263238"/>
<path opacity="0.4" d="M95.9854 62.9685H82.0483L73.6611 36.4404H87.5982L95.9854 62.9685Z" fill="white"/>
<path d="M86.4202 60.1874C85.5993 60.1874 84.8677 59.6526 84.6178 58.8681L80.6205 46.2459C80.2279 45.0336 81.138 43.7856 82.4229 43.7856C83.2438 43.7856 83.9754 44.3205 84.2252 45.1049L88.2047 57.7093C88.5973 58.9394 87.6872 60.1874 86.4202 60.1874Z" fill="#407BFF"/>
<path d="M97.664 67.7823H80.3721L82.0495 62.9688H95.9866L97.664 67.7823Z" fill="#263238"/>
<path opacity="0.7" d="M97.664 67.7823H80.3721L82.0495 62.9688H95.9866L97.664 67.7823Z" fill="white"/>
<path d="M24.8023 22.0894H20.9834V34.7829H24.8023V22.0894Z" fill="#263238"/>
<path opacity="0.2" d="M24.8023 22.0894H20.9834V34.7829H24.8023V22.0894Z" fill="white"/>
<path d="M24.8203 13.9951V19.6109H33.7964V17.008L28.4072 13.9951H24.8203Z" fill="#263238"/>
<path opacity="0.7" d="M24.8203 13.9951V19.6109H33.7964V17.008L28.4072 13.9951H24.8203Z" fill="white"/>
<path d="M85.3155 19.6104H24.8203V32.2504H85.3155V19.6104Z" fill="#263238"/>
<path opacity="0.6" d="M85.3155 19.6104H24.8203V32.2504H85.3155V19.6104Z" fill="white"/>
<path d="M94.2916 32.251H24.8203V38.5621H94.2916V32.251Z" fill="#263238"/>
<path opacity="0.4" d="M94.2916 32.251H24.8203V38.5621H94.2916V32.251Z" fill="white"/>
<path d="M94.2935 32.2504H85.3174V19.6104L94.2935 24.6378V32.2504Z" fill="#263238"/>
<path opacity="0.7" d="M94.2935 32.2504H85.3174V19.6104L94.2935 24.6378V32.2504Z" fill="white"/>
<path d="M34.546 29.3443H31.6016L33.279 23.2114H36.2056L34.546 29.3443Z" fill="#407BFF"/>
<path d="M39.1505 29.3443H36.2061L37.8835 23.2114H40.8279L39.1505 29.3443Z" fill="#407BFF"/>
<path d="M43.7547 29.3443H40.8281L42.5056 23.2114H45.4322L43.7547 29.3443Z" fill="#407BFF"/>
<path d="M48.3582 29.3443H45.4316L47.1091 23.2114H50.0357L48.3582 29.3443Z" fill="#407BFF"/>
<path d="M90.8476 32.2515C90.8476 37.279 86.761 41.3438 81.7466 41.3438C76.7142 41.3438 72.6455 37.2612 72.6455 32.2515C72.6455 27.224 76.7321 23.1592 81.7466 23.1592C86.7789 23.1414 90.8476 27.224 90.8476 32.2515Z" fill="#407BFF"/>
<path opacity="0.5" d="M90.8476 32.2515C90.8476 37.279 86.761 41.3438 81.7466 41.3438C76.7142 41.3438 72.6455 37.2612 72.6455 32.2515C72.6455 27.224 76.7321 23.1592 81.7466 23.1592C86.7789 23.1414 90.8476 27.224 90.8476 32.2515Z" fill="white"/>
<path d="M86.7051 32.2512C86.7051 34.9967 84.4745 37.2074 81.7442 37.2074C78.996 37.2074 76.7832 34.9789 76.7832 32.2512C76.7832 29.5057 79.0138 27.295 81.7442 27.295C84.4923 27.2772 86.7051 29.5057 86.7051 32.2512Z" fill="#407BFF"/>
<path opacity="0.9" d="M84.5044 31.0649L82.9023 29.4644L78.9287 33.4342L80.5308 35.0347L84.5044 31.0649Z" fill="white"/>
<path d="M22.146 0.249512C21.7534 0.249512 20.2366 0.249512 19.844 0.249512C16.3642 0.249512 13.5625 3.06634 13.5625 6.52497C13.5625 10.0014 16.382 12.8004 19.844 12.8004C20.2366 12.8004 21.7534 12.8004 22.146 12.8004C25.6258 12.8004 28.4275 9.9836 28.4275 6.52497C28.4275 3.06634 25.608 0.249512 22.146 0.249512Z" fill="#407BFF"/>
<path opacity="0.3" d="M22.146 0.249512C21.7534 0.249512 20.2366 0.249512 19.844 0.249512C16.3642 0.249512 13.5625 3.06634 13.5625 6.52497C13.5625 10.0014 16.382 12.8004 19.844 12.8004C20.2366 12.8004 21.7534 12.8004 22.146 12.8004C25.6258 12.8004 28.4275 9.9836 28.4275 6.52497C28.4275 3.06634 25.608 0.249512 22.146 0.249512Z" fill="white"/>
<path opacity="0.2" d="M26.1431 6.54263C26.1431 10.0191 23.3235 12.8181 19.8616 12.8181C16.3818 12.8181 13.5801 10.0013 13.5801 6.54263C13.5801 3.06617 16.3996 0.267174 19.8616 0.267174C23.3235 0.249346 26.1431 3.06617 26.1431 6.54263Z" fill="black"/>
<path d="M104.572 0.249512C104.179 0.249512 102.662 0.249512 102.27 0.249512C98.79 0.249512 95.9883 3.06634 95.9883 6.52497C95.9883 10.0014 98.8079 12.8004 102.27 12.8004C102.662 12.8004 104.179 12.8004 104.572 12.8004C108.052 12.8004 110.853 9.9836 110.853 6.52497C110.871 3.06634 108.052 0.249512 104.572 0.249512Z" fill="#407BFF"/>
<path opacity="0.3" d="M104.572 0.249512C104.179 0.249512 102.662 0.249512 102.27 0.249512C98.79 0.249512 95.9883 3.06634 95.9883 6.52497C95.9883 10.0014 98.8079 12.8004 102.27 12.8004C102.662 12.8004 104.179 12.8004 104.572 12.8004C108.052 12.8004 110.853 9.9836 110.853 6.52497C110.871 3.06634 108.052 0.249512 104.572 0.249512Z" fill="white"/>
<path opacity="0.2" d="M108.569 6.54263C108.569 10.0191 105.749 12.8181 102.287 12.8181C98.8076 12.8181 96.0059 10.0013 96.0059 6.54263C96.0059 3.06617 98.8254 0.267174 102.287 0.267174C105.749 0.249346 108.569 3.06617 108.569 6.54263Z" fill="black"/>
</svg>
