<svg width="163" height="172" viewBox="0 0 163 172" fill="none" xmlns="http://www.w3.org/2000/svg">
<path d="M156.749 4.25098H0.568359V171.406H156.749V4.25098Z" fill="#407BFF"/>
<path opacity="0.9" d="M150.932 10.0449H6.36816V165.612H150.932V10.0449Z" fill="white"/>
<path d="M22.5347 0.864258C22.1421 0.864258 20.6253 0.864258 20.2327 0.864258C16.7529 0.864258 13.9512 3.68108 13.9512 7.13972C13.9512 10.6162 16.7707 13.4152 20.2327 13.4152C20.6253 13.4152 22.1421 13.4152 22.5347 13.4152C26.0145 13.4152 28.8162 10.5983 28.8162 7.13972C28.8162 3.68108 26.0145 0.864258 22.5347 0.864258Z" fill="#407BFF"/>
<path opacity="0.3" d="M22.5347 0.864258C22.1421 0.864258 20.6253 0.864258 20.2327 0.864258C16.7529 0.864258 13.9512 3.68108 13.9512 7.13972C13.9512 10.6162 16.7707 13.4152 20.2327 13.4152C20.6253 13.4152 22.1421 13.4152 22.5347 13.4152C26.0145 13.4152 28.8162 10.5983 28.8162 7.13972C28.8162 3.68108 26.0145 0.864258 22.5347 0.864258Z" fill="white"/>
<path opacity="0.2" d="M26.5317 7.15729C26.5317 10.6338 23.7122 13.4328 20.2503 13.4328C16.7883 13.4328 13.9688 10.6159 13.9688 7.15729C13.9688 3.68083 16.7883 0.881836 20.2503 0.881836C23.7122 0.881836 26.5317 3.68083 26.5317 7.15729Z" fill="black"/>
<path d="M155.947 46.0942C155.554 46.0942 154.037 46.0942 153.645 46.0942C150.165 46.0942 147.363 48.9111 147.363 52.3697C147.363 55.8462 150.183 58.6452 153.645 58.6452C154.037 58.6452 155.554 58.6452 155.947 58.6452C159.427 58.6452 162.228 55.8283 162.228 52.3697C162.246 48.8932 159.427 46.0942 155.947 46.0942Z" fill="#407BFF"/>
<path opacity="0.3" d="M155.947 46.0942C155.554 46.0942 154.037 46.0942 153.645 46.0942C150.165 46.0942 147.363 48.9111 147.363 52.3697C147.363 55.8462 150.183 58.6452 153.645 58.6452C154.037 58.6452 155.554 58.6452 155.947 58.6452C159.427 58.6452 162.228 55.8283 162.228 52.3697C162.246 48.8932 159.427 46.0942 155.947 46.0942Z" fill="white"/>
<path opacity="0.2" d="M159.944 52.3697C159.944 55.8462 157.124 58.6452 153.662 58.6452C150.183 58.6452 147.381 55.8283 147.381 52.3697C147.381 48.8932 150.2 46.0942 153.662 46.0942C157.142 46.0942 159.944 48.8932 159.944 52.3697Z" fill="black"/>
<path d="M10.6484 18.1753V161.655H89.4884V18.1753H10.6484ZM73.9096 19.138H88.5248V33.7213H73.9096V19.138ZM73.9096 35.0049H88.5248V49.6061H73.9096V35.0049ZM73.9096 50.8897H88.5248V65.4908H73.9096V50.8897ZM73.9096 66.7566H88.5248V81.3577H73.9096V66.7566ZM73.9096 82.6235H88.5248V97.2247H73.9096V82.6235ZM73.9096 98.4905H88.5248V113.092H73.9096V98.4905ZM73.9096 114.357H88.5248V128.959H73.9096V114.357ZM73.9096 130.224H88.5248V144.825H73.9096V130.224ZM26.2273 144.825H11.6299V130.224H26.2273V144.825ZM26.2273 128.959H11.6299V114.357H26.2273V128.959ZM26.2273 113.092H11.6299V98.4905H26.2273V113.092ZM26.2273 97.2068H11.6299V82.6057H26.2273V97.2068ZM26.2273 81.3399H11.6299V66.7388H26.2273V81.3399ZM26.2273 65.473H11.6299V50.8719H26.2273V65.473ZM26.2273 49.6061H11.6299V35.0049H26.2273V49.6061ZM41.7883 144.825H27.1731V130.224H41.7883V144.825ZM57.3671 50.8897V65.4908H42.7697V50.8897H57.3671ZM57.3671 66.7566V81.3577H42.7697V66.7566H57.3671ZM57.3671 82.6235V97.2247H42.7697V82.6235H57.3671ZM57.3671 98.4905V113.092H42.7697V98.4905H57.3671ZM57.3671 114.357V128.959H42.7697V114.357H57.3671ZM57.3671 49.6061H42.7697V35.0049H57.3671V49.6061ZM41.7883 49.6061H27.1731V35.0049H41.7883V49.6061ZM41.7883 65.473H27.1731V50.8719H41.7883V65.473ZM41.7883 81.3399H27.1731V66.7388H41.7883V81.3399ZM41.7883 97.2068H27.1731V82.6057H41.7883V97.2068ZM41.7883 113.092H27.1731V98.4905H41.7883V113.092ZM41.7883 128.959H27.1731V114.357H41.7883V128.959ZM42.7697 130.224H57.3671V144.825H42.7697V130.224ZM58.3307 130.224H72.9459V144.825H58.3307V130.224ZM58.3307 114.357H72.9459V128.959H58.3307V114.357ZM58.3307 98.4905H72.9459V113.092H58.3307V98.4905ZM58.3307 82.6235H72.9459V97.2247H58.3307V82.6235ZM58.3307 66.7566H72.9459V81.3577H58.3307V66.7566ZM58.3307 50.8897H72.9459V65.4908H58.3307V50.8897ZM58.3307 35.0049H72.9459V49.6061H58.3307V35.0049ZM58.3307 19.138H72.9459V33.7213H58.3307V19.138ZM42.7697 19.138H57.3671V33.7213H42.7697V19.138ZM27.1909 19.138H41.8061V33.7213H27.1909V19.138ZM11.6121 19.138H26.2094V33.7213H11.6121V19.138ZM26.2273 160.692H11.6299V146.109H26.2273V160.692ZM41.7883 160.692H27.1731V146.109H41.7883V160.692ZM57.3671 160.692H42.7697V146.109H57.3671V160.692ZM72.9459 160.692H58.3307V146.109H72.9459V160.692ZM88.5248 160.692H73.9096V146.109H88.5248V160.692Z" fill="#407BFF"/>
<path opacity="0.5" d="M10.6484 18.1753V161.655H89.4884V18.1753H10.6484ZM73.9096 19.138H88.5248V33.7213H73.9096V19.138ZM73.9096 35.0049H88.5248V49.6061H73.9096V35.0049ZM73.9096 50.8897H88.5248V65.4908H73.9096V50.8897ZM73.9096 66.7566H88.5248V81.3577H73.9096V66.7566ZM73.9096 82.6235H88.5248V97.2247H73.9096V82.6235ZM73.9096 98.4905H88.5248V113.092H73.9096V98.4905ZM73.9096 114.357H88.5248V128.959H73.9096V114.357ZM73.9096 130.224H88.5248V144.825H73.9096V130.224ZM26.2273 144.825H11.6299V130.224H26.2273V144.825ZM26.2273 128.959H11.6299V114.357H26.2273V128.959ZM26.2273 113.092H11.6299V98.4905H26.2273V113.092ZM26.2273 97.2068H11.6299V82.6057H26.2273V97.2068ZM26.2273 81.3399H11.6299V66.7388H26.2273V81.3399ZM26.2273 65.473H11.6299V50.8719H26.2273V65.473ZM26.2273 49.6061H11.6299V35.0049H26.2273V49.6061ZM41.7883 144.825H27.1731V130.224H41.7883V144.825ZM57.3671 50.8897V65.4908H42.7697V50.8897H57.3671ZM57.3671 66.7566V81.3577H42.7697V66.7566H57.3671ZM57.3671 82.6235V97.2247H42.7697V82.6235H57.3671ZM57.3671 98.4905V113.092H42.7697V98.4905H57.3671ZM57.3671 114.357V128.959H42.7697V114.357H57.3671ZM57.3671 49.6061H42.7697V35.0049H57.3671V49.6061ZM41.7883 49.6061H27.1731V35.0049H41.7883V49.6061ZM41.7883 65.473H27.1731V50.8719H41.7883V65.473ZM41.7883 81.3399H27.1731V66.7388H41.7883V81.3399ZM41.7883 97.2068H27.1731V82.6057H41.7883V97.2068ZM41.7883 113.092H27.1731V98.4905H41.7883V113.092ZM41.7883 128.959H27.1731V114.357H41.7883V128.959ZM42.7697 130.224H57.3671V144.825H42.7697V130.224ZM58.3307 130.224H72.9459V144.825H58.3307V130.224ZM58.3307 114.357H72.9459V128.959H58.3307V114.357ZM58.3307 98.4905H72.9459V113.092H58.3307V98.4905ZM58.3307 82.6235H72.9459V97.2247H58.3307V82.6235ZM58.3307 66.7566H72.9459V81.3577H58.3307V66.7566ZM58.3307 50.8897H72.9459V65.4908H58.3307V50.8897ZM58.3307 35.0049H72.9459V49.6061H58.3307V35.0049ZM58.3307 19.138H72.9459V33.7213H58.3307V19.138ZM42.7697 19.138H57.3671V33.7213H42.7697V19.138ZM27.1909 19.138H41.8061V33.7213H27.1909V19.138ZM11.6121 19.138H26.2094V33.7213H11.6121V19.138ZM26.2273 160.692H11.6299V146.109H26.2273V160.692ZM41.7883 160.692H27.1731V146.109H41.7883V160.692ZM57.3671 160.692H42.7697V146.109H57.3671V160.692ZM72.9459 160.692H58.3307V146.109H72.9459V160.692ZM88.5248 160.692H73.9096V146.109H88.5248V160.692Z" fill="white"/>
<path d="M54.0494 42.0463H46.7686L47.8928 28.7109H52.9251L54.0494 42.0463Z" fill="#263238"/>
<path opacity="0.5" d="M54.0494 42.0463H46.7686L47.8928 28.7109H52.9251L54.0494 42.0463Z" fill="white"/>
<path d="M53.2462 37.6783H47.5715L45.5371 25.9297H55.2806L53.2462 37.6783Z" fill="#407BFF"/>
<path opacity="0.5" d="M53.2462 37.6783H47.5715L45.5371 25.9297H55.2806L53.2462 37.6783Z" fill="white"/>
<path d="M46.5543 20.3145H54.2634L55.2806 25.9303H45.5371L46.5543 20.3145Z" fill="#407BFF"/>
<path opacity="0.3" d="M46.5543 20.3145H54.2634L55.2806 25.9303H45.5371L46.5543 20.3145Z" fill="white"/>
<path d="M40.5956 68.5391H60.2252L61.064 81.2148H39.7568L40.5956 68.5391Z" fill="#407BFF"/>
<path opacity="0.3" d="M40.5956 68.5391H60.2252L61.064 81.2148H39.7568L40.5956 68.5391Z" fill="white"/>
<path d="M46.9994 110.398H39.1654L38.0947 124.126L39.1833 150.797H43.6089L48.0702 121.862L46.9994 110.398Z" fill="#407BFF"/>
<path opacity="0.3" d="M46.9994 110.398H39.1654L38.0947 124.126L39.1833 150.797H43.6089L48.0702 121.862L46.9994 110.398Z" fill="white"/>
<path d="M39.7559 81.2153L39.167 110.4H47.001L50.4095 81.2153H39.7559Z" fill="#407BFF"/>
<path opacity="0.5" d="M39.7559 81.2153L39.167 110.4H47.001L50.4095 81.2153H39.7559Z" fill="white"/>
<path d="M53.9623 110.398H61.7785L62.8492 124.126L61.7607 150.797H57.3529L52.8916 121.862L53.9623 110.398Z" fill="#407BFF"/>
<path opacity="0.3" d="M53.9623 110.398H61.7785L62.8492 124.126L61.7607 150.797H57.3529L52.8916 121.862L53.9623 110.398Z" fill="white"/>
<path d="M61.2053 81.2153L61.7764 110.4H53.9602L50.5518 81.2153H61.2053Z" fill="#407BFF"/>
<path opacity="0.5" d="M61.2053 81.2153L61.7764 110.4H53.9602L50.5518 81.2153H61.2053Z" fill="white"/>
<path d="M60.2248 68.5385H40.5951L38.6143 39.978H62.2056L60.2248 68.5385Z" fill="#407BFF"/>
<path opacity="0.3" d="M60.2248 68.5385H40.5951L38.6143 39.978H62.2056L60.2248 68.5385Z" fill="white"/>
<path opacity="0.3" d="M40.5957 68.538L50.4105 54.2578L60.2254 68.538H40.5957Z" fill="white"/>
<path d="M31.6357 156.288L39.1843 150.797H43.6099L41.0402 159.515L31.6357 156.288Z" fill="#263238"/>
<path opacity="0.5" d="M31.6357 156.288L39.1843 150.797H43.6099L41.0402 159.515L31.6357 156.288Z" fill="white"/>
<path d="M41.058 156.289H31.6357V159.515H41.058V156.289Z" fill="#263238"/>
<path opacity="0.3" d="M41.058 156.289H31.6357V159.515H41.058V156.289Z" fill="white"/>
<path d="M69.3247 156.288L61.7583 150.797H57.3506L59.9024 159.515L69.3247 156.288Z" fill="#263238"/>
<path opacity="0.5" d="M69.3247 156.288L61.7583 150.797H57.3506L59.9024 159.515L69.3247 156.288Z" fill="white"/>
<path d="M59.9049 159.52H69.3271V156.293H59.9049V159.52Z" fill="#263238"/>
<path opacity="0.3" d="M59.9049 159.52H69.3271V156.293H59.9049V159.52Z" fill="white"/>
<path d="M35.3661 62.2274H29.7627L34.2954 39.978H41.0409L35.3661 62.2274Z" fill="#407BFF"/>
<path d="M35.3658 62.2271H29.7624L28.3169 69.6613L27.8887 83.8168H32.7961L35.2409 69.6613L35.3658 62.2271Z" fill="#263238"/>
<path d="M32.7966 83.8169H27.8891L27.1396 89.1831L28.8171 91.8038L31.94 90.4667L33.5817 88.0065L32.7966 83.8169Z" fill="#263238"/>
<path opacity="0.5" d="M35.3661 62.2274H29.7627L34.2954 39.978H41.0409L35.3661 62.2274Z" fill="white"/>
<path opacity="0.6" d="M35.3658 62.2271H29.7624L28.3169 69.6613L27.8887 83.8168H32.7961L35.2409 69.6613L35.3658 62.2271Z" fill="white"/>
<path opacity="0.5" d="M32.7966 83.8169H27.8891L27.1396 89.1831L28.8171 91.8038L31.94 90.4667L33.5817 88.0065L32.7966 83.8169Z" fill="white"/>
<path d="M41.6668 47.4476H33.9934L32.8691 38.7832H42.8089L41.6668 47.4476Z" fill="#263238"/>
<path d="M32.8684 38.7832L27.8896 47.4476L31.6371 49.1413L33.9927 47.4476L32.8684 38.7832Z" fill="#263238"/>
<path opacity="0.5" d="M41.6668 47.4476H33.9934L32.8691 38.7832H42.8089L41.6668 47.4476Z" fill="white"/>
<path opacity="0.6" d="M32.8684 38.7832L27.8896 47.4476L31.6371 49.1413L33.9927 47.4476L32.8684 38.7832Z" fill="white"/>
<path d="M64.7587 62.2274H70.38L65.8295 39.978H59.084L64.7587 62.2274Z" fill="#407BFF"/>
<path opacity="0.5" d="M64.7587 62.2274H70.38L65.8295 39.978H59.084L64.7587 62.2274Z" fill="white"/>
<path d="M64.7588 62.2271H70.38L71.8255 69.6613L72.2538 83.8168H67.3464L64.9016 69.6613L64.7588 62.2271Z" fill="#263238"/>
<path opacity="0.6" d="M64.7588 62.2271H70.38L71.8255 69.6613L72.2538 83.8168H67.3464L64.9016 69.6613L64.7588 62.2271Z" fill="white"/>
<path d="M67.345 83.8169H72.2525L72.9841 89.1831L71.3245 91.8038L68.2016 90.4667L66.542 88.0065L67.345 83.8169Z" fill="#263238"/>
<path opacity="0.5" d="M67.345 83.8169H72.2525L72.9841 89.1831L71.3245 91.8038L68.2016 90.4667L66.542 88.0065L67.345 83.8169Z" fill="white"/>
<path d="M58.4407 47.4476H66.1141L67.2562 38.7832H57.3164L58.4407 47.4476Z" fill="#263238"/>
<path opacity="0.5" d="M58.4407 47.4476H66.1141L67.2562 38.7832H57.3164L58.4407 47.4476Z" fill="white"/>
<path d="M67.2563 38.7832L72.2173 47.4476L68.4877 49.1413L66.1143 47.4476L67.2563 38.7832Z" fill="#263238"/>
<path opacity="0.6" d="M67.2563 38.7832L72.2173 47.4476L68.4877 49.1413L66.1143 47.4476L67.2563 38.7832Z" fill="white"/>
<g opacity="0.9">
<path opacity="0.9" d="M140.154 39.9082H131.553V42.3506H140.154V39.9082Z" fill="#263238"/>
<path opacity="0.9" d="M108.978 39.9082H101.162V42.3506H108.978V39.9082Z" fill="#263238"/>
<path opacity="0.9" d="M122.826 39.9082H113.636V42.3506H122.826V39.9082Z" fill="#263238"/>
<path opacity="0.9" d="M130.036 39.9082H124.236V42.3506H130.036V39.9082Z" fill="#263238"/>
</g>
<g opacity="0.9">
<g opacity="0.9">
<path opacity="0.9" d="M108.978 34.542H101.162V36.9844H108.978V34.542Z" fill="#263238"/>
<path opacity="0.9" d="M118.168 34.542H113.636V36.9844H118.168V34.542Z" fill="#263238"/>
<path opacity="0.9" d="M136.585 34.542H128.769V36.9844H136.585V34.542Z" fill="#263238"/>
<path opacity="0.9" d="M127.377 34.542H119.561V36.9844H127.377V34.542Z" fill="#263238"/>
</g>
<g opacity="0.9">
<path opacity="0.9" d="M119.899 45.2749H113.636V47.7173H119.899V45.2749Z" fill="#263238"/>
<path opacity="0.9" d="M130.017 45.2749H121.416V47.7173H130.017V45.2749Z" fill="#263238"/>
<path opacity="0.9" d="M137.709 45.2749H131.553V47.7173H137.709V45.2749Z" fill="#263238"/>
<path opacity="0.9" d="M108.978 45.2749H101.162V47.7173H108.978V45.2749Z" fill="#263238"/>
</g>
</g>
<g opacity="0.3">
<g opacity="0.9">
<path opacity="0.9" d="M140.154 39.9082H131.553V42.3506H140.154V39.9082Z" fill="white"/>
<path opacity="0.9" d="M108.978 39.9082H101.162V42.3506H108.978V39.9082Z" fill="white"/>
<path opacity="0.9" d="M122.826 39.9082H113.636V42.3506H122.826V39.9082Z" fill="white"/>
<path opacity="0.9" d="M130.036 39.9082H124.236V42.3506H130.036V39.9082Z" fill="white"/>
</g>
<g opacity="0.9">
<g opacity="0.9">
<path opacity="0.9" d="M108.978 34.542H101.162V36.9844H108.978V34.542Z" fill="white"/>
<path opacity="0.9" d="M118.168 34.542H113.636V36.9844H118.168V34.542Z" fill="white"/>
<path opacity="0.9" d="M136.585 34.542H128.769V36.9844H136.585V34.542Z" fill="white"/>
<path opacity="0.9" d="M127.377 34.542H119.561V36.9844H127.377V34.542Z" fill="white"/>
</g>
<g opacity="0.9">
<path opacity="0.9" d="M119.899 45.2749H113.636V47.7173H119.899V45.2749Z" fill="white"/>
<path opacity="0.9" d="M130.017 45.2749H121.416V47.7173H130.017V45.2749Z" fill="white"/>
<path opacity="0.9" d="M137.709 45.2749H131.553V47.7173H137.709V45.2749Z" fill="white"/>
<path opacity="0.9" d="M108.978 45.2749H101.162V47.7173H108.978V45.2749Z" fill="white"/>
</g>
</g>
</g>
</svg>
