<svg width="21" height="22" viewBox="0 0 21 22" fill="none" xmlns="http://www.w3.org/2000/svg">
<path d="M20.9123 10.6567H17.2719C16.9328 7.44765 14.3988 4.91606 11.1867 4.57733V0.94043H9.74124V4.57733C6.52911 4.91606 3.99509 7.44765 3.65603 10.6567H0.015625V12.1008H3.65603C3.99509 15.3098 6.52911 17.8414 9.74124 18.1801V21.817H11.1867V18.1801C14.3988 17.8414 16.9328 15.3098 17.2719 12.1008H20.9123V10.6567ZM11.1867 17.2352V13.8123H9.74124V17.2352C7.06446 16.8965 4.95874 14.7928 4.61968 12.1186H8.04595V10.6745H4.61968C4.95874 8.0003 7.06446 5.89661 9.74124 5.55788V8.98085H11.1867V5.55788C13.8635 5.89661 15.9692 8.0003 16.3083 10.6745H12.882V12.1186H16.3083C15.9692 14.7928 13.8635 16.8965 11.1867 17.2352Z" fill="#407BFF"/>
<path opacity="0.2" d="M20.9123 10.6567H17.2719C16.9328 7.44765 14.3988 4.91606 11.1867 4.57733V0.94043H9.74124V4.57733C6.52911 4.91606 3.99509 7.44765 3.65603 10.6567H0.015625V12.1008H3.65603C3.99509 15.3098 6.52911 17.8414 9.74124 18.1801V21.817H11.1867V18.1801C14.3988 17.8414 16.9328 15.3098 17.2719 12.1008H20.9123V10.6567ZM11.1867 17.2352V13.8123H9.74124V17.2352C7.06446 16.8965 4.95874 14.7928 4.61968 12.1186H8.04595V10.6745H4.61968C4.95874 8.0003 7.06446 5.89661 9.74124 5.55788V8.98085H11.1867V5.55788C13.8635 5.89661 15.9692 8.0003 16.3083 10.6745H12.882V12.1186H16.3083C15.9692 14.7928 13.8635 16.8965 11.1867 17.2352Z" fill="black"/>
</svg>
