<svg width="220" height="36" viewBox="0 0 220 36" fill="none" xmlns="http://www.w3.org/2000/svg">
<g clip-path="url(#clip0_257_354)">
<path d="M35.754 13.1912C35.4472 12.2145 34.8342 11.3625 34.0057 10.7612C33.1772 10.1599 32.1772 9.84118 31.1535 9.85217H24.6L22.6095 3.64818C22.2965 2.67161 21.6814 1.8197 20.853 1.21527C20.0246 0.610851 19.0255 0.285156 18 0.285156C16.9745 0.285156 15.9755 0.610851 15.1471 1.21527C14.3186 1.8197 13.7036 2.67161 13.3905 3.64818L11.4 9.85217H4.84655C3.82616 9.85363 2.83233 10.1775 2.00701 10.7775C1.1817 11.3776 0.567106 12.2231 0.251027 13.1933C-0.0650517 14.1635 -0.0664507 15.2087 0.24703 16.1798C0.560511 17.1508 1.17284 17.9979 1.99655 18.6002L7.33055 22.5002L5.30255 28.7807C4.97481 29.7548 4.97066 30.8087 5.29071 31.7853C5.61076 32.7619 6.23786 33.609 7.07855 34.2002C7.90482 34.8103 8.90613 35.1372 9.93328 35.1321C10.9604 35.1269 11.9584 34.7901 12.7785 34.1717L18 30.3287L23.223 34.1672C24.0478 34.7739 25.0437 35.1034 26.0676 35.1084C27.0915 35.1133 28.0905 34.7935 28.9212 34.1949C29.7519 33.5963 30.3713 32.7497 30.6905 31.7769C31.0097 30.804 31.0121 29.755 30.6975 28.7807L28.6695 22.5002L34.0095 18.6002C34.8427 18.0055 35.4622 17.1584 35.7764 16.1842C36.0906 15.21 36.0827 14.1606 35.754 13.1912ZM32.2395 16.1777L26.0235 20.7212C25.7682 20.9074 25.5783 21.1696 25.4808 21.4702C25.3832 21.7708 25.3832 22.0945 25.4805 22.3952L27.843 29.7002C27.9626 30.0707 27.9616 30.4696 27.8401 30.8394C27.7187 31.2093 27.4831 31.5312 27.1672 31.7587C26.8513 31.9863 26.4714 32.1078 26.0821 32.1058C25.6928 32.1038 25.3141 31.9784 25.0005 31.7477L18.888 27.2477C18.6306 27.0586 18.3195 26.9566 18 26.9566C17.6806 26.9566 17.3695 27.0586 17.112 27.2477L10.9995 31.7477C10.6862 31.9815 10.3065 32.1095 9.91544 32.1131C9.52443 32.1166 9.14246 31.9956 8.82489 31.7674C8.50732 31.5393 8.27067 31.2159 8.14924 30.8442C8.02781 30.4725 8.02792 30.0718 8.14955 29.7002L10.5195 22.3952C10.6169 22.0945 10.6168 21.7708 10.5193 21.4702C10.4218 21.1696 10.2319 20.9074 9.97655 20.7212L3.76055 16.1777C3.4475 15.9485 3.2149 15.6262 3.09596 15.2569C2.97702 14.8876 2.97783 14.4901 3.09827 14.1213C3.21872 13.7525 3.45263 13.4312 3.76661 13.2033C4.08058 12.9753 4.45856 12.8524 4.84655 12.8522H12.4965C12.8141 12.8522 13.1235 12.7514 13.3801 12.5643C13.6367 12.3772 13.8274 12.1135 13.9245 11.8112L16.2495 4.56468C16.3689 4.19385 16.6028 3.87046 16.9177 3.64105C17.2325 3.41164 17.612 3.28803 18.0015 3.28803C18.3911 3.28803 18.7706 3.41164 19.0854 3.64105C19.4003 3.87046 19.6342 4.19385 19.7535 4.56468L22.0785 11.8112C22.1757 12.1135 22.3664 12.3772 22.623 12.5643C22.8796 12.7514 23.189 12.8522 23.5065 12.8522H31.1565C31.5445 12.8524 31.9225 12.9753 32.2365 13.2033C32.5505 13.4312 32.7844 13.7525 32.9048 14.1213C33.0253 14.4901 33.0261 14.8876 32.9071 15.2569C32.7882 15.6262 32.5556 15.9485 32.2425 16.1777H32.2395Z" fill="#E2EEFF"/>
</g>
<g clip-path="url(#clip1_257_354)">
<path d="M81.754 13.1912C81.4472 12.2145 80.8342 11.3625 80.0057 10.7612C79.1772 10.1599 78.1772 9.84118 77.1535 9.85217H70.6L68.6095 3.64818C68.2965 2.67161 67.6814 1.8197 66.853 1.21527C66.0246 0.610851 65.0255 0.285156 64 0.285156C62.9745 0.285156 61.9755 0.610851 61.1471 1.21527C60.3186 1.8197 59.7036 2.67161 59.3905 3.64818L57.4 9.85217H50.8465C49.8262 9.85363 48.8323 10.1775 48.007 10.7775C47.1817 11.3776 46.5671 12.2231 46.251 13.1933C45.9349 14.1635 45.9335 15.2087 46.247 16.1798C46.5605 17.1508 47.1728 17.9979 47.9965 18.6002L53.3305 22.5002L51.3025 28.7807C50.9748 29.7548 50.9707 30.8087 51.2907 31.7853C51.6108 32.7619 52.2379 33.609 53.0785 34.2002C53.9048 34.8103 54.9061 35.1372 55.9333 35.1321C56.9604 35.1269 57.9584 34.7901 58.7785 34.1717L64 30.3287L69.223 34.1672C70.0478 34.7739 71.0437 35.1034 72.0676 35.1084C73.0915 35.1133 74.0905 34.7935 74.9212 34.1949C75.7519 33.5963 76.3713 32.7497 76.6905 31.7769C77.0097 30.804 77.0121 29.755 76.6975 28.7807L74.6695 22.5002L80.0095 18.6002C80.8427 18.0055 81.4622 17.1584 81.7764 16.1842C82.0906 15.21 82.0827 14.1606 81.754 13.1912ZM78.2395 16.1777L72.0235 20.7212C71.7682 20.9074 71.5783 21.1696 71.4808 21.4702C71.3832 21.7708 71.3832 22.0945 71.4805 22.3952L73.843 29.7002C73.9626 30.0707 73.9616 30.4696 73.8401 30.8394C73.7187 31.2093 73.4831 31.5312 73.1672 31.7587C72.8513 31.9863 72.4714 32.1078 72.0821 32.1058C71.6928 32.1038 71.3141 31.9784 71.0005 31.7477L64.888 27.2477C64.6306 27.0586 64.3195 26.9566 64 26.9566C63.6806 26.9566 63.3695 27.0586 63.112 27.2477L56.9995 31.7477C56.6862 31.9815 56.3065 32.1095 55.9154 32.1131C55.5244 32.1166 55.1425 31.9956 54.8249 31.7674C54.5073 31.5393 54.2707 31.2159 54.1492 30.8442C54.0278 30.4725 54.0279 30.0718 54.1495 29.7002L56.5195 22.3952C56.6169 22.0945 56.6168 21.7708 56.5193 21.4702C56.4218 21.1696 56.2319 20.9074 55.9765 20.7212L49.7605 16.1777C49.4475 15.9485 49.2149 15.6262 49.096 15.2569C48.977 14.8876 48.9778 14.4901 49.0983 14.1213C49.2187 13.7525 49.4526 13.4312 49.7666 13.2033C50.0806 12.9753 50.4586 12.8524 50.8465 12.8522H58.4965C58.8141 12.8522 59.1235 12.7514 59.3801 12.5643C59.6367 12.3772 59.8274 12.1135 59.9245 11.8112L62.2495 4.56468C62.3689 4.19385 62.6028 3.87046 62.9177 3.64105C63.2325 3.41164 63.612 3.28803 64.0015 3.28803C64.3911 3.28803 64.7706 3.41164 65.0854 3.64105C65.4003 3.87046 65.6342 4.19385 65.7535 4.56468L68.0785 11.8112C68.1757 12.1135 68.3664 12.3772 68.623 12.5643C68.8796 12.7514 69.189 12.8522 69.5065 12.8522H77.1565C77.5445 12.8524 77.9225 12.9753 78.2365 13.2033C78.5505 13.4312 78.7844 13.7525 78.9048 14.1213C79.0253 14.4901 79.0261 14.8876 78.9071 15.2569C78.7882 15.6262 78.5556 15.9485 78.2425 16.1777H78.2395Z" fill="#E2EEFF"/>
</g>
<g clip-path="url(#clip2_257_354)">
<path d="M127.754 13.1912C127.447 12.2145 126.834 11.3625 126.006 10.7612C125.177 10.1599 124.177 9.84118 123.154 9.85217H116.6L114.61 3.64818C114.297 2.67161 113.681 1.8197 112.853 1.21527C112.025 0.610851 111.026 0.285156 110 0.285156C108.975 0.285156 107.976 0.610851 107.147 1.21527C106.319 1.8197 105.704 2.67161 105.391 3.64818L103.4 9.85217H96.8465C95.8262 9.85363 94.8323 10.1775 94.007 10.7775C93.1817 11.3776 92.5671 12.2231 92.251 13.1933C91.9349 14.1635 91.9335 15.2087 92.247 16.1798C92.5605 17.1508 93.1728 17.9979 93.9965 18.6002L99.3305 22.5002L97.3025 28.7807C96.9748 29.7548 96.9707 30.8087 97.2907 31.7853C97.6108 32.7619 98.2379 33.609 99.0785 34.2002C99.9048 34.8103 100.906 35.1372 101.933 35.1321C102.96 35.1269 103.958 34.7901 104.779 34.1717L110 30.3287L115.223 34.1672C116.048 34.7739 117.044 35.1034 118.068 35.1084C119.091 35.1133 120.091 34.7935 120.921 34.1949C121.752 33.5963 122.371 32.7497 122.69 31.7769C123.01 30.804 123.012 29.755 122.698 28.7807L120.67 22.5002L126.01 18.6002C126.843 18.0055 127.462 17.1584 127.776 16.1842C128.091 15.21 128.083 14.1606 127.754 13.1912ZM124.24 16.1777L118.024 20.7212C117.768 20.9074 117.578 21.1696 117.481 21.4702C117.383 21.7708 117.383 22.0945 117.481 22.3952L119.843 29.7002C119.963 30.0707 119.962 30.4696 119.84 30.8394C119.719 31.2093 119.483 31.5312 119.167 31.7587C118.851 31.9863 118.471 32.1078 118.082 32.1058C117.693 32.1038 117.314 31.9784 117.001 31.7477L110.888 27.2477C110.631 27.0586 110.319 26.9566 110 26.9566C109.681 26.9566 109.369 27.0586 109.112 27.2477L103 31.7477C102.686 31.9815 102.306 32.1095 101.915 32.1131C101.524 32.1166 101.142 31.9956 100.825 31.7674C100.507 31.5393 100.271 31.2159 100.149 30.8442C100.028 30.4725 100.028 30.0718 100.15 29.7002L102.52 22.3952C102.617 22.0945 102.617 21.7708 102.519 21.4702C102.422 21.1696 102.232 20.9074 101.977 20.7212L95.7605 16.1777C95.4475 15.9485 95.2149 15.6262 95.096 15.2569C94.977 14.8876 94.9778 14.4901 95.0983 14.1213C95.2187 13.7525 95.4526 13.4312 95.7666 13.2033C96.0806 12.9753 96.4586 12.8524 96.8465 12.8522H104.497C104.814 12.8522 105.123 12.7514 105.38 12.5643C105.637 12.3772 105.827 12.1135 105.925 11.8112L108.25 4.56468C108.369 4.19385 108.603 3.87046 108.918 3.64105C109.232 3.41164 109.612 3.28803 110.002 3.28803C110.391 3.28803 110.771 3.41164 111.085 3.64105C111.4 3.87046 111.634 4.19385 111.754 4.56468L114.079 11.8112C114.176 12.1135 114.366 12.3772 114.623 12.5643C114.88 12.7514 115.189 12.8522 115.507 12.8522H123.157C123.545 12.8524 123.923 12.9753 124.236 13.2033C124.55 13.4312 124.784 13.7525 124.905 14.1213C125.025 14.4901 125.026 14.8876 124.907 15.2569C124.788 15.6262 124.556 15.9485 124.243 16.1777H124.24Z" fill="#E2EEFF"/>
</g>
<g clip-path="url(#clip3_257_354)">
<path d="M173.754 13.1912C173.447 12.2145 172.834 11.3625 172.006 10.7612C171.177 10.1599 170.177 9.84118 169.154 9.85217H162.6L160.61 3.64818C160.297 2.67161 159.681 1.8197 158.853 1.21527C158.025 0.610851 157.026 0.285156 156 0.285156C154.975 0.285156 153.976 0.610851 153.147 1.21527C152.319 1.8197 151.704 2.67161 151.391 3.64818L149.4 9.85217H142.847C141.826 9.85363 140.832 10.1775 140.007 10.7775C139.182 11.3776 138.567 12.2231 138.251 13.1933C137.935 14.1635 137.934 15.2087 138.247 16.1798C138.561 17.1508 139.173 17.9979 139.997 18.6002L145.331 22.5002L143.303 28.7807C142.975 29.7548 142.971 30.8087 143.291 31.7853C143.611 32.7619 144.238 33.609 145.079 34.2002C145.905 34.8103 146.906 35.1372 147.933 35.1321C148.96 35.1269 149.958 34.7901 150.779 34.1717L156 30.3287L161.223 34.1672C162.048 34.7739 163.044 35.1034 164.068 35.1084C165.091 35.1133 166.091 34.7935 166.921 34.1949C167.752 33.5963 168.371 32.7497 168.69 31.7769C169.01 30.804 169.012 29.755 168.698 28.7807L166.67 22.5002L172.01 18.6002C172.843 18.0055 173.462 17.1584 173.776 16.1842C174.091 15.21 174.083 14.1606 173.754 13.1912ZM170.24 16.1777L164.024 20.7212C163.768 20.9074 163.578 21.1696 163.481 21.4702C163.383 21.7708 163.383 22.0945 163.481 22.3952L165.843 29.7002C165.963 30.0707 165.962 30.4696 165.84 30.8394C165.719 31.2093 165.483 31.5312 165.167 31.7587C164.851 31.9863 164.471 32.1078 164.082 32.1058C163.693 32.1038 163.314 31.9784 163.001 31.7477L156.888 27.2477C156.631 27.0586 156.319 26.9566 156 26.9566C155.681 26.9566 155.369 27.0586 155.112 27.2477L149 31.7477C148.686 31.9815 148.306 32.1095 147.915 32.1131C147.524 32.1166 147.142 31.9956 146.825 31.7674C146.507 31.5393 146.271 31.2159 146.149 30.8442C146.028 30.4725 146.028 30.0718 146.15 29.7002L148.52 22.3952C148.617 22.0945 148.617 21.7708 148.519 21.4702C148.422 21.1696 148.232 20.9074 147.977 20.7212L141.761 16.1777C141.448 15.9485 141.215 15.6262 141.096 15.2569C140.977 14.8876 140.978 14.4901 141.098 14.1213C141.219 13.7525 141.453 13.4312 141.767 13.2033C142.081 12.9753 142.459 12.8524 142.847 12.8522H150.497C150.814 12.8522 151.123 12.7514 151.38 12.5643C151.637 12.3772 151.827 12.1135 151.925 11.8112L154.25 4.56468C154.369 4.19385 154.603 3.87046 154.918 3.64105C155.232 3.41164 155.612 3.28803 156.002 3.28803C156.391 3.28803 156.771 3.41164 157.085 3.64105C157.4 3.87046 157.634 4.19385 157.754 4.56468L160.079 11.8112C160.176 12.1135 160.366 12.3772 160.623 12.5643C160.88 12.7514 161.189 12.8522 161.507 12.8522H169.157C169.545 12.8524 169.923 12.9753 170.236 13.2033C170.55 13.4312 170.784 13.7525 170.905 14.1213C171.025 14.4901 171.026 14.8876 170.907 15.2569C170.788 15.6262 170.556 15.9485 170.243 16.1777H170.24Z" fill="#E2EEFF"/>
</g>
<g clip-path="url(#clip4_257_354)">
<path d="M219.754 13.1912C219.447 12.2145 218.834 11.3625 218.005 10.7612C217.177 10.1599 216.177 9.84118 215.153 9.85217H208.6L206.609 3.64818C206.296 2.67161 205.681 1.8197 204.853 1.21527C204.024 0.610851 203.025 0.285156 202 0.285156C200.974 0.285156 199.975 0.610851 199.147 1.21527C198.318 1.8197 197.703 2.67161 197.39 3.64818L195.4 9.85217H188.846C187.826 9.85363 186.832 10.1775 186.007 10.7775C185.181 11.3776 184.567 12.2231 184.251 13.1933C183.935 14.1635 183.933 15.2087 184.247 16.1798C184.56 17.1508 185.173 17.9979 185.996 18.6002L191.33 22.5002L189.302 28.7807C188.975 29.7548 188.97 30.8087 189.29 31.7853C189.611 32.7619 190.238 33.609 191.078 34.2002C191.905 34.8103 192.906 35.1372 193.933 35.1321C194.96 35.1269 195.958 34.7901 196.778 34.1717L202 30.3287L207.223 34.1672C208.048 34.7739 209.043 35.1034 210.067 35.1084C211.091 35.1133 212.09 34.7935 212.921 34.1949C213.752 33.5963 214.371 32.7497 214.69 31.7769C215.009 30.804 215.012 29.755 214.697 28.7807L212.669 22.5002L218.009 18.6002C218.842 18.0055 219.462 17.1584 219.776 16.1842C220.09 15.21 220.082 14.1606 219.754 13.1912ZM216.239 16.1777L210.023 20.7212C209.768 20.9074 209.578 21.1696 209.481 21.4702C209.383 21.7708 209.383 22.0945 209.48 22.3952L211.843 29.7002C211.962 30.0707 211.961 30.4696 211.84 30.8394C211.718 31.2093 211.483 31.5312 211.167 31.7587C210.851 31.9863 210.471 32.1078 210.082 32.1058C209.693 32.1038 209.314 31.9784 209 31.7477L202.888 27.2477C202.63 27.0586 202.319 26.9566 202 26.9566C201.68 26.9566 201.369 27.0586 201.112 27.2477L194.999 31.7477C194.686 31.9815 194.306 32.1095 193.915 32.1131C193.524 32.1166 193.142 31.9956 192.825 31.7674C192.507 31.5393 192.27 31.2159 192.149 30.8442C192.028 30.4725 192.028 30.0718 192.149 29.7002L194.519 22.3952C194.617 22.0945 194.617 21.7708 194.519 21.4702C194.422 21.1696 194.232 20.9074 193.976 20.7212L187.76 16.1777C187.447 15.9485 187.215 15.6262 187.096 15.2569C186.977 14.8876 186.978 14.4901 187.098 14.1213C187.218 13.7525 187.452 13.4312 187.766 13.2033C188.08 12.9753 188.458 12.8524 188.846 12.8522H196.496C196.814 12.8522 197.123 12.7514 197.38 12.5643C197.636 12.3772 197.827 12.1135 197.924 11.8112L200.249 4.56468C200.369 4.19385 200.603 3.87046 200.917 3.64105C201.232 3.41164 201.612 3.28803 202.001 3.28803C202.391 3.28803 202.77 3.41164 203.085 3.64105C203.4 3.87046 203.634 4.19385 203.753 4.56468L206.078 11.8112C206.175 12.1135 206.366 12.3772 206.623 12.5643C206.879 12.7514 207.189 12.8522 207.506 12.8522H215.156C215.544 12.8524 215.922 12.9753 216.236 13.2033C216.55 13.4312 216.784 13.7525 216.905 14.1213C217.025 14.4901 217.026 14.8876 216.907 15.2569C216.788 15.6262 216.555 15.9485 216.242 16.1777H216.239Z" fill="#E2EEFF"/>
</g>
<defs>
<clipPath id="clip0_257_354">
<rect width="36" height="36" fill="white"/>
</clipPath>
<clipPath id="clip1_257_354">
<rect width="36" height="36" fill="white" transform="translate(46)"/>
</clipPath>
<clipPath id="clip2_257_354">
<rect width="36" height="36" fill="white" transform="translate(92)"/>
</clipPath>
<clipPath id="clip3_257_354">
<rect width="36" height="36" fill="white" transform="translate(138)"/>
</clipPath>
<clipPath id="clip4_257_354">
<rect width="36" height="36" fill="white" transform="translate(184)"/>
</clipPath>
</defs>
</svg>
