<svg width="100" height="100" viewBox="0 0 100 100" fill="none" xmlns="http://www.w3.org/2000/svg">
<g filter="url(#filter0_ii_1_2550)">
<path d="M9.64777 89.8453L7.27456 95.4267C7.22329 95.5659 7.14272 95.6758 7.03285 95.7563C6.9303 95.8296 6.81677 95.8662 6.69225 95.8662C6.49448 95.8662 6.34798 95.8113 6.25276 95.7014C6.15754 95.5915 6.10993 95.456 6.10993 95.2949C6.10993 95.229 6.12092 95.1594 6.14289 95.0861L8.87867 88.5159C8.93727 88.3694 9.02517 88.2558 9.14236 88.1753C9.26688 88.0947 9.39873 88.0617 9.5379 88.0764C9.66974 88.0764 9.7906 88.1167 9.90047 88.1972C10.0177 88.2705 10.1019 88.3767 10.1532 88.5159L12.856 94.9543C12.8926 95.0495 12.9109 95.1374 12.9109 95.218C12.9109 95.4157 12.845 95.5732 12.7132 95.6904C12.5886 95.8076 12.4495 95.8662 12.2957 95.8662C12.1638 95.8662 12.0429 95.8259 11.9331 95.7454C11.8305 95.6648 11.75 95.5549 11.6914 95.4157L9.32914 89.9112L9.64777 89.8453ZM7.61516 94.0863L8.21945 92.8228H11.186L11.3947 94.0863H7.61516ZM18.7583 89.8233C18.9487 89.8233 19.1062 89.8856 19.2307 90.0101C19.3552 90.1346 19.4175 90.2958 19.4175 90.4935V95.1411C19.4175 95.3315 19.3552 95.4927 19.2307 95.6245C19.1062 95.749 18.9487 95.8113 18.7583 95.8113C18.5678 95.8113 18.4104 95.749 18.2858 95.6245C18.1613 95.4927 18.0991 95.3315 18.0991 95.1411V94.6027L18.3408 94.7016C18.3408 94.7968 18.2895 94.914 18.187 95.0532C18.0844 95.185 17.9452 95.3169 17.7694 95.4487C17.5937 95.5806 17.3849 95.6941 17.1432 95.7893C16.9088 95.8772 16.6524 95.9211 16.3741 95.9211C15.8687 95.9211 15.4109 95.793 15.0007 95.5366C14.5905 95.2729 14.2646 94.914 14.0229 94.4599C13.7885 93.9984 13.6713 93.471 13.6713 92.8777C13.6713 92.2771 13.7885 91.7497 14.0229 91.2956C14.2646 90.8341 14.5869 90.4752 14.9897 90.2189C15.3926 89.9552 15.8394 89.8233 16.3301 89.8233C16.6451 89.8233 16.9344 89.8709 17.1981 89.9662C17.4618 90.0614 17.6889 90.1822 17.8793 90.3287C18.0771 90.4752 18.2272 90.6254 18.3298 90.7792C18.4397 90.9257 18.4946 91.0502 18.4946 91.1528L18.0991 91.2956V90.4935C18.0991 90.3031 18.1613 90.1456 18.2858 90.0211C18.4104 89.8892 18.5678 89.8233 18.7583 89.8233ZM16.5389 94.7126C16.8612 94.7126 17.1432 94.632 17.3849 94.4709C17.6266 94.3097 17.8134 94.09 17.9452 93.8116C18.0844 93.5333 18.154 93.222 18.154 92.8777C18.154 92.5261 18.0844 92.2112 17.9452 91.9328C17.8134 91.6545 17.6266 91.4348 17.3849 91.2736C17.1432 91.1125 16.8612 91.0319 16.5389 91.0319C16.2239 91.0319 15.9456 91.1125 15.7039 91.2736C15.4622 91.4348 15.2717 91.6545 15.1325 91.9328C15.0007 92.2112 14.9348 92.5261 14.9348 92.8777C14.9348 93.222 15.0007 93.5333 15.1325 93.8116C15.2717 94.09 15.4622 94.3097 15.7039 94.4709C15.9456 94.632 16.2239 94.7126 16.5389 94.7126ZM25.6574 87.6808C25.8478 87.6808 26.0053 87.7431 26.1298 87.8676C26.2543 87.9921 26.3166 88.1533 26.3166 88.3511V95.1411C26.3166 95.3315 26.2543 95.4927 26.1298 95.6245C26.0053 95.749 25.8478 95.8113 25.6574 95.8113C25.4669 95.8113 25.3095 95.749 25.1849 95.6245C25.0604 95.4927 24.9982 95.3315 24.9982 95.1411V94.6027L25.2399 94.7016C25.2399 94.7968 25.1886 94.914 25.0861 95.0532C24.9835 95.185 24.8443 95.3169 24.6685 95.4487C24.4928 95.5806 24.284 95.6941 24.0423 95.7893C23.8079 95.8772 23.5515 95.9211 23.2732 95.9211C22.7678 95.9211 22.31 95.793 21.8998 95.5366C21.4896 95.2729 21.1637 94.914 20.922 94.4599C20.6876 93.9984 20.5704 93.471 20.5704 92.8777C20.5704 92.2771 20.6876 91.7497 20.922 91.2956C21.1637 90.8341 21.486 90.4752 21.8888 90.2189C22.2917 89.9552 22.7385 89.8233 23.2292 89.8233C23.5442 89.8233 23.8335 89.8709 24.0972 89.9662C24.3609 90.0614 24.588 90.1822 24.7784 90.3287C24.9762 90.4752 25.1263 90.6254 25.2289 90.7792C25.3388 90.9257 25.3937 91.0502 25.3937 91.1528L24.9982 91.2956V88.3511C24.9982 88.1606 25.0604 88.0031 25.1849 87.8786C25.3095 87.7468 25.4669 87.6808 25.6574 87.6808ZM23.438 94.7126C23.7603 94.7126 24.0423 94.632 24.284 94.4709C24.5257 94.3097 24.7125 94.09 24.8443 93.8116C24.9835 93.5333 25.0531 93.222 25.0531 92.8777C25.0531 92.5261 24.9835 92.2112 24.8443 91.9328C24.7125 91.6545 24.5257 91.4348 24.284 91.2736C24.0423 91.1125 23.7603 91.0319 23.438 91.0319C23.123 91.0319 22.8447 91.1125 22.603 91.2736C22.3613 91.4348 22.1708 91.6545 22.0317 91.9328C21.8998 92.2112 21.8339 92.5261 21.8339 92.8777C21.8339 93.222 21.8998 93.5333 22.0317 93.8116C22.1708 94.09 22.3613 94.3097 22.603 94.4709C22.8447 94.632 23.123 94.7126 23.438 94.7126ZM30.8315 89.8233C31.3589 89.8233 31.7581 89.9369 32.0291 90.1639C32.3075 90.391 32.4979 90.695 32.6004 91.0759C32.703 91.4494 32.7543 91.8669 32.7543 92.3284V95.1411C32.7543 95.3315 32.692 95.4927 32.5675 95.6245C32.443 95.749 32.2855 95.8113 32.095 95.8113C31.9046 95.8113 31.7471 95.749 31.6226 95.6245C31.4981 95.4927 31.4358 95.3315 31.4358 95.1411V92.3284C31.4358 92.0867 31.4065 91.8706 31.3479 91.6801C31.2893 91.4824 31.1831 91.3249 31.0293 91.2077C30.8755 91.0905 30.6557 91.0319 30.3701 91.0319C30.0917 91.0319 29.8537 91.0905 29.6559 91.2077C29.4581 91.3249 29.308 91.4824 29.2054 91.6801C29.1102 91.8706 29.0626 92.0867 29.0626 92.3284V95.1411C29.0626 95.3315 29.0003 95.4927 28.8758 95.6245C28.7513 95.749 28.5938 95.8113 28.4034 95.8113C28.2129 95.8113 28.0555 95.749 27.9309 95.6245C27.8064 95.4927 27.7442 95.3315 27.7442 95.1411V88.3511C27.7442 88.1606 27.8064 88.0031 27.9309 87.8786C28.0555 87.7468 28.2129 87.6808 28.4034 87.6808C28.5938 87.6808 28.7513 87.7468 28.8758 87.8786C29.0003 88.0031 29.0626 88.1606 29.0626 88.3511V91.0759L28.8978 91.0429C28.9637 90.9184 29.0553 90.7865 29.1725 90.6474C29.2897 90.5009 29.4325 90.3654 29.601 90.2408C29.7694 90.1163 29.9562 90.0174 30.1613 89.9442C30.3664 89.8636 30.5898 89.8233 30.8315 89.8233ZM38.4901 89.9332C38.6806 89.9332 38.838 89.9991 38.9626 90.131C39.0871 90.2555 39.1493 90.413 39.1493 90.6034V95.2729C39.1493 95.9468 39.0212 96.4815 38.7648 96.877C38.5157 97.2799 38.1788 97.5692 37.754 97.745C37.3291 97.9208 36.853 98.0087 36.3257 98.0087C36.0913 98.0087 35.8422 97.9904 35.5785 97.9538C35.3148 97.9171 35.0988 97.8622 34.9303 97.789C34.7106 97.6937 34.5567 97.5729 34.4688 97.4264C34.3883 97.2872 34.3736 97.1371 34.4249 96.9759C34.4908 96.7635 34.597 96.617 34.7435 96.5364C34.89 96.4632 35.0438 96.4559 35.205 96.5145C35.3222 96.5511 35.476 96.606 35.6664 96.6793C35.8569 96.7598 36.0766 96.8001 36.3257 96.8001C36.6626 96.8001 36.9409 96.7525 37.1607 96.6573C37.3877 96.5694 37.5562 96.4156 37.6661 96.1958C37.7833 95.9834 37.8419 95.6904 37.8419 95.3169V94.5807L38.0726 94.8444C37.9481 95.0861 37.7906 95.2876 37.6002 95.4487C37.417 95.6025 37.1973 95.7197 36.9409 95.8003C36.6846 95.8809 36.3916 95.9211 36.062 95.9211C35.6738 95.9211 35.3332 95.8333 35.0402 95.6575C34.7545 95.4743 34.5311 95.2253 34.37 94.9103C34.2088 94.5881 34.1282 94.2218 34.1282 93.8116V90.6034C34.1282 90.413 34.1905 90.2555 34.315 90.131C34.4395 89.9991 34.597 89.9332 34.7875 89.9332C34.9779 89.9332 35.1354 89.9991 35.2599 90.131C35.3844 90.2555 35.4467 90.413 35.4467 90.6034V93.4161C35.4467 93.8922 35.5492 94.2291 35.7543 94.4269C35.9667 94.6174 36.2597 94.7126 36.6333 94.7126C36.8897 94.7126 37.1057 94.665 37.2815 94.5697C37.4573 94.4672 37.5928 94.3207 37.6881 94.1303C37.7833 93.9325 37.8309 93.6944 37.8309 93.4161V90.6034C37.8309 90.413 37.8931 90.2555 38.0177 90.131C38.1422 89.9991 38.2997 89.9332 38.4901 89.9332ZM45.389 89.8233C45.5795 89.8233 45.737 89.8856 45.8615 90.0101C45.986 90.1346 46.0483 90.2958 46.0483 90.4935V95.1411C46.0483 95.3315 45.986 95.4927 45.8615 95.6245C45.737 95.749 45.5795 95.8113 45.389 95.8113C45.1986 95.8113 45.0411 95.749 44.9166 95.6245C44.7921 95.4927 44.7298 95.3315 44.7298 95.1411V94.6027L44.9715 94.7016C44.9715 94.7968 44.9203 94.914 44.8177 95.0532C44.7152 95.185 44.576 95.3169 44.4002 95.4487C44.2244 95.5806 44.0157 95.6941 43.7739 95.7893C43.5396 95.8772 43.2832 95.9211 43.0049 95.9211C42.4994 95.9211 42.0417 95.793 41.6315 95.5366C41.2213 95.2729 40.8953 94.914 40.6536 94.4599C40.4192 93.9984 40.302 93.471 40.302 92.8777C40.302 92.2771 40.4192 91.7497 40.6536 91.2956C40.8953 90.8341 41.2176 90.4752 41.6205 90.2189C42.0233 89.9552 42.4701 89.8233 42.9609 89.8233C43.2759 89.8233 43.5652 89.8709 43.8289 89.9662C44.0926 90.0614 44.3196 90.1822 44.5101 90.3287C44.7078 90.4752 44.858 90.6254 44.9605 90.7792C45.0704 90.9257 45.1254 91.0502 45.1254 91.1528L44.7298 91.2956V90.4935C44.7298 90.3031 44.7921 90.1456 44.9166 90.0211C45.0411 89.8892 45.1986 89.8233 45.389 89.8233ZM43.1697 94.7126C43.4919 94.7126 43.7739 94.632 44.0157 94.4709C44.2574 94.3097 44.4442 94.09 44.576 93.8116C44.7152 93.5333 44.7848 93.222 44.7848 92.8777C44.7848 92.5261 44.7152 92.2112 44.576 91.9328C44.4442 91.6545 44.2574 91.4348 44.0157 91.2736C43.7739 91.1125 43.4919 91.0319 43.1697 91.0319C42.8547 91.0319 42.5764 91.1125 42.3346 91.2736C42.0929 91.4348 41.9025 91.6545 41.7633 91.9328C41.6315 92.2112 41.5655 92.5261 41.5655 92.8777C41.5655 93.222 41.6315 93.5333 41.7633 93.8116C41.9025 94.09 42.0929 94.3097 42.3346 94.4709C42.5764 94.632 42.8547 94.7126 43.1697 94.7126Z" fill="url(#paint0_linear_1_2550)"/>
<path d="M52.0385 95.1411C52.0385 95.3315 51.9689 95.4927 51.8297 95.6245C51.6905 95.749 51.5294 95.8113 51.3463 95.8113C51.1412 95.8113 50.9764 95.749 50.8518 95.6245C50.7273 95.4927 50.6651 95.3315 50.6651 95.1411V88.7905C50.6651 88.6001 50.731 88.4426 50.8628 88.3181C50.9947 88.1863 51.1631 88.1203 51.3682 88.1203C51.544 88.1203 51.6979 88.1863 51.8297 88.3181C51.9689 88.4426 52.0385 88.6001 52.0385 88.7905V95.1411ZM56.7232 89.8233C57.2653 89.8233 57.6754 89.9369 57.9538 90.1639C58.2395 90.391 58.4336 90.695 58.5361 91.0759C58.646 91.4494 58.7009 91.8669 58.7009 92.3284V95.1411C58.7009 95.3315 58.6386 95.4927 58.5141 95.6245C58.3896 95.749 58.2321 95.8113 58.0417 95.8113C57.8512 95.8113 57.6938 95.749 57.5692 95.6245C57.4447 95.4927 57.3825 95.3315 57.3825 95.1411V92.3284C57.3825 92.0867 57.3495 91.8706 57.2836 91.6801C57.225 91.4824 57.1151 91.3249 56.954 91.2077C56.7928 91.0905 56.5621 91.0319 56.2618 91.0319C55.9688 91.0319 55.7198 91.0905 55.5147 91.2077C55.3169 91.3249 55.1631 91.4824 55.0532 91.6801C54.9507 91.8706 54.8994 92.0867 54.8994 92.3284V95.1411C54.8994 95.3315 54.8371 95.4927 54.7126 95.6245C54.5881 95.749 54.4306 95.8113 54.2402 95.8113C54.0497 95.8113 53.8922 95.749 53.7677 95.6245C53.6432 95.4927 53.5809 95.3315 53.5809 95.1411V90.6034C53.5809 90.413 53.6432 90.2555 53.7677 90.131C53.8922 89.9991 54.0497 89.9332 54.2402 89.9332C54.4306 89.9332 54.5881 89.9991 54.7126 90.131C54.8371 90.2555 54.8994 90.413 54.8994 90.6034V91.0759L54.7346 91.0429C54.8005 90.9184 54.8957 90.7865 55.0202 90.6474C55.1448 90.5009 55.2913 90.3654 55.4597 90.2408C55.6282 90.1163 55.8186 90.0174 56.0311 89.9442C56.2435 89.8636 56.4742 89.8233 56.7232 89.8233ZM63.1474 87.6808C63.3086 87.6808 63.466 87.7028 63.6199 87.7468C63.7737 87.7907 63.9019 87.864 64.0044 87.9665C64.1069 88.0617 64.1582 88.1899 64.1582 88.3511C64.1582 88.5342 64.1033 88.6807 63.9934 88.7905C63.8909 88.8931 63.77 88.9444 63.6308 88.9444C63.5649 88.9444 63.466 88.9297 63.3342 88.9004C63.2023 88.8638 63.0742 88.8455 62.9496 88.8455C62.7665 88.8455 62.6237 88.8858 62.5211 88.9663C62.4259 89.0469 62.36 89.1421 62.3234 89.252C62.2868 89.3545 62.2684 89.4461 62.2684 89.5267V95.1411C62.2684 95.3315 62.2062 95.4927 62.0817 95.6245C61.9571 95.749 61.7997 95.8113 61.6092 95.8113C61.4188 95.8113 61.2613 95.749 61.1368 95.6245C61.0123 95.4927 60.95 95.3315 60.95 95.1411V89.5377C60.95 89.0176 61.1331 88.5781 61.4993 88.2192C61.8656 87.8603 62.4149 87.6808 63.1474 87.6808ZM63.2683 90.0431C63.4441 90.0431 63.5906 90.1017 63.7077 90.2189C63.8249 90.3287 63.8835 90.4716 63.8835 90.6474C63.8835 90.8232 63.8249 90.9696 63.7077 91.0868C63.5906 91.1967 63.4441 91.2516 63.2683 91.2516H60.3567C60.1809 91.2516 60.0344 91.1967 59.9172 91.0868C59.8 90.9696 59.7414 90.8232 59.7414 90.6474C59.7414 90.4716 59.8 90.3287 59.9172 90.2189C60.0344 90.1017 60.1809 90.0431 60.3567 90.0431H63.2683ZM70.2917 92.8777C70.2917 93.4784 70.1562 94.0094 69.8852 94.4709C69.6215 94.925 69.2626 95.2802 68.8085 95.5366C68.3617 95.793 67.8599 95.9211 67.3033 95.9211C66.7466 95.9211 66.2412 95.793 65.7871 95.5366C65.3402 95.2802 64.9813 94.925 64.7103 94.4709C64.4466 94.0094 64.3148 93.4784 64.3148 92.8777C64.3148 92.2771 64.4466 91.7497 64.7103 91.2956C64.9813 90.8341 65.3402 90.4752 65.7871 90.2189C66.2412 89.9552 66.7466 89.8233 67.3033 89.8233C67.8599 89.8233 68.3617 89.9552 68.8085 90.2189C69.2626 90.4752 69.6215 90.8341 69.8852 91.2956C70.1562 91.7497 70.2917 92.2771 70.2917 92.8777ZM68.9733 92.8777C68.9733 92.5042 68.8964 92.1819 68.7426 91.9109C68.5961 91.6325 68.3946 91.4165 68.1383 91.2626C67.8892 91.1088 67.6109 91.0319 67.3033 91.0319C66.9956 91.0319 66.7136 91.1088 66.4573 91.2626C66.2082 91.4165 66.0068 91.6325 65.853 91.9109C65.7065 92.1819 65.6332 92.5042 65.6332 92.8777C65.6332 93.244 65.7065 93.5663 65.853 93.8446C66.0068 94.1156 66.2082 94.328 66.4573 94.4818C66.7136 94.6357 66.9956 94.7126 67.3033 94.7126C67.6109 94.7126 67.8892 94.6357 68.1383 94.4818C68.3946 94.328 68.5961 94.1156 68.7426 93.8446C68.8964 93.5663 68.9733 93.244 68.9733 92.8777ZM71.5116 90.0431H74.1155C74.2913 90.0431 74.4378 90.1017 74.555 90.2189C74.6722 90.3361 74.7308 90.4826 74.7308 90.6583C74.7308 90.8268 74.6722 90.9696 74.555 91.0868C74.4378 91.1967 74.2913 91.2516 74.1155 91.2516H71.5116C71.3358 91.2516 71.1893 91.193 71.0721 91.0759C70.9549 90.9587 70.8963 90.8122 70.8963 90.6364C70.8963 90.4679 70.9549 90.3287 71.0721 90.2189C71.1893 90.1017 71.3358 90.0431 71.5116 90.0431ZM72.6872 88.6697C72.8776 88.6697 73.0315 88.7356 73.1486 88.8675C73.2732 88.992 73.3354 89.1495 73.3354 89.3399V94.2291C73.3354 94.3317 73.3537 94.4159 73.3904 94.4818C73.4343 94.5478 73.4892 94.5954 73.5552 94.6247C73.6284 94.654 73.7053 94.6686 73.7859 94.6686C73.8738 94.6686 73.9544 94.654 74.0276 94.6247C74.1009 94.5881 74.1851 94.5697 74.2803 94.5697C74.3829 94.5697 74.4744 94.6174 74.555 94.7126C74.6429 94.8078 74.6868 94.9396 74.6868 95.1081C74.6868 95.3132 74.5733 95.4817 74.3462 95.6135C74.1265 95.7454 73.8884 95.8113 73.6321 95.8113C73.4783 95.8113 73.3061 95.8003 73.1157 95.7783C72.9326 95.749 72.7568 95.6868 72.5883 95.5915C72.4272 95.489 72.2917 95.3352 72.1818 95.1301C72.0719 94.925 72.017 94.643 72.017 94.2841V89.3399C72.017 89.1495 72.0792 88.992 72.2038 88.8675C72.3356 88.7356 72.4967 88.6697 72.6872 88.6697ZM78.6564 95.9211C78.0338 95.9211 77.4918 95.793 77.0303 95.5366C76.5762 95.2729 76.2246 94.9177 75.9756 94.4709C75.7339 94.024 75.613 93.5186 75.613 92.9546C75.613 92.2954 75.7449 91.7351 76.0085 91.2736C76.2796 90.8048 76.6311 90.4459 77.0633 90.1969C77.4955 89.9478 77.9533 89.8233 78.4367 89.8233C78.8103 89.8233 79.1618 89.9002 79.4914 90.0541C79.8284 90.2079 80.125 90.4203 80.3814 90.6913C80.6378 90.955 80.8392 91.2626 80.9857 91.6142C81.1395 91.9658 81.2164 92.3394 81.2164 92.7349C81.2091 92.9107 81.1395 93.0535 81.0077 93.1634C80.8758 93.2733 80.722 93.3282 80.5462 93.3282H76.3491L76.0195 92.2295H80.0518L79.8101 92.4492V92.1526C79.7954 91.9402 79.7185 91.7497 79.5793 91.5813C79.4475 91.4128 79.279 91.2809 79.0739 91.1857C78.8762 91.0832 78.6638 91.0319 78.4367 91.0319C78.2169 91.0319 78.0119 91.0612 77.8214 91.1198C77.631 91.1784 77.4662 91.2773 77.327 91.4165C77.1878 91.5556 77.078 91.7424 76.9974 91.9768C76.9168 92.2112 76.8765 92.5078 76.8765 92.8667C76.8765 93.2623 76.9571 93.5992 77.1182 93.8776C77.2867 94.1486 77.4991 94.3573 77.7555 94.5038C78.0192 94.643 78.2975 94.7126 78.5905 94.7126C78.8615 94.7126 79.0776 94.6906 79.2387 94.6467C79.3999 94.6027 79.5281 94.5514 79.6233 94.4928C79.7258 94.4269 79.8174 94.372 79.898 94.328C80.0298 94.2621 80.1543 94.2291 80.2715 94.2291C80.4327 94.2291 80.5645 94.2841 80.6671 94.3939C80.7769 94.5038 80.8319 94.632 80.8319 94.7785C80.8319 94.9763 80.7293 95.1557 80.5242 95.3169C80.3338 95.478 80.0664 95.6208 79.7222 95.7454C79.3779 95.8626 79.0227 95.9211 78.6564 95.9211ZM84.9833 89.8233C85.4008 89.8233 85.7633 89.8673 86.071 89.9552C86.3859 90.0431 86.6277 90.1676 86.7961 90.3287C86.9719 90.4826 87.0598 90.6693 87.0598 90.8891C87.0598 91.0356 87.0159 91.1747 86.928 91.3066C86.8401 91.4311 86.7119 91.4934 86.5434 91.4934C86.4262 91.4934 86.3273 91.4787 86.2468 91.4494C86.1735 91.4128 86.1076 91.3688 86.049 91.3176C85.9904 91.2663 85.9208 91.2187 85.8403 91.1747C85.767 91.1308 85.6535 91.0978 85.4997 91.0759C85.3532 91.0466 85.2433 91.0319 85.17 91.0319C84.7965 91.0319 84.4779 91.1125 84.2142 91.2736C83.9578 91.4348 83.76 91.6545 83.6209 91.9328C83.4817 92.2039 83.4121 92.5188 83.4121 92.8777C83.4121 93.2293 83.4817 93.5443 83.6209 93.8226C83.7674 94.0936 83.9651 94.3097 84.2142 94.4709C84.4705 94.632 84.7635 94.7126 85.0931 94.7126C85.2763 94.7126 85.4337 94.7016 85.5656 94.6796C85.6974 94.6576 85.8073 94.6247 85.8952 94.5807C85.9977 94.5221 86.0893 94.4599 86.1699 94.3939C86.2504 94.328 86.3713 94.2951 86.5324 94.2951C86.7229 94.2951 86.8694 94.3573 86.9719 94.4818C87.0745 94.599 87.1257 94.7455 87.1257 94.9213C87.1257 95.1044 87.0232 95.2729 86.8181 95.4267C86.613 95.5732 86.342 95.6941 86.0051 95.7893C85.6754 95.8772 85.3165 95.9211 84.9283 95.9211C84.3497 95.9211 83.8479 95.7893 83.4231 95.5256C82.9983 95.2546 82.6687 94.8884 82.4343 94.4269C82.2072 93.9655 82.0937 93.4491 82.0937 92.8777C82.0937 92.2771 82.2145 91.7497 82.4562 91.2956C82.7053 90.8341 83.0459 90.4752 83.478 90.2189C83.9175 89.9552 84.4193 89.8233 84.9833 89.8233ZM91.1638 89.8233C91.6912 89.8233 92.0904 89.9369 92.3614 90.1639C92.6398 90.391 92.8302 90.695 92.9327 91.0759C93.0353 91.4494 93.0866 91.8669 93.0866 92.3284V95.1411C93.0866 95.3315 93.0243 95.4927 92.8998 95.6245C92.7753 95.749 92.6178 95.8113 92.4273 95.8113C92.2369 95.8113 92.0794 95.749 91.9549 95.6245C91.8304 95.4927 91.7681 95.3315 91.7681 95.1411V92.3284C91.7681 92.0867 91.7388 91.8706 91.6802 91.6801C91.6216 91.4824 91.5154 91.3249 91.3616 91.2077C91.2078 91.0905 90.988 91.0319 90.7024 91.0319C90.424 91.0319 90.186 91.0905 89.9882 91.2077C89.7904 91.3249 89.6403 91.4824 89.5377 91.6801C89.4425 91.8706 89.3949 92.0867 89.3949 92.3284V95.1411C89.3949 95.3315 89.3327 95.4927 89.2081 95.6245C89.0836 95.749 88.9261 95.8113 88.7357 95.8113C88.5452 95.8113 88.3878 95.749 88.2632 95.6245C88.1387 95.4927 88.0765 95.3315 88.0765 95.1411V88.3511C88.0765 88.1606 88.1387 88.0031 88.2632 87.8786C88.3878 87.7468 88.5452 87.6808 88.7357 87.6808C88.9261 87.6808 89.0836 87.7468 89.2081 87.8786C89.3327 88.0031 89.3949 88.1606 89.3949 88.3511V91.0759L89.2301 91.0429C89.296 90.9184 89.3876 90.7865 89.5048 90.6474C89.622 90.5009 89.7648 90.3654 89.9333 90.2408C90.1017 90.1163 90.2885 90.0174 90.4936 89.9442C90.6987 89.8636 90.9221 89.8233 91.1638 89.8233Z" fill="#394044"/>
</g>
<g filter="url(#filter1_ii_1_2550)">
<path d="M48.2444 9.77716L15.8255 73.4142C14.3647 76.2816 13.6344 77.7153 14.2788 78.7669C14.9233 79.8185 16.5323 79.8185 19.7503 79.8185H23.7435C25.0892 79.8185 25.762 79.8185 26.2993 79.4809C26.8365 79.1432 27.1284 78.537 27.7122 77.3245L34.0878 64.0829C34.9857 62.218 35.4347 61.2855 36.2256 60.9667C37.0166 60.6478 38.0781 61.0421 40.2011 61.8308C57.5178 68.2633 77.8901 61.3721 85.1359 50.4322C86.3711 48.5673 86.9886 47.6349 86.3654 46.4746C85.7422 45.3144 84.429 45.3144 81.8026 45.3144H71.9038C71.0095 45.3144 70.5624 45.3144 70.2138 45.4344C69.8653 45.5545 69.3544 45.9538 68.3326 46.7525C63.1436 50.8084 52.5699 51.7145 45.6549 49.7938C44.0717 49.354 43.2801 49.1342 42.8581 48.1845C42.4362 47.2348 42.87 46.3673 43.7375 44.6322L48.6108 34.8856C49.9374 32.2325 50.6006 30.9059 51.5599 30.6505C51.9538 30.5457 52.369 30.5522 52.7594 30.6693C53.7102 30.9545 54.3317 32.3011 55.5748 34.9943C56.0059 35.9285 56.2215 36.3955 56.5859 36.7082C56.742 36.8421 56.9161 36.9534 57.1031 37.039C57.5397 37.239 58.0541 37.239 59.0829 37.239H62.698C65.8923 37.239 67.4894 37.239 68.135 36.1944C68.7805 35.1499 68.0663 33.7214 66.6377 30.8643L56.109 9.80674C54.4038 6.39651 53.5513 4.69139 52.1959 4.6863C50.8404 4.6812 49.9751 6.37986 48.2444 9.77716Z" fill="black"/>
</g>
<g filter="url(#filter2_ii_1_2550)">
<path d="M75.7539 68.0732H71.7764C68.8889 68.0732 67.4451 68.0732 66.7882 69.0212C66.1313 69.9691 66.6382 71.3209 67.6521 74.0246L68.7533 76.9612C69.2717 78.3437 69.531 79.0349 70.0969 79.4271C70.6628 79.8193 71.4011 79.8193 72.8776 79.8193H77.0386C80.0777 79.8193 81.5973 79.8193 82.2493 78.8224C82.9013 77.8255 82.2922 76.4333 81.0741 73.649L79.7893 70.7125C79.2291 69.4319 78.949 68.7916 78.3997 68.4324C77.8505 68.0732 77.1516 68.0732 75.7539 68.0732Z" fill="url(#paint1_linear_1_2550)"/>
</g>
<g filter="url(#filter3_ii_1_2550)">
<path d="M70.1613 38.4575L71.3689 21.5106C71.5072 19.5704 71.5763 18.6003 72.2105 18.0096C72.8448 17.4189 73.8174 17.4189 75.7625 17.4189H81.8152C83.7859 17.4189 84.7713 17.4189 85.4079 18.0203C86.0445 18.6217 86.1006 19.6055 86.2128 21.573L87.1789 38.5199V38.5199C87.3033 40.7035 87.3656 41.7953 86.7138 42.4854C86.0619 43.1754 84.9684 43.1754 82.7812 43.1754H74.555C72.3394 43.1754 71.2316 43.1754 70.5783 42.474C69.9251 41.7725 70.0038 40.6675 70.1613 38.4575Z" fill="url(#paint2_linear_1_2550)"/>
</g>
<g filter="url(#filter4_ii_1_2550)">
<circle cx="79.0017" cy="9.71056" r="6.97423" fill="black"/>
</g>
<defs>
<filter id="filter0_ii_1_2550" x="3.76602" y="85.337" width="91.6645" height="15.0157" filterUnits="userSpaceOnUse" color-interpolation-filters="sRGB">
<feFlood flood-opacity="0" result="BackgroundImageFix"/>
<feBlend mode="normal" in="SourceGraphic" in2="BackgroundImageFix" result="shape"/>
<feColorMatrix in="SourceAlpha" type="matrix" values="0 0 0 0 0 0 0 0 0 0 0 0 0 0 0 0 0 0 127 0" result="hardAlpha"/>
<feOffset dx="2.34391" dy="2.34391"/>
<feGaussianBlur stdDeviation="2.34391"/>
<feComposite in2="hardAlpha" operator="arithmetic" k2="-1" k3="1"/>
<feColorMatrix type="matrix" values="0 0 0 0 0 0 0 0 0 0 0 0 0 0 0 0 0 0 0.3 0"/>
<feBlend mode="normal" in2="shape" result="effect1_innerShadow_1_2550"/>
<feColorMatrix in="SourceAlpha" type="matrix" values="0 0 0 0 0 0 0 0 0 0 0 0 0 0 0 0 0 0 127 0" result="hardAlpha"/>
<feOffset dx="-2.34391" dy="-2.34391"/>
<feGaussianBlur stdDeviation="2.34391"/>
<feComposite in2="hardAlpha" operator="arithmetic" k2="-1" k3="1"/>
<feColorMatrix type="matrix" values="0 0 0 0 1 0 0 0 0 1 0 0 0 0 1 0 0 0 0.1 0"/>
<feBlend mode="normal" in2="effect1_innerShadow_1_2550" result="effect2_innerShadow_1_2550"/>
</filter>
<filter id="filter1_ii_1_2550" x="11.2305" y="1.87359" width="78.1933" height="80.7575" filterUnits="userSpaceOnUse" color-interpolation-filters="sRGB">
<feFlood flood-opacity="0" result="BackgroundImageFix"/>
<feBlend mode="normal" in="SourceGraphic" in2="BackgroundImageFix" result="shape"/>
<feColorMatrix in="SourceAlpha" type="matrix" values="0 0 0 0 0 0 0 0 0 0 0 0 0 0 0 0 0 0 127 0" result="hardAlpha"/>
<feOffset dx="-2.81269" dy="-2.81269"/>
<feGaussianBlur stdDeviation="4.68782"/>
<feComposite in2="hardAlpha" operator="arithmetic" k2="-1" k3="1"/>
<feColorMatrix type="matrix" values="0 0 0 0 0 0 0 0 0 0 0 0 0 0 0 0 0 0 0.4 0"/>
<feBlend mode="normal" in2="shape" result="effect1_innerShadow_1_2550"/>
<feColorMatrix in="SourceAlpha" type="matrix" values="0 0 0 0 0 0 0 0 0 0 0 0 0 0 0 0 0 0 127 0" result="hardAlpha"/>
<feOffset dx="2.81269" dy="2.81269"/>
<feGaussianBlur stdDeviation="4.68782"/>
<feComposite in2="hardAlpha" operator="arithmetic" k2="-1" k3="1"/>
<feColorMatrix type="matrix" values="0 0 0 0 1 0 0 0 0 1 0 0 0 0 1 0 0 0 0.4 0"/>
<feBlend mode="normal" in2="effect1_innerShadow_1_2550" result="effect2_innerShadow_1_2550"/>
</filter>
<filter id="filter2_ii_1_2550" x="63.6805" y="65.2606" width="21.6468" height="17.3715" filterUnits="userSpaceOnUse" color-interpolation-filters="sRGB">
<feFlood flood-opacity="0" result="BackgroundImageFix"/>
<feBlend mode="normal" in="SourceGraphic" in2="BackgroundImageFix" result="shape"/>
<feColorMatrix in="SourceAlpha" type="matrix" values="0 0 0 0 0 0 0 0 0 0 0 0 0 0 0 0 0 0 127 0" result="hardAlpha"/>
<feOffset dx="-2.81269" dy="-2.81269"/>
<feGaussianBlur stdDeviation="4.68782"/>
<feComposite in2="hardAlpha" operator="arithmetic" k2="-1" k3="1"/>
<feColorMatrix type="matrix" values="0 0 0 0 0 0 0 0 0 0 0 0 0 0 0 0 0 0 0.4 0"/>
<feBlend mode="normal" in2="shape" result="effect1_innerShadow_1_2550"/>
<feColorMatrix in="SourceAlpha" type="matrix" values="0 0 0 0 0 0 0 0 0 0 0 0 0 0 0 0 0 0 127 0" result="hardAlpha"/>
<feOffset dx="2.81269" dy="2.81269"/>
<feGaussianBlur stdDeviation="4.68782"/>
<feComposite in2="hardAlpha" operator="arithmetic" k2="-1" k3="1"/>
<feColorMatrix type="matrix" values="0 0 0 0 1 0 0 0 0 1 0 0 0 0 1 0 0 0 0.4 0"/>
<feBlend mode="normal" in2="effect1_innerShadow_1_2550" result="effect2_innerShadow_1_2550"/>
</filter>
<filter id="filter3_ii_1_2550" x="67.239" y="14.6063" width="22.8324" height="31.3817" filterUnits="userSpaceOnUse" color-interpolation-filters="sRGB">
<feFlood flood-opacity="0" result="BackgroundImageFix"/>
<feBlend mode="normal" in="SourceGraphic" in2="BackgroundImageFix" result="shape"/>
<feColorMatrix in="SourceAlpha" type="matrix" values="0 0 0 0 0 0 0 0 0 0 0 0 0 0 0 0 0 0 127 0" result="hardAlpha"/>
<feOffset dx="-2.81269" dy="-2.81269"/>
<feGaussianBlur stdDeviation="4.68782"/>
<feComposite in2="hardAlpha" operator="arithmetic" k2="-1" k3="1"/>
<feColorMatrix type="matrix" values="0 0 0 0 0 0 0 0 0 0 0 0 0 0 0 0 0 0 0.4 0"/>
<feBlend mode="normal" in2="shape" result="effect1_innerShadow_1_2550"/>
<feColorMatrix in="SourceAlpha" type="matrix" values="0 0 0 0 0 0 0 0 0 0 0 0 0 0 0 0 0 0 127 0" result="hardAlpha"/>
<feOffset dx="2.81269" dy="2.81269"/>
<feGaussianBlur stdDeviation="4.68782"/>
<feComposite in2="hardAlpha" operator="arithmetic" k2="-1" k3="1"/>
<feColorMatrix type="matrix" values="0 0 0 0 1 0 0 0 0 1 0 0 0 0 1 0 0 0 0.4 0"/>
<feBlend mode="normal" in2="effect1_innerShadow_1_2550" result="effect2_innerShadow_1_2550"/>
</filter>
<filter id="filter4_ii_1_2550" x="69.2148" y="-0.0763609" width="19.5738" height="19.5739" filterUnits="userSpaceOnUse" color-interpolation-filters="sRGB">
<feFlood flood-opacity="0" result="BackgroundImageFix"/>
<feBlend mode="normal" in="SourceGraphic" in2="BackgroundImageFix" result="shape"/>
<feColorMatrix in="SourceAlpha" type="matrix" values="0 0 0 0 0 0 0 0 0 0 0 0 0 0 0 0 0 0 127 0" result="hardAlpha"/>
<feOffset dx="-2.81269" dy="-2.81269"/>
<feGaussianBlur stdDeviation="2.34391"/>
<feComposite in2="hardAlpha" operator="arithmetic" k2="-1" k3="1"/>
<feColorMatrix type="matrix" values="0 0 0 0 0 0 0 0 0 0 0 0 0 0 0 0 0 0 0.5 0"/>
<feBlend mode="normal" in2="shape" result="effect1_innerShadow_1_2550"/>
<feColorMatrix in="SourceAlpha" type="matrix" values="0 0 0 0 0 0 0 0 0 0 0 0 0 0 0 0 0 0 127 0" result="hardAlpha"/>
<feOffset dx="2.81269" dy="2.81269"/>
<feGaussianBlur stdDeviation="2.34391"/>
<feComposite in2="hardAlpha" operator="arithmetic" k2="-1" k3="1"/>
<feColorMatrix type="matrix" values="0 0 0 0 1 0 0 0 0 1 0 0 0 0 1 0 0 0 0.3 0"/>
<feBlend mode="normal" in2="effect1_innerShadow_1_2550" result="effect2_innerShadow_1_2550"/>
</filter>
<linearGradient id="paint0_linear_1_2550" x1="-2.1748" y1="85.0408" x2="-1.71276" y2="101.498" gradientUnits="userSpaceOnUse">
<stop stop-color="#0598F0"/>
<stop offset="1" stop-color="#0467FF"/>
</linearGradient>
<linearGradient id="paint1_linear_1_2550" x1="63.7154" y1="68.2658" x2="65.2564" y2="81.9107" gradientUnits="userSpaceOnUse">
<stop stop-color="#0598F0"/>
<stop offset="1" stop-color="#0467FF"/>
</linearGradient>
<linearGradient id="paint2_linear_1_2550" x1="68.1884" y1="17.8412" x2="75.5176" y2="46.2521" gradientUnits="userSpaceOnUse">
<stop stop-color="#0598F0"/>
<stop offset="1" stop-color="#0467FF"/>
</linearGradient>
</defs>
</svg>
