<svg width="24" height="24" viewBox="0 0 24 24" fill="none" xmlns="http://www.w3.org/2000/svg">
<g clip-path="url(#clip0_263_381)">
<path d="M23.414 16.09C23.414 16.09 14.68 12.12 14.649 12.11C13.921 11.862 13.131 12.045 12.587 12.589C12.043 13.133 11.86 13.923 12.145 14.74L16.089 23.415C16.248 23.766 16.595 23.994 16.981 24.001H17C17.378 24.001 17.725 23.787 17.895 23.448L19.746 19.746L23.448 17.895C23.793 17.722 24.008 17.368 24.001 16.982C23.994 16.597 23.766 16.25 23.415 16.09H23.414ZM18.553 18.106C18.36 18.203 18.202 18.36 18.106 18.553L17.042 20.681L13.998 14.005L20.679 17.043L18.554 18.105L18.553 18.106ZM12.912 21.96C12.74 21.975 12.567 21.986 12.392 21.993C11.724 21.332 9.982 19.475 8.768 17.001H9.5C10.052 17.001 10.5 16.554 10.5 16.001C10.5 15.448 10.052 15.001 9.5 15.001H7.97C7.679 14.049 7.5 13.041 7.5 12.001C7.5 10.961 7.68 9.954 7.972 9.001H16.029C16.147 9.388 16.247 9.784 16.324 10.188C16.428 10.731 16.953 11.089 17.493 10.983C18.035 10.88 18.391 10.356 18.288 9.814C18.236 9.539 18.174 9.268 18.105 9.001H21.498C21.511 9.001 21.525 9.001 21.538 9.001C21.837 9.949 21.998 10.957 21.998 12.002C21.998 12.309 21.984 12.612 21.957 12.912C21.908 13.462 22.313 13.948 22.863 13.998C23.415 14.052 23.9 13.642 23.949 13.092C23.981 12.733 23.998 12.369 23.998 12.002C24 5.383 18.617 0 12 0C5.383 0 0 5.383 0 12C0 18.617 5.383 24 11.999 24C12.366 24 12.729 23.983 13.087 23.951C13.637 23.902 14.044 23.417 13.995 22.866C13.946 22.317 13.462 21.911 12.911 21.959L12.912 21.96ZM5.892 15.001H2.5C2.487 15.001 2.474 15.001 2.46 15.001C2.161 14.053 2 13.045 2 12C2 10.955 2.161 9.947 2.46 8.999C2.473 8.999 2.486 8.999 2.5 8.999H5.892C5.647 9.954 5.5 10.958 5.5 11.999C5.5 13.04 5.646 14.044 5.892 14.999V15.001ZM8.773 7.001C9.794 4.924 11.188 3.277 12.002 2.413C12.817 3.276 14.211 4.92 15.232 7.001H8.773ZM20.658 7.001H17.43C16.639 5.115 15.542 3.513 14.598 2.344C17.177 3.039 19.347 4.741 20.658 7.001ZM9.4 2.344C8.456 3.513 7.358 5.115 6.568 7H3.342C4.652 4.74 6.821 3.038 9.4 2.344ZM3.342 17H6.568C7.358 18.886 8.456 20.487 9.4 21.656C6.822 20.961 4.653 19.259 3.342 17Z" fill="#0467FF"/>
</g>
<defs>
<clipPath id="clip0_263_381">
<rect width="24" height="24" fill="white"/>
</clipPath>
</defs>
</svg>
