<svg width="28" height="23" viewBox="0 0 28 23" fill="none" xmlns="http://www.w3.org/2000/svg">
<path d="M18.2222 4.16667H15.1667V1.72222C15.1667 1.39807 15.0379 1.08719 14.8087 0.857981C14.5795 0.628769 14.2686 0.5 13.9444 0.5C13.6203 0.5 13.3094 0.628769 13.0802 0.857981C12.851 1.08719 12.7222 1.39807 12.7222 1.72222V4.16667H9.66667C7.23552 4.16667 4.90394 5.13244 3.18485 6.85152C1.46577 8.5706 0.5 10.9022 0.5 13.3333C0.5 15.7645 1.46577 18.0961 3.18485 19.8151C4.90394 21.5342 7.23552 22.5 9.66667 22.5H18.2222C20.6534 22.5 22.985 21.5342 24.704 19.8151C26.4231 18.0961 27.3889 15.7645 27.3889 13.3333C27.3889 10.9022 26.4231 8.5706 24.704 6.85152C22.985 5.13244 20.6534 4.16667 18.2222 4.16667ZM18.2222 20.0556H9.66667C7.88382 20.0556 6.174 19.3473 4.91334 18.0867C3.65268 16.826 2.94444 15.1162 2.94444 13.3333C2.94444 11.5505 3.65268 9.84066 4.91334 8.58C6.174 7.31934 7.88382 6.61111 9.66667 6.61111H18.2222C20.0051 6.61111 21.7149 7.31934 22.9756 8.58C24.2362 9.84066 24.9444 11.5505 24.9444 13.3333C24.9444 15.1162 24.2362 16.826 22.9756 18.0867C21.7149 19.3473 20.0051 20.0556 18.2222 20.0556Z" fill="#0467FF"/>
<path d="M11.5 12.1109H10.2778V10.8887C10.2778 10.5646 10.149 10.2537 9.91982 10.0245C9.69061 9.79527 9.37974 9.6665 9.05558 9.6665C8.73143 9.6665 8.42055 9.79527 8.19134 10.0245C7.96213 10.2537 7.83336 10.5646 7.83336 10.8887V12.1109H6.61114C6.28698 12.1109 5.97611 12.2397 5.7469 12.4689C5.51769 12.6981 5.38892 13.009 5.38892 13.3332C5.38892 13.6573 5.51769 13.9682 5.7469 14.1974C5.97611 14.4266 6.28698 14.5554 6.61114 14.5554H7.83336V15.7776C7.83336 16.1018 7.96213 16.4126 8.19134 16.6419C8.42055 16.8711 8.73143 16.9998 9.05558 16.9998C9.37974 16.9998 9.69061 16.8711 9.91982 16.6419C10.149 16.4126 10.2778 16.1018 10.2778 15.7776V14.5554H11.5C11.8242 14.5554 12.1351 14.4266 12.3643 14.1974C12.5935 13.9682 12.7222 13.6573 12.7222 13.3332C12.7222 13.009 12.5935 12.6981 12.3643 12.4689C12.1351 12.2397 11.8242 12.1109 11.5 12.1109Z" fill="#0467FF"/>
<path d="M21.2779 12.7223C21.9529 12.7223 22.5001 12.1751 22.5001 11.5001C22.5001 10.825 21.9529 10.2778 21.2779 10.2778C20.6029 10.2778 20.0557 10.825 20.0557 11.5001C20.0557 12.1751 20.6029 12.7223 21.2779 12.7223Z" fill="#0467FF"/>
<path d="M18.8333 16.3888C19.5083 16.3888 20.0555 15.8416 20.0555 15.1666C20.0555 14.4915 19.5083 13.9443 18.8333 13.9443C18.1583 13.9443 17.6111 14.4915 17.6111 15.1666C17.6111 15.8416 18.1583 16.3888 18.8333 16.3888Z" fill="#0467FF"/>
</svg>
