<svg width="18" height="28" viewBox="0 0 18 28" fill="none" xmlns="http://www.w3.org/2000/svg">
<path d="M12.4256 0.500844C12.3953 0.499719 5.60475 0.499719 5.57438 0.500844C2.49637 0.527844 0 3.04109 0 6.12472V21.8747C0 24.9763 2.52338 27.4997 5.625 27.4997H12.375C15.4766 27.4997 18 24.9763 18 21.8747V6.12584C18 3.04109 15.5036 0.528969 12.4256 0.500844ZM15.75 21.8747C15.75 23.7355 14.2358 25.2497 12.375 25.2497H5.625C3.76425 25.2497 2.25 23.7355 2.25 21.8747V6.12584C2.25 4.49122 3.41775 3.12547 4.96238 2.81609L5.74312 4.37872C5.93325 4.76009 6.32363 5.00084 6.75 5.00084H11.25C11.6764 5.00084 12.0656 4.76009 12.2569 4.37872L13.0376 2.81609C14.5822 3.12434 15.75 4.49122 15.75 6.12584V21.8747ZM10.125 22.9997H7.875C7.254 22.9997 6.75 22.4957 6.75 21.8747C6.75 21.2537 7.254 20.7497 7.875 20.7497H10.125C10.746 20.7497 11.25 21.2537 11.25 21.8747C11.25 22.4957 10.746 22.9997 10.125 22.9997Z" fill="#0467FF"/>
</svg>
