<svg width="71" height="70" viewBox="0 0 71 70" fill="none" xmlns="http://www.w3.org/2000/svg">
<g clip-path="url(#clip0_37_68)">
<path d="M25.6672 31.5766C25.8713 31.8408 26.1259 32.062 26.4161 32.2271C26.7064 32.3923 27.0265 32.4981 27.358 32.5386C27.6895 32.5791 28.0257 32.5533 28.3472 32.4628C28.6686 32.3724 28.9689 32.219 29.2306 32.0116C29.4923 31.8041 29.7103 31.5468 29.8718 31.2545C30.0333 30.9622 30.1352 30.6408 30.1715 30.3088C30.2078 29.9769 30.1779 29.641 30.0834 29.3207C29.9889 29.0004 29.8318 28.7021 29.6211 28.443L26.9961 25.1562L29.6211 21.8641C30.036 21.3433 30.2281 20.6795 30.1554 20.0176C30.0826 19.3557 29.751 18.7495 29.2328 18.3312C28.7075 17.9175 28.0408 17.7264 27.3761 17.799C26.7114 17.8716 26.1017 18.2022 25.6781 18.7195L21.8008 23.5812C21.4424 24.0269 21.2471 24.5816 21.2471 25.1535C21.2471 25.7254 21.4424 26.2801 21.8008 26.7258L25.6672 31.5766Z" fill="white"/>
<path d="M41.7508 31.9758C42.2748 32.3918 42.9414 32.5848 43.6066 32.5132C44.2718 32.4415 44.8821 32.111 45.3055 31.593L49.1992 26.7312C49.5581 26.2845 49.7532 25.7283 49.7522 25.1553C49.7513 24.5822 49.5542 24.0268 49.1937 23.5812L45.3164 18.7305C45.1114 18.468 44.8564 18.2488 44.5662 18.0854C44.276 17.922 43.9564 17.8177 43.6257 17.7785C43.2949 17.7393 42.9597 17.766 42.6394 17.857C42.3191 17.9481 42.0199 18.1016 41.7592 18.3089C41.4985 18.5161 41.2815 18.7729 41.1206 19.0645C40.9597 19.3561 40.8581 19.6766 40.8217 20.0077C40.7853 20.3387 40.8149 20.6737 40.9086 20.9932C41.0024 21.3128 41.1585 21.6106 41.368 21.8695L43.9984 25.1562L41.368 28.443C40.9563 28.9646 40.7657 29.627 40.8373 30.2876C40.9089 30.9483 41.2369 31.5544 41.7508 31.9758Z" fill="white"/>
<path d="M34.3352 32.5391C34.9141 32.5456 35.4782 32.3555 35.9352 31.9999C36.3921 31.6442 36.7149 31.1441 36.8508 30.5813L39.082 20.8359C39.2251 20.1845 39.1044 19.503 38.7462 18.9404C38.3881 18.3778 37.8217 17.9799 37.1709 17.8339C36.5202 17.6878 35.8381 17.8055 35.2738 18.161C34.7096 18.5166 34.3092 19.0812 34.1602 19.7313L31.9398 29.4328C31.8616 29.7978 31.8638 30.1755 31.9463 30.5396C32.0289 30.9037 32.1897 31.2454 32.4177 31.541C32.6456 31.8367 32.9352 32.0791 33.2664 32.2514C33.5975 32.4238 33.9622 32.5219 34.3352 32.5391Z" fill="white"/>
<path d="M63.1172 0H7.88281C5.92566 0.00289307 4.04949 0.781652 2.66557 2.16557C1.28165 3.54949 0.502893 5.42566 0.5 7.38281V54.9609C0.505862 55.9819 0.721623 56.9908 1.13388 57.9248C1.54613 58.8589 2.14607 59.6982 2.89642 60.3906C3.64676 61.083 4.53148 61.6136 5.4956 61.9497C6.45971 62.2857 7.48263 62.4198 8.50078 62.3438C9.48548 64.1256 10.8391 65.6768 12.4711 66.8938C14.1032 68.1107 15.9761 68.9654 17.9649 69.4007C19.9536 69.8361 22.0124 69.842 24.0036 69.4182C25.9948 68.9943 27.8727 68.1505 29.5117 66.943C31.2278 65.6204 33.3334 64.9032 35.5 64.9032C37.6666 64.9032 39.7722 65.6204 41.4883 66.943C43.1268 68.1506 45.0043 68.9945 46.9951 69.4184C48.986 69.8423 51.0444 69.8364 53.0327 69.401C55.0211 68.9657 56.8936 68.1109 58.5252 66.8939C60.1568 65.6768 61.5097 64.1256 62.4938 62.3438C63.5123 62.4203 64.5357 62.2866 65.5004 61.9509C66.465 61.6151 67.3503 61.0846 68.1012 60.3921C68.8521 59.6997 69.4525 58.8602 69.8652 57.9259C70.2779 56.9916 70.4939 55.9823 70.5 54.9609V7.38281C70.4971 5.42566 69.7183 3.54949 68.3344 2.16557C66.9505 0.781652 65.0743 0.00289307 63.1172 0ZM52.7266 6.83594H61.4766C61.9117 6.83594 62.329 7.00879 62.6367 7.31647C62.9443 7.62414 63.1172 8.04144 63.1172 8.47656C63.1172 8.91168 62.9443 9.32898 62.6367 9.63666C62.329 9.94434 61.9117 10.1172 61.4766 10.1172H52.7266C52.2914 10.1172 51.8741 9.94434 51.5665 9.63666C51.2588 9.32898 51.0859 8.91168 51.0859 8.47656C51.0859 8.04144 51.2588 7.62414 51.5665 7.31647C51.8741 7.00879 52.2914 6.83594 52.7266 6.83594ZM26.4766 6.83594C26.801 6.83594 27.1182 6.93216 27.388 7.11243C27.6578 7.29271 27.8681 7.54894 27.9923 7.84872C28.1165 8.14851 28.149 8.47838 28.0857 8.79663C28.0224 9.11488 27.8661 9.40721 27.6367 9.63666C27.4072 9.86611 27.1149 10.0224 26.7966 10.0857C26.4784 10.149 26.1485 10.1165 25.8487 9.9923C25.5489 9.86813 25.2927 9.65784 25.1124 9.38804C24.9322 9.11825 24.8359 8.80105 24.8359 8.47656C24.8359 8.04144 25.0088 7.62414 25.3165 7.31647C25.6241 7.00879 26.0414 6.83594 26.4766 6.83594ZM17.7266 6.83594C18.051 6.83594 18.3682 6.93216 18.638 7.11243C18.9078 7.29271 19.1181 7.54894 19.2423 7.84872C19.3665 8.14851 19.399 8.47838 19.3357 8.79663C19.2724 9.11488 19.1161 9.40721 18.8867 9.63666C18.6572 9.86611 18.3649 10.0224 18.0466 10.0857C17.7284 10.149 17.3985 10.1165 17.0987 9.9923C16.7989 9.86813 16.5427 9.65784 16.3624 9.38804C16.1822 9.11825 16.0859 8.80105 16.0859 8.47656C16.0859 8.04144 16.2588 7.62414 16.5665 7.31647C16.8741 7.00879 17.2914 6.83594 17.7266 6.83594ZM8.97656 6.83594C9.30105 6.83594 9.61825 6.93216 9.88804 7.11243C10.1578 7.29271 10.3681 7.54894 10.4923 7.84872C10.6165 8.14851 10.649 8.47838 10.5857 8.79663C10.5224 9.11488 10.3661 9.40721 10.1367 9.63666C9.90721 9.86611 9.61488 10.0224 9.29663 10.0857C8.97838 10.149 8.64851 10.1165 8.34872 9.9923C8.04894 9.86813 7.79271 9.65784 7.61243 9.38804C7.43216 9.11825 7.33594 8.80105 7.33594 8.47656C7.33594 8.04144 7.50879 7.62414 7.81647 7.31647C8.12414 7.00879 8.54144 6.83594 8.97656 6.83594ZM27.5703 56.0547C27.5703 56.4898 27.3975 56.9071 27.0898 57.2148C26.7821 57.5225 26.3648 57.6953 25.9297 57.6953H23.1953V60.4297C23.1953 60.8648 23.0225 61.2821 22.7148 61.5898C22.4071 61.8975 21.9898 62.0703 21.5547 62.0703H19.9141C19.4789 62.0703 19.0616 61.8975 18.754 61.5898C18.4463 61.2821 18.2734 60.8648 18.2734 60.4297V57.6953H15.5391C15.1039 57.6953 14.6866 57.5225 14.379 57.2148C14.0713 56.9071 13.8984 56.4898 13.8984 56.0547V54.4141C13.8984 53.9789 14.0713 53.5616 14.379 53.254C14.6866 52.9463 15.1039 52.7734 15.5391 52.7734H18.2734V50.0391C18.2734 49.6039 18.4463 49.1866 18.754 48.879C19.0616 48.5713 19.4789 48.3984 19.9141 48.3984H21.5547C21.9898 48.3984 22.4071 48.5713 22.7148 48.879C23.0225 49.1866 23.1953 49.6039 23.1953 50.0391V52.7734H25.9297C26.3648 52.7734 26.7821 52.9463 27.0898 53.254C27.3975 53.5616 27.5703 53.9789 27.5703 54.4141V56.0547ZM44.7969 57.6953C44.3642 57.6953 43.9413 57.567 43.5816 57.3267C43.2218 57.0863 42.9415 56.7446 42.7759 56.3449C42.6103 55.9452 42.567 55.5054 42.6514 55.0811C42.7358 54.6567 42.9441 54.2669 43.2501 53.961C43.556 53.6551 43.9458 53.4468 44.3701 53.3623C44.7944 53.2779 45.2343 53.3213 45.634 53.4868C46.0337 53.6524 46.3754 53.9328 46.6157 54.2925C46.8561 54.6522 46.9844 55.0752 46.9844 55.5078C46.9844 56.088 46.7539 56.6444 46.3437 57.0546C45.9334 57.4648 45.377 57.6953 44.7969 57.6953ZM50.2656 63.4375C49.833 63.4375 49.41 63.3092 49.0503 63.0688C48.6906 62.8285 48.4102 62.4868 48.2446 62.0871C48.0791 61.6874 48.0358 61.2476 48.1202 60.8232C48.2046 60.3989 48.4129 60.0091 48.7188 59.7032C49.0248 59.3973 49.4145 59.1889 49.8389 59.1045C50.2632 59.0201 50.703 59.0634 51.1027 59.229C51.5025 59.3946 51.8441 59.675 52.0845 60.0347C52.3248 60.3944 52.4531 60.8174 52.4531 61.25C52.4531 61.8302 52.2227 62.3866 51.8124 62.7968C51.4022 63.207 50.8458 63.4375 50.2656 63.4375ZM50.2656 51.9531C49.833 51.9531 49.41 51.8248 49.0503 51.5845C48.6906 51.3441 48.4102 51.0025 48.2446 50.6027C48.0791 50.203 48.0358 49.7632 48.1202 49.3389C48.2046 48.9145 48.4129 48.5248 48.7188 48.2188C49.0248 47.9129 49.4145 47.7046 49.8389 47.6202C50.2632 47.5358 50.703 47.5791 51.1027 47.7446C51.5025 47.9102 51.8441 48.1906 52.0845 48.5503C52.3248 48.91 52.4531 49.333 52.4531 49.7656C52.4531 50.3458 52.2227 50.9022 51.8124 51.3124C51.4022 51.7227 50.8458 51.9531 50.2656 51.9531ZM55.7344 57.6953C55.3017 57.6953 54.8788 57.567 54.5191 57.3267C54.1593 57.0863 53.879 56.7446 53.7134 56.3449C53.5478 55.9452 53.5045 55.5054 53.5889 55.0811C53.6733 54.6567 53.8816 54.2669 54.1876 53.961C54.4935 53.6551 54.8833 53.4468 55.3076 53.3623C55.7319 53.2779 56.1718 53.3213 56.5715 53.4868C56.9712 53.6524 57.3129 53.9328 57.5532 54.2925C57.7936 54.6522 57.9219 55.0752 57.9219 55.5078C57.9219 56.088 57.6914 56.6444 57.2812 57.0546C56.8709 57.4648 56.3145 57.6953 55.7344 57.6953ZM68.8594 54.9609C68.8572 56.453 68.2743 57.8857 67.2341 58.9555C66.1939 60.0253 64.7782 60.6481 63.2867 60.6922C63.7205 59.5956 64.0163 58.4493 64.1672 57.2797C64.4352 55.2109 64.2613 53.1088 63.657 51.1122C63.0528 49.1156 62.0319 47.2699 60.6617 45.6969C59.462 44.283 57.9724 43.1436 56.2938 42.3557C54.6153 41.5679 52.787 41.15 50.9328 41.1305C48.0945 41.1141 44.2555 41.1031 40.1484 41.0977V39.6484C40.1474 38.9961 39.8878 38.3707 39.4265 37.9094C38.9652 37.4481 38.3399 37.1885 37.6875 37.1875H36.3203V35C36.3203 34.7824 36.2339 34.5738 36.08 34.42C35.9262 34.2661 35.7176 34.1797 35.5 34.1797C35.2824 34.1797 35.0738 34.2661 34.92 34.42C34.7661 34.5738 34.6797 34.7824 34.6797 35V37.1875H33.3125C32.6601 37.1885 32.0348 37.4481 31.5735 37.9094C31.1122 38.3707 30.8526 38.9961 30.8516 39.6484V41.0977C26.7445 41.1031 22.9055 41.1141 20.0672 41.1305C18.213 41.15 16.3847 41.5679 14.7062 42.3557C13.0276 43.1436 11.538 44.283 10.3383 45.6969C8.96813 47.2699 7.94722 49.1156 7.34295 51.1122C6.73869 53.1088 6.56481 55.2109 6.83281 57.2797C6.98375 58.4493 7.2795 59.5956 7.71328 60.6922C6.22182 60.6481 4.80608 60.0253 3.76591 58.9555C2.72573 57.8857 2.14282 56.453 2.14062 54.9609V16.4062H68.8594V54.9609Z" fill="white"/>
</g>
<defs>
<clipPath id="clip0_37_68">
<rect width="70" height="70" fill="white" transform="translate(0.5)"/>
</clipPath>
</defs>
</svg>
