<svg width="28" height="28" viewBox="0 0 28 28" fill="none" xmlns="http://www.w3.org/2000/svg">
<g clip-path="url(#clip0_2001_43)">
<path d="M12.2562 14.6293C12.1735 14.5467 12.1078 14.4487 12.063 14.3407C12.0182 14.2327 11.9951 14.1169 11.9951 14C11.9951 13.8831 12.0182 13.7673 12.063 13.6593C12.1078 13.5513 12.1735 13.4532 12.2562 13.3707L20.409 5.21969C20.9092 4.71968 21.1904 4.04142 21.1905 3.33413C21.1907 2.62684 20.9099 1.94845 20.4099 1.4482C19.9099 0.947953 19.2316 0.666823 18.5243 0.666657C17.817 0.66649 17.1386 0.9473 16.6384 1.44731L8.48564 9.60006C7.3208 10.7681 6.66667 12.3504 6.66667 14C6.66667 15.6496 7.3208 17.2319 8.48564 18.3999L16.6384 26.5527C17.1386 27.0527 17.817 27.3335 18.5243 27.3333C19.2316 27.3332 19.9099 27.052 20.4099 26.5518C20.9099 26.0515 21.1907 25.3731 21.1905 24.6658C21.1904 23.9586 20.9092 23.2803 20.409 22.7803L12.2562 14.6293Z" fill="black"/>
</g>
<defs>
<clipPath id="clip0_2001_43">
<rect width="26.6667" height="26.6667" fill="white" transform="translate(0.666672 0.666656)"/>
</clipPath>
</defs>
</svg>
