<svg width="28" height="28" viewBox="0 0 28 28" fill="none" xmlns="http://www.w3.org/2000/svg">
<g clip-path="url(#clip0_2001_21)">
<path d="M15.7438 14.6293C15.8266 14.5467 15.8922 14.4487 15.937 14.3407C15.9818 14.2327 16.0049 14.1169 16.0049 14C16.0049 13.8831 15.9818 13.7673 15.937 13.6593C15.8922 13.5513 15.8266 13.4532 15.7438 13.3707L7.59102 5.21969C7.09077 4.71968 6.80964 4.04142 6.80948 3.33413C6.80931 2.62684 7.09012 1.94845 7.59013 1.4482C8.09015 0.947953 8.7684 0.666823 9.47569 0.666657C10.183 0.66649 10.8614 0.9473 11.3616 1.44731L19.5144 9.60006C20.6792 10.7681 21.3333 12.3504 21.3333 14C21.3333 15.6496 20.6792 17.2319 19.5144 18.3999L11.3616 26.5527C10.8614 27.0527 10.183 27.3335 9.47569 27.3333C8.7684 27.3332 8.09015 27.052 7.59013 26.5518C7.09012 26.0515 6.80931 25.3731 6.80948 24.6658C6.80964 23.9586 7.09077 23.2803 7.59102 22.7803L15.7438 14.6293Z" fill="black"/>
</g>
<defs>
<clipPath id="clip0_2001_21">
<rect width="26.6667" height="26.6667" fill="white" transform="matrix(-1 0 0 1 27.3333 0.666656)"/>
</clipPath>
</defs>
</svg>
