<svg width="71" height="70" viewBox="0 0 71 70" fill="none" xmlns="http://www.w3.org/2000/svg">
<path fill-rule="evenodd" clip-rule="evenodd" d="M17.0244 44.2087C16.5293 44.1554 16.0451 44.0657 15.5741 43.944C14.2404 41.0485 13.4996 38.1537 13.3508 35.2581H17.0244V44.2087ZM19.2119 44.2087V35.2581H22.8854C22.7367 38.1537 21.9966 41.0485 20.6629 43.944C20.1919 44.0665 19.707 44.1554 19.2119 44.2087ZM28.1624 35.2581C27.8262 38.3768 26.0682 41.0718 23.5511 42.6818C24.4604 40.207 24.9723 37.7322 25.0882 35.2581H28.1624ZM8.07385 35.2581H11.148C11.264 37.7322 11.7766 40.207 12.6851 42.6818C10.1673 41.0711 8.41 38.3761 8.07385 35.2581ZM23.5511 25.6463C26.0682 27.2563 27.8262 29.952 28.1631 33.0706H25.0882C24.9708 30.5958 24.459 28.1211 23.5511 25.6463ZM12.6858 25.6463C11.778 28.1211 11.2654 30.5958 11.1487 33.0706H8.07385C8.41 29.952 10.168 27.257 12.6858 25.6463ZM19.2119 24.1201C19.7077 24.1733 20.1926 24.2623 20.6636 24.3848C21.9951 27.2811 22.7359 30.1758 22.8854 33.0706H19.2119V24.1201ZM17.0244 24.1201V33.0706H13.3516C13.501 30.1758 14.2419 27.2811 15.5726 24.3848C16.0444 24.2623 16.5293 24.1733 17.0244 24.1201Z" fill="white"/>
<path fill-rule="evenodd" clip-rule="evenodd" d="M31.8439 52.3637H4.69269C2.88071 52.3637 1.41144 50.8944 1.41144 49.0824C1.41144 41.7083 1.41144 17.8092 1.41144 10.4344C1.41144 8.62241 2.88071 7.15314 4.69269 7.15314H57.7053C59.518 7.15314 60.9865 8.62241 60.9865 10.4344V30.7242H58.799V18.768H3.59894V49.0824C3.59894 49.6869 4.08894 50.1762 4.69269 50.1762H31.8439V52.3637ZM54.6552 11.8672H52.1556C51.5519 11.8672 51.0619 12.3572 51.0619 12.9609C51.0619 13.5647 51.5519 14.0547 52.1556 14.0547H54.6552C55.2589 14.0547 55.7489 13.5647 55.7489 12.9609C55.7489 12.3572 55.2589 11.8672 54.6552 11.8672ZM46.3186 11.8672H43.819C43.2153 11.8672 42.7253 12.3572 42.7253 12.9609C42.7253 13.5647 43.2153 14.0547 43.819 14.0547H46.3186C46.9224 14.0547 47.4124 13.5647 47.4124 12.9609C47.4124 12.3572 46.9224 11.8672 46.3186 11.8672Z" fill="white"/>
<path fill-rule="evenodd" clip-rule="evenodd" d="M34.0314 53.351H44.4315C45.2161 53.351 45.9409 53.771 46.3303 54.452L47.1389 55.8658H51.7028L52.5114 54.452C52.9008 53.771 53.6256 53.351 54.4102 53.351H64.8103V35.0992C64.8103 33.891 63.831 32.9117 62.6228 32.9117C56.9615 32.9117 41.8802 32.9117 36.2189 32.9117C35.0107 32.9117 34.0314 33.891 34.0314 35.0992V53.351ZM48.0504 51.5667L52.6004 38.3491C52.7965 37.7781 52.4925 37.1554 51.9215 36.9593C51.3513 36.7624 50.7279 37.0665 50.5317 37.6374L45.9817 50.8543C45.7856 51.4252 46.0889 52.0487 46.6599 52.2448C47.2308 52.441 47.8535 52.1376 48.0504 51.5667ZM44.0123 40.541L40.9746 43.5779C40.548 44.0052 40.548 44.6972 40.9746 45.1245L43.8446 47.9938C44.2711 48.4211 44.9646 48.4211 45.3911 47.9938C45.8177 47.5672 45.8177 46.8738 45.3911 46.4472L43.2948 44.3516L45.5588 42.0875C45.9854 41.661 45.9854 40.9675 45.5588 40.541C45.1323 40.1137 44.4388 40.1137 44.0123 40.541ZM53.2829 42.0875L55.5462 44.3516L53.4506 46.4472C53.0233 46.8738 53.0233 47.5672 53.4506 47.9938C53.8772 48.4211 54.5706 48.4211 54.9972 47.9938L57.8664 45.1245C58.2937 44.6972 58.2937 44.0052 57.8664 43.5779L54.8295 40.541C54.4029 40.1137 53.7095 40.1137 53.2829 40.541C52.8556 40.9675 52.8556 41.661 53.2829 42.0875Z" fill="white"/>
<path fill-rule="evenodd" clip-rule="evenodd" d="M54.4102 55.5385L52.9708 58.0533H45.8709L44.4316 55.5385H31.4407C30.2325 55.5385 29.2532 56.5177 29.2532 57.726V60.6594C29.2532 61.2391 29.4837 61.7954 29.8942 62.2059C30.304 62.6165 30.8603 62.8469 31.4407 62.8469H67.401C67.9815 62.8469 68.5378 62.6165 68.9476 62.2059C69.3581 61.7954 69.5885 61.2391 69.5885 60.6594C69.5885 59.7319 69.5885 58.6535 69.5885 57.726C69.5885 56.5177 68.6093 55.5385 67.401 55.5385C63.1989 55.5385 54.4102 55.5385 54.4102 55.5385Z" fill="white"/>
</svg>
