<svg width="73" height="72" viewBox="0 0 73 72" fill="none" xmlns="http://www.w3.org/2000/svg">
<path d="M36.2371 28.885C36.6439 29.2887 37.3066 29.2911 37.7158 28.8779L42.0862 24.4666C42.4901 24.0591 42.4901 23.4025 42.0862 22.995L37.7158 18.5837C37.3094 18.1732 36.6476 18.1712 36.2371 18.5766C35.8265 18.983 35.8234 19.6453 36.2299 20.0553L39.8711 23.7308L36.2299 27.4063C35.8234 27.8163 35.8265 28.4786 36.2371 28.885Z" fill="white"/>
<path d="M23.3296 18.5766C22.9195 18.1691 22.2567 18.1722 21.8508 18.5837L17.4809 22.995C17.077 23.4025 17.077 24.0591 17.4809 24.4666L21.8508 28.8779C22.257 29.2881 22.9187 29.2917 23.3296 28.885C23.7401 28.4786 23.7432 27.8163 23.3367 27.4063L19.696 23.7308L23.3367 20.0554C23.7432 19.6453 23.7401 18.983 23.3296 18.5766Z" fill="white"/>
<path d="M32.8271 15.0359C32.2884 14.8199 31.6823 15.085 31.4694 15.6216L25.3312 31.0679C25.1178 31.6046 25.3802 32.2127 25.9169 32.4256C26.4506 32.6387 27.0604 32.3792 27.2746 31.84L33.4128 16.3937C33.6262 15.857 33.3638 15.2489 32.8271 15.0359Z" fill="white"/>
<path d="M53.551 40.549C53.551 43.6131 51.0621 46.1019 48.0085 46.1019C44.9445 46.1019 42.4556 43.6131 42.4556 40.549C42.4556 37.4849 44.9445 34.996 48.0085 34.996C51.0621 34.996 53.551 37.4849 53.551 40.549Z" fill="white"/>
<path d="M61.551 37.2444L58.9784 36.9516C58.7798 36.3451 58.5288 35.749 58.2255 35.1739L59.7314 33.0405C60.0347 32.6327 59.9824 32.0575 59.6268 31.702L56.6255 28.7111C56.249 28.3346 55.653 28.2928 55.2346 28.6275L53.2163 30.2484C52.6412 29.9555 52.0451 29.715 51.4282 29.5268L50.9994 26.9438C50.9157 26.4418 50.4765 26.0758 49.9641 26.0758H49.0543V6.69802C49.0543 4.34364 47.0594 2.53595 44.8817 2.53595H14.6804C12.3766 2.53595 10.5183 4.41378 10.5183 6.69802V65.3019C10.5183 67.5673 12.365 69.4641 14.6804 69.4641H44.8817C47.1958 69.4641 49.0543 67.5821 49.0543 65.3019V55.0327H50.2778C50.8111 55.0327 51.2608 54.6353 51.3235 54.102L51.6164 51.519C52.2229 51.3203 52.8189 51.0693 53.3837 50.7765L55.517 52.2928C55.9353 52.5856 56.5 52.5333 56.866 52.1777L59.8464 49.1764C60.2229 48.8 60.2542 48.2039 59.9196 47.7961L58.3091 45.7673C58.602 45.1817 58.8425 44.5856 59.0307 43.9791L61.6033 43.5399C62.1052 43.4562 62.4817 43.017 62.4817 42.515V38.2797C62.4817 37.7464 62.0843 37.2967 61.551 37.2444ZM29.7811 6.45752H35.1039C35.6791 6.45752 36.1497 6.92812 36.1497 7.50327C36.1497 8.07842 35.6791 8.54902 35.1039 8.54902H29.7811C29.2059 8.54902 28.7353 8.07842 28.7353 7.50327C28.7353 6.92812 29.2059 6.45752 29.7811 6.45752ZM34.5239 64.8455H25.0432C24.4657 64.8455 23.9975 64.3773 23.9975 63.7997C23.9975 63.2222 24.4657 62.754 25.0432 62.754H34.5239C35.1014 62.754 35.5697 63.2222 35.5697 63.7997C35.5697 64.3773 35.1014 64.8455 34.5239 64.8455ZM46.9628 57.3438H12.6098V12.4706H46.9628V26.0758H45.7288C45.1954 26.0758 44.7458 26.4732 44.683 27.0066L44.4007 29.5895C43.7836 29.7882 43.198 30.0392 42.6333 30.332L40.4896 28.8157C40.0712 28.5228 39.5065 28.5647 39.151 28.9307L36.1601 31.9215C35.7837 32.2981 35.7523 32.8941 36.0869 33.3124L37.6974 35.3412C37.4046 35.9163 37.1641 36.5124 36.9758 37.1294L34.4033 37.5582C33.9013 37.6523 33.5248 38.081 33.5248 38.5934V42.8288C33.5248 43.3621 33.9327 43.8013 34.4555 43.8641L37.0281 44.1569C37.2268 44.7739 37.4882 45.37 37.781 45.9346L36.2751 48.0575C35.9824 48.4758 36.0242 49.0405 36.3902 49.4065L39.3811 52.3974C39.7575 52.7738 40.3536 52.8052 40.7719 52.4706L42.8007 50.8602C43.3758 51.1425 43.9615 51.383 44.5784 51.5713L45.0072 54.1542C45.0908 54.6666 45.5301 55.0327 46.0425 55.0327H46.9627L46.9628 57.3438ZM60.3902 41.6261L58.0268 42.0235C57.6085 42.0967 57.2843 42.4 57.1798 42.8183C56.9706 43.6967 56.6255 44.5438 56.1654 45.349C55.9457 45.715 55.9771 46.1856 56.249 46.5202L57.7027 48.3608L56.0085 50.0758L54.0425 48.6745C53.7079 48.434 53.2477 48.4235 52.8922 48.6432C52.1288 49.1137 51.2922 49.4693 50.4033 49.6889C49.9745 49.7935 49.6608 50.1595 49.6085 50.5883L49.347 52.9412H46.9209L46.5236 50.5673C46.4608 50.1595 46.1471 49.8248 45.7393 49.7307C44.8608 49.5111 44.0137 49.166 43.2294 48.7059C42.853 48.4863 42.3824 48.5176 42.0477 48.7895L40.1967 50.2536L38.4921 48.549L39.8725 46.6144C39.998 46.4366 40.0608 46.2065 40.0608 45.9974C40.0608 45.7987 40.0085 45.6104 39.9144 45.4432C39.4438 44.6797 39.0778 43.8327 38.8477 42.9333C38.7432 42.515 38.3876 42.2013 37.9589 42.1595L35.6163 41.8876V39.4824L37.9797 39.085C38.3981 39.0118 38.7327 38.698 38.8268 38.2902C39.036 37.4013 39.3811 36.5543 39.8517 35.7804C40.0712 35.4039 40.0504 34.9333 39.7785 34.5883L38.3039 32.7373L40.0085 31.0327L41.964 32.4236C42.2987 32.6641 42.7588 32.685 43.1144 32.4654C43.8778 31.9948 44.7248 31.6392 45.6242 31.4091C46.0425 31.3046 46.3457 30.949 46.398 30.5203L46.6595 28.1673H49.0856L49.483 30.5307C49.5562 30.949 49.8595 31.2837 50.2673 31.3778C51.1562 31.587 52.0033 31.932 52.7876 32.4026C53.1641 32.6222 53.6347 32.5908 53.9693 32.3189L55.8098 30.8445L57.5143 32.5595L56.134 34.5046C56.0084 34.6823 55.9457 34.902 55.9457 35.1215C55.9457 35.3098 55.9981 35.4981 56.0921 35.6654C56.5732 36.4497 56.9287 37.2967 57.1483 38.1647C57.2529 38.583 57.6085 38.8968 58.0477 38.949L60.3902 39.2105L60.3902 41.6261Z" fill="white"/>
</svg>
