<svg width="895" height="628" viewBox="0 0 895 628" fill="none" xmlns="http://www.w3.org/2000/svg">
<title>Vasundhara Portfolio Mobile</title>
<g clip-path="url(#clip0_30_5027)">
<path d="M180.13 47.8364H15.2753V336.309H180.13V47.8364Z" fill="#FAFAFA"/>
<path opacity="0.5" d="M66.633 339.068C66.633 339.068 48.5844 209.279 39.1078 195.024C39.1078 195.024 93.1201 154.471 94.7663 44.5435H12.8135V339.068H66.633Z" fill="#C7E0F6"/>
<path opacity="0.5" d="M128.758 338.489C128.758 338.489 146.806 208.7 156.283 194.446C156.283 194.446 102.27 153.892 100.624 43.9648H182.577V338.489H128.758Z" fill="#C7E0F6"/>
<path d="M184.475 36.8452H176.838H0V41.3841V47.8365V336.324V341.085V345.847H192.113V341.085V336.324V36.8452H184.475ZM48.4213 197.383V270.866H15.2753V197.383H48.4213ZM15.2753 192.058V116.009H48.4064V192.058H15.2753ZM98.8446 192.058V116.009H140.296V192.058H98.8446ZM140.296 197.383V270.866H98.8446V197.383H140.296ZM49.8895 192.058V116.009H93.5354V192.058H49.8895ZM93.5354 197.383V270.866H49.8895V197.383H93.5354ZM49.8895 114.704V47.8365H93.5354V114.704H49.8895ZM93.5354 272.171V336.324H49.8895V272.171H93.5354ZM98.8446 272.171H140.296V336.324H98.8446V272.171ZM98.8446 114.704V47.8365H140.296V114.704H98.8446ZM141.779 197.383H176.838V270.866H141.779V197.383ZM141.779 192.058V116.009H176.838V192.058H141.779ZM176.823 114.704H141.779V47.8365H176.838V114.704H176.823ZM48.4213 47.8365V114.704H15.2753V47.8365H48.4213ZM15.2753 272.171H48.4064V336.324H15.2753V272.171ZM141.779 336.324V272.171H176.838V336.324H141.779Z" fill="#F3D7DB"/>
<path d="M741.431 104.973H239.852V440.971H741.431V104.973Z" fill="white"/>
<path d="M741.431 104.973H239.852V138.54H741.431V104.973Z" fill="#C7E0F6"/>
<path d="M261.579 121.75C261.579 123.826 259.769 125.517 257.53 125.517C255.291 125.517 253.481 123.826 253.481 121.75C253.481 119.673 255.291 117.982 257.53 117.982C259.769 117.982 261.579 119.673 261.579 121.75Z" fill="#1785FF"/>
<path d="M274.659 121.75C274.659 123.826 272.85 125.517 270.61 125.517C268.371 125.517 266.562 123.826 266.562 121.75C266.562 119.673 268.371 117.982 270.61 117.982C272.85 117.982 274.659 119.673 274.659 121.75Z" fill="#1785FF"/>
<path d="M287.754 121.75C287.754 123.826 285.945 125.517 283.706 125.517C281.466 125.517 279.657 123.826 279.657 121.75C279.657 119.673 281.466 117.982 283.706 117.982C285.93 117.982 287.754 119.673 287.754 121.75Z" fill="#1785FF"/>
<g opacity="0.5">
<path d="M895 171.381H794.227V302.816L895 305.338V171.381Z" fill="#C7E0F6"/>
<path d="M888.371 176.053H800.189V295.251L888.371 298.233V176.053Z" fill="white"/>
<path d="M872.918 197.709L814.412 195.484V278.801H872.918V197.709Z" fill="#F5C7CA"/>
<path d="M814.412 278.801L872.918 235.993L814.412 195.484V278.801Z" fill="#F6B8BC"/>
</g>
<g opacity="0.5">
<path d="M883.892 78.8968L827.803 77.1465V150.288L883.892 151.697V78.8968Z" fill="#C7E0F6"/>
<path d="M880.199 82.071L831.125 79.7422V146.09L880.199 147.752V82.071Z" fill="white"/>
<path d="M871.598 91.8016L839.03 90.5557V136.924H871.598V91.8016Z" fill="#F5C7CA"/>
<path d="M839.03 136.924L871.598 113.102L839.03 90.5557V136.924Z" fill="#F6B8BC"/>
</g>
<g opacity="0.5">
<path d="M498.005 16.9243L492.636 66.8077H561.479L567.189 16.9243H498.005Z" fill="#C7E0F6"/>
<path d="M500.838 20.2173L495.617 63.856H557.742L562.769 20.2173H500.838Z" fill="#FAFAFA"/>
<path d="M511.293 27.8564L508.075 56.8105H547.286L549.288 27.8564H511.293Z" fill="#F5C7CA"/>
</g>
<g opacity="0.5">
<path d="M587.818 0L580.625 66.8079H672.841L680.478 0H587.818Z" fill="#C7E0F6"/>
<path d="M591.614 4.39062L584.615 62.8475H667.828L674.561 4.39062H591.614Z" fill="#FAFAFA"/>
<path d="M605.614 14.6255L601.314 53.4138H653.828L656.512 14.6255H605.614Z" fill="#F5C7CA"/>
</g>
<path d="M714.9 66.8081H446.351V74.4916H714.9V66.8081Z" fill="#F4C8CE"/>
<path d="M492.295 93.1665L480.55 74.4917H498.005V93.1665H492.295Z" fill="#F4C8CE"/>
<path d="M486.215 74.4917L496.611 93.1665H498.005V74.4917H486.215Z" fill="#F3D7DB"/>
<path d="M647.243 93.1665L635.498 74.4917H652.953V93.1665H647.243Z" fill="#F4C8CE"/>
<path d="M641.163 74.4917L651.559 93.1665H652.953V74.4917H641.163Z" fill="#F3D7DB"/>
<path d="M125.124 523.59C149.832 507.408 156.105 476.436 155.838 448.461C155.793 443.789 156.431 438.879 154.281 434.726C152.13 430.573 146.954 427.65 142.668 429.519C139.124 431.062 137.493 435.067 135.446 438.345C132.732 442.721 128.743 446.296 124.101 448.535C121.046 450.004 117.308 450.864 114.372 449.173C110.353 446.859 109.997 441.282 110.145 436.639C110.412 427.992 110.679 419.344 110.946 410.682C111.095 406.039 111.213 401.307 109.864 396.857C108.514 392.422 105.385 388.239 100.936 386.904C96.4866 385.554 90.8955 387.972 89.8426 392.496C89.3977 394.38 89.7388 396.353 89.5608 398.266C89.3828 400.195 88.4189 402.301 86.5502 402.79C84.6668 403.295 82.813 401.93 81.4337 400.536C76.688 395.73 73.544 389.619 70.6224 383.537C67.686 377.456 64.8533 371.241 60.5822 366.019C56.311 360.798 50.3047 356.6 43.5866 356.066C36.8684 355.532 29.5867 359.463 27.718 365.945C25.8494 372.442 29.557 379.176 33.6354 384.575C39.6862 392.585 46.9086 399.705 54.9911 405.668C56.4445 406.736 58.0314 407.908 58.5504 409.628C59.4996 412.743 56.4445 415.754 53.3301 416.689C49.8005 417.757 46.0039 417.312 42.326 417.653C38.648 417.994 34.6438 419.492 33.1608 422.874C31.1142 427.576 35.0146 432.634 38.9001 435.987C46.6564 442.706 55.5843 448.061 65.1351 451.784C68.5609 453.119 72.1796 454.305 74.9084 456.768C77.6372 459.23 79.224 463.443 77.4592 466.676C75.6944 469.91 71.3342 470.859 67.7304 470.103C64.1267 469.361 60.9233 467.329 57.5123 465.964C51.1056 463.398 42.7561 463.635 38.4849 469.049C35.682 472.609 35.3112 477.653 36.5866 481.999C37.862 486.345 40.5612 490.142 43.4383 493.643C53.5081 505.88 66.5292 515.862 81.3893 521.351C96.2345 526.883 110.086 528.604 125.124 523.59Z" fill="#E8505B"/>
<path d="M34.6735 359.76C34.6587 359.775 34.8218 359.923 35.1184 360.205C35.4595 360.516 35.9044 360.932 36.4828 361.466C37.6841 362.563 39.4637 364.195 41.6883 366.36C46.1522 370.662 52.4255 377.129 59.1881 385.925C62.5843 390.316 66.0991 395.27 69.777 400.654C73.4402 406.054 77.3257 411.853 81.1816 418.083C85.0375 424.328 88.8786 431.003 92.3044 438.197C94.0248 441.786 95.5523 445.539 97.1095 449.366C98.6518 453.193 100.224 457.064 101.811 460.995C108.114 476.718 113.616 491.907 117.472 506.073C121.357 520.223 123.552 533.291 124.383 544.357C125.243 555.422 124.783 564.411 124.175 570.581C123.849 573.667 123.552 576.055 123.3 577.672C123.196 578.443 123.107 579.051 123.033 579.511C122.974 579.926 122.959 580.134 122.974 580.149C122.989 580.149 123.033 579.941 123.122 579.526C123.211 579.066 123.33 578.473 123.463 577.701C123.775 576.099 124.13 573.711 124.501 570.626C125.213 564.455 125.762 555.422 124.976 544.312C124.219 533.217 122.084 520.075 118.228 505.865C114.402 491.655 108.9 476.421 102.597 460.684C101.01 456.753 99.4379 452.881 97.8807 449.054C96.3235 445.242 94.7811 441.46 93.046 437.841C89.5905 430.602 85.7197 423.913 81.849 417.668C77.9634 411.423 74.063 405.638 70.3554 400.254C66.6478 394.87 63.0885 389.93 59.6627 385.554C52.8259 376.773 46.4637 370.351 41.9256 366.123C39.6565 364.002 37.8472 362.4 36.6014 361.347C36.0082 360.843 35.5336 360.442 35.1777 360.145C34.8514 359.878 34.6735 359.76 34.6735 359.76Z" fill="#263238"/>
<path d="M92.8087 437.826C92.868 437.841 93.046 437.129 93.3129 435.853C93.5947 434.578 93.9358 432.709 94.3214 430.41C95.0925 425.797 95.9527 419.403 96.8722 412.343C97.7917 405.282 98.726 398.919 99.5862 394.336C100.001 392.051 100.357 390.197 100.624 388.922C100.876 387.646 100.995 386.934 100.936 386.919C100.876 386.904 100.654 387.587 100.298 388.847C99.9273 390.108 99.4823 391.948 98.9929 394.232C97.9845 398.8 96.9464 405.179 96.0269 412.239C95.137 419.211 94.3362 425.5 93.7282 430.321C93.4315 432.486 93.1943 434.325 93.0015 435.794C92.8235 437.084 92.7493 437.811 92.8087 437.826Z" fill="#263238"/>
<path d="M32.6269 425.218C32.6269 425.277 33.4871 425.396 35.0294 425.559C36.5718 425.737 38.826 425.974 41.5845 426.36C47.1014 427.087 54.6945 428.348 63.0144 430.098C71.3342 431.863 78.7939 433.791 84.1477 435.319C86.832 436.076 88.9824 436.743 90.4803 437.188C91.9633 437.648 92.8087 437.87 92.8235 437.811C92.8383 437.752 92.0523 437.425 90.5841 436.862C89.1159 436.313 86.9952 435.556 84.3257 434.726C79.0016 433.035 71.5419 431.018 63.2072 429.238C54.8725 427.472 47.22 426.315 41.6734 425.737C38.9002 425.425 36.6459 425.277 35.0739 425.218C33.4871 425.159 32.6269 425.159 32.6269 425.218Z" fill="#263238"/>
<path d="M117.516 504.767C117.546 504.782 117.694 504.53 117.946 504.055C118.243 503.477 118.599 502.78 119.029 501.919C119.963 500.065 121.253 497.336 122.781 493.954C125.866 487.19 129.825 477.712 134.052 467.18C138.279 456.664 142.149 447.156 145.086 440.333C146.524 437.01 147.711 434.296 148.586 432.264C148.957 431.388 149.268 430.662 149.52 430.068C149.728 429.564 149.817 429.282 149.802 429.267C149.772 429.252 149.624 429.505 149.372 429.979C149.075 430.558 148.719 431.255 148.289 432.115C147.355 433.969 146.065 436.699 144.537 440.08C141.452 446.844 137.493 456.323 133.251 466.854C129.025 477.371 125.154 486.879 122.217 493.702C120.779 497.024 119.592 499.739 118.717 501.771C118.347 502.646 118.035 503.373 117.783 503.966C117.59 504.485 117.501 504.752 117.516 504.767Z" fill="#263238"/>
<path d="M37.8027 477.282C37.7879 477.312 38.0697 477.43 38.5887 477.623C39.2116 477.846 39.9828 478.113 40.9023 478.454C43.0378 479.195 45.9298 480.189 49.4446 481.405C56.6522 483.897 66.5589 487.472 77.5185 491.418C88.4782 495.378 98.4294 498.849 105.696 501.208C109.33 502.379 112.281 503.314 114.328 503.907C115.277 504.174 116.063 504.397 116.686 504.575C117.234 504.723 117.516 504.782 117.531 504.753C117.546 504.723 117.264 504.604 116.745 504.412C116.122 504.189 115.366 503.922 114.431 503.581C112.296 502.839 109.404 501.845 105.889 500.629C98.6815 498.122 88.76 494.562 77.8151 490.617C66.8703 486.656 56.9043 483.185 49.6522 480.827C46.0187 479.655 43.0675 478.721 41.0209 478.127C40.0718 477.86 39.2857 477.638 38.6629 477.46C38.0993 477.326 37.8175 477.252 37.8027 477.282Z" fill="#263238"/>
<path d="M798.365 579.778C798.365 579.985 632.057 580.163 426.938 580.163C221.759 580.163 55.4805 579.985 55.4805 579.778C55.4805 579.57 221.759 579.392 426.938 579.392C632.057 579.392 798.365 579.57 798.365 579.778Z" fill="#263238"/>
<path d="M661.377 133.557H156.52C147.815 133.557 140.755 140.617 140.755 149.324V505.984C140.755 514.691 147.815 521.751 156.52 521.751H350.294C350.294 521.751 362.618 559.872 324.415 579.6H505.598C505.598 579.6 462.456 564.812 473.55 521.751H661.406C670.112 521.751 677.171 514.691 677.171 505.984V149.309C677.141 140.602 670.082 133.557 661.377 133.557Z" fill="#263238"/>
<path d="M416.215 484.105C423.082 493.925 412.33 504.679 402.512 497.811C402.186 497.589 401.889 497.292 401.667 496.966C394.815 487.146 405.552 476.407 415.37 483.26C415.696 483.482 415.993 483.779 416.215 484.105Z" fill="#455A64"/>
<path d="M660.368 455.641H157.529C154.844 455.641 152.679 453.46 152.679 450.79V156.414C152.679 153.73 154.859 151.564 157.529 151.564H660.368C663.052 151.564 665.218 153.744 665.218 156.414V450.79C665.218 453.475 663.052 455.641 660.368 455.641Z" fill="#DEE8F1"/>
<path d="M665.233 173.843H152.679V455.641H665.233V173.843Z" fill="#FAFAFA"/>
<path d="M194.708 163.312C194.708 165.566 192.869 167.406 190.615 167.406C188.361 167.406 186.522 165.566 186.522 163.312C186.522 161.057 188.361 159.218 190.615 159.218C192.884 159.218 194.708 161.042 194.708 163.312Z" fill="#E8505B"/>
<path d="M169.897 163.312C169.897 165.566 168.058 167.406 165.804 167.406C163.55 167.406 161.711 165.566 161.711 163.312C161.711 161.057 163.55 159.218 165.804 159.218C168.073 159.218 169.897 161.042 169.897 163.312Z" fill="#E8505B"/>
<path d="M181.806 163.312C181.806 165.566 179.967 167.406 177.713 167.406C175.459 167.406 173.62 165.566 173.62 163.312C173.62 161.057 175.459 159.218 177.713 159.218C179.982 159.218 181.806 161.042 181.806 163.312Z" fill="#E8505B"/>
<path d="M405.226 305.056C405.226 305.293 386.451 305.471 363.286 305.471C340.12 305.471 321.345 305.278 321.345 305.056C321.345 304.819 340.12 304.641 363.286 304.641C386.451 304.641 405.226 304.833 405.226 305.056Z" fill="#455A64"/>
<path d="M405.226 316.284C405.226 316.522 386.451 316.7 363.286 316.7C340.12 316.7 321.345 316.507 321.345 316.284C321.345 316.047 340.12 315.869 363.286 315.869C386.451 315.869 405.226 316.062 405.226 316.284Z" fill="#455A64"/>
<path d="M371.62 327.513C371.62 327.75 360.364 327.928 346.483 327.928C332.601 327.928 321.345 327.735 321.345 327.513C321.345 327.29 332.601 327.098 346.483 327.098C360.364 327.098 371.62 327.276 371.62 327.513Z" fill="#455A64"/>
<path d="M361.224 190.352H321.345V195.41H361.224V190.352Z" fill="#455A64"/>
<path d="M408.978 206.639H321.345V291.439H408.978V206.639Z" fill="#DEE8F1"/>
<path d="M328.152 284.186L352.385 240.547L372.213 268.433L384.271 253.615L402.186 284.186H328.152Z" fill="#1785FF"/>
<path d="M374.349 238.366C377.83 238.366 380.652 235.544 380.652 232.062C380.652 228.581 377.83 225.758 374.349 225.758C370.868 225.758 368.046 228.581 368.046 232.062C368.046 235.544 370.868 238.366 374.349 238.366Z" fill="#1785FF"/>
<path d="M402.186 284.408C402.186 284.408 402.171 284.29 402.171 284.067C402.171 283.815 402.156 283.489 402.156 283.073C402.141 282.169 402.126 280.893 402.112 279.261C402.097 275.894 402.052 271.029 402.023 264.858C401.978 252.473 401.919 234.836 401.845 213.655L402.201 214.011C380.756 214.026 355.336 214.055 328.167 214.07C328.063 214.159 328.953 213.284 328.582 213.67V213.685V213.729V213.803V213.952V214.248V214.856V216.058V218.461C328.582 220.063 328.582 221.665 328.582 223.252C328.582 226.426 328.582 229.571 328.582 232.7C328.582 238.93 328.582 245.027 328.568 250.975C328.553 262.856 328.538 274.085 328.523 284.408L328.152 284.038C350.25 284.112 368.713 284.171 381.69 284.216C388.156 284.26 393.258 284.29 396.787 284.305C398.508 284.319 399.842 284.334 400.792 284.349C401.222 284.364 401.563 284.364 401.83 284.364C402.067 284.408 402.186 284.408 402.186 284.408C402.186 284.408 402.082 284.423 401.859 284.423C401.607 284.423 401.281 284.438 400.866 284.438C399.931 284.453 398.626 284.468 396.936 284.483C393.421 284.512 388.349 284.542 381.913 284.572C368.877 284.616 350.339 284.675 328.137 284.75H327.767V284.379C327.752 274.055 327.737 262.826 327.722 250.945C327.722 245.012 327.722 238.901 327.707 232.671C327.707 229.556 327.707 226.411 327.707 223.222C327.707 221.635 327.707 220.033 327.707 218.431V216.028V214.827V214.219V213.922V213.774V213.699V213.655V213.64C327.337 214.011 328.212 213.121 328.137 213.21C355.307 213.225 380.726 213.254 402.171 213.269H402.527V213.625C402.453 234.896 402.393 252.606 402.349 265.051C402.304 271.192 402.275 276.028 402.26 279.365C402.245 280.982 402.23 282.228 402.215 283.118C402.201 283.518 402.201 283.83 402.201 284.067C402.201 284.319 402.201 284.423 402.186 284.408Z" fill="#455A64"/>
<path d="M512.049 305.056C512.049 305.293 493.274 305.471 470.109 305.471C446.944 305.471 428.169 305.278 428.169 305.056C428.169 304.819 446.944 304.641 470.109 304.641C493.274 304.641 512.049 304.833 512.049 305.056Z" fill="#455A64"/>
<path d="M512.049 316.284C512.049 316.522 493.274 316.7 470.109 316.7C446.944 316.7 428.169 316.507 428.169 316.284C428.169 316.047 446.944 315.869 470.109 315.869C493.274 315.869 512.049 316.062 512.049 316.284Z" fill="#455A64"/>
<path d="M478.444 327.513C478.444 327.75 467.187 327.928 453.306 327.928C439.425 327.928 428.169 327.735 428.169 327.513C428.169 327.29 439.425 327.098 453.306 327.098C467.202 327.098 478.444 327.276 478.444 327.513Z" fill="#455A64"/>
<path d="M468.062 190.352H428.183V195.41H468.062V190.352Z" fill="#455A64"/>
<path d="M515.816 206.639H428.183V291.439H515.816V206.639Z" fill="#DEE8F1"/>
<path d="M434.976 284.186L459.223 240.547L479.052 268.433L491.094 253.615L509.024 284.186H434.976Z" fill="#1785FF"/>
<path d="M487.49 232.062C487.49 235.548 484.672 238.366 481.187 238.366C477.702 238.366 474.884 235.548 474.884 232.062C474.884 228.577 477.702 225.758 481.187 225.758C484.672 225.744 487.49 228.577 487.49 232.062Z" fill="#1785FF"/>
<path d="M509.024 284.408C509.024 284.408 509.009 284.29 509.009 284.067C509.009 283.815 508.994 283.489 508.994 283.073C508.979 282.169 508.965 280.893 508.95 279.261C508.935 275.894 508.89 271.029 508.861 264.858C508.816 252.473 508.757 234.836 508.683 213.655L509.039 214.011C487.594 214.026 462.175 214.055 435.005 214.07C434.902 214.159 435.791 213.284 435.421 213.67V213.685V213.729V213.803V213.952V214.248V214.856V216.058V218.461C435.421 220.063 435.421 221.665 435.421 223.252C435.421 226.426 435.421 229.571 435.421 232.7C435.421 238.93 435.421 245.027 435.406 250.975C435.391 262.856 435.376 274.085 435.361 284.408L435.005 284.038C457.103 284.112 475.567 284.171 488.543 284.216C495.009 284.26 500.111 284.29 503.641 284.305C505.361 284.319 506.696 284.334 507.645 284.349C508.075 284.364 508.416 284.364 508.683 284.364C508.89 284.408 509.009 284.408 509.024 284.408C509.024 284.408 508.92 284.423 508.698 284.423C508.446 284.423 508.119 284.438 507.704 284.438C506.77 284.453 505.465 284.468 503.774 284.483C500.259 284.512 495.187 284.542 488.751 284.572C475.715 284.616 457.177 284.675 434.976 284.75H434.605V284.379C434.59 274.055 434.575 262.826 434.56 250.945C434.56 245.012 434.561 238.901 434.546 232.671C434.546 229.556 434.546 226.411 434.546 223.222C434.546 221.635 434.546 220.033 434.546 218.431V216.028V214.827V214.219V213.922V213.774V213.699V213.655V213.64C434.175 214.011 435.05 213.121 434.976 213.21C462.145 213.225 487.564 213.254 509.009 213.269H509.365V213.625C509.291 234.896 509.232 252.606 509.187 265.051C509.143 271.192 509.113 276.028 509.098 279.365C509.083 280.982 509.068 282.228 509.054 283.118C509.039 283.518 509.039 283.83 509.039 284.067C509.039 284.319 509.024 284.423 509.024 284.408Z" fill="#455A64"/>
<path d="M364.042 343.147H324.163V348.205H364.042V343.147Z" fill="#455A64"/>
<path d="M411.796 359.448H324.163V444.249H411.796V359.448Z" fill="#DEE8F1"/>
<path d="M330.955 436.981L355.188 393.342L375.016 421.243L387.074 406.425L404.989 436.981H330.955Z" fill="#1785FF"/>
<path d="M383.47 384.857C383.47 388.343 380.652 391.161 377.167 391.161C373.682 391.161 370.864 388.343 370.864 384.857C370.864 381.371 373.682 378.553 377.167 378.553C380.652 378.553 383.47 381.371 383.47 384.857Z" fill="#1785FF"/>
<path d="M404.989 437.218C404.989 437.218 404.974 437.099 404.974 436.877C404.974 436.625 404.959 436.298 404.959 435.883C404.944 434.978 404.929 433.702 404.915 432.071C404.9 428.704 404.855 423.839 404.826 417.668C404.781 405.282 404.722 387.646 404.648 366.464L405.004 366.82C383.559 366.835 358.139 366.865 330.97 366.88C330.866 366.969 331.756 366.094 331.385 366.479V366.494V366.539V366.613V366.761V367.058V367.666V368.867V371.27C331.385 372.872 331.385 374.474 331.385 376.061C331.385 379.236 331.385 382.38 331.385 385.51C331.385 391.74 331.385 397.836 331.371 403.784C331.356 415.666 331.341 426.894 331.326 437.218L330.955 436.847C353.053 436.921 371.516 436.981 384.493 437.025C390.959 437.07 396.061 437.099 399.59 437.114C401.311 437.129 402.645 437.144 403.595 437.159C404.025 437.173 404.366 437.173 404.633 437.173C404.87 437.203 404.989 437.203 404.989 437.218C404.989 437.218 404.885 437.233 404.662 437.233C404.41 437.233 404.084 437.248 403.669 437.248C402.734 437.262 401.429 437.277 399.739 437.292C396.224 437.307 391.152 437.351 384.716 437.381C371.68 437.426 353.142 437.485 330.94 437.559H330.57V437.188C330.555 426.864 330.54 415.636 330.525 403.755C330.525 397.821 330.525 391.71 330.51 385.48C330.51 382.365 330.51 379.221 330.51 376.032C330.51 374.445 330.51 372.843 330.51 371.241V368.838V367.636V367.028V366.731V366.583V366.509V366.464V366.45C330.14 366.82 331.015 365.93 330.94 366.019C358.11 366.034 383.529 366.064 404.974 366.079H405.33V366.435C405.256 387.705 405.196 405.416 405.152 417.861C405.107 424.002 405.078 428.837 405.063 432.175C405.048 433.791 405.033 435.037 405.018 435.927C405.004 436.328 405.004 436.639 405.004 436.877C405.004 437.114 405.003 437.218 404.989 437.218Z" fill="#455A64"/>
<path d="M470.939 343.147H431.061V348.205H470.939V343.147Z" fill="#455A64"/>
<path d="M518.693 359.448H431.061V444.249H518.693V359.448Z" fill="#DEE8F1"/>
<path d="M437.853 436.981L462.101 393.342L481.929 421.243L493.971 406.425L511.901 436.981H437.853Z" fill="#1785FF"/>
<path d="M490.382 384.857C490.382 388.343 487.564 391.161 484.079 391.161C480.594 391.161 477.776 388.343 477.776 384.857C477.776 381.371 480.594 378.553 484.079 378.553C487.564 378.553 490.382 381.371 490.382 384.857Z" fill="#1785FF"/>
<path d="M511.901 437.218C511.901 437.218 511.886 437.099 511.886 436.877C511.886 436.625 511.871 436.298 511.871 435.883C511.857 434.978 511.842 433.702 511.827 432.071C511.812 428.704 511.768 423.839 511.738 417.668C511.693 405.282 511.634 387.646 511.56 366.464L511.916 366.82C490.471 366.835 465.052 366.865 437.883 366.88C437.779 366.969 438.669 366.094 438.298 366.479V366.494V366.539V366.613V366.761V367.058V367.666V368.867V371.27C438.298 372.872 438.298 374.474 438.298 376.061C438.298 379.236 438.298 382.38 438.298 385.51C438.298 391.74 438.298 397.836 438.283 403.784C438.268 415.666 438.253 426.894 438.238 437.218L437.868 436.847C459.965 436.921 478.429 436.981 491.405 437.025C497.871 437.07 502.973 437.099 506.503 437.114C508.223 437.129 509.558 437.144 510.507 437.159C510.937 437.173 511.278 437.173 511.545 437.173C511.768 437.203 511.901 437.203 511.901 437.218C511.901 437.218 511.797 437.233 511.575 437.233C511.323 437.233 510.996 437.248 510.581 437.248C509.647 437.262 508.342 437.277 506.651 437.292C503.136 437.307 498.064 437.351 491.628 437.381C478.592 437.426 460.054 437.485 437.853 437.559H437.482V437.188C437.467 426.864 437.452 415.636 437.438 403.755C437.438 397.821 437.438 391.71 437.423 385.48C437.423 382.365 437.423 379.221 437.423 376.032C437.423 374.445 437.423 372.843 437.423 371.241V368.838V367.636V367.028V366.731V366.583V366.509V366.464V366.45C437.052 366.82 437.927 365.93 437.853 366.019C465.022 366.034 490.441 366.064 511.886 366.079H512.242V366.435C512.168 387.705 512.109 405.416 512.064 417.861C512.02 424.002 511.99 428.837 511.975 432.175C511.96 433.791 511.946 435.037 511.931 435.927C511.916 436.328 511.916 436.639 511.916 436.877C511.916 437.114 511.916 437.218 511.901 437.218Z" fill="#455A64"/>
<path d="M581.263 343.147H541.384V348.205H581.263V343.147Z" fill="#455A64"/>
<path d="M629.017 359.448H541.384V444.249H629.017V359.448Z" fill="#DEE8F1"/>
<path d="M548.176 436.981L572.409 393.342L592.237 421.243L604.294 406.425L622.21 436.981H548.176Z" fill="#1785FF"/>
<path d="M600.691 384.857C600.691 388.343 597.873 391.161 594.388 391.161C590.903 391.161 588.085 388.343 588.085 384.857C588.085 381.371 590.903 378.553 594.388 378.553C597.858 378.553 600.691 381.371 600.691 384.857Z" fill="#1785FF"/>
<path d="M622.21 437.218C622.21 437.218 622.195 437.099 622.195 436.877C622.195 436.625 622.18 436.298 622.18 435.883C622.165 434.978 622.15 433.702 622.135 432.071C622.121 428.704 622.076 423.839 622.046 417.668C622.002 405.282 621.943 387.646 621.868 366.464L622.224 366.82C600.78 366.835 575.36 366.865 548.191 366.88C548.087 366.969 548.977 366.094 548.606 366.479V366.494V366.539V366.613V366.761V367.058V367.666V368.867V371.27C548.606 372.872 548.606 374.474 548.606 376.061C548.606 379.236 548.606 382.38 548.606 385.51C548.606 391.74 548.606 397.836 548.591 403.784C548.577 415.666 548.562 426.894 548.547 437.218L548.176 436.847C570.273 436.921 588.737 436.981 601.714 437.025C608.18 437.07 613.282 437.099 616.811 437.114C618.532 437.129 619.866 437.144 620.815 437.159C621.246 437.173 621.587 437.173 621.854 437.173C622.091 437.203 622.21 437.203 622.21 437.218C622.21 437.218 622.106 437.233 621.883 437.233C621.631 437.233 621.305 437.248 620.89 437.248C619.955 437.262 618.65 437.277 616.96 437.292C613.445 437.307 608.373 437.351 601.936 437.381C588.9 437.426 570.362 437.485 548.161 437.559H547.805V437.188C547.791 426.864 547.776 415.636 547.761 403.755C547.761 397.821 547.761 391.71 547.746 385.48C547.746 382.365 547.746 379.221 547.746 376.032C547.746 374.445 547.746 372.843 547.746 371.241V368.838V367.636V367.028V366.731V366.583V366.509V366.464V366.45C547.375 366.82 548.25 365.93 548.176 366.019C575.345 366.034 600.765 366.064 622.21 366.079H622.565V366.435C622.491 387.705 622.432 405.416 622.388 417.861C622.343 424.002 622.313 428.837 622.299 432.175C622.284 433.791 622.269 435.037 622.254 435.927C622.239 436.328 622.239 436.639 622.239 436.877C622.224 437.114 622.224 437.218 622.21 437.218Z" fill="#455A64"/>
<path d="M620.801 291.439C620.801 291.202 625.101 291.024 630.426 291.024C629.595 291.854 630.188 291.246 630.01 291.439V291.424V291.409V291.38V291.32V291.202V290.949V290.46C630.01 290.134 630.01 289.822 630.01 289.511C630.025 288.902 630.025 288.294 630.04 287.701C630.07 286.648 630.099 285.624 630.129 284.645C630.203 282.91 630.307 281.827 630.426 281.827C630.544 281.827 630.648 282.91 630.722 284.645C630.752 285.639 630.782 286.648 630.811 287.701C630.826 288.294 630.826 288.888 630.841 289.511C630.841 289.822 630.841 290.148 630.841 290.46V290.949V291.202V291.32V291.38V291.409V291.424V291.439C630.648 291.632 631.256 291.024 630.426 291.854C625.116 291.854 620.801 291.661 620.801 291.439Z" fill="#455A64"/>
<path d="M577.11 291.439C577.11 291.202 582.004 291.024 588.04 291.024C594.076 291.024 598.97 291.217 598.97 291.439C598.97 291.662 594.076 291.855 588.04 291.855C581.99 291.855 577.11 291.662 577.11 291.439Z" fill="#455A64"/>
<path d="M545.64 281.812C545.877 281.812 546.055 286.114 546.055 291.439C545.225 290.608 545.833 291.202 545.64 291.024H545.655H545.685H545.759H545.877H546.13H546.619C546.945 291.024 547.257 291.024 547.568 291.024C548.176 291.039 548.784 291.039 549.377 291.053C550.43 291.083 551.439 291.113 552.433 291.142C554.168 291.217 555.25 291.32 555.25 291.439C555.25 291.558 554.168 291.662 552.433 291.736C551.439 291.765 550.43 291.795 549.377 291.825C548.784 291.84 548.191 291.84 547.568 291.854C547.257 291.854 546.93 291.854 546.619 291.854H546.13H545.877H545.759H545.699H545.67H545.655C545.462 291.662 546.07 292.27 545.24 291.439C545.21 286.129 545.403 281.812 545.64 281.812Z" fill="#455A64"/>
<path d="M545.64 238.114C545.878 238.114 546.056 243.009 546.056 249.046C546.056 255.083 545.863 259.978 545.64 259.978C545.418 259.978 545.225 255.083 545.225 249.046C545.21 242.994 545.403 238.114 545.64 238.114Z" fill="#455A64"/>
<path d="M555.25 206.639C555.25 206.876 550.949 207.054 545.625 207.054C546.456 206.223 545.863 206.832 546.041 206.639V206.654V206.668V206.698V206.757V206.876V207.128V207.618C546.041 207.944 546.041 208.256 546.041 208.567C546.026 209.175 546.026 209.783 546.011 210.377C545.981 211.43 545.952 212.438 545.922 213.432C545.848 215.168 545.744 216.251 545.625 216.251C545.507 216.251 545.403 215.168 545.329 213.432C545.299 212.438 545.269 211.43 545.24 210.377C545.24 209.783 545.225 209.19 545.21 208.567C545.21 208.256 545.21 207.929 545.21 207.618V207.128V206.876V206.757V206.698V206.668V206.654V206.639C545.388 206.446 544.795 207.054 545.625 206.223C550.949 206.209 555.25 206.401 555.25 206.639Z" fill="#455A64"/>
<path d="M598.955 206.639C598.955 206.876 594.061 207.054 588.025 207.054C581.99 207.054 577.096 206.861 577.096 206.639C577.096 206.401 581.99 206.223 588.025 206.223C594.061 206.209 598.955 206.401 598.955 206.639Z" fill="#455A64"/>
<path d="M630.426 216.251C630.188 216.251 630.01 211.949 630.01 206.624C630.841 207.455 630.248 206.861 630.426 207.039H630.411H630.396H630.366H630.307H630.188H629.936H629.447C629.12 207.039 628.809 207.039 628.498 207.039C627.89 207.024 627.282 207.024 626.688 207.01C625.635 206.98 624.627 206.95 623.633 206.921C621.898 206.846 620.815 206.743 620.815 206.624C620.815 206.505 621.898 206.401 623.633 206.327C624.627 206.298 625.635 206.268 626.688 206.238C627.282 206.223 627.875 206.223 628.498 206.209C628.809 206.209 629.135 206.209 629.447 206.209H629.936H630.188H630.292H630.351H630.381H630.396H630.411C630.604 206.401 629.995 205.793 630.826 206.624C630.841 211.949 630.648 216.251 630.426 216.251Z" fill="#455A64"/>
<path d="M630.426 259.963C630.188 259.963 630.01 255.069 630.01 249.032C630.01 242.994 630.203 238.1 630.426 238.1C630.663 238.1 630.841 242.994 630.841 249.032C630.841 255.069 630.648 259.963 630.426 259.963Z" fill="#455A64"/>
<path d="M629.195 304.937C629.195 305.175 610.419 305.353 587.254 305.353C564.089 305.353 545.314 305.16 545.314 304.937C545.314 304.7 564.089 304.522 587.254 304.522C610.419 304.522 629.195 304.715 629.195 304.937Z" fill="#455A64"/>
<path d="M629.195 316.166C629.195 316.403 610.419 316.581 587.254 316.581C564.089 316.581 545.314 316.388 545.314 316.166C545.314 315.928 564.089 315.75 587.254 315.75C610.419 315.75 629.195 315.943 629.195 316.166Z" fill="#455A64"/>
<path d="M585.193 190.233H545.314V195.291H585.193V190.233Z" fill="#455A64"/>
<path d="M280.576 256.211C280.576 279.943 261.341 299.197 237.598 299.197C213.869 299.197 194.619 279.958 194.619 256.211C194.619 232.478 213.854 213.225 237.598 213.225C261.341 213.239 280.576 232.478 280.576 256.211Z" fill="#DEE8F1"/>
<path d="M289.089 349.896C289.089 350.133 267.022 350.311 239.793 350.311C212.564 350.311 190.497 350.118 190.497 349.896C190.497 349.658 212.564 349.48 239.793 349.48C267.022 349.48 289.089 349.673 289.089 349.896Z" fill="#455A64"/>
<path d="M289.089 360.798C289.089 361.035 267.022 361.213 239.793 361.213C212.564 361.213 190.497 361.021 190.497 360.798C190.497 360.561 212.564 360.383 239.793 360.383C267.022 360.383 289.089 360.576 289.089 360.798Z" fill="#455A64"/>
<path d="M289.089 371.715C289.089 371.952 267.022 372.13 239.793 372.13C212.564 372.13 190.497 371.938 190.497 371.715C190.497 371.478 212.564 371.3 239.793 371.3C267.022 371.3 289.089 371.478 289.089 371.715Z" fill="#455A64"/>
<path d="M247.149 382.855C247.149 383.092 234.35 383.27 218.57 383.27C202.776 383.27 189.992 383.077 189.992 382.855C189.992 382.632 202.791 382.439 218.57 382.439C234.35 382.439 247.149 382.617 247.149 382.855Z" fill="#455A64"/>
<path d="M190.508 332.611H258.432V327.642H190.508V332.611Z" fill="#455A64"/>
<path d="M210.681 289.051C217.992 295.37 227.498 299.197 237.909 299.197C248.35 299.197 257.871 295.355 265.182 289.021C262.913 281.249 257.367 272.023 243.886 269.976C249.744 267.513 253.911 261.476 253.941 254.342C253.985 245.012 246.926 237.402 238.176 237.373C229.426 237.328 222.308 244.863 222.263 254.193C222.234 261.387 226.431 267.499 232.363 269.976C218.645 272.037 212.994 281.323 210.681 289.051Z" fill="#1785FF"/>
<path d="M228.581 399.868H190.497V404.496H228.581V399.868Z" fill="#1785FF"/>
<path d="M760.637 238.752C762.802 246.021 764.967 253.274 767.132 260.542C767.429 261.536 767.725 262.545 767.711 263.583C767.651 266.653 764.745 269.056 761.734 269.635C758.723 270.198 755.639 269.383 752.673 268.567C751.872 271.697 748.209 273.017 745.035 273.61C730.946 276.265 716.041 274.411 703.035 268.389C708.626 260.379 713.194 251.657 716.575 242.49C727.624 242.98 738.658 243.469 749.707 243.959C751.664 244.048 753.666 244.122 755.52 243.469C757.359 242.817 759.02 241.23 759.139 239.272" fill="#E8505B"/>
<path d="M722.656 281.293C723.071 278.86 722.078 268.626 722.078 268.626C722.078 268.626 712.749 267.632 712.171 258.376C711.607 249.12 712.171 227.761 712.171 227.761L729.181 219.439L747.882 233.62L745.05 279.914L724.851 297.98L722.656 281.293Z" fill="#FFBE9D"/>
<path d="M714.039 243.336C714.039 243.988 714.573 244.522 715.226 244.522C715.879 244.522 716.413 243.988 716.413 243.336C716.413 242.683 715.879 242.149 715.226 242.149C714.573 242.149 714.039 242.683 714.039 243.336Z" fill="#263238"/>
<path d="M712.898 242.045C713.046 242.194 713.921 241.452 715.197 241.393C716.472 241.304 717.436 241.941 717.57 241.763C717.629 241.689 717.481 241.407 717.051 241.111C716.635 240.829 715.938 240.562 715.152 240.606C714.351 240.651 713.698 240.992 713.328 241.333C712.942 241.674 712.823 241.971 712.898 242.045Z" fill="#263238"/>
<path d="M727.772 243.336C727.772 243.988 728.306 244.522 728.959 244.522C729.612 244.522 730.146 243.988 730.146 243.336C730.146 242.683 729.612 242.149 728.959 242.149C728.306 242.149 727.772 242.683 727.772 243.336Z" fill="#263238"/>
<path d="M727.031 242.045C727.179 242.194 728.054 241.452 729.33 241.393C730.606 241.304 731.57 241.941 731.703 241.763C731.763 241.689 731.614 241.407 731.184 241.111C730.769 240.829 730.072 240.562 729.285 240.606C728.484 240.651 727.832 240.992 727.461 241.333C727.09 241.674 726.957 241.971 727.031 242.045Z" fill="#263238"/>
<path d="M726.645 254.03C725.058 254.816 722.241 255.944 720.476 256.151C720.476 256.151 722.048 258.391 724.702 257.353C727.461 256.27 726.645 254.03 726.645 254.03Z" fill="#FAFAFA"/>
<path d="M722.078 268.626C722.078 268.626 728.306 268.7 734.342 264.487C734.342 264.487 731.554 271.281 722.285 270.91L722.078 268.626Z" fill="#EB996E"/>
<path d="M774.829 260.245C774.014 260.29 772.783 260.156 771.478 259.489C770.158 258.836 768.853 257.62 767.814 255.944C766.762 254.282 765.946 252.221 765.086 250.085C763.351 245.783 762.045 241.778 761.17 238.871C761.037 238.411 760.904 237.996 760.785 237.58C760.711 237.091 760.622 236.646 760.548 236.32C755.49 217.007 738.524 213.403 735.173 213.403C731.569 213.403 725.281 211.415 716.086 220.967C714.544 222.569 713.431 224.186 712.601 225.773C710.228 228.74 708.982 232.018 708.508 234.495C707.944 237.313 708.181 239.093 708.3 239.093C708.478 239.093 708.508 237.343 709.22 234.658C709.576 233.308 710.139 231.736 710.999 230.105C709.665 236.082 711.934 240.77 711.934 240.77L715.226 239.865L727.016 235.845C725.948 232.196 727.52 227.657 728.41 225.536L728.499 225.462C731.198 239.331 746.474 240.77 746.474 240.77L745.702 267.083C761.378 263.731 761.586 246.614 761.482 242.342C762.194 244.745 763.113 247.504 764.285 250.396C765.16 252.547 766.005 254.638 767.147 256.374C768.259 258.109 769.742 259.415 771.211 260.038C772.664 260.69 773.999 260.735 774.859 260.572C775.734 260.408 776.149 260.127 776.12 260.082C776.105 260.023 775.66 260.186 774.829 260.245Z" fill="#E8505B"/>
<path d="M722.434 252.814C722.434 252.74 721.633 252.651 720.343 252.547C720.016 252.532 719.705 252.487 719.631 252.25C719.542 251.998 719.675 251.627 719.809 251.227C720.09 250.396 720.372 249.506 720.684 248.586C721.292 246.703 721.811 244.997 722.167 243.751C722.523 242.505 722.701 241.719 722.642 241.704C722.582 241.689 722.271 242.431 721.826 243.647C721.381 244.863 720.802 246.554 720.194 248.438C719.898 249.373 719.616 250.248 719.364 251.093C719.26 251.494 719.052 251.939 719.245 252.428C719.334 252.68 719.586 252.843 719.794 252.888C720.001 252.947 720.179 252.932 720.343 252.932C721.633 252.932 722.434 252.888 722.434 252.814Z" fill="#263238"/>
<path d="M743.967 245.293C741.075 244.73 738.658 244.329 737.827 244.27C737.931 243.78 738.005 243.276 738.005 242.757C737.991 241.125 737.471 239.553 736.537 238.322C735.632 237.076 734.372 236.186 733.037 235.726C731.717 235.237 730.323 235.207 729.107 235.429C727.876 235.667 726.823 236.216 725.978 236.853C724.302 238.173 723.59 239.85 723.353 240.977C723.219 241.541 723.19 242 723.19 242.312C723.19 242.623 723.205 242.772 723.219 242.772C723.279 242.772 723.249 242.119 723.546 241.021C723.842 239.939 724.569 238.366 726.2 237.15C727.001 236.557 728.024 236.052 729.181 235.86C730.338 235.667 731.643 235.711 732.874 236.186C734.105 236.631 735.291 237.476 736.122 238.633C736.982 239.775 737.471 241.259 737.486 242.772C737.471 244.285 736.982 245.768 736.122 246.91C735.291 248.067 734.105 248.913 732.874 249.358C731.643 249.832 730.338 249.877 729.181 249.684C728.024 249.491 727.001 248.987 726.2 248.393C724.569 247.177 723.842 245.59 723.546 244.522C723.383 243.929 723.323 243.484 723.294 243.187C723.531 243.143 723.664 243.083 723.664 243.009C723.664 242.935 723.486 242.876 723.234 242.816C723.234 242.801 723.234 242.772 723.219 242.772C723.219 242.772 723.219 242.801 723.219 242.816C722.982 242.772 722.686 242.742 722.344 242.742C721.885 242.742 721.499 242.787 721.262 242.861C721.262 242.831 721.262 242.801 721.262 242.772C721.247 241.14 720.728 239.568 719.794 238.337C718.889 237.091 717.628 236.201 716.294 235.741C714.974 235.251 713.58 235.222 712.364 235.444C711.133 235.682 710.08 236.23 709.249 236.868C707.573 238.188 706.862 239.864 706.624 240.992C706.491 241.555 706.461 242.015 706.461 242.327C706.461 242.638 706.476 242.787 706.491 242.787C706.55 242.787 706.52 242.134 706.817 241.036C707.114 239.953 707.84 238.381 709.472 237.165C710.273 236.572 711.296 236.067 712.453 235.874C713.609 235.682 714.914 235.726 716.145 236.201C717.376 236.646 718.563 237.491 719.393 238.648C720.253 239.79 720.743 241.274 720.758 242.787C720.743 244.3 720.268 245.783 719.393 246.925C718.563 248.082 717.376 248.927 716.145 249.372C714.914 249.847 713.609 249.892 712.453 249.699C711.296 249.506 710.273 249.002 709.472 248.408C707.84 247.192 707.114 245.605 706.817 244.537C706.52 243.439 706.55 242.787 706.491 242.787C706.476 242.787 706.461 242.95 706.461 243.246C706.461 243.558 706.491 244.003 706.624 244.581C706.862 245.709 707.573 247.385 709.249 248.705C710.08 249.343 711.147 249.906 712.364 250.129C713.58 250.351 714.974 250.322 716.294 249.832C717.614 249.372 718.889 248.468 719.794 247.236C720.654 246.109 721.143 244.656 721.232 243.157C721.469 243.232 721.87 243.276 722.33 243.276C722.656 243.276 722.953 243.246 723.19 243.217C723.19 243.232 723.19 243.246 723.19 243.261C723.19 243.573 723.219 244.018 723.353 244.596C723.59 245.724 724.302 247.4 725.978 248.72C726.808 249.358 727.876 249.921 729.107 250.144C730.323 250.366 731.717 250.337 733.037 249.847C734.357 249.387 735.632 248.482 736.537 247.251C737.145 246.45 737.56 245.486 737.783 244.463C738.569 244.73 740.971 245.279 743.863 245.857C747.408 246.554 750.315 247.014 750.344 246.88C750.359 246.673 747.512 245.99 743.967 245.293Z" fill="#263238"/>
<path d="M748.876 252.428C748.817 250.885 748.817 249.298 749.365 247.86C749.929 246.421 751.16 245.145 752.702 244.982C754.467 244.804 756.173 246.272 756.469 248.023C756.751 249.773 755.728 251.597 754.185 252.473C752.643 253.348 750.671 253.318 749.039 252.621" fill="#FFBE9D"/>
<path d="M751.575 251.078C751.634 250.975 752.079 251.197 752.732 251.004C753.385 250.841 754.067 250.099 754.126 249.031C754.171 248.512 754.052 248.038 753.8 247.8C753.548 247.548 753.118 247.474 752.791 247.504C752.094 247.563 751.605 247.756 751.575 247.637C751.545 247.563 751.887 247.207 752.717 246.97C753.133 246.881 753.726 246.851 754.275 247.266C754.824 247.711 754.957 248.453 754.913 249.091C754.868 249.758 754.616 250.381 754.215 250.826C753.83 251.286 753.281 251.509 752.851 251.553C751.931 251.642 751.501 251.138 751.575 251.078Z" fill="#EB996E"/>
<path d="M787.45 603.6L776.283 596.02L790.342 575.017L806.789 585.934L806.003 587.298C802.443 593.306 787.48 617.617 783.713 620.702C779.516 624.129 787.45 603.6 787.45 603.6Z" fill="#E8505B"/>
<path d="M782.363 620.495C782.17 620.361 787.316 612.426 793.857 602.784C800.412 593.128 805.869 585.415 806.077 585.548C806.27 585.682 801.124 593.617 794.569 603.274C788.028 612.915 782.556 620.628 782.363 620.495Z" fill="#263238"/>
<path d="M789.467 605.513C789.453 605.75 788.77 605.884 787.954 605.943C787.139 605.988 786.441 605.943 786.397 605.706C786.352 605.469 787.02 605.142 787.895 605.083C788.8 605.009 789.497 605.276 789.467 605.513Z" fill="#263238"/>
<path d="M789.304 607.338C789.245 607.575 788.489 607.605 787.584 607.545C786.679 607.486 785.922 607.352 785.908 607.115C785.893 606.878 786.664 606.611 787.643 606.685C788.622 606.759 789.349 607.115 789.304 607.338Z" fill="#263238"/>
<path d="M801.732 591.793C801.628 591.837 801.346 591.392 801.005 590.636C800.679 589.879 800.263 588.752 800.219 587.417C800.174 586.067 800.619 584.866 801.168 584.169C801.717 583.457 802.266 583.264 802.31 583.353C802.385 583.457 802.029 583.813 801.673 584.495C801.317 585.177 801.035 586.216 801.079 587.387C801.124 588.559 801.406 589.642 801.584 590.428C801.762 591.229 801.836 591.748 801.732 591.793Z" fill="#263238"/>
<path d="M787.331 604.149C787.227 603.926 787.643 603.526 788.177 603.125C788.726 602.725 789.23 602.458 789.408 602.621C789.586 602.784 789.304 603.363 788.681 603.822C788.073 604.267 787.435 604.356 787.331 604.149Z" fill="#263238"/>
<path d="M786.471 603.081C786.293 602.932 786.516 602.265 786.975 601.597C787.435 600.93 787.984 600.485 788.192 600.604C788.399 600.722 788.177 601.39 787.687 602.087C787.198 602.799 786.664 603.244 786.471 603.081Z" fill="#263238"/>
<path d="M655.83 620.865V607.367L681.101 607.204L681.309 626.947L679.737 627.066C672.766 627.496 644.262 628.771 639.576 627.392C634.385 625.834 655.83 620.865 655.83 620.865Z" fill="#E8505B"/>
<path d="M638.998 626.146C638.998 625.909 648.459 625.716 660.116 625.716C671.788 625.716 681.235 625.909 681.235 626.146C681.235 626.383 671.788 626.576 660.116 626.576C648.445 626.576 638.998 626.383 638.998 626.146Z" fill="#263238"/>
<path d="M655.386 623.609C655.178 623.728 654.688 623.239 654.184 622.586C653.68 621.933 653.339 621.34 653.502 621.162C653.665 620.984 654.318 621.355 654.866 622.052C655.4 622.779 655.593 623.506 655.386 623.609Z" fill="#263238"/>
<path d="M653.769 624.499C653.546 624.588 653.087 623.98 652.627 623.194C652.167 622.408 651.856 621.711 652.034 621.562C652.212 621.414 652.864 621.904 653.368 622.749C653.873 623.609 653.991 624.425 653.769 624.499Z" fill="#263238"/>
<path d="M673.612 626.057C673.523 625.983 673.716 625.508 674.16 624.796C674.605 624.099 675.302 623.135 676.37 622.334C677.453 621.533 678.699 621.236 679.588 621.295C680.478 621.355 680.953 621.696 680.908 621.785C680.864 621.918 680.374 621.8 679.603 621.904C678.847 621.993 677.824 622.334 676.874 623.031C675.925 623.728 675.199 624.559 674.635 625.152C674.086 625.775 673.701 626.131 673.612 626.057Z" fill="#263238"/>
<path d="M655.296 621.073C655.415 620.865 655.993 620.969 656.616 621.192C657.254 621.414 657.759 621.696 657.729 621.933C657.699 622.171 657.047 622.26 656.335 622.007C655.623 621.755 655.178 621.28 655.296 621.073Z" fill="#263238"/>
<path d="M655.697 619.768C655.711 619.53 656.394 619.338 657.21 619.352C658.025 619.367 658.693 619.56 658.708 619.797C658.723 620.035 658.04 620.228 657.195 620.213C656.349 620.213 655.682 620.02 655.697 619.768Z" fill="#263238"/>
<path d="M719.586 309.194L692.224 300.042C692.224 300.042 680.137 334.885 676.429 335.211C655.904 337.08 633.94 330.272 626.229 327.587C625.443 326.712 624.553 325.659 623.559 324.368C622.714 323.256 622.061 322.01 621.631 320.675C621.112 319.058 620.504 316.892 620.534 315.602C620.578 314 618.65 313.184 617.76 314.326C616.871 315.468 616.648 319.874 618.665 324.605C620.697 329.337 613.519 325.57 610.879 324.249C608.239 322.929 599.89 319.206 598.837 319.696C597.294 320.408 597.784 322.188 600.453 323.463C603.152 324.739 610.849 329.07 610.078 330.435C609.322 331.77 595.989 324.843 595.989 324.843C595.989 324.843 593.379 322.9 592.445 324.442C590.754 327.231 605.481 333.55 606.89 334.113C607.869 334.514 607.097 336.012 606.059 335.537C604.991 335.048 592.919 328.314 591.169 331.132C589.82 333.298 603.227 336.442 604.962 339.231C606.697 342.019 595.04 335.804 593.839 337.926C593.394 338.712 593.172 339.364 600.379 341.96C603.879 343.221 610.479 344.778 616.441 346.069L616.411 346.143C616.411 346.143 688.412 378.345 703.94 347.3C720.417 314.356 719.586 309.194 719.586 309.194Z" fill="#FFBE9D"/>
<path d="M702.828 385.718C702.828 385.718 685.372 501.742 687.879 507.289C690.4 512.837 780.153 608.183 780.153 608.183L801.153 572.198C801.153 572.198 730.323 493.138 730.857 491.002C731.391 488.867 755.95 376.106 755.95 376.106L702.828 385.718Z" fill="#455A64"/>
<path d="M706.654 529.034L721.395 496.609L736.152 464.199L711.296 507.289L706.654 529.034Z" fill="#263238"/>
<path d="M715.434 500.125C715.463 500.125 715.493 500.555 715.523 501.401C715.537 502.32 715.567 503.551 715.611 505.079L715.567 504.961C721.188 511.309 733.645 525.742 748.031 542.577C757.759 554.043 766.569 564.426 773.035 572.035C776.149 575.773 778.7 578.829 780.539 581.024C781.369 582.048 782.037 582.864 782.541 583.501C782.986 584.065 783.223 584.376 783.193 584.406C783.164 584.421 782.897 584.154 782.408 583.62C781.859 583.012 781.162 582.226 780.272 581.247C778.388 579.081 775.764 576.1 772.56 572.436C766.05 564.871 757.181 554.547 747.363 543.141C732.978 526.305 720.683 511.739 715.285 505.198L715.241 505.139V505.079C715.27 503.551 715.3 502.335 715.33 501.401C715.374 500.555 715.404 500.125 715.434 500.125Z" fill="#263238"/>
<path d="M794.42 564.782C794.613 564.916 789.719 572.703 783.475 582.166C777.232 591.645 772.011 599.209 771.819 599.076C771.626 598.942 776.52 591.155 782.764 581.692C789.007 572.228 794.227 564.649 794.42 564.782Z" fill="#263238"/>
<path d="M696.51 429.297C696.688 428.081 710.628 396.724 710.628 396.724L703.866 387.172L702.665 386.919L696.51 429.297Z" fill="#263238"/>
<path d="M716.501 384.605L702.65 386.919L710.628 396.724C697.756 425.826 671.209 487.443 668.006 507.289C663.779 533.618 647.807 615.793 649.394 617.053C650.995 618.299 687.819 617.053 687.819 617.053L711.281 507.289L763.143 417.371C769.594 406.172 771.492 392.912 768.408 380.363L767.369 376.106" fill="#455A64"/>
<path d="M675.021 604.89C675.006 604.89 675.036 604.683 675.08 604.267C675.154 603.822 675.243 603.229 675.362 602.472C675.629 600.856 676.014 598.542 676.504 595.605C677.542 589.597 679.04 580.994 680.894 570.374C682.792 559.709 685.061 547.041 687.567 532.98C688.857 525.949 690.222 518.562 691.631 510.923C692.001 509.01 692.372 507.081 692.743 505.138C692.951 504.159 693.114 503.195 693.351 502.201C693.47 501.712 693.559 501.207 693.707 500.718L694.256 499.279C695.783 495.526 697.429 491.818 699.09 488.036C712.512 457.88 724.999 430.736 734.031 411.082C738.569 401.307 742.232 393.386 744.798 387.854C746.073 385.154 747.067 383.048 747.764 381.55C748.09 380.867 748.357 380.333 748.565 379.918C748.743 379.547 748.846 379.369 748.861 379.369C748.876 379.369 748.802 379.577 748.639 379.948C748.461 380.363 748.224 380.912 747.927 381.609C747.26 383.107 746.31 385.243 745.109 387.972C742.603 393.535 739.014 401.5 734.594 411.319C725.711 431.033 713.298 458.221 699.891 488.362C698.23 492.13 696.569 495.868 695.071 499.561L694.538 500.94C694.389 501.415 694.315 501.905 694.196 502.379C693.974 503.329 693.796 504.322 693.603 505.287C693.232 507.23 692.847 509.158 692.476 511.057C691.052 518.696 689.673 526.068 688.353 533.098C685.773 547.145 683.444 559.813 681.487 570.463C679.529 581.054 677.942 589.657 676.83 595.649C676.266 598.586 675.836 600.87 675.525 602.487C675.377 603.229 675.258 603.822 675.169 604.267C675.08 604.683 675.036 604.89 675.021 604.89Z" fill="#263238"/>
<path d="M690.029 606.507C690.029 606.744 681.19 606.774 670.29 606.581C659.389 606.388 650.551 606.032 650.565 605.795C650.565 605.558 659.404 605.528 670.319 605.721C681.19 605.928 690.029 606.27 690.029 606.507Z" fill="#263238"/>
<path d="M702.65 386.919L703.184 388.18L769.728 382.781L767.384 376.106L702.65 386.919Z" fill="#263238"/>
<path d="M730.145 278.49L725.667 296.468L725.518 283.533L725.844 280.656L726.245 278.49L720.342 276.487L717.287 281.234L716.398 281.293C716.398 281.293 692.432 278.905 684.052 310.574L676.4 329.323L699.595 340.892L699.624 342.391L701.033 387.157L768.067 376.299C768.334 366.242 758.071 348.027 760.34 338.92L768.067 307.755L757.938 278.712L750.923 278.935L746.963 274.277L730.145 278.49Z" fill="#263238"/>
<path d="M700.01 340.566C699.995 340.61 699.446 340.403 698.571 339.809C697.726 339.201 696.51 338.222 695.472 336.62C694.419 335.048 693.677 332.734 693.9 330.212C693.989 327.72 694.804 324.932 696.51 322.559C697.815 320.704 699.476 319.28 701.27 318.302L701.063 318.583C701.612 314.475 702.116 310.944 702.501 308.438C702.887 305.931 703.154 304.462 703.243 304.477C703.332 304.492 703.213 305.975 702.961 308.497C702.709 311.019 702.294 314.564 701.79 318.687L701.775 318.865L701.597 318.969C699.995 319.859 698.364 321.268 697.148 323.004C695.531 325.243 694.76 327.854 694.626 330.242C694.389 332.645 695.012 334.766 695.961 336.309C696.881 337.866 698.008 338.89 698.779 339.557C699.55 340.225 700.04 340.521 700.01 340.566Z" fill="#455A64"/>
<path d="M702.531 310.366C702.339 310.455 701.686 309.506 701.048 308.23C700.425 306.954 700.069 305.842 700.262 305.753C700.455 305.664 701.107 306.613 701.73 307.889C702.383 309.164 702.724 310.277 702.531 310.366Z" fill="#455A64"/>
<path d="M634 297.713L844.858 338.222C859.896 341.115 869.358 354.85 867.653 370.499C867.623 370.721 867.579 370.929 867.534 371.152C864.672 386.726 849.441 396.813 833.914 393.683L627.267 352.002L581.693 315.528L634 297.713Z" fill="#E8505B"/>
<path d="M634 297.713C634 297.713 645.508 302.03 643.135 313.066C640.762 324.101 629.625 323.641 629.625 323.641C629.625 323.641 640.451 326.044 637.44 341.515C635.512 351.483 627.267 352.002 627.267 352.002L581.693 315.528L634 297.713Z" fill="#DEE8F1"/>
<path d="M591.629 323.478C596.078 321.253 597.636 315.365 596.034 310.663L581.723 315.543L591.629 323.478Z" fill="#455A64"/>
<path d="M842.041 366.687C842.041 366.702 841.848 366.672 841.477 366.628C841.077 366.568 840.543 366.465 839.861 366.361C838.392 366.094 836.316 365.723 833.647 365.248C828.248 364.269 820.448 362.801 810.823 360.947C791.573 357.238 765.012 351.913 735.707 345.876C706.431 339.78 679.915 334.262 660.68 330.272C651.114 328.269 643.358 326.638 637.959 325.511C635.305 324.947 633.243 324.502 631.79 324.19C631.123 324.042 630.589 323.923 630.188 323.82C629.832 323.731 629.64 323.686 629.654 323.671C629.654 323.656 629.847 323.686 630.218 323.745C630.618 323.82 631.152 323.909 631.834 324.027C633.303 324.309 635.379 324.71 638.034 325.214C643.462 326.297 651.233 327.825 660.813 329.738C680.063 333.684 706.58 339.127 735.885 345.12C765.19 351.172 791.721 356.571 810.956 360.413C820.537 362.326 828.308 363.869 833.736 364.952C836.39 365.486 838.467 365.916 839.92 366.212C840.602 366.361 841.121 366.464 841.522 366.553C841.848 366.628 842.041 366.672 842.041 366.687Z" fill="#455A64"/>
<path d="M833.928 393.698C849.441 396.828 864.687 386.741 867.549 371.167C867.593 370.944 867.638 370.736 867.668 370.514C869.373 354.865 859.911 341.115 844.873 338.237L833.928 393.698Z" fill="#455A64"/>
<path d="M750.122 306.153C750.122 306.153 737.294 346.633 733.69 347.567C713.713 352.67 690.934 349.406 682.91 347.968C682.006 347.226 680.953 346.321 679.766 345.209C678.743 344.245 677.913 343.117 677.275 341.871C676.504 340.358 675.555 338.311 675.391 337.036C675.184 335.449 673.152 334.944 672.455 336.22C671.758 337.495 672.233 341.871 674.976 346.232C674.976 346.232 658.885 356.437 655.37 356.363C651.856 356.289 641.801 356.022 642.839 357.416C643.892 358.811 655.37 360.724 655.37 360.724L676.148 367.77C676.148 367.77 752.317 388.254 762.743 355.147C769.134 334.855 773.539 322.915 774.533 318.064L750.122 306.153Z" fill="#FFBE9D"/>
<path d="M758.101 278.742C758.101 278.742 774.859 281.753 775.511 309.15C776.164 336.546 765.012 357.416 765.012 357.416L735.529 341.931C742.143 328.521 747.23 314.653 750.404 300.205L758.056 278.727L758.101 278.742Z" fill="#263238"/>
<path d="M749.484 301.748C749.543 301.763 749.469 302.356 749.306 303.424C749.143 304.492 748.846 306.035 748.446 307.933C747.63 311.73 746.266 316.922 744.338 322.514C742.395 328.106 740.245 333.031 738.539 336.516C737.694 338.252 736.967 339.646 736.433 340.595C735.899 341.545 735.588 342.049 735.544 342.034C735.499 342.005 735.722 341.456 736.166 340.462C736.686 339.32 737.308 337.926 738.05 336.294C739.622 332.764 741.669 327.839 743.611 322.262C745.539 316.7 746.978 311.552 747.927 307.8C748.357 306.049 748.728 304.566 749.024 303.35C749.262 302.311 749.44 301.733 749.484 301.748Z" fill="#455A64"/>
</g>
<defs>
<clipPath id="clip0_30_5027">
<rect width="895" height="628" fill="white"/>
</clipPath>
</defs>
</svg>
