<svg width="108" height="96" viewBox="0 0 108 96" fill="none" xmlns="http://www.w3.org/2000/svg">
<path d="M68.5119 75.5053L68.41 95.705C68.41 95.705 34.892 76.7141 44.7305 58.6406L68.5119 75.5053Z" fill="#FF725E"/>
<path d="M65.2371 28.8431C65.2371 28.8431 89.3532 20.003 107.691 36.4307L88.8875 47.0476L65.2371 28.8431Z" fill="#FF725E"/>
<path d="M88.8875 47.0478C88.1161 48.0527 68.4972 75.5051 68.4972 75.5051L17.2378 39.1543C8.28699 32.8046 6.68603 20.1488 13.7739 11.7747C20.2359 4.12879 31.559 2.92001 39.491 9.02217L88.8875 47.0478Z" fill="#F5F5F5"/>
<path d="M88.8875 47.0477C88.902 47.0477 88.7565 46.9312 88.48 46.6982C88.1598 46.4506 87.7378 46.1011 87.1993 45.6788C86.0204 44.7613 84.3466 43.436 82.1926 41.7466C77.7682 38.3096 71.4372 33.3725 63.6216 27.2849C59.6775 24.2265 55.3694 20.8769 50.7412 17.2943C48.4271 15.5029 46.0257 13.6388 43.5515 11.731C42.3144 10.7698 41.0628 9.80857 39.782 8.81824C38.4722 7.8716 37.075 6.93952 35.5177 6.32785C34.7609 5.96376 33.9458 5.75987 33.1454 5.4686C32.3158 5.29384 31.5007 5.04626 30.6421 4.97344C28.9538 4.7113 27.1927 4.74043 25.4608 4.97344C21.9969 5.43948 18.5622 6.9104 15.7823 9.26971C14.356 10.4057 13.1917 11.862 12.1293 13.3767C11.125 14.935 10.3246 16.6389 9.7715 18.4448C8.70905 22.0711 8.7236 26.047 9.90248 29.7316C11.0523 33.2414 13.1772 36.4163 16.0006 38.6591C18.8532 40.8437 21.7204 42.766 24.5148 44.7758C30.1181 48.7371 35.5322 52.5674 40.6989 56.2228C51.0323 63.5192 60.3906 70.1311 68.3517 75.7381L68.5846 75.8983L68.7446 75.6798C74.9883 66.8543 80.0532 59.7035 83.5898 54.7082C85.3072 52.2761 86.6316 50.3683 87.5776 49.0284C88.0143 48.4022 88.349 47.9216 88.5964 47.5575C88.8002 47.2079 88.902 47.0477 88.8875 47.0477C88.8729 47.0477 88.742 47.2225 88.4945 47.5575C88.218 47.9216 87.8687 48.4022 87.403 49.0284C86.4279 50.3537 85.0452 52.247 83.2696 54.6791C79.7039 59.6016 74.5954 66.6504 68.2789 75.3449L68.6573 75.2866C60.7253 69.6359 51.3962 62.9949 41.0919 55.6403C35.9252 51.9703 30.5256 48.1255 24.9369 44.1642C22.1716 42.1544 19.2317 40.2029 16.4664 38.0766C13.7448 35.9212 11.7072 32.8773 10.6011 29.4986C9.46587 25.9596 9.45133 22.1294 10.4701 18.6487C11.0086 16.9156 11.7654 15.2845 12.7405 13.7844C13.7593 12.3281 14.88 10.93 16.2481 9.83769C18.9115 7.56576 22.2007 6.13852 25.5481 5.68705C27.2218 5.46859 28.8956 5.42491 30.5402 5.67249C31.3697 5.74531 32.1557 5.97834 32.9561 6.13854C33.7275 6.40068 34.5134 6.60457 35.2411 6.9541C38.2393 8.16288 40.597 10.3911 43.1003 12.2261C45.56 14.1048 47.9469 15.9399 50.261 17.7166C54.8892 21.2556 59.1972 24.5469 63.1414 27.5616C71.0297 33.5618 77.4189 38.4261 81.887 41.8194C84.0992 43.4796 85.8166 44.7904 87.0246 45.7079C87.5922 46.1302 88.0434 46.4652 88.3781 46.7128C88.7129 46.9313 88.8729 47.0477 88.8875 47.0477Z" fill="#263238"/>
<path d="M64.3349 45.4749L96.3684 68.5291C96.3684 68.5291 94.9858 72.0536 94.1126 71.6895C93.3703 71.3836 69.2542 54.9413 61.4241 49.611C60.1433 48.7372 59.9541 46.9313 61.0165 45.8099C61.8752 44.8778 63.3015 44.7322 64.3349 45.4749Z" fill="#FF725E"/>
<path d="M31.0934 31.0136C30.715 36.9265 35.1831 42.0238 41.0921 42.4024C47.001 42.7811 52.095 38.31 52.4734 32.3972C52.8518 26.4843 48.3837 21.387 42.4747 21.0084C36.5658 20.6152 31.4718 25.1008 31.0934 31.0136Z" fill="white"/>
<path d="M31.0933 31.0134C31.1807 31.0279 31.1952 30.0667 31.7337 28.4647C32.2577 26.9064 33.4948 24.6345 36.0126 23.0034C37.2643 22.2024 38.7925 21.5616 40.5244 21.3722C42.2418 21.1975 44.1629 21.3868 45.9385 22.2024C47.7141 22.9743 49.3733 24.3287 50.4939 26.1346C51.6583 27.9113 52.2259 30.125 52.1094 32.3678C51.9493 34.6106 51.0907 36.7369 49.708 38.3534C48.369 39.9845 46.5498 41.1205 44.6868 41.6594C42.8239 42.2419 40.9028 42.1837 39.2145 41.7905C37.5117 41.3827 36.0708 40.5525 34.9502 39.5913C32.6652 37.6398 31.7337 35.2368 31.4135 33.6203C31.0642 31.96 31.1807 31.0134 31.0933 31.0134C31.0642 31.0134 31.0351 31.2464 31.006 31.6979C30.9624 32.1493 30.9769 32.8193 31.1225 33.6785C31.3699 35.3533 32.2577 37.8874 34.6009 39.9846C35.7652 41.004 37.2788 41.9215 39.0544 42.373C40.83 42.8099 42.8676 42.9119 44.8615 42.3002C46.8554 41.7468 48.8057 40.5526 50.2465 38.8049C51.731 37.0864 52.6479 34.8145 52.8226 32.4115C52.9535 30.0085 52.3277 27.6346 51.0906 25.7413C49.8826 23.8335 48.1071 22.3917 46.2005 21.5761C44.2939 20.7169 42.2709 20.5567 40.4516 20.7606C38.6178 20.979 37.0023 21.6927 35.7215 22.5665C33.1164 24.3432 31.9229 26.7462 31.4572 28.3773C31.2098 29.2075 31.1079 29.8774 31.0933 30.3289C31.0642 30.7658 31.0642 31.0134 31.0933 31.0134Z" fill="#263238"/>
<path d="M14.8508 37.1154C-2.36667 21.0081 0.704239 2.35207 0.704239 2.35207C23.8598 -3.73553 39.4909 9.02221 39.4909 9.02221C24.0781 11.1776 15.8259 20.5275 14.8508 37.1154Z" fill="#FF725E"/>
</svg>
