<svg width="143" height="158" viewBox="0 0 143 158" fill="none" xmlns="http://www.w3.org/2000/svg">
<path d="M101.781 80.3792C111.736 74.6703 122.142 69.4711 133.334 66.9953C134.906 66.6457 136.521 66.3545 138.108 66.602C139.694 66.8496 141.266 67.7234 141.964 69.1652C142.925 71.1605 141.994 73.5343 140.771 75.3839C138.079 79.4472 134.047 82.4181 129.986 85.1124C118.867 92.4962 106.904 98.5109 94.9839 104.497C96.5266 96.006 99.4956 88.6951 101.781 80.3792Z" fill="#FF725E"/>
<path d="M25.4589 102.327C22.2133 113.337 18.2837 124.289 11.909 133.828C11.0213 135.168 10.0461 136.493 8.73626 137.425C7.42639 138.343 5.6799 138.809 4.16627 138.241C2.09959 137.469 1.12447 135.109 0.731506 132.925C-0.127186 128.119 0.731503 123.196 1.80851 118.434C4.74843 105.414 9.23109 92.7876 13.6992 80.2046C18.4729 87.399 21.3692 94.7391 25.4589 102.327Z" fill="#FF725E"/>
<path d="M101.941 80.1609C101.941 80.1609 101.155 156.402 58.3948 157.902C15.6349 159.402 13.8447 80.7143 13.8447 80.1609C13.8447 80.1609 18.895 68.7867 57.8854 69.2382C96.8903 69.6751 101.941 80.1609 101.941 80.1609Z" fill="#FF725E"/>
<path d="M45.136 110.439C45.7327 118.565 52.7915 124.667 60.9127 124.07C69.0338 123.473 75.132 116.41 74.5353 108.283C73.9386 100.157 66.8798 94.0546 58.7587 94.6517C50.6375 95.2342 44.5393 102.312 45.136 110.439Z" fill="#263238"/>
<path d="M49.1238 110.147C49.5604 116.075 54.698 120.517 60.6215 120.08C66.545 119.643 70.984 114.502 70.5474 108.574C70.1108 102.647 64.9732 98.2051 59.0497 98.642C53.1407 99.0643 48.6872 104.22 49.1238 110.147Z" fill="white"/>
<path d="M54.3052 112.099C54.3488 112.07 54.3779 111.443 54.407 110.322C54.4361 109.215 54.4507 107.628 54.4507 105.691L54.3342 105.909C55.9498 104.977 57.8127 103.87 59.8648 102.691H59.5592C61.2911 103.666 63.1686 104.73 65.1334 105.822C65.2789 106.069 64.9296 105.487 64.9733 105.545V105.56V105.589V105.647V105.749V105.953V106.375L64.9879 107.205C65.0024 107.759 65.0024 108.298 65.0169 108.837C65.0315 109.9 65.0606 110.948 65.0752 111.939L65.2207 111.662C63.1977 112.9 61.3639 114.021 59.7629 114.997H60.0104C58.3075 114.079 56.8958 113.351 55.9061 112.842C54.9164 112.346 54.3488 112.07 54.3052 112.099C54.2615 112.128 54.7563 112.448 55.7023 113.016C56.6484 113.584 58.031 114.414 59.7775 115.419L59.8939 115.492L60.0249 115.419C61.6404 114.473 63.5033 113.38 65.5555 112.186L65.701 112.099V111.924C65.6864 110.919 65.6865 109.885 65.6719 108.822C65.6719 108.283 65.6573 107.744 65.6573 107.191L65.6428 106.361V105.938V105.734V105.633V105.574V105.545V105.531C65.6864 105.589 65.3226 104.992 65.4681 105.254C63.5033 104.162 61.6113 103.113 59.8794 102.152L59.7193 102.064L59.5737 102.152C57.5507 103.39 55.7023 104.511 54.1159 105.487L53.9995 105.56V105.691C54.0577 107.701 54.1305 109.317 54.1887 110.424C54.2178 111.531 54.2615 112.128 54.3052 112.099Z" fill="#FF725E"/>
<path d="M102.115 80.0879C102.115 80.0879 102.043 80.1025 101.897 80.1461C101.737 80.2044 101.519 80.2772 101.257 80.3646C100.675 80.5685 99.8449 80.8598 98.7825 81.2384C98.244 81.4277 97.6473 81.6462 96.9923 81.8792C96.3374 82.0977 95.6097 82.3016 94.8383 82.5491C93.281 83.0152 91.5345 83.6123 89.5552 84.0783C88.5655 84.3259 87.5322 84.6026 86.4552 84.8793C85.3782 85.156 84.2284 85.3599 83.0641 85.6075C80.7209 86.1464 78.1884 86.5104 75.525 86.9474C70.1837 87.6755 64.2747 88.1707 58.0456 88.1998C51.8165 88.1707 45.9075 87.6755 40.5661 86.9474C37.9027 86.5104 35.3703 86.1464 33.0271 85.6221C31.8628 85.3745 30.713 85.1706 29.636 84.8939C28.559 84.6172 27.5257 84.355 26.536 84.0929C24.5566 83.6269 22.7956 83.0297 21.2529 82.5637C20.4815 82.3161 19.7538 82.1122 19.0989 81.8938C18.4439 81.6608 17.8472 81.4423 17.3087 81.253C16.2463 80.8743 15.4167 80.5831 14.8345 80.3792C14.558 80.2918 14.3397 80.219 14.1941 80.1607C14.0486 80.117 13.9758 80.0879 13.9758 80.1025C13.9758 80.1025 14.0486 80.1461 14.1941 80.1898C14.3542 80.2481 14.558 80.3355 14.8345 80.4374C15.4167 80.6559 16.2317 80.9617 17.2942 81.3695C17.8327 81.5734 18.4294 81.7918 19.0698 82.0394C19.7247 82.2724 20.4524 82.4763 21.2238 82.7385C22.781 83.2191 24.513 83.8307 26.5069 84.3113C27.4966 84.5735 28.5299 84.8502 29.6069 85.1269C30.6839 85.4036 31.8337 85.6075 32.998 85.8696C35.3412 86.4231 37.8736 86.7872 40.537 87.2386C45.8929 87.9814 51.8164 88.4911 58.0601 88.5057C64.2893 88.4765 70.2274 87.9668 75.5687 87.2241C78.2321 86.7872 80.7791 86.4085 83.1077 85.8551C84.2866 85.5929 85.4218 85.3891 86.4988 85.1123C87.5758 84.8356 88.6092 84.5589 89.5989 84.2968C91.5782 83.8162 93.3247 83.2045 94.882 82.7239C95.6534 82.4763 96.3811 82.2579 97.036 82.0249C97.6909 81.7773 98.2731 81.5588 98.8116 81.3549C99.874 80.9617 100.689 80.6413 101.271 80.4229C101.533 80.3209 101.752 80.2335 101.912 80.1753C102.043 80.117 102.115 80.0879 102.115 80.0879Z" fill="#263238"/>
<g opacity="0.3">
<path opacity="0.3" d="M101.941 80.1609C101.941 80.1609 96.8904 69.6751 57.9 69.2382C18.9096 68.7867 13.8594 80.1609 13.8594 80.1609C13.8594 80.1609 53.1845 99.5742 101.941 80.1609Z" fill="black"/>
</g>
<path d="M88.5217 134.41C88.5217 134.41 88.5508 134.381 88.5945 134.294C88.6527 134.206 88.7109 134.09 88.7837 133.944C88.9583 133.609 89.1912 133.172 89.4823 132.604C89.6278 132.313 89.8025 131.992 89.9771 131.628C90.1518 131.264 90.3264 130.871 90.5302 130.449C90.9232 129.604 91.3743 128.643 91.7964 127.551C92.0147 127.012 92.2476 126.444 92.495 125.847C92.7133 125.25 92.9462 124.623 93.1936 123.982C93.6884 122.701 94.1105 121.288 94.6199 119.817C95.5368 116.861 96.4246 113.569 97.2105 110.074C97.9819 106.579 98.564 103.229 99.0298 100.156C99.4518 97.0834 99.8011 94.3164 99.9758 91.9862C100.092 90.8211 100.15 89.7579 100.209 88.8404C100.267 87.9084 100.311 87.1074 100.34 86.452C100.354 85.8112 100.383 85.316 100.383 84.9374C100.383 84.7772 100.383 84.6461 100.383 84.5442C100.383 84.4568 100.383 84.4131 100.369 84.4131C100.354 84.4131 100.354 84.4568 100.34 84.5442C100.325 84.6461 100.325 84.7772 100.311 84.9374C100.281 85.3015 100.252 85.8112 100.209 86.4374C100.165 87.0928 100.107 87.8938 100.034 88.8113C99.9612 89.7434 99.8739 90.792 99.7575 91.957C99.5392 94.2872 99.1899 97.0543 98.7387 100.113C98.2584 103.171 97.6617 106.521 96.9049 110.001C96.1189 113.482 95.2457 116.759 94.3434 119.73C93.8485 121.201 93.441 122.613 92.9462 123.895C92.7133 124.536 92.495 125.162 92.2767 125.774C92.0438 126.371 91.8109 126.939 91.5926 127.478C91.1706 128.57 90.7485 129.531 90.3701 130.376C90.1809 130.798 90.0062 131.191 89.8462 131.556C89.6715 131.905 89.5114 132.24 89.3659 132.531C89.0893 133.099 88.871 133.551 88.7109 133.886C88.6527 134.031 88.5945 134.148 88.5508 134.25C88.5363 134.366 88.5217 134.41 88.5217 134.41Z" fill="white"/>
<path d="M67.9277 152.746C67.9277 152.76 68.1751 152.731 68.6117 152.658C69.0483 152.585 69.6741 152.44 70.431 152.221C71.1878 152.003 72.0756 151.668 73.0216 151.231C73.9676 150.78 74.9718 150.212 75.9615 149.527C76.9512 148.828 77.8245 148.071 78.5667 147.343C79.2944 146.6 79.9202 145.886 80.386 145.245C80.8517 144.605 81.201 144.066 81.4193 143.687C81.6376 143.308 81.7395 143.09 81.725 143.075C81.6813 143.046 81.1865 143.891 80.2259 145.114C79.7456 145.726 79.1198 146.425 78.3921 147.153C77.6498 147.867 76.7766 148.61 75.816 149.294C74.8409 149.979 73.8512 150.532 72.9343 150.998C72.0028 151.449 71.1441 151.799 70.4019 152.047C68.8737 152.513 67.9131 152.687 67.9277 152.746Z" fill="white"/>
<path d="M59.0061 125.847C59.0061 125.861 59.1516 125.876 59.4136 125.89C59.6756 125.89 60.0831 125.949 60.5925 125.92C61.6113 125.92 63.0958 125.759 64.8569 125.235C65.7301 124.973 66.6615 124.594 67.6367 124.114C68.5827 123.604 69.5869 123.021 70.5184 122.249C72.425 120.749 74.186 118.652 75.3212 116.074C76.4273 113.482 76.7475 110.759 76.5438 108.341C76.4565 107.132 76.209 105.996 75.9325 104.962C75.6123 103.928 75.263 102.996 74.8555 102.166C74.0405 100.521 73.1527 99.3263 72.4541 98.5836C72.1339 98.1904 71.8137 97.9428 71.6245 97.7535C71.4353 97.5641 71.3188 97.4767 71.3188 97.4913C71.2897 97.5204 71.7118 97.8991 72.3667 98.671C73.0362 99.4428 73.8804 100.637 74.6663 102.268C75.0593 103.084 75.394 104.016 75.6996 105.035C75.9616 106.069 76.1945 107.176 76.2673 108.37C76.4565 110.744 76.1217 113.424 75.0447 115.958C73.924 118.477 72.2066 120.546 70.3437 122.031C69.4268 122.788 68.4517 123.371 67.5202 123.895C66.5742 124.376 65.6573 124.769 64.7986 125.031C63.0812 125.57 61.6113 125.774 60.5925 125.803C59.5737 125.847 59.0061 125.818 59.0061 125.847Z" fill="white"/>
<path d="M60.8543 0.876289C60.8543 0.876289 98.1273 0.424822 104.036 32.7415C109.931 65.0436 78.4065 65.6553 69.3393 66.267C65.2205 66.5437 56.4298 66.5728 48.6725 66.4418C31.4841 66.1359 19.346 62.8154 15.2127 46.8682C14.7324 45.0041 14.4122 43.0963 14.2812 41.1593C13.1897 23.6538 25.0221 0.0170348 60.8543 0.876289Z" fill="#FF725E"/>
<path d="M33.8128 50.0866L87.9686 50.9313C93.6447 51.0187 98.3165 46.4894 98.4038 40.8095C98.4912 35.1297 93.9649 30.4548 88.2888 30.3674L34.133 29.5227C28.4569 29.4353 23.7851 33.9646 23.6977 39.6445C23.5958 45.3243 28.1367 49.9992 33.8128 50.0866Z" fill="#263238"/>
<path d="M76.7328 39.6883C77.0821 41.4796 78.814 42.6447 80.6042 42.2952C82.3943 41.9457 83.5587 40.2126 83.2094 38.4213C82.8601 36.6299 81.1281 35.4648 79.338 35.8144C77.5478 36.1639 76.3835 37.897 76.7328 39.6883Z" fill="white"/>
<path d="M38.8922 39.0765C39.2415 40.8678 40.9734 42.0329 42.7636 41.6834C44.5538 41.3338 45.7181 39.6008 45.3688 37.8094C45.0195 36.0181 43.2875 34.853 41.4974 35.2026C39.7072 35.5521 38.5429 37.2997 38.8922 39.0765Z" fill="white"/>
<path d="M67.2435 38.1592C66.996 38.1884 67.127 39.3389 66.3993 40.8681C66.05 41.6254 65.4678 42.4701 64.6528 43.1691C63.8378 43.8828 62.7462 44.4216 61.5528 44.5381C60.3594 44.6401 59.1805 44.2905 58.249 43.7517C57.303 43.1983 56.5898 42.4846 56.1096 41.8001C55.1199 40.4166 55.0326 39.2661 54.7851 39.2806C54.6833 39.2806 54.5959 39.5719 54.5959 40.1253C54.5959 40.6642 54.756 41.4652 55.1926 42.3536C55.6293 43.242 56.4007 44.1886 57.5068 44.9313C58.5983 45.6741 60.0828 46.1838 61.6838 46.0527C63.2702 45.8925 64.6383 45.1207 65.5843 44.2031C66.5449 43.2711 67.127 42.1934 67.389 41.2467C67.6655 40.3001 67.6801 39.4845 67.5782 38.9457C67.4909 38.4214 67.3453 38.1447 67.2435 38.1592Z" fill="white"/>
<path d="M65.5698 3.29395C65.5698 3.29395 65.6135 3.30851 65.7008 3.32307C65.8027 3.33764 65.9337 3.33764 66.0938 3.3522C66.4431 3.38133 66.9525 3.39589 67.6074 3.48327C68.9173 3.59978 70.8093 3.86193 73.1088 4.40078C75.4084 4.92507 78.0863 5.79889 80.9098 7.09505C83.7333 8.40578 86.6732 10.1825 89.4531 12.469C92.2183 14.7701 94.5325 17.3187 96.3517 19.8528C98.171 22.3723 99.5245 24.8481 100.485 27.0035C101.446 29.159 102.057 30.9648 102.421 32.2319C102.625 32.8581 102.726 33.3678 102.828 33.6882C102.872 33.8339 102.916 33.965 102.945 34.0669C102.974 34.1543 102.988 34.198 102.988 34.198C102.988 34.198 102.988 34.1543 102.974 34.0669C102.959 33.965 102.93 33.8339 102.886 33.6737C102.799 33.3387 102.712 32.829 102.537 32.1882C102.202 30.9066 101.62 29.0716 100.674 26.9016C99.7428 24.7316 98.3893 22.2267 96.57 19.678C94.7508 17.1294 92.4221 14.5371 89.6423 12.2215C86.8479 9.9204 83.8643 8.12907 81.0117 6.83291C78.1591 5.52218 75.452 4.67749 73.1379 4.18233C70.8238 3.6726 68.9173 3.43959 67.5928 3.36677C66.9379 3.30851 66.414 3.30851 66.0647 3.29395C65.9046 3.29395 65.7736 3.29395 65.6717 3.29395C65.6135 3.29395 65.5698 3.29395 65.5698 3.29395Z" fill="white"/>
<path d="M102.042 48.0477C102.072 48.0623 102.305 47.6254 102.567 46.8826C102.843 46.1399 103.135 45.0913 103.324 43.8971C103.513 42.7029 103.542 41.6106 103.513 40.8242C103.484 40.0377 103.397 39.5571 103.368 39.5571C103.266 39.5571 103.411 41.5086 103.033 43.8534C102.683 46.2127 101.955 48.0186 102.042 48.0477Z" fill="white"/>
<path d="M42.7637 27.6299C42.7637 27.7173 49.8952 27.7756 58.7004 27.7756C67.5056 27.7756 74.6371 27.7027 74.6371 27.6299C74.6371 27.5425 67.5056 27.4843 58.7004 27.4843C49.8952 27.4697 42.7637 27.5425 42.7637 27.6299Z" fill="white"/>
<path d="M69.9507 63.9807C69.9507 63.9953 70.038 64.0098 70.2126 64.0244C70.431 64.039 70.6784 64.0681 70.984 64.0972C71.3188 64.1263 71.7408 64.1555 72.2211 64.1555C72.7014 64.17 73.2544 64.1992 73.8512 64.17C75.0592 64.17 76.5 64.0826 78.101 63.9079C79.6874 63.7186 81.4338 63.4418 83.2385 63.0195C85.0433 62.5826 86.7315 62.0583 88.2306 61.5194C89.7297 60.9515 91.0687 60.3835 92.1457 59.8446C92.6987 59.597 93.179 59.3203 93.6011 59.1019C94.0231 58.8834 94.387 58.665 94.6781 58.4902C94.94 58.33 95.1583 58.1989 95.3476 58.0824C95.4931 57.9805 95.5804 57.9368 95.5659 57.9222C95.5513 57.9077 95.4785 57.9514 95.3184 58.0242C95.1292 58.1261 94.8964 58.2426 94.6198 58.3737C94.3288 58.5339 93.9504 58.7232 93.5283 58.9271C93.0917 59.131 92.6114 59.3932 92.0583 59.6262C90.9668 60.1359 89.6424 60.6893 88.1433 61.2282C86.6442 61.7525 84.9559 62.2622 83.1658 62.6991C81.3756 63.1215 79.6437 63.3982 78.0573 63.602C76.4709 63.7914 75.0446 63.8933 73.8366 63.9225C73.2399 63.9516 72.6868 63.937 72.2065 63.9516C71.7263 63.9661 71.3188 63.9516 70.9695 63.937C70.6638 63.937 70.4019 63.9225 70.1981 63.9225C70.038 63.9661 69.9507 63.9661 69.9507 63.9807Z" fill="white"/>
<path d="M24.3674 84.8066C24.3674 84.8066 24.4111 84.8358 24.513 84.8649C24.6294 84.9086 24.7604 84.9523 24.935 85.0251C25.328 85.1707 25.8665 85.3601 26.5505 85.6076C27.2491 85.8552 28.1078 86.1611 29.1266 86.4523C30.1454 86.7582 31.2806 87.1368 32.5759 87.4572C33.2163 87.632 33.9004 87.8067 34.599 87.9961C35.2976 88.1854 36.0398 88.331 36.8112 88.5058C38.3394 88.8699 39.984 89.1612 41.7159 89.4961C45.1943 90.0787 49.0366 90.5738 53.0972 90.836C57.1578 91.069 61.0437 91.0544 64.5658 90.8942C66.3269 90.7777 68.0006 90.6904 69.5579 90.5156C70.3438 90.4282 71.0861 90.3699 71.8138 90.2826C72.5269 90.1806 73.2255 90.0932 73.8805 90.0059C75.2049 89.8457 76.3838 89.6126 77.4317 89.4379C78.4795 89.2631 79.3673 89.0738 80.095 88.9136C80.8082 88.7534 81.3613 88.6369 81.7688 88.5349C81.9434 88.4912 82.089 88.4621 82.2054 88.433C82.3073 88.4039 82.3509 88.3893 82.3509 88.3893C82.3509 88.3893 82.2927 88.3893 82.2054 88.4039C82.089 88.4184 81.9434 88.4475 81.7688 88.4767C81.3613 88.5495 80.7936 88.666 80.0805 88.7971C79.3528 88.9427 78.4504 89.1175 77.4171 89.2631C76.3692 89.4233 75.1903 89.6418 73.8659 89.7874C73.211 89.8748 72.5124 89.9622 71.7992 90.0496C71.0861 90.1369 70.3292 90.1952 69.5433 90.268C67.986 90.4428 66.3123 90.5156 64.5658 90.6175C61.0583 90.7632 57.1869 90.7632 53.1263 90.5302C49.0803 90.268 45.238 89.7874 41.7741 89.2194C40.0422 88.899 38.3976 88.6223 36.8694 88.2582C36.1126 88.0835 35.3703 87.9378 34.6572 87.7631C33.9586 87.5883 33.2745 87.4135 32.6342 87.2533C31.3388 86.9475 30.1891 86.5834 29.1703 86.2921C28.1515 86.0154 27.2782 85.7241 26.5796 85.4911C25.8811 85.2727 25.3426 85.0979 24.9496 84.9668C24.7749 84.9086 24.6294 84.8795 24.5275 84.8358C24.4111 84.8212 24.3674 84.8066 24.3674 84.8066Z" fill="white"/>
</svg>
