<svg width="650" height="676" viewBox="0 0 650 676" fill="none" xmlns="http://www.w3.org/2000/svg">
<title>Techonologies We Deploy</title>
<g clip-path="url(#clip0_28_2762)">
<path d="M393.295 658.64C393.295 662.63 367.913 665.864 336.592 665.864C305.272 665.864 279.89 662.63 279.89 658.64C279.89 654.65 305.272 651.417 336.592 651.417C367.913 651.431 393.295 654.65 393.295 658.64Z" fill="#C7E0F6"/>
<path d="M224.977 191.046C229.722 188.177 234.772 186.007 239.982 184.521L243.068 169.652L268.159 169.215L271.769 183.953C277.023 185.249 282.16 187.245 286.992 189.953L299.683 181.638L317.745 199.085L309.886 212.061C312.753 216.809 314.921 221.862 316.406 227.076L331.266 230.164L331.702 255.271L316.974 258.883C315.678 264.141 313.684 269.267 310.977 274.117L319.288 286.816L301.852 304.89L288.884 297.025C284.14 299.894 279.089 302.064 273.879 303.55L270.793 318.419L245.702 318.856L242.093 304.103C236.839 302.807 231.716 300.812 226.869 298.103L214.193 306.419L196.131 288.972L203.99 275.995C201.123 271.248 198.954 266.194 197.47 260.98L182.61 257.893L182.174 232.785L196.902 229.173C198.198 223.916 200.192 218.789 202.899 213.94L194.588 201.24L212.024 183.167L224.977 191.046ZM238.367 224.498C228.034 235.203 228.339 252.257 239.036 262.597C249.734 272.937 266.776 272.631 277.11 261.927C287.443 251.223 287.138 234.169 276.44 223.828C265.743 213.503 248.686 213.794 238.367 224.498Z" fill="#C7E0F6"/>
<path opacity="0.25" d="M372.599 234.868C376.587 233.484 380.706 232.669 384.825 232.392L389.496 221.804L408.271 225.474L408.621 237.038C412.332 238.844 415.839 241.145 419.027 243.926L429.811 239.747L440.494 255.635L432.577 264.053C433.959 268.058 434.774 272.165 435.051 276.287L445.632 280.962L441.964 299.749L430.408 300.098C428.603 303.812 426.304 307.322 423.524 310.497L427.701 321.288L411.837 331.978L403.425 324.055C399.437 325.439 395.318 326.255 391.199 326.531L386.527 337.119L367.753 333.449L367.403 321.885C363.692 320.08 360.185 317.778 356.997 314.997L346.213 319.177L335.53 303.302L343.447 294.884C342.065 290.894 341.25 286.773 340.973 282.651L330.392 277.976L334.06 259.189L345.616 258.839C347.421 255.126 349.72 251.616 352.5 248.441L348.323 237.649L364.187 226.96L372.599 234.868ZM377.242 261.927C367.84 268.262 365.351 281.034 371.682 290.443C378.013 299.851 390.777 302.341 400.179 296.006C409.581 289.671 412.07 276.898 405.739 267.49C399.408 258.082 386.644 255.592 377.242 261.927Z" fill="#FF725E"/>
<path d="M438.398 32.1421C438.398 32.1421 438.515 32.2149 438.747 32.3897C438.966 32.5644 439.286 32.8411 439.723 33.1615C440.596 33.8315 441.906 34.7781 443.71 35.8267C445.515 36.8753 447.829 37.9821 450.653 38.8414C453.476 39.7006 456.838 40.2686 460.564 40.1521C464.29 40.0647 468.321 39.3511 472.673 38.6957C477.01 38.0112 481.769 37.6471 486.703 38.2443C491.637 38.8268 496.731 40.2103 501.592 42.5696C506.453 44.929 511.067 48.2932 514.865 52.5894C518.679 56.8857 521.517 61.8228 523.307 66.9346C525.111 72.0319 525.81 77.3185 525.577 82.2701C525.403 87.2363 524.704 91.8967 524.573 96.2657C524.398 100.649 524.937 104.742 526.13 108.266C527.295 111.805 528.954 114.776 530.7 117.165C532.432 119.568 534.237 121.388 535.823 122.742C536.595 123.441 537.366 123.966 537.992 124.461C538.661 124.912 539.214 125.306 539.68 125.597C540.131 125.874 540.495 126.092 540.757 126.238C540.99 126.383 541.121 126.471 541.121 126.471C541.121 126.485 540.99 126.412 540.743 126.281C540.481 126.136 540.117 125.932 539.651 125.67C539.171 125.393 538.618 125.014 537.934 124.577C537.293 124.097 536.507 123.573 535.721 122.873C534.12 121.534 532.272 119.713 530.496 117.31C528.721 114.922 527.018 111.936 525.825 108.368C524.588 104.815 524.034 100.664 524.18 96.2512C524.282 91.8384 524.966 87.1635 525.141 82.241C525.344 77.3185 524.66 72.1193 522.856 67.0802C521.08 62.0412 518.271 57.1478 514.502 52.9098C510.747 48.6572 506.191 45.3367 501.374 42.992C496.556 40.6473 491.521 39.2637 486.645 38.6812C481.755 38.084 477.054 38.419 472.717 39.0889C468.38 39.7297 464.319 40.4288 460.564 40.487C456.809 40.589 453.403 39.9919 450.565 39.1035C447.727 38.2006 445.399 37.0646 443.609 35.9869C441.804 34.9092 440.509 33.9334 439.65 33.2344C439.213 32.8848 438.908 32.6081 438.704 32.4188C438.5 32.244 438.384 32.1421 438.398 32.1421Z" fill="#9ECFFA"/>
<path d="M463.3 0C463.3 0 465.09 1.52918 467.943 4.71862C469.355 6.32061 471.029 8.33039 472.673 10.879C474.318 13.4131 475.991 16.5152 476.85 20.2726C477.068 21.2046 477.214 22.1804 477.301 23.1853C477.36 24.1902 477.36 25.2096 477.345 26.2582C477.301 28.3408 477.272 30.4962 477.229 32.739C477.127 37.2101 476.981 42.0015 477.068 47.026C477.17 52.0358 478.087 57.2933 480.037 62.376C481.973 67.4587 484.942 72.3958 489.003 76.5027C493.063 80.6097 497.983 83.6389 503.12 85.4302C508.258 87.2216 513.614 87.7604 518.577 87.0614C523.54 86.3914 528.124 84.9205 532.549 84.1341C534.761 83.7409 536.929 83.4933 539.025 83.5224C541.121 83.5661 543.115 83.77 544.992 84.1778C548.733 84.9788 551.949 86.406 554.554 87.9352C557.174 89.4935 559.183 91.1974 560.667 92.7266C562.166 94.2412 563.17 95.5811 563.811 96.4986C564.102 96.9501 564.335 97.3142 564.509 97.5763C564.67 97.8239 564.728 97.955 564.728 97.955C564.728 97.955 564.626 97.8384 564.466 97.6054C564.291 97.3578 564.044 97.0083 563.738 96.5714C563.069 95.6685 562.05 94.3723 560.536 92.8868C559.037 91.3868 557.029 89.712 554.423 88.1973C551.818 86.6973 548.645 85.3137 544.934 84.5419C543.086 84.1486 541.106 83.9593 539.04 83.9302C536.973 83.9156 534.834 84.1632 532.636 84.571C528.241 85.3574 523.671 86.8429 518.649 87.542C513.628 88.2701 508.185 87.7313 502.975 85.9254C497.764 84.1195 492.787 81.0466 488.668 76.8814C484.549 72.7162 481.551 67.7209 479.601 62.5799C477.651 57.4244 476.719 52.1087 476.632 47.0551C476.559 42.0161 476.719 37.2246 476.836 32.7536C476.894 30.5108 476.938 28.3554 476.981 26.2728C477.01 25.2388 477.01 24.2193 476.952 23.229C476.865 22.2532 476.748 21.292 476.53 20.3745C475.7 16.6754 474.07 13.6024 472.455 11.0538C470.839 8.50516 469.195 6.48081 467.812 4.86425C466.429 3.24769 465.28 2.06804 464.508 1.25247C464.13 0.859254 463.839 0.567981 463.62 0.334963C463.388 0.116509 463.3 0 463.3 0Z" fill="#9ECFFA"/>
<path d="M477.156 24.5836C477.258 24.671 474.347 28.3265 470.65 32.7538C466.953 37.1812 463.868 40.691 463.766 40.6036C463.664 40.5162 466.575 36.8608 470.272 32.4334C473.968 28.0206 477.054 24.4962 477.156 24.5836Z" fill="#9ECFFA"/>
<path d="M474.667 15.3063C474.769 15.4082 469.689 20.7094 463.315 27.1756C456.955 33.6273 451.715 38.7828 451.613 38.6955C451.511 38.5935 456.591 33.2924 462.966 26.8261C469.326 20.3744 474.565 15.2189 474.667 15.3063Z" fill="#9ECFFA"/>
<path d="M469.471 6.69949C469.573 6.80143 463.402 13.122 455.703 20.8262C448.004 28.5304 441.687 34.7053 441.585 34.6034C441.484 34.5015 447.655 28.1808 455.354 20.4767C463.053 12.7725 469.369 6.59754 469.471 6.69949Z" fill="#9ECFFA"/>
<path d="M524.733 73.3423C524.82 73.4443 521.225 76.6919 516.699 80.5804C512.173 84.4835 508.432 87.5564 508.345 87.4399C508.258 87.338 511.853 84.0903 516.379 80.2018C520.905 76.3133 524.646 73.2404 524.733 73.3423Z" fill="#9ECFFA"/>
<path d="M519.93 60.5993C519.959 60.6284 519.654 60.9633 519.1 61.5313C518.547 62.1139 517.718 62.944 516.685 63.9489C514.618 65.9587 511.692 68.6821 508.389 71.5948C505.085 74.5075 501.999 77.0416 499.744 78.8475C498.608 79.7504 497.691 80.464 497.037 80.9446C496.382 81.4252 496.018 81.6874 496.003 81.6583C495.989 81.6291 496.309 81.3233 496.92 80.799C497.604 80.2165 498.477 79.4737 499.525 78.5853C501.723 76.7212 504.765 74.1434 508.068 71.2307C511.372 68.3325 514.312 65.6528 516.452 63.7013C517.456 62.7838 518.315 62.0119 518.984 61.4003C519.566 60.8468 519.901 60.5701 519.93 60.5993Z" fill="#9ECFFA"/>
<path d="M512.566 50.798C512.58 50.8271 512.217 51.1475 511.518 51.7301C510.747 52.3563 509.757 53.1719 508.563 54.1476C506.06 56.1865 502.64 59.0264 498.943 62.2741C495.246 65.5218 491.986 68.551 489.658 70.7793C488.537 71.8424 487.605 72.7308 486.892 73.4153C486.237 74.0415 485.859 74.3619 485.83 74.3474C485.801 74.3182 486.136 73.9396 486.747 73.2842C487.358 72.6143 488.275 71.6822 489.41 70.5463C491.695 68.2598 494.912 65.1723 498.623 61.9246C502.32 58.6769 505.798 55.8661 508.345 53.9C509.626 52.9097 510.674 52.1378 511.401 51.6135C512.129 51.0456 512.551 50.7689 512.566 50.798Z" fill="#9ECFFA"/>
<path d="M500.384 44.1715C500.413 44.2006 500.137 44.4774 499.627 44.958C499.03 45.4968 498.317 46.1667 497.459 46.9532C495.625 48.628 493.092 50.9582 490.356 53.5942C487.62 56.2156 485.175 58.6332 483.414 60.3954C482.584 61.211 481.886 61.91 481.318 62.478C480.823 62.9586 480.532 63.2207 480.503 63.1916C480.474 63.1625 480.721 62.8712 481.173 62.3324C481.624 61.8081 482.308 61.0508 483.152 60.1478C484.855 58.3274 487.256 55.8661 490.007 53.2301C492.758 50.6086 495.319 48.3076 497.226 46.691C498.172 45.8755 498.958 45.2347 499.496 44.8123C500.049 44.3608 500.369 44.1424 500.384 44.1715Z" fill="#9ECFFA"/>
<path d="M490.953 38.9432C491.04 39.0451 488.071 41.9578 484.331 45.4531C480.576 48.9484 477.461 51.7009 477.36 51.599C477.272 51.497 480.227 48.5843 483.982 45.089C487.737 41.5938 490.851 38.8412 490.953 38.9432Z" fill="#9ECFFA"/>
<path d="M542.897 83.7264C542.926 83.7555 542.678 84.0031 542.227 84.44C541.689 84.9497 541.034 85.5468 540.291 86.2459C538.545 87.8479 536.318 89.9159 533.859 92.1878C531.413 94.4889 529.201 96.5569 527.469 98.1735C526.712 98.8726 526.058 99.4842 525.519 99.9794C525.053 100.402 524.791 100.62 524.762 100.591C524.733 100.562 524.966 100.3 525.388 99.8338C525.81 99.3677 526.436 98.7124 527.222 97.9114C528.794 96.3094 531.006 94.1394 533.509 91.8092C536.013 89.479 538.341 87.4255 540.044 85.9692C540.903 85.241 541.601 84.6584 542.096 84.2798C542.591 83.9011 542.882 83.6973 542.897 83.7264Z" fill="#9ECFFA"/>
<path d="M554.773 88.2118C554.86 88.3138 548.922 94.0082 541.485 100.94C534.048 107.873 527.95 113.407 527.862 113.305C527.775 113.203 533.713 107.509 541.15 100.576C548.587 93.6441 554.685 88.1099 554.773 88.2118Z" fill="#9ECFFA"/>
<path d="M562.952 92.7849C563.054 92.8869 556.65 99.3677 548.645 107.276C540.641 115.184 534.091 121.519 533.989 121.417C533.888 121.315 540.291 114.834 548.296 106.912C556.286 99.0181 562.85 92.683 562.952 92.7849Z" fill="#9ECFFA"/>
<path d="M574.261 521.524C574.261 521.524 574.348 521.32 574.537 520.927C574.581 520.825 574.639 520.723 574.697 520.606C574.755 520.49 574.785 520.344 574.843 520.184C574.945 519.878 575.076 519.528 575.134 519.121C575.178 518.917 575.221 518.698 575.25 518.465C575.265 518.232 575.279 517.985 575.309 517.722C575.338 517.46 575.323 517.198 575.309 516.907C575.294 516.63 575.309 516.324 575.25 516.019C575.148 514.795 574.785 513.412 574.231 511.912C573.14 508.897 571.102 505.504 568.293 501.936C565.499 498.353 561.875 494.625 557.582 490.823C553.288 487.037 548.282 483.236 542.664 479.537C537.031 475.837 530.788 472.255 523.933 469.036C520.512 467.434 516.932 465.92 513.206 464.58C509.48 463.225 505.609 462.046 501.592 461.143C497.575 460.269 493.413 459.643 489.163 459.788C487.052 459.876 484.913 460.152 482.89 460.866C481.886 461.23 480.925 461.711 480.052 462.337C479.193 462.992 478.451 463.779 477.883 464.696C477.359 465.628 477.025 466.662 476.865 467.726C476.748 468.789 476.777 469.866 476.952 470.93C477.287 473.041 478.102 475.051 479.033 476.944C480.954 480.731 483.53 484.081 486.237 487.168C488.959 490.256 491.87 493.066 494.868 495.673C497.852 498.28 500.908 500.683 503.964 502.897C510.092 507.339 516.263 511.067 522.215 514.213C528.168 517.344 533.917 519.878 539.316 521.8C544.701 523.723 549.722 525.077 554.205 525.791C558.688 526.519 562.646 526.65 565.805 526.155C567.377 525.907 568.759 525.543 569.894 525.048C570.185 524.946 570.433 524.786 570.695 524.669C570.942 524.538 571.19 524.422 571.408 524.276C571.626 524.131 571.83 523.999 572.034 523.868C572.223 523.723 572.383 523.577 572.543 523.446C572.878 523.184 573.125 522.907 573.329 522.674C573.431 522.558 573.547 522.456 573.62 522.354C573.693 522.237 573.766 522.15 573.824 522.062C574.13 521.698 574.261 521.524 574.261 521.524C574.261 521.524 574.144 521.713 573.897 522.077C573.839 522.164 573.766 522.266 573.693 522.383C573.606 522.485 573.504 522.601 573.402 522.718C573.184 522.951 572.951 523.242 572.616 523.504C572.456 523.635 572.281 523.796 572.107 523.941C571.903 524.072 571.699 524.203 571.481 524.349C571.262 524.509 571.03 524.626 570.768 524.757C570.506 524.873 570.258 525.048 569.967 525.15C568.832 525.66 567.449 526.024 565.863 526.286C562.69 526.796 558.717 526.679 554.22 525.966C549.722 525.266 544.687 523.912 539.287 522.004C533.888 520.096 528.124 517.562 522.157 514.431C516.19 511.3 510.004 507.572 503.862 503.13C500.792 500.902 497.735 498.499 494.737 495.892C491.739 493.285 488.828 490.459 486.092 487.372C483.37 484.27 480.794 480.906 478.859 477.09C477.913 475.182 477.097 473.158 476.748 471.002C476.574 469.925 476.53 468.818 476.661 467.726C476.821 466.633 477.156 465.57 477.709 464.594C478.291 463.648 479.062 462.832 479.936 462.162C480.838 461.521 481.813 461.026 482.846 460.662C484.898 459.919 487.067 459.657 489.192 459.57C493.471 459.424 497.662 460.05 501.679 460.924C505.711 461.827 509.597 463.007 513.323 464.376C517.048 465.73 520.629 467.245 524.064 468.847C530.919 472.08 537.177 475.677 542.809 479.376C548.427 483.09 553.448 486.906 557.727 490.707C562.006 494.508 565.63 498.266 568.424 501.863C571.219 505.46 573.256 508.868 574.348 511.897C574.886 513.412 575.236 514.795 575.338 516.033C575.381 516.339 575.367 516.645 575.381 516.922C575.396 517.213 575.396 517.475 575.367 517.737C575.352 517.999 575.323 518.247 575.309 518.48C575.279 518.713 575.221 518.931 575.178 519.135C575.119 519.558 574.974 519.907 574.872 520.213C574.814 520.359 574.77 520.504 574.726 520.635C574.668 520.752 574.61 520.868 574.566 520.956C574.362 521.32 574.261 521.524 574.261 521.524Z" fill="#5A93C5"/>
<path d="M582.149 481.954C582.149 481.954 582.076 481.736 581.96 481.328C581.931 481.226 581.901 481.11 581.858 480.979C581.814 480.848 581.741 480.717 581.683 480.571C581.552 480.28 581.421 479.93 581.188 479.581C581.072 479.406 580.97 479.202 580.839 479.013C580.693 478.823 580.548 478.634 580.388 478.43C580.242 478.212 580.053 478.022 579.849 477.818C579.646 477.615 579.456 477.382 579.224 477.192C578.321 476.348 577.142 475.546 575.73 474.804C572.907 473.289 569.123 472.109 564.655 471.308C560.187 470.493 554.991 470.129 549.271 470.143C543.551 470.173 537.279 470.668 530.627 471.658C523.976 472.648 516.917 474.134 509.67 476.289C506.046 477.367 502.378 478.634 498.696 480.105C495.014 481.576 491.346 483.265 487.751 485.275C484.171 487.299 480.649 489.615 477.578 492.542C476.064 494.013 474.638 495.644 473.619 497.523C473.11 498.47 472.717 499.475 472.484 500.509C472.28 501.557 472.251 502.649 472.44 503.713C472.673 504.761 473.11 505.751 473.706 506.654C474.332 507.528 475.074 508.315 475.904 508.985C477.563 510.339 479.499 511.3 481.464 512.087C485.422 513.63 489.57 514.417 493.645 514.927C497.735 515.407 501.781 515.582 505.74 515.524C509.699 515.48 513.57 515.247 517.34 514.854C524.864 514.082 531.952 512.757 538.487 511.14C545.021 509.509 550.989 507.572 556.301 505.417C561.599 503.261 566.241 500.931 570.069 498.47C573.897 496.023 576.938 493.489 578.962 491.013C579.966 489.775 580.766 488.581 581.276 487.46C581.421 487.183 581.508 486.906 581.61 486.644C581.712 486.382 581.814 486.134 581.872 485.872C581.945 485.625 582.003 485.377 582.062 485.159C582.105 484.925 582.134 484.707 582.163 484.503C582.251 484.095 582.236 483.717 582.236 483.396C582.236 483.236 582.251 483.09 582.236 482.959C582.222 482.828 582.207 482.712 582.193 482.595C582.178 482.173 582.149 481.954 582.149 481.954C582.149 481.954 582.193 482.173 582.251 482.595C582.265 482.697 582.28 482.828 582.294 482.959C582.309 483.09 582.294 483.236 582.294 483.396C582.294 483.717 582.309 484.095 582.236 484.503C582.207 484.707 582.178 484.94 582.134 485.173C582.076 485.406 582.018 485.639 581.945 485.901C581.887 486.163 581.785 486.411 581.683 486.673C581.567 486.935 581.494 487.227 581.348 487.503C580.839 488.639 580.053 489.833 579.049 491.086C577.026 493.591 573.984 496.139 570.156 498.601C566.329 501.077 561.671 503.421 556.374 505.591C551.076 507.761 545.08 509.713 538.545 511.358C532.01 512.99 524.908 514.329 517.369 515.101C513.599 515.495 509.713 515.728 505.754 515.771C501.781 515.815 497.735 515.655 493.631 515.174C489.541 514.664 485.379 513.878 481.391 512.32C479.412 511.533 477.461 510.557 475.759 509.189C474.914 508.504 474.158 507.703 473.517 506.8C472.906 505.883 472.455 504.863 472.222 503.771C472.018 502.679 472.062 501.557 472.266 500.479C472.513 499.402 472.92 498.382 473.43 497.421C474.463 495.499 475.904 493.868 477.432 492.382C480.518 489.426 484.069 487.095 487.649 485.071C491.259 483.061 494.941 481.357 498.623 479.886C502.305 478.416 505.987 477.149 509.611 476.071C516.874 473.915 523.947 472.43 530.613 471.454C537.279 470.478 543.551 469.983 549.286 469.969C555.02 469.954 560.201 470.347 564.684 471.163C569.167 471.978 572.951 473.173 575.774 474.702C577.186 475.474 578.379 476.275 579.267 477.134C579.515 477.323 579.689 477.571 579.893 477.775C580.097 477.979 580.286 478.183 580.431 478.401C580.592 478.605 580.737 478.809 580.883 478.998C581.014 479.202 581.116 479.391 581.232 479.581C581.465 479.93 581.596 480.294 581.712 480.586C581.77 480.731 581.829 480.862 581.872 480.993C581.901 481.124 581.931 481.241 581.96 481.343C582.105 481.736 582.149 481.954 582.149 481.954Z" fill="#5A93C5"/>
<path d="M553.07 440.419C553.07 440.419 552.866 440.346 552.459 440.186C552.357 440.142 552.24 440.098 552.124 440.055C551.993 440.011 551.847 439.982 551.702 439.938C551.396 439.865 551.032 439.749 550.61 439.72C550.406 439.691 550.188 439.661 549.941 439.647C549.708 439.647 549.46 439.647 549.198 439.647C548.936 439.632 548.675 439.661 548.383 439.691C548.107 439.734 547.801 439.734 547.51 439.807C546.288 439.996 544.934 440.448 543.479 441.103C540.553 442.399 537.308 444.671 533.946 447.715C530.569 450.759 527.091 454.633 523.612 459.162C520.134 463.706 516.685 468.964 513.381 474.833C510.092 480.702 506.933 487.197 504.197 494.246C502.829 497.77 501.577 501.455 500.486 505.256C499.394 509.057 498.477 513.018 497.866 517.082C497.269 521.145 496.935 525.354 497.386 529.577C497.619 531.675 498.041 533.801 498.9 535.767C499.336 536.743 499.889 537.675 500.559 538.505C501.257 539.306 502.101 540.005 503.047 540.5C504.023 540.966 505.07 541.228 506.147 541.301C507.224 541.345 508.287 541.228 509.335 540.995C511.416 540.515 513.366 539.568 515.186 538.505C518.824 536.32 521.997 533.524 524.893 530.611C527.775 527.669 530.395 524.582 532.781 521.422C535.168 518.261 537.351 515.057 539.36 511.839C543.362 505.416 546.666 498.994 549.373 492.833C552.08 486.673 554.22 480.76 555.762 475.24C557.305 469.721 558.309 464.624 558.717 460.094C559.124 455.565 558.993 451.618 558.28 448.487C557.931 446.929 557.465 445.574 556.898 444.482C556.781 444.205 556.592 443.958 556.461 443.71C556.315 443.463 556.184 443.23 556.01 443.026C555.85 442.822 555.704 442.618 555.559 442.429C555.398 442.254 555.238 442.094 555.093 441.948C554.816 441.628 554.511 441.409 554.263 441.205C554.132 441.103 554.03 441.016 553.914 440.929C553.798 440.856 553.696 440.797 553.608 440.739C553.259 440.535 553.07 440.419 553.07 440.419C553.07 440.419 553.259 440.521 553.637 440.739C553.725 440.797 553.841 440.856 553.958 440.929C554.074 441.001 554.176 441.103 554.307 441.191C554.554 441.395 554.86 441.613 555.151 441.919C555.297 442.064 555.457 442.225 555.617 442.399C555.762 442.589 555.908 442.778 556.068 442.997C556.243 443.2 556.374 443.433 556.519 443.681C556.665 443.929 556.839 444.176 556.97 444.453C557.553 445.545 558.018 446.914 558.382 448.472C559.11 451.604 559.255 455.58 558.862 460.109C558.469 464.653 557.48 469.765 555.937 475.284C554.409 480.804 552.269 486.731 549.562 492.906C546.855 499.081 543.551 505.504 539.549 511.941C537.541 515.159 535.358 518.378 532.971 521.538C530.584 524.713 527.964 527.815 525.068 530.757C522.171 533.684 518.984 536.495 515.317 538.694C513.483 539.772 511.518 540.733 509.393 541.214C508.331 541.461 507.239 541.578 506.133 541.534C505.041 541.447 503.95 541.185 502.946 540.704C501.956 540.194 501.097 539.481 500.369 538.65C499.671 537.806 499.103 536.845 498.667 535.854C497.793 533.859 497.371 531.718 497.138 529.592C496.687 525.339 497.037 521.101 497.633 517.023C498.245 512.946 499.162 508.984 500.268 505.169C501.359 501.353 502.625 497.668 503.993 494.144C506.744 487.081 509.902 480.585 513.206 474.702C516.525 468.832 519.974 463.575 523.481 459.031C526.974 454.487 530.467 450.628 533.858 447.584C537.25 444.54 540.51 442.283 543.45 440.987C544.92 440.346 546.288 439.895 547.51 439.705C547.816 439.632 548.107 439.632 548.398 439.603C548.674 439.574 548.951 439.545 549.213 439.56C549.475 439.56 549.722 439.56 549.955 439.574C550.188 439.589 550.406 439.632 550.625 439.661C551.047 439.691 551.411 439.807 551.716 439.894C551.876 439.938 552.022 439.967 552.138 440.011C552.255 440.069 552.371 440.113 552.473 440.157C552.866 440.317 553.07 440.419 553.07 440.419Z" fill="#5A93C5"/>
<path d="M476.253 526.534C477.214 527.174 477.461 528.471 476.821 529.417C476.181 530.378 474.885 530.626 473.939 529.985C472.979 529.344 472.731 528.048 473.372 527.102C473.998 526.155 475.293 525.893 476.253 526.534Z" fill="#596368"/>
<path d="M578.758 440.477C578.976 441.599 578.248 442.705 577.128 442.924C576.007 443.142 574.901 442.414 574.682 441.293C574.464 440.171 575.192 439.064 576.313 438.846C577.433 438.613 578.525 439.356 578.758 440.477Z" fill="#979797"/>
<path d="M490.459 530.684C490.517 530.976 490.328 531.252 490.036 531.311C489.745 531.369 489.468 531.18 489.41 530.888C489.352 530.597 489.541 530.32 489.833 530.262C490.124 530.218 490.401 530.408 490.459 530.684Z" fill="#979797"/>
<path d="M490.182 471.323C490.24 471.614 490.051 471.891 489.76 471.949C489.469 472.008 489.192 471.818 489.134 471.527C489.075 471.236 489.265 470.959 489.556 470.901C489.847 470.842 490.124 471.032 490.182 471.323Z" fill="#979797"/>
<path d="M576.546 483.061C576.604 483.353 576.415 483.629 576.124 483.688C575.833 483.746 575.556 483.557 575.498 483.265C575.439 482.974 575.629 482.697 575.92 482.639C576.211 482.595 576.488 482.77 576.546 483.061Z" fill="#979797"/>
<path d="M578.962 457.458C579.021 457.75 578.831 458.026 578.54 458.085C578.249 458.143 577.972 457.953 577.914 457.662C577.855 457.371 578.045 457.094 578.336 457.036C578.627 456.992 578.904 457.167 578.962 457.458Z" fill="#979797"/>
<path d="M536.205 497.438C538.766 492.47 536.817 486.365 531.852 483.802C526.886 481.24 520.785 483.19 518.225 488.159C515.664 493.127 517.613 499.232 522.578 501.795C527.543 504.357 533.644 502.407 536.205 497.438Z" fill="#C7E0F6"/>
<path d="M461.685 168.662C457.26 157.083 450.565 146.598 441.848 137.699C426.828 122.364 409.727 108.776 390.384 99.2659C371.027 89.7413 339.474 81.2943 316.493 81.4109C304.632 80.9594 298.635 81.7021 287.836 85.8673C281.083 88.4742 275.422 94.489 274.956 101.611C274.519 108.208 278.594 116.32 284.038 120.165C307.441 136.665 325.167 137.539 347.872 144.806C370.562 152.074 393.921 162.836 406.161 183.05C412.798 194.017 416.596 208.042 428.123 213.867C439.301 219.503 454.044 214.027 460.884 203.658C467.725 193.289 466.095 180.24 461.685 168.662Z" fill="#C7E0F6"/>
<path d="M150.504 375.887C150.504 375.887 149.936 376.222 148.816 376.834C147.695 377.46 145.992 378.319 143.838 379.601C139.501 382.077 133.17 385.893 125.529 391.529C117.903 397.165 108.923 404.607 99.6955 414.452C95.0819 419.374 90.4246 424.879 85.8691 431.011C81.2846 437.113 76.9766 443.987 73.309 451.633C71.5479 455.478 69.9179 459.512 68.6371 463.75C67.4 468.002 66.4685 472.444 66.0465 477.046C65.6535 481.648 65.8718 486.382 66.7887 491.086C67.1962 493.445 67.953 495.746 68.7099 498.062C69.5831 500.334 70.5873 502.591 71.839 504.732C76.7583 513.368 84.5302 520.621 93.7138 525.864C102.912 531.136 113.536 534.325 124.554 536.16C130.084 537.078 135.717 537.704 141.451 538.141C144.318 538.388 147.2 538.476 150.096 538.607C152.993 538.738 155.918 538.854 158.843 538.985C161.769 539.175 164.723 539.102 167.692 539.102C170.661 539.087 173.645 539.087 176.628 539.073C179.627 539.131 182.625 538.883 185.652 538.767C188.679 538.621 191.706 538.49 194.748 538.345C219.112 536.874 244.174 532.985 269.396 527.131C319.899 515.392 366.05 497.1 406.685 478.124C427.031 468.701 446.083 458.856 462.121 446.972C470.141 441.06 477.316 434.564 483.458 427.646C484.214 426.773 484.986 425.913 485.728 425.054C486.47 424.195 487.14 423.263 487.853 422.389C488.552 421.501 489.25 420.612 489.934 419.724C490.575 418.806 491.215 417.889 491.841 416.971C494.461 413.389 496.6 409.602 498.346 405.743C501.796 398.039 503.761 390.014 503.44 382.397C503.12 374.81 500.224 367.746 495.377 363.086C490.575 358.367 484.491 355.979 478.873 354.93C473.197 353.882 467.87 354.144 463.213 354.945C458.541 355.731 454.495 356.955 451.046 358.149C447.596 359.358 444.744 360.537 442.43 361.498C440.145 362.489 438.398 363.232 437.205 363.741C436.026 364.251 435.415 364.499 435.415 364.499C435.415 364.499 435.997 364.207 437.161 363.668C438.325 363.144 440.057 362.343 442.357 361.353C444.656 360.362 447.509 359.154 450.958 357.93C454.408 356.707 458.454 355.455 463.155 354.639C467.827 353.809 473.212 353.532 478.931 354.566C484.593 355.615 490.764 357.989 495.669 362.78C500.617 367.499 503.586 374.693 503.921 382.383C504.27 390.101 502.291 398.213 498.827 405.976C497.08 409.864 494.926 413.695 492.307 417.292C491.666 418.209 491.04 419.127 490.4 420.059C489.701 420.947 489.017 421.836 488.304 422.739C487.591 423.627 486.922 424.559 486.165 425.433C485.408 426.292 484.651 427.166 483.88 428.04C477.723 435.001 470.519 441.526 462.471 447.482C446.388 459.439 427.308 469.328 406.961 478.765C366.312 497.799 320.117 516.121 269.556 527.888C219.097 539.699 169.002 543.005 124.423 536.845C113.347 534.98 102.65 531.776 93.3645 526.432C84.1081 521.145 76.2489 513.805 71.2714 505.038C70.0052 502.868 68.9864 500.581 68.1131 498.266C67.3418 495.921 66.585 493.591 66.1775 491.188C65.2605 486.425 65.0422 481.634 65.4497 476.988C65.8864 472.342 66.8324 467.871 68.084 463.59C69.3793 459.322 71.0385 455.274 72.8141 451.4C76.5109 443.725 80.848 436.836 85.4762 430.719C90.0607 424.574 94.7471 419.068 99.3899 414.161C108.661 404.316 117.684 396.888 125.354 391.296C133.039 385.689 139.399 381.917 143.765 379.485C148.132 377.009 150.504 375.887 150.504 375.887Z" fill="#AAAAAA"/>
<path d="M573.169 246.955L554.947 314.006L499.627 329.313C497.837 329.808 496.731 331.759 497.109 333.784L557.625 318.201L559.765 317.531L631.516 298.307L639.477 266.514L649.825 229.231C650.582 226.959 648.705 224.644 646.594 225.226L575.09 244.873C574.144 245.135 573.416 245.921 573.169 246.955Z" fill="#C7E0F6"/>
<path d="M576.895 249.125L560.318 310.176L625.316 292.321L639.87 232.144L576.895 249.125Z" fill="white"/>
<path d="M646.594 225.227C646.609 225.227 646.594 225.343 646.536 225.576C646.478 225.853 646.405 226.188 646.303 226.61C646.07 227.557 645.765 228.882 645.357 230.557C644.484 234.038 643.261 239.004 641.719 245.164C638.56 257.602 634.18 274.845 629.217 294.316L629.158 294.535L628.94 294.593C625.607 295.496 622.1 296.443 618.534 297.404C596.674 303.244 576.895 308.516 562.515 312.361C555.384 314.225 549.591 315.74 545.516 316.803C543.551 317.298 541.994 317.691 540.888 317.982C540.393 318.099 539.986 318.201 539.68 318.274C539.403 318.332 539.258 318.361 539.258 318.346C539.258 318.332 539.389 318.288 539.651 318.201C539.956 318.113 540.349 317.982 540.844 317.837C541.95 317.516 543.478 317.079 545.443 316.526C549.489 315.405 555.267 313.803 562.384 311.851C576.749 307.963 596.514 302.603 618.345 296.676C621.91 295.715 625.418 294.768 628.751 293.88L628.489 294.142C633.539 274.685 638.007 257.47 641.224 245.048C642.854 238.916 644.164 233.965 645.081 230.499C645.532 228.838 645.896 227.528 646.158 226.581C646.274 226.173 646.376 225.838 646.449 225.576C646.536 225.343 646.58 225.227 646.594 225.227Z" fill="#E0E0E0"/>
<path d="M153.588 506.43C166.678 498.749 171.068 481.903 163.392 468.804C155.716 455.705 138.882 451.312 125.791 458.993C112.7 466.674 108.311 483.52 115.987 496.619C123.663 509.718 140.497 514.111 153.588 506.43Z" fill="#C7E0F6"/>
<g opacity="0.3">
<g opacity="0.3">
<g opacity="0.3">
<g opacity="0.3">
<path opacity="0.3" d="M130.463 483.629C128.28 484.794 125.558 483.979 124.394 481.794C123.229 479.61 124.044 476.886 126.227 475.721C128.411 474.556 131.132 475.372 132.297 477.556C133.461 479.741 132.631 482.45 130.463 483.629Z" fill="#C7E0F6"/>
</g>
</g>
</g>
</g>
<g opacity="0.3">
<g opacity="0.3">
<g opacity="0.3">
<g opacity="0.3">
<path opacity="0.3" d="M138.86 471.905C137.594 472.59 136.008 472.109 135.338 470.842C134.654 469.575 135.135 467.988 136.401 467.318C137.667 466.633 139.253 467.114 139.923 468.381C140.607 469.648 140.127 471.221 138.86 471.905Z" fill="#C7E0F6"/>
</g>
</g>
</g>
</g>
<path d="M121.221 462.366C120.857 462.701 89.6967 452.565 88.3141 460.225C86.9315 467.886 109.971 484.634 135.848 495.571C161.725 506.508 190.047 513.994 192.463 506.494C194.879 498.993 167.183 482.842 167.183 482.842L166.892 486.702C166.892 486.702 184.022 496.256 182.872 502.809C181.708 509.363 160.531 503.814 137.085 492.527C113.638 481.24 94.5578 468.424 96.77 463.648C98.9822 458.885 118.368 465.381 118.368 465.381L121.221 462.366Z" fill="#9BCBF5"/>
<g opacity="0.3">
<g opacity="0.3">
<g opacity="0.3">
<g opacity="0.3">
<g opacity="0.3">
<path opacity="0.3" d="M149.616 460.211C149.485 460.531 147.215 459.643 143.416 459.279C139.661 458.9 134.261 459.293 129.138 461.886C124.03 464.507 120.537 468.658 118.645 471.92C116.709 475.197 116.098 477.571 115.763 477.483C115.53 477.454 115.603 474.906 117.306 471.206C118.15 469.371 119.445 467.303 121.25 465.308C123.04 463.313 125.383 461.42 128.163 459.978C130.958 458.565 133.854 457.779 136.532 457.502C139.21 457.211 141.64 457.386 143.62 457.779C147.622 458.58 149.732 460.007 149.616 460.211Z" fill="#C7E0F6"/>
</g>
</g>
</g>
</g>
</g>
<path d="M110.116 47.8706L111.528 54.3951C112.081 56.9729 111.266 59.6526 109.345 61.473L65.5952 102.936C60.283 107.975 61.3017 116.698 67.6182 120.383L95.271 136.476C102.024 140.408 110.64 136.665 112.401 129.048L125.893 70.517C126.504 67.8373 128.542 65.6965 131.19 64.9537L136.765 63.3809L110.116 47.8706Z" fill="#C7E0F6"/>
<path d="M118.354 93.9501C115.268 92.9889 112.43 91.2558 110.174 88.9547C107.991 86.7265 106.376 83.9885 104.309 81.6584C102.242 79.3136 99.5063 77.2893 96.3917 77.1582L69.1028 103.897C64.7075 108.208 65.6244 115.519 70.9366 118.606L95.7222 133.024C101.034 136.112 107.817 133.316 109.403 127.374L118.354 93.9501Z" fill="white"/>
<g opacity="0.3">
<g opacity="0.3">
<g opacity="0.3">
<g opacity="0.3">
<g opacity="0.3">
<path opacity="0.3" d="M75.9287 117.383C75.8705 117.47 75.2301 117.222 74.4296 116.305C73.6582 115.387 72.8869 113.698 72.8723 111.514C72.8723 110.436 73.0324 109.227 73.4836 108.018C73.9057 106.824 74.5606 105.63 75.3756 104.479C76.9911 102.178 79.1451 100.139 81.27 97.9111C89.9006 89.071 97.2068 82.2115 97.5852 82.5901C97.9636 82.9688 91.2832 90.4254 82.6527 99.2655C80.5132 101.494 78.3447 103.489 76.8019 105.528C76.0306 106.547 75.4047 107.581 74.9681 108.601C74.5315 109.606 74.3132 110.625 74.2404 111.557C74.0949 113.45 74.5606 114.951 75.0554 115.883C75.5794 116.815 76.0305 117.266 75.9287 117.383Z" fill="#C7E0F6"/>
</g>
</g>
</g>
</g>
</g>
<path d="M114.817 98.0858C114.817 98.1149 114.439 98.0858 113.755 97.9984C113.071 97.911 112.096 97.78 110.888 97.5178C109.694 97.2557 108.253 96.877 106.783 96.1197C106.056 95.7411 105.328 95.2605 104.644 94.6779C103.96 94.0954 103.349 93.3818 102.781 92.639C101.646 91.1244 100.758 89.5806 99.8119 88.2845C98.8805 86.9883 97.8471 85.9397 96.872 85.2407C95.8969 84.5271 94.9509 84.1921 94.2959 84.0319C93.641 83.8863 93.248 83.8863 93.248 83.8571C93.248 83.8426 93.3499 83.8426 93.5246 83.828C93.7138 83.8134 93.9757 83.8426 94.325 83.8863C95.0091 84.0028 95.9988 84.3086 97.0176 85.0077C98.0509 85.7067 99.1133 86.7407 100.088 88.066C101.064 89.3768 101.966 90.9205 103.072 92.406C103.64 93.1342 104.222 93.8187 104.877 94.3866C105.532 94.9546 106.23 95.4207 106.929 95.7993C108.341 96.5566 109.738 96.9498 110.917 97.2557C112.096 97.5469 113.071 97.7217 113.755 97.8528C114.439 97.9693 114.817 98.0567 114.817 98.0858Z" fill="#C7E0F6"/>
<path d="M167.547 40.6326C167.095 37.7344 165.174 35.2732 163.035 33.2488C159.323 29.7244 154.666 27.0593 149.601 26.3602C144.216 25.6175 138.54 27.2049 134.32 30.6419C130.099 34.0789 127.727 38.7684 127.363 44.2007C126.868 47.6231 130.448 50.5213 133.897 50.7106C137.347 50.8999 140.592 49.2251 143.707 47.6959C146.807 46.1668 150.227 44.7104 153.633 45.3366C157.082 45.9774 160.328 48.73 163.69 47.7396C166.513 46.8949 167.998 43.5453 167.547 40.6326Z" fill="#C7E0F6"/>
<path d="M190.367 34.9675C190.164 32.2733 188.082 28.0061 183.134 28.6178C181.096 28.5741 178.899 31.1373 178.36 33.118C177.836 35.0986 178.622 37.3123 180.18 38.6376C181.737 39.9629 183.934 40.4289 185.943 39.992C188.33 39.4823 190.557 37.3997 190.367 34.9675Z" fill="#C7E0F6"/>
<path d="M1.0479 252.65L0.291091 254.674C-0.17464 255.941 -0.0873154 257.34 0.53851 258.534L41.7266 337.396C42.3378 338.575 43.4294 339.449 44.7102 339.784L47.0388 340.411C47.5628 340.556 48.1158 340.6 48.6543 340.556L96.741 336.77C99.1133 336.58 100.991 334.672 101.122 332.284C101.165 331.41 100.976 330.536 100.569 329.764L56.9647 248.31C56.0769 246.65 54.2722 245.66 52.3947 245.805L5.15215 249.519C3.28923 249.708 1.70284 250.917 1.0479 252.65Z" fill="#C7E0F6"/>
<path d="M4.06055 251.528L47.7519 333.26L97.2649 329.371L53.9083 247.611L4.06055 251.528Z" fill="#FAFAFA"/>
<path d="M52.7876 313.54C56.5134 311.953 60.836 313.686 62.4224 317.414C64.0088 321.143 62.2769 325.468 58.551 327.055C54.8252 328.643 50.5026 326.924 48.9162 323.181C47.3298 319.453 49.0618 315.128 52.7876 313.54Z" fill="#FF725E"/>
<path d="M55.7567 316.861L55.5529 318.186C55.5238 318.346 55.6257 318.507 55.7712 318.565L56.0187 318.667C56.0187 318.667 56.4698 318.783 56.3243 319.191C56.2224 319.482 55.4801 321.303 55.4801 321.303C55.4801 321.303 55.291 321.783 54.9271 321.623L54.5632 321.478C54.4323 321.434 54.3013 321.463 54.2139 321.565L53.2825 322.73C53.1806 322.847 53.1952 323.036 53.3116 323.138L53.6463 323.473C53.7046 323.531 53.7773 323.575 53.8646 323.604C54.0247 323.662 54.3013 323.691 54.5632 323.618C54.9999 323.487 56.2952 322.57 57.1248 320.181C57.9107 317.895 57.1684 317.036 56.9938 316.817C56.8919 316.686 56.5572 316.526 56.3825 316.526C56.3243 316.526 56.2079 316.526 56.106 316.526C55.9313 316.555 55.7858 316.686 55.7567 316.861Z" fill="white"/>
<path d="M72.0136 322.891C68.9282 320.255 68.5643 315.623 71.1986 312.536C73.8329 309.448 78.4611 309.084 81.5466 311.72C84.632 314.356 84.9959 318.988 82.3616 322.075C79.7273 325.163 75.0991 325.527 72.0136 322.891Z" fill="#4FABFD"/>
<path d="M73.6728 318.769L74.9536 318.361C75.1137 318.318 75.2156 318.158 75.201 317.997L75.1865 317.735C75.1865 317.735 75.0991 317.284 75.5212 317.225C75.8268 317.182 77.7916 317.051 77.7916 317.051C77.7916 317.051 78.301 317.007 78.3301 317.415L78.3592 317.808C78.3738 317.939 78.4611 318.056 78.5921 318.085L80.0475 318.405C80.2076 318.434 80.3532 318.347 80.4114 318.201L80.5569 317.75C80.586 317.662 80.6006 317.575 80.586 317.488C80.5569 317.313 80.4696 317.051 80.2949 316.847C79.9893 316.512 78.5921 315.755 76.0743 316.089C73.6874 316.395 73.2362 317.444 73.1198 317.706C73.047 317.866 73.047 318.23 73.1343 318.391C73.1634 318.449 73.2071 318.536 73.2653 318.638C73.3235 318.74 73.4982 318.813 73.6728 318.769Z" fill="white"/>
<path d="M50.8666 282.054C52.715 280.758 53.2681 278.151 52.0164 275.355C50.3572 271.699 46.2239 269.136 42.7891 269.617C39.3544 270.112 37.9135 273.461 39.5727 277.117C40.8534 279.928 43.6042 282.083 46.3694 282.709C37.4914 285.549 42.7018 295.86 42.7018 295.86L67.0508 293.952C67.0362 293.952 60.9817 282.098 50.8666 282.054Z" fill="#C7E0F6"/>
<path d="M79.6254 302.239C79.6545 302.618 70.8929 303.623 60.0501 304.482C49.2074 305.341 40.3876 305.72 40.3585 305.327C40.3294 304.948 49.0909 303.943 59.9483 303.084C70.7765 302.239 79.5817 301.846 79.6254 302.239Z" fill="#EBEBEB"/>
<path d="M91.2397 581.642L92.8406 584.293C94.6308 587.264 97.236 589.667 100.351 591.21L103.116 592.579L100.467 594.181C97.4979 595.973 95.0965 598.58 93.5538 601.696L92.1857 604.463L90.5848 601.813C88.7946 598.842 86.1894 596.439 83.0748 594.895L80.3096 593.526L82.9584 591.924C85.9274 590.133 88.3289 587.526 89.8716 584.409L91.2397 581.642Z" fill="#C7E0F6"/>
<path d="M604.606 60.5991L606.207 63.2497C607.997 66.2207 610.602 68.6237 613.717 70.1674L616.482 71.5364L613.833 73.1384C610.864 74.9297 608.463 77.5366 606.92 80.6532L605.552 83.4203L603.951 80.7697C602.161 77.7988 599.556 75.3958 596.441 73.852L593.676 72.483L596.325 70.881C599.294 69.0897 601.695 66.4828 603.238 63.3662L604.606 60.5991Z" fill="#C7E0F6"/>
<path d="M622.842 101.742L624.225 104.043C625.782 106.635 628.038 108.718 630.745 110.058L633.161 111.252L630.861 112.635C628.271 114.194 626.19 116.451 624.851 119.16L623.657 121.577L622.275 119.276C620.717 116.684 618.461 114.601 615.754 113.262L613.338 112.067L615.638 110.684C618.229 109.125 620.31 106.868 621.649 104.159L622.842 101.742Z" fill="#C7E0F6"/>
<path d="M60.4723 551.685L61.6075 553.564C62.8737 555.675 64.7221 557.365 66.9197 558.457L68.8845 559.433L67.0071 560.569C64.8967 561.836 63.2084 563.685 62.1169 565.885L61.1418 567.851L60.0065 565.972C58.7403 563.86 56.892 562.171 54.6943 561.079L52.7295 560.103L54.607 558.967C56.7173 557.7 58.4056 555.85 59.4971 553.651L60.4723 551.685Z" fill="#C7E0F6"/>
<path d="M541.951 572.263L543.086 574.142C544.352 576.254 546.2 577.943 548.398 579.035L550.363 580.011L548.485 581.147C546.375 582.414 544.687 584.264 543.595 586.463L542.62 588.429L541.485 586.55C540.219 584.438 538.37 582.749 536.173 581.657L534.208 580.681L536.085 579.545C538.196 578.278 539.884 576.428 540.975 574.229L541.951 572.263Z" fill="#C7E0F6"/>
<path d="M46.4276 35.2876L47.5628 37.1663C48.829 39.278 50.6774 40.9674 52.875 42.0597L54.8398 43.0354L52.9624 44.1714C50.852 45.4384 49.1638 47.288 48.0722 49.4871L47.0971 51.4532L45.9619 49.5745C44.6957 47.4628 42.8473 45.7734 40.6496 44.6811L38.6848 43.7054L40.5623 42.5694C42.6726 41.3024 44.3609 39.4528 45.4525 37.2537L46.4276 35.2876Z" fill="#C7E0F6"/>
<path d="M605.872 378.116L607.007 379.994C608.274 382.106 610.122 383.796 612.32 384.888L614.284 385.864L612.407 387C610.297 388.267 608.608 390.116 607.517 392.315L606.542 394.281L605.406 392.403C604.14 390.291 602.292 388.601 600.094 387.509L598.129 386.533L600.007 385.398C602.117 384.13 603.805 382.281 604.897 380.082L605.872 378.116Z" fill="#C7E0F6"/>
<path d="M41.6393 170.627L42.7745 172.506C44.0407 174.618 45.8891 176.307 48.0867 177.4L50.0515 178.375L48.174 179.511C46.0637 180.778 44.3754 182.628 43.2839 184.827L42.3087 186.793L41.1735 184.914C39.9073 182.803 38.059 181.113 35.8613 180.021L33.8965 179.045L35.774 177.909C37.8843 176.642 39.5726 174.793 40.6641 172.594L41.6393 170.627Z" fill="#C7E0F6"/>
<path d="M118.397 194.556L119.445 196.303C120.624 198.269 122.342 199.842 124.394 200.862L126.213 201.765L124.466 202.813C122.502 203.993 120.93 205.711 119.911 207.765L119.009 209.585L117.961 207.838C116.782 205.872 115.065 204.299 113.012 203.279L111.193 202.376L112.94 201.328C114.904 200.148 116.476 198.43 117.495 196.376L118.397 194.556Z" fill="#FF725E"/>
<path d="M496.178 386.358L497.226 388.106C498.405 390.072 500.122 391.645 502.174 392.664L503.993 393.567L502.247 394.616C500.282 395.796 498.71 397.514 497.692 399.568L496.789 401.388L495.741 399.64C494.562 397.674 492.845 396.101 490.793 395.082L488.974 394.179L490.72 393.13C492.685 391.951 494.257 390.232 495.276 388.179L496.178 386.358Z" fill="#FF725E"/>
<path d="M290.98 26.1709L292.028 27.9185C293.207 29.8846 294.924 31.4575 296.976 32.4769L298.796 33.3799L297.049 34.4285C295.084 35.6081 293.512 37.3266 292.494 39.3801L291.591 41.2006L290.543 39.4529C289.364 37.4868 287.647 35.914 285.595 34.8945L283.776 33.9916L285.522 32.943C287.487 31.7633 289.059 30.0448 290.078 27.9914L290.98 26.1709Z" fill="#FF725E"/>
<path d="M536.638 190.754L537.686 192.502C538.865 194.468 540.582 196.041 542.634 197.06L544.454 197.963L542.707 199.012C540.742 200.192 539.171 201.91 538.152 203.964L537.249 205.784L536.202 204.036C535.023 202.07 533.305 200.497 531.253 199.478L529.434 198.575L531.18 197.526C533.145 196.347 534.717 194.628 535.736 192.575L536.638 190.754Z" fill="#FF725E"/>
<path d="M158.188 261.854L158.96 263.121C159.819 264.548 161.07 265.699 162.569 266.442L163.908 267.097L162.642 267.869C161.216 268.728 160.066 269.981 159.324 271.481L158.669 272.82L157.897 271.553C157.039 270.126 155.787 268.976 154.288 268.233L152.949 267.577L154.215 266.806C155.641 265.946 156.791 264.694 157.534 263.194L158.188 261.854Z" fill="#FF725E"/>
<path d="M193.002 425.068L193.773 426.335C194.632 427.763 195.883 428.913 197.382 429.656L198.721 430.311L197.455 431.083C196.029 431.942 194.879 433.195 194.137 434.695L193.482 436.035L192.711 434.768C191.852 433.34 190.6 432.19 189.101 431.447L187.762 430.792L189.028 430.02C190.455 429.161 191.604 427.908 192.347 426.408L193.002 425.068Z" fill="#FF725E"/>
<path d="M525.213 141.325L525.985 142.592C526.843 144.019 528.095 145.17 529.594 145.913L530.933 146.568L529.667 147.34C528.241 148.199 527.091 149.452 526.349 150.952L525.694 152.292L524.922 151.025C524.064 149.597 522.812 148.447 521.313 147.704L519.974 147.049L521.24 146.277C522.666 145.418 523.816 144.165 524.558 142.665L525.213 141.325Z" fill="#FF725E"/>
<path d="M90.0461 227.426L90.8175 228.693C91.6762 230.12 92.9278 231.271 94.4269 232.013L95.7659 232.669L94.4997 233.441C93.0734 234.3 91.9236 235.552 91.1813 237.052L90.5264 238.392L89.755 237.125C88.8963 235.698 87.6447 234.547 86.1456 233.805L84.8066 233.149L86.0728 232.377C87.4991 231.518 88.6489 230.266 89.3912 228.766L90.0461 227.426Z" fill="#FF725E"/>
<path d="M562.021 149.161L562.457 149.889C562.952 150.704 563.665 151.374 564.524 151.797L565.281 152.175L564.553 152.612C563.738 153.107 563.068 153.821 562.646 154.68L562.268 155.438L561.831 154.709C561.336 153.894 560.623 153.224 559.765 152.802L559.008 152.423L559.736 151.986C560.551 151.491 561.22 150.777 561.642 149.918L562.021 149.161Z" fill="#FF725E"/>
<path d="M534.804 358.833L535.241 359.561C535.736 360.377 536.449 361.047 537.308 361.469L538.065 361.848L537.337 362.285C536.522 362.78 535.852 363.493 535.43 364.353L535.052 365.11L534.615 364.382C534.12 363.566 533.407 362.896 532.549 362.474L531.792 362.095L532.519 361.658C533.334 361.163 534.004 360.45 534.426 359.59L534.804 358.833Z" fill="#FF725E"/>
<path d="M346.605 9.80127L347.042 10.5295C347.537 11.345 348.25 12.0149 349.109 12.4373L349.866 12.8159L349.138 13.2529C348.323 13.748 347.653 14.4616 347.231 15.3209L346.853 16.0782L346.416 15.35C345.921 14.5345 345.208 13.8645 344.35 13.4422L343.593 13.0635L344.32 12.6266C345.136 12.1315 345.805 11.4178 346.227 10.5586L346.605 9.80127Z" fill="#FF725E"/>
<path d="M263.24 46.9824L263.676 47.7106C264.171 48.5262 264.884 49.1961 265.743 49.6184L266.5 49.9971L265.772 50.434C264.957 50.9292 264.288 51.6428 263.866 52.502L263.487 53.2593L263.051 52.5312C262.556 51.7156 261.843 51.0457 260.984 50.6233L260.227 50.2447L260.955 49.8078C261.77 49.3126 262.439 48.599 262.861 47.7397L263.24 46.9824Z" fill="#FF725E"/>
<path d="M202.316 444.205L202.753 444.933C203.248 445.749 203.961 446.419 204.82 446.841L205.577 447.22L204.849 447.657C204.034 448.152 203.364 448.865 202.942 449.725L202.564 450.482L202.127 449.754C201.632 448.938 200.919 448.268 200.061 447.846L199.304 447.467L200.031 447.03C200.846 446.535 201.516 445.822 201.938 444.962L202.316 444.205Z" fill="#FF725E"/>
<path d="M227.932 551.713L408.373 551.291C415.854 551.277 421.909 546.005 421.894 539.524C421.879 533.043 415.81 527.815 408.33 527.829L227.888 528.251C220.407 528.266 214.353 533.538 214.367 540.019C214.382 546.485 220.451 551.728 227.932 551.713Z" fill="#455A64"/>
<path d="M227.932 523.227L408.373 522.805C415.854 522.79 421.909 517.518 421.894 511.037C421.879 504.557 415.81 499.328 408.33 499.343L227.888 499.765C220.407 499.78 214.353 505.052 214.367 511.533C214.382 518.013 220.451 523.256 227.932 523.227Z" fill="#455A64"/>
<path d="M235.194 555.966L400.412 555.587C407.267 555.573 412.827 561.107 412.841 567.967C412.856 574.811 407.325 580.389 400.47 580.404L382.336 580.448L358.38 626.323C355.644 631.566 350.215 634.872 344.306 634.886L285.26 635.017C279.278 635.032 273.806 631.697 271.07 626.381L247.58 580.753L235.252 580.783C228.412 580.797 222.838 575.263 222.823 568.403C222.794 561.559 228.339 555.981 235.194 555.966Z" fill="#455A64"/>
<path d="M178.448 363.624C178.448 363.624 178.448 363.624 178.433 363.624C178.433 363.624 178.884 364.309 179.758 365.62C180.645 366.93 181.97 368.867 183.687 371.416C184.56 372.683 185.521 374.11 186.598 375.683C187.646 377.271 188.679 379.091 189.873 381.013C191.037 382.95 192.303 385.033 193.657 387.276C195.039 389.489 196.233 392.009 197.659 394.601C198.358 395.897 199.071 397.237 199.799 398.621C200.162 399.305 200.541 400.004 200.919 400.718C201.254 401.446 201.603 402.174 201.953 402.917C203.35 405.888 204.805 409.019 206.348 412.296C207.716 415.646 209.142 419.141 210.627 422.767C211.98 426.452 213.319 430.311 214.702 434.316C217.205 442.414 219.694 451.181 221.455 460.691C223.201 470.186 224.57 480.425 224.395 491.202V491.449H224.628C277.008 491.479 342.443 491.508 417.251 491.551H417.557L417.586 491.246C419.361 469.735 425.241 447.511 434.963 426.073C439.81 415.34 445.559 404.796 452.094 394.514C455.354 389.373 458.818 384.305 462.5 379.353C466.109 374.358 470.199 369.654 474.201 364.804L474.682 364.222H473.91L474.201 364.804C491.535 342.536 504.459 315.259 510.135 285.563C510.921 281.864 511.401 278.107 511.969 274.349C512.202 272.471 512.377 270.563 512.595 268.67L512.886 265.83L513.075 262.975C513.177 261.067 513.352 259.16 513.41 257.237C513.454 255.315 513.497 253.392 513.526 251.47C513.614 249.548 513.468 247.625 513.454 245.688C513.395 243.766 513.381 241.829 513.279 239.892C512.391 224.44 509.67 208.915 504.983 193.856C491.462 150.733 462.296 114.237 426.26 91.7361C417.266 86.0708 407.893 81.2066 398.273 77.1724C388.667 73.1092 378.741 70.0654 368.801 67.7498C348.891 63.0748 328.646 62.0117 309.216 63.7448C299.509 64.706 289.961 66.2643 280.748 68.5944C271.536 70.9829 262.614 73.9539 254.085 77.5074C245.586 81.1629 237.464 85.3281 229.765 89.9302C222.139 94.6633 214.906 99.7461 208.182 105.237C194.821 116.319 183.309 128.713 174.052 141.922C164.665 155.044 157.533 168.909 152.207 182.671C150.78 186.079 149.747 189.589 148.554 192.982C147.433 196.405 146.56 199.856 145.57 203.235C144.799 206.658 143.954 210.022 143.285 213.386C142.979 215.075 142.688 216.736 142.397 218.396C142.106 220.056 141.786 221.702 141.611 223.362C139.777 236.542 139.37 249.14 140.069 260.834C141.422 284.296 146.982 304.001 153.08 319.293C156.107 326.968 159.455 333.507 162.424 339.128C165.509 344.677 168.333 349.265 170.734 352.876C171.957 354.668 173.034 356.255 173.965 357.61C174.94 358.92 175.77 360.027 176.425 360.916C177.705 362.634 178.288 363.421 178.448 363.624C178.302 363.421 177.735 362.649 176.497 360.916C175.842 360.013 175.027 358.877 174.052 357.537C173.135 356.168 172.073 354.58 170.85 352.775C168.464 349.148 165.669 344.561 162.598 339.012C159.658 333.39 156.34 326.851 153.342 319.176C147.287 303.884 141.8 284.209 140.491 260.791C139.821 249.111 140.229 236.542 142.092 223.406C142.266 221.76 142.586 220.114 142.877 218.454C143.169 216.794 143.474 215.134 143.78 213.459C144.449 210.109 145.293 206.76 146.065 203.352C147.054 199.988 147.928 196.55 149.048 193.143C150.242 189.749 151.275 186.254 152.701 182.861C158.028 169.142 165.16 155.335 174.533 142.257C183.774 129.106 195.243 116.756 208.575 105.717C215.284 100.256 222.503 95.1876 230.1 90.469C237.785 85.8815 245.877 81.7454 254.347 78.1045C262.861 74.5655 271.754 71.6091 280.923 69.2352C290.121 66.9051 299.625 65.3613 309.289 64.4147C328.646 62.6962 348.818 63.7739 368.64 68.4343C378.552 70.7499 388.419 73.7791 397.996 77.8278C407.573 81.8473 416.916 86.697 425.867 92.3332C461.758 114.761 490.793 151.112 504.255 194.06C508.927 209.061 511.634 224.527 512.522 239.906C512.624 241.829 512.639 243.751 512.697 245.674C512.711 247.596 512.857 249.518 512.77 251.426C512.726 253.349 512.682 255.256 512.653 257.164C512.609 259.072 512.435 260.98 512.318 262.873L512.144 265.728L511.853 268.568C511.649 270.461 511.474 272.34 511.241 274.218C510.674 277.961 510.194 281.704 509.408 285.389C503.761 314.967 490.895 342.143 473.634 364.323L473.182 364.906H473.925L473.634 364.323C469.66 369.144 465.571 373.848 461.932 378.887C458.235 383.853 454.772 388.936 451.497 394.092C444.962 404.403 439.184 414.976 434.338 425.738C424.586 447.249 418.692 469.56 416.931 491.144L417.266 490.838C342.443 490.881 277.023 490.911 224.642 490.94L224.875 491.187C225.035 480.323 223.653 470.099 221.877 460.575C220.087 451.035 217.569 442.268 215.051 434.171C213.654 430.166 212.3 426.292 210.932 422.607C209.433 418.966 208.007 415.471 206.624 412.121C205.082 408.845 203.612 405.728 202.2 402.757C201.851 402.014 201.501 401.271 201.167 400.558C200.788 399.844 200.41 399.16 200.046 398.461C199.304 397.092 198.591 395.752 197.892 394.441C196.451 391.863 195.243 389.344 193.86 387.13C192.492 384.902 191.226 382.819 190.047 380.882C188.854 378.96 187.806 377.139 186.743 375.567C185.666 373.994 184.677 372.581 183.804 371.314C182.057 368.78 180.718 366.858 179.816 365.547C178.913 364.251 178.433 363.595 178.433 363.595C178.448 363.624 178.448 363.624 178.448 363.624Z" fill="#263238"/>
<path d="M486.776 312.535C486.791 312.535 486.849 312.404 486.936 312.128C487.038 311.807 487.184 311.399 487.358 310.904C487.722 309.768 488.246 308.181 488.901 306.156C489.236 305.122 489.6 303.972 489.993 302.719C490.356 301.452 490.677 300.054 491.055 298.569C491.768 295.569 492.758 292.19 493.369 288.36C493.718 286.452 494.097 284.457 494.475 282.374C494.854 280.291 495.043 278.092 495.348 275.835C496.032 271.32 496.251 266.441 496.6 261.315C496.964 251.062 496.615 239.746 495.086 227.994C493.427 216.255 490.749 205.26 487.664 195.473C485.976 190.623 484.462 185.992 482.599 181.812C481.697 179.715 480.925 177.647 480.008 175.739C479.077 173.831 478.189 172.011 477.345 170.263C475.729 166.739 473.881 163.739 472.397 161.045C471.625 159.705 470.956 158.452 470.257 157.316C469.544 156.209 468.874 155.204 468.278 154.302C467.099 152.525 466.182 151.127 465.527 150.136C465.221 149.699 464.989 149.335 464.799 149.059C464.625 148.826 464.537 148.695 464.523 148.709C464.508 148.724 464.581 148.855 464.727 149.102C464.901 149.394 465.12 149.758 465.396 150.209C466.022 151.229 466.91 152.641 468.03 154.447C468.612 155.365 469.253 156.384 469.951 157.491C470.621 158.627 471.276 159.894 472.033 161.234C473.488 163.943 475.293 166.943 476.879 170.482C477.709 172.229 478.582 174.05 479.499 175.958C480.401 177.865 481.158 179.934 482.031 182.031C483.865 186.196 485.35 190.827 487.009 195.662C490.036 205.42 492.685 216.386 494.344 228.081C495.872 239.79 496.222 251.048 495.916 261.271C495.596 266.369 495.392 271.233 494.752 275.733C494.461 277.99 494.286 280.175 493.922 282.258C493.558 284.34 493.194 286.335 492.86 288.229C492.277 292.059 491.331 295.438 490.662 298.438C490.298 299.938 490.007 301.336 489.658 302.603C489.279 303.855 488.93 305.006 488.624 306.055C488.028 308.093 487.562 309.695 487.213 310.846C487.067 311.356 486.951 311.778 486.863 312.098C486.791 312.39 486.761 312.535 486.776 312.535Z" fill="#263238"/>
<path d="M431.179 116.552C431.048 116.713 435.531 120.805 441.193 125.698C446.869 130.592 451.57 134.436 451.701 134.276C451.832 134.116 447.349 130.024 441.687 125.13C436.026 120.237 431.325 116.407 431.179 116.552Z" fill="#263238"/>
<path d="M176.454 333.667C176.468 333.667 176.425 333.55 176.323 333.332C176.206 333.084 176.061 332.764 175.886 332.385C175.464 331.511 174.882 330.317 174.154 328.803C173.776 328.016 173.354 327.157 172.888 326.225C172.437 325.278 172 324.215 171.505 323.094C170.545 320.836 169.337 318.317 168.274 315.404C167.721 313.962 167.139 312.448 166.528 310.889C165.931 309.316 165.422 307.642 164.825 305.923C163.603 302.501 162.598 298.758 161.478 294.826C159.426 286.932 157.621 278.121 156.442 268.771C155.35 259.407 155.016 250.421 155.118 242.266C155.278 238.188 155.35 234.314 155.729 230.687C155.889 228.882 155.991 227.134 156.195 225.459C156.413 223.784 156.617 222.182 156.806 220.653C157.141 217.58 157.708 214.842 158.101 212.425C158.319 211.216 158.494 210.094 158.698 209.06C158.916 208.041 159.134 207.109 159.309 206.25C159.658 204.604 159.935 203.308 160.139 202.361C160.211 201.953 160.284 201.618 160.342 201.342C160.386 201.109 160.401 200.992 160.386 200.992C160.372 200.992 160.328 201.109 160.27 201.327C160.197 201.589 160.11 201.924 159.993 202.332C159.76 203.279 159.426 204.56 159.018 206.191C158.814 207.036 158.581 207.968 158.334 208.988C158.101 210.022 157.912 211.143 157.679 212.352C157.242 214.769 156.631 217.507 156.267 220.58C156.049 222.109 155.831 223.726 155.598 225.401C155.379 227.076 155.263 228.838 155.088 230.644C154.681 234.27 154.579 238.159 154.404 242.251C154.259 250.436 154.579 259.465 155.671 268.859C156.849 278.252 158.683 287.078 160.779 295C161.929 298.933 162.962 302.69 164.214 306.112C164.825 307.831 165.349 309.506 165.96 311.079C166.586 312.652 167.183 314.152 167.75 315.593C168.842 318.492 170.079 321.011 171.083 323.254C171.607 324.375 172.058 325.424 172.524 326.356C173.005 327.288 173.456 328.133 173.849 328.905C174.635 330.39 175.26 331.57 175.712 332.429C175.915 332.793 176.075 333.099 176.206 333.332C176.381 333.579 176.439 333.681 176.454 333.667Z" fill="#263238"/>
<path d="M276.979 303.55L271.041 358.557L235.645 370.368L234.204 387.495L284.169 384.145C284.169 384.145 299.567 384.524 302.914 364.222L303.729 310.861L276.979 303.55Z" fill="#FFBE9D"/>
<path d="M203.51 387.189C204.165 387.932 205.212 388.252 206.158 387.917C206.348 387.844 206.537 387.757 206.726 387.64C207.978 386.839 207.119 384.101 207.119 384.101L213.363 381.305C213.363 381.305 223.289 384.538 227.262 387.364C231.235 390.189 238.163 385.223 238.163 385.223L237.159 370.601L222.284 362.911C222.284 362.911 223.187 363.363 221.833 361.557C220.465 359.736 216.899 361.513 216.899 361.513C216.041 360.669 213.494 360.96 213.494 360.96L203.277 364.965C201.166 365.795 199.551 367.528 198.881 369.683L196.291 377.912C196.291 377.912 195.272 383.621 195.971 384.699C197.019 386.33 198.794 385.441 198.794 385.441C198.794 385.441 200.191 388.645 201.108 388.529C201.967 388.398 203.51 387.189 203.51 387.189Z" fill="#FFBE9D"/>
<path d="M224.351 385.747C224.337 385.762 224.089 385.66 223.594 385.441C223.041 385.194 222.343 384.888 221.455 384.495C219.577 383.708 216.812 382.601 213.276 381.553L213.436 381.538C211.573 382.383 209.477 383.344 207.206 384.378L207.352 384.043C207.512 384.567 207.614 385.106 207.658 385.674C207.687 386.228 207.672 386.854 207.337 387.436C207.163 387.728 206.857 387.946 206.581 388.063C206.304 388.208 205.999 388.325 205.678 388.354C205.038 388.427 204.368 388.252 203.815 387.888C203.684 387.8 203.553 387.684 203.437 387.582L203.35 387.495L203.306 387.451L203.291 387.422C203.204 387.407 204.092 387.495 203.714 387.466L203.699 387.48L203.51 387.626C203.262 387.8 203.015 387.975 202.753 388.15C202.491 388.31 202.214 388.47 201.923 388.616C201.778 388.689 201.618 388.747 201.458 388.791C201.298 388.834 201.108 388.893 200.817 388.834C200.381 388.674 200.162 388.398 199.944 388.135C199.74 387.873 199.551 387.597 199.376 387.32C199.042 386.766 198.751 386.184 198.474 385.587L198.925 385.747C198.125 386.126 197.062 386.184 196.276 385.558C195.913 385.266 195.578 384.873 195.476 384.363C195.374 383.897 195.374 383.475 195.374 383.038C195.403 381.32 195.651 379.616 195.927 377.868V377.854L195.942 377.824C196.378 376.426 196.844 374.941 197.324 373.426C197.615 372.494 197.906 371.562 198.197 370.645C198.503 369.742 198.721 368.766 199.245 367.892C199.74 367.033 200.41 366.275 201.196 365.693C201.967 365.081 202.913 364.746 203.728 364.426C207.119 363.115 210.35 361.863 213.363 360.683L213.407 360.668H213.45C214.091 360.61 214.702 360.61 215.313 360.668C215.924 360.741 216.565 360.843 217.103 361.324L216.71 361.309C217.7 360.552 218.995 360.217 220.145 360.61C221.295 361.003 222.023 361.921 222.517 362.838L222.401 362.722C226.665 364.906 230.158 366.698 232.647 367.979C233.797 368.591 234.728 369.072 235.412 369.45C236.038 369.8 236.373 369.989 236.358 370.004C236.344 370.033 235.994 369.887 235.34 369.581C234.626 369.246 233.68 368.795 232.501 368.242C229.984 367.018 226.462 365.3 222.154 363.188L222.081 363.159L222.037 363.071C221.586 362.27 220.887 361.426 219.956 361.149C219.024 360.829 217.904 361.149 217.074 361.775L216.87 361.935L216.681 361.761C216.361 361.469 215.793 361.338 215.24 361.28C214.687 361.222 214.091 361.236 213.508 361.295L213.581 361.28C210.568 362.474 207.352 363.741 203.961 365.081C203.102 365.416 202.287 365.722 201.589 366.275C200.875 366.8 200.279 367.484 199.828 368.271C199.362 369.043 199.158 369.96 198.852 370.878C198.561 371.795 198.27 372.727 197.979 373.659C197.499 375.159 197.033 376.645 196.597 378.057L196.611 378.014C196.335 379.718 196.087 381.422 196.058 383.067C196.058 383.475 196.058 383.883 196.145 384.232C196.189 384.538 196.422 384.83 196.698 385.048C197.222 385.485 198.023 385.456 198.634 385.179L198.954 385.033L199.085 385.339C199.347 385.907 199.624 386.475 199.944 387C200.25 387.495 200.657 388.092 200.992 388.223C201.006 388.223 201.123 388.237 201.268 388.179C201.399 388.15 201.53 388.092 201.661 388.034C201.923 387.917 202.171 387.771 202.433 387.626C202.68 387.466 202.928 387.305 203.16 387.131L203.335 387L203.35 386.985C202.971 386.956 203.859 387.029 203.772 387.029L203.786 387.043L203.815 387.072L203.888 387.145C203.99 387.232 204.077 387.32 204.194 387.393C204.616 387.684 205.14 387.83 205.635 387.771C205.882 387.742 206.115 387.669 206.348 387.538C206.595 387.436 206.755 387.32 206.872 387.131C207.323 386.315 207.105 385.135 206.872 384.218L206.814 383.97L207.032 383.883C209.317 382.878 211.427 381.96 213.29 381.13L213.377 381.101L213.45 381.13C217.016 382.252 219.752 383.417 221.615 384.291C222.532 384.728 223.245 385.092 223.711 385.354C224.118 385.587 224.366 385.732 224.351 385.747Z" fill="#EB996E"/>
<path d="M216.07 365.708C216.113 365.78 214.993 366.581 212.955 367.615C210.932 368.635 207.949 369.814 204.441 370.543L204.732 370.208C204.689 370.776 204.645 371.373 204.572 371.97C204.077 375.975 202.695 379.397 201.414 381.669C200.773 382.82 200.162 383.679 199.726 384.262C199.274 384.844 198.998 385.135 198.954 385.106C198.852 385.033 199.813 383.737 200.963 381.436C202.112 379.135 203.379 375.771 203.859 371.883C203.932 371.3 203.975 370.717 204.019 370.164L204.034 369.887L204.296 369.829C207.745 369.145 210.699 368.067 212.751 367.164C214.818 366.276 216.012 365.606 216.07 365.708Z" fill="#EB996E"/>
<path d="M207.687 374.489C207.861 374.475 207.949 377.562 206.639 381.087C205.358 384.626 203.306 386.927 203.189 386.81C203.015 386.679 204.747 384.261 205.969 380.839C207.236 377.446 207.468 374.475 207.687 374.489Z" fill="#EB996E"/>
<path d="M239.109 380.446C239.124 380.46 239.022 380.562 238.832 380.723C238.629 380.897 238.323 381.13 237.901 381.392C237.057 381.931 235.718 382.616 233.884 382.965C232.065 383.315 229.736 383.315 227.349 382.383C224.977 381.465 222.59 379.63 221.091 376.951L221.542 377.096C219.315 378.174 216.754 379.019 214.018 379.47C213.043 379.63 212.067 379.732 211.092 379.79C210.132 379.834 209.157 379.892 208.167 379.616C207.716 379.485 207.148 379.237 206.843 378.727C206.537 378.247 206.479 377.664 206.61 377.154C206.741 376.645 207.09 376.179 207.556 375.917C207.934 375.713 208.313 375.494 208.691 375.29C211.689 373.674 214.454 372.348 216.812 371.314C219.17 370.28 221.106 369.523 222.459 369.028C223.813 368.533 224.569 368.314 224.599 368.358C224.613 368.402 223.885 368.722 222.576 369.29C221.251 369.858 219.359 370.688 217.03 371.766C214.716 372.858 211.98 374.227 209.026 375.873C208.662 376.077 208.283 376.295 207.905 376.499C207.599 376.674 207.381 376.965 207.294 377.315C207.206 377.664 207.25 378.043 207.439 378.334C207.628 378.64 207.949 378.786 208.371 378.917C209.186 379.15 210.117 379.106 211.049 379.048C211.995 378.989 212.941 378.888 213.901 378.727C216.565 378.29 219.068 377.475 221.251 376.441L221.542 376.295L221.702 376.586C223.099 379.121 225.341 380.897 227.582 381.815C229.838 382.747 232.065 382.805 233.826 382.514C235.601 382.237 236.94 381.625 237.799 381.159C238.643 380.737 239.08 380.417 239.109 380.446Z" fill="#EB996E"/>
<path d="M196.407 585.997C196.364 585.997 196.306 585.502 196.451 584.628C196.597 583.754 196.946 582.487 197.834 581.133C198.067 580.798 198.285 580.448 198.663 580.128C199.013 579.807 199.624 579.56 200.221 579.778C200.512 579.88 200.803 580.142 200.905 580.463C201.021 580.798 200.963 581.118 200.876 581.395C200.686 581.948 200.395 582.341 200.148 582.793C199.609 583.696 199.173 584.599 198.474 585.618C198.125 586.143 197.353 586.565 196.64 586.448C195.942 586.361 195.374 586.026 194.865 585.662C193.875 584.948 193.002 584.118 192.26 583.259C191.881 582.822 191.546 582.371 191.226 581.919C190.935 581.468 190.586 581.002 190.455 580.375C190.324 579.764 190.557 578.977 191.241 578.701C191.939 578.453 192.507 578.803 192.9 579.079C193.686 579.735 194.166 580.405 194.646 581.06C195.563 582.356 196.073 583.55 196.364 584.38C196.64 585.211 196.713 585.706 196.655 585.72C196.509 585.778 196.044 583.842 194.181 581.409C193.715 580.827 193.147 580.128 192.507 579.633C192.187 579.4 191.765 579.254 191.517 579.371C191.255 579.458 191.11 579.851 191.197 580.23C191.284 580.623 191.575 581.045 191.881 581.468C192.187 581.89 192.521 582.312 192.871 582.735C193.584 583.55 194.428 584.322 195.36 585.007C195.811 585.327 196.291 585.589 196.757 585.647C197.208 585.706 197.572 585.516 197.877 585.138C198.445 584.308 198.998 583.274 199.522 582.429C199.769 581.977 200.075 581.555 200.206 581.176C200.352 580.783 200.264 580.536 200.002 580.419C199.376 580.157 198.765 580.871 198.343 581.468C196.538 583.973 196.568 586.055 196.407 585.997Z" fill="#263238"/>
<path d="M231.934 587.22L249.588 625.479L278.056 612.313L259.805 564.967L231.934 587.22Z" fill="#FFBE9D"/>
<path d="M246.241 622.93L256.545 642.605C256.545 642.605 230.158 669.898 232.632 676L294.662 646.246L277.619 606.793L246.241 622.93Z" fill="#FF725E"/>
<path d="M274.446 630.707C275.8 630.459 277.285 631.406 277.59 632.76C277.896 634.115 276.935 635.615 275.582 635.892C274.228 636.168 272.423 635.076 272.263 633.707C272.118 632.338 273.326 630.619 274.708 630.678" fill="#E0E0E0"/>
<g opacity="0.6">
<g opacity="0.6">
<g opacity="0.6">
<g opacity="0.6">
<g opacity="0.6">
<g opacity="0.6">
<g opacity="0.6">
<g opacity="0.6">
<g opacity="0.6">
<g opacity="0.6">
<g opacity="0.6">
<g opacity="0.6">
<path opacity="0.6" d="M294.677 646.232L292.101 641.28L233.593 671.66C233.593 671.66 231.41 674.194 232.647 675.985L294.677 646.232Z" fill="white"/>
</g>
</g>
</g>
</g>
</g>
</g>
</g>
</g>
</g>
</g>
</g>
</g>
<path d="M255.395 642.766C255.555 643.072 257.127 642.475 259.092 642.737C261.057 642.941 262.454 643.887 262.672 643.64C262.92 643.45 261.61 641.848 259.223 641.586C256.851 641.266 255.206 642.518 255.395 642.766Z" fill="#263238"/>
<path d="M250.185 648.577C250.258 648.897 251.815 648.795 253.459 649.582C255.119 650.324 256.05 651.577 256.341 651.431C256.647 651.344 256.006 649.465 253.94 648.518C251.888 647.557 250.054 648.285 250.185 648.577Z" fill="#263238"/>
<path d="M250.228 658.13C250.534 658.058 250.228 656.354 248.657 655.058C247.099 653.761 245.353 653.791 245.338 654.111C245.28 654.446 246.634 654.897 247.914 655.961C249.21 657.009 249.908 658.247 250.228 658.13Z" fill="#263238"/>
<path d="M252.441 635.178C252.703 635.396 253.896 634.304 255.657 633.605C257.404 632.862 259.019 632.804 259.048 632.469C259.121 632.163 257.287 631.668 255.206 632.527C253.139 633.372 252.179 635.018 252.441 635.178Z" fill="#263238"/>
<path d="M240.433 617.818L193.933 501.367C193.933 501.367 194.981 481.503 198.634 475.226C202.287 468.949 313.073 432.35 313.073 432.35C313.073 432.35 341.293 425.549 360.097 432.35C378.916 439.152 393.018 462.672 390.399 475.75C387.779 488.828 375.772 499.416 375.772 499.416L295.288 500.843L250.883 517.052L280.792 602.803L240.433 617.818Z" fill="#263238"/>
<path d="M199.071 538.242L198.023 580.361L229.372 581.132L233.899 530.582L199.071 538.242Z" fill="#FFBE9D"/>
<path d="M196.16 576.603L196.728 598.798C196.728 598.798 161.012 611.643 160.546 618.212L229.329 618.911L231.439 575.977L196.16 576.603Z" fill="#FF725E"/>
<path d="M218.035 596.031C219.359 596.41 220.262 597.91 219.941 599.264C219.621 600.604 218.093 601.536 216.754 601.187C215.415 600.837 214.28 599.06 214.746 597.764C215.211 596.468 217.06 595.463 218.282 596.133" fill="#E0E0E0"/>
<g opacity="0.6">
<g opacity="0.6">
<g opacity="0.6">
<g opacity="0.6">
<g opacity="0.6">
<g opacity="0.6">
<g opacity="0.6">
<g opacity="0.6">
<g opacity="0.6">
<g opacity="0.6">
<g opacity="0.6">
<g opacity="0.6">
<path opacity="0.6" d="M229.329 618.911L229.198 613.333L163.297 614.746C163.297 614.746 160.226 616.042 160.546 618.212L229.329 618.911Z" fill="white"/>
</g>
</g>
</g>
</g>
</g>
</g>
</g>
</g>
</g>
</g>
</g>
</g>
<path d="M195.622 598.434C195.636 598.769 197.31 598.944 198.954 600.036C200.628 601.085 201.458 602.556 201.778 602.424C202.084 602.366 201.603 600.342 199.595 599.06C197.586 597.749 195.549 598.128 195.622 598.434Z" fill="#263238"/>
<path d="M188.373 601.347C188.301 601.667 189.742 602.264 190.862 603.691C192.027 605.089 192.303 606.633 192.638 606.619C192.958 606.677 193.205 604.711 191.765 602.949C190.367 601.186 188.388 601.026 188.373 601.347Z" fill="#263238"/>
<path d="M184.197 609.954C184.502 610.027 184.983 608.352 184.138 606.503C183.309 604.653 181.737 603.91 181.591 604.187C181.402 604.464 182.406 605.454 183.076 606.983C183.775 608.498 183.862 609.911 184.197 609.954Z" fill="#263238"/>
<path d="M196.306 590.337C196.437 590.643 197.994 590.191 199.886 590.352C201.792 590.468 203.262 591.109 203.437 590.832C203.641 590.585 202.2 589.332 199.973 589.187C197.732 589.012 196.145 590.06 196.306 590.337Z" fill="#263238"/>
<path d="M217.38 421.297C217.38 421.297 198.59 419.797 196.509 440.186C194.413 460.575 192.361 555.748 192.361 555.748L236.256 559.403L243.053 462.148L313.073 432.336C313.073 432.336 229.925 418.675 217.38 421.297Z" fill="#263238"/>
<path d="M294.808 393.771C294.808 393.771 283.412 425.753 285.58 429.321C287.749 432.889 317.061 447.555 317.061 447.555L390.413 475.75C390.413 475.75 397.952 463.764 397.952 445.341C397.952 426.918 372.439 393.786 372.439 393.786H294.808V393.771Z" fill="#263238"/>
<path d="M316.551 430.705C316.551 430.72 316.435 430.778 316.202 430.894C315.94 431.025 315.591 431.171 315.154 431.375C314.193 431.812 312.825 432.409 311.093 433.181C307.499 434.754 302.317 437.011 295.841 439.822C282.757 445.458 264.419 453.351 243.199 462.497L243.432 462.162C242.762 471.774 242.049 482.144 241.307 492.877C239.516 517.97 237.872 541.112 236.577 559.418L236.547 559.753L236.213 559.724C222.867 558.545 211.907 557.583 204.237 556.913C200.468 556.564 197.499 556.287 195.432 556.083C194.457 555.981 193.7 555.909 193.133 555.85C192.609 555.792 192.347 555.748 192.347 555.734C192.347 555.719 192.623 555.719 193.133 555.748C193.7 555.777 194.457 555.836 195.447 555.894C197.528 556.04 200.482 556.258 204.266 556.535C211.936 557.146 222.91 558.006 236.271 559.054L235.922 559.36C237.173 541.054 238.76 517.912 240.492 492.819C241.248 482.085 241.976 471.716 242.66 462.104L242.675 461.857L242.893 461.769C264.157 452.74 282.538 444.934 295.652 439.356C302.157 436.618 307.368 434.433 310.992 432.919C312.753 432.19 314.121 431.637 315.11 431.229C315.547 431.054 315.896 430.923 316.173 430.807C316.42 430.734 316.537 430.69 316.551 430.705Z" fill="#455A64"/>
<path d="M374.884 433.909C374.87 433.967 374.127 433.763 372.832 433.341C371.377 432.875 369.528 432.278 367.316 431.564C362.659 430.078 356.197 428.025 348.832 426.889C341.468 425.753 334.671 426.103 329.912 427.137C325.138 428.127 322.388 429.496 322.329 429.336C322.315 429.292 322.97 428.913 324.236 428.375C325.502 427.821 327.38 427.151 329.781 426.583C334.569 425.389 341.497 424.938 348.949 426.088C356.4 427.239 362.877 429.394 367.491 431.025C369.805 431.841 371.653 432.554 372.934 433.049C374.2 433.545 374.899 433.85 374.884 433.909Z" fill="#455A64"/>
<path d="M364.507 417.044C364.492 417.175 362.047 416.695 358.089 417.015C356.109 417.146 353.766 417.452 351.146 417.758C348.527 418.064 345.66 418.428 342.69 418.981C336.738 420.044 331.6 422.127 328.311 424.312C324.993 426.467 323.435 428.448 323.334 428.331C323.304 428.302 323.639 427.778 324.396 426.948C325.153 426.117 326.332 424.982 327.991 423.831C331.266 421.457 336.505 419.243 342.53 418.166C345.543 417.598 348.425 417.263 351.059 417.001C353.679 416.739 356.051 416.491 358.06 416.433C360.068 416.36 361.698 416.476 362.804 416.651C363.925 416.811 364.522 417.001 364.507 417.044Z" fill="#455A64"/>
<path d="M332.11 160.04C340.551 158.598 347.974 161.86 355.091 166.623C362.208 171.385 367.563 178.565 370.663 186.56C373.924 194.978 374.71 204.444 372.206 213.11C369.703 221.775 363.765 229.537 355.731 233.63C344.757 239.208 330.713 237.271 320.889 229.829C311.065 222.401 305.447 210.11 304.981 197.803C304.661 189.327 306.684 180.647 311.414 173.599C316.158 166.535 323.712 161.263 332.11 160.04Z" fill="#263238"/>
<path d="M356.109 188.759C354.872 185.526 355.353 181.915 354.872 178.492C353.795 170.948 347.726 164.904 340.697 161.962C334.162 159.224 326.186 159.822 318.312 162.37C312.913 164.118 307.833 167.162 304.239 171.545C299.465 177.371 297.777 185.585 299.887 192.823L338.441 187.201C342.05 190.187 345.747 193.23 350.128 194.891C351.408 195.386 352.791 195.75 354.159 195.532C355.513 195.313 356.837 194.396 357.157 193.056C357.521 191.599 356.648 190.158 356.109 188.759Z" fill="#263238"/>
<path d="M317.497 173.031L351.161 180.167C354.421 180.385 356.968 183.065 357.026 186.327L356.619 259.218C356.59 264.199 354.931 269.034 351.874 272.966L348.658 277.102C341.337 286.554 326.506 285.593 320.918 275.034C320.525 274.292 320.263 273.651 320.146 273.127C320.03 272.471 319.855 272.034 319.826 271.481L319.186 264.374C318.851 257.879 318.807 251.281 318.807 251.354C318.807 251.354 305.025 249.606 301.503 231.853C299.741 223.028 299.625 208.435 299.916 196.493C300.193 185.745 306.771 172.303 317.497 173.031Z" fill="#FFBE9D"/>
<path d="M305.592 211.377C305.592 212.586 306.625 213.59 307.892 213.605C309.158 213.62 310.177 212.658 310.177 211.45C310.177 210.241 309.143 209.236 307.877 209.221C306.611 209.192 305.592 210.168 305.592 211.377Z" fill="#263238"/>
<path d="M303.38 203.949C303.671 204.241 305.359 202.886 307.819 202.799C310.278 202.668 312.141 203.877 312.389 203.556C312.52 203.411 312.2 202.886 311.399 202.347C310.599 201.809 309.26 201.299 307.717 201.372C306.189 201.445 304.908 202.056 304.195 202.668C303.467 203.265 303.234 203.818 303.38 203.949Z" fill="#263238"/>
<path d="M328.369 210.197C328.369 211.406 329.402 212.411 330.669 212.425C331.935 212.44 332.954 211.479 332.954 210.27C332.954 209.061 331.92 208.056 330.654 208.042C329.388 208.013 328.354 208.988 328.369 210.197Z" fill="#263238"/>
<path d="M326.783 203.338C327.074 203.629 328.762 202.275 331.236 202.187C333.696 202.056 335.559 203.265 335.806 202.944C335.937 202.799 335.632 202.275 334.817 201.736C334.016 201.197 332.677 200.687 331.134 200.76C329.606 200.833 328.326 201.444 327.612 202.056C326.885 202.668 326.637 203.221 326.783 203.338Z" fill="#263238"/>
<path d="M319.389 222.096C319.389 221.95 317.846 221.746 315.358 221.528C314.732 221.484 314.121 221.382 314.004 220.96C313.844 220.508 314.077 219.824 314.354 219.081C314.892 217.537 315.445 215.906 316.027 214.217C318.341 207.284 320.001 201.605 319.724 201.517C319.447 201.43 317.337 206.964 315.023 213.896C314.47 215.6 313.931 217.231 313.422 218.79C313.218 219.518 312.84 220.348 313.189 221.28C313.378 221.746 313.859 222.066 314.266 222.154C314.674 222.256 315.023 222.256 315.343 222.256C317.832 222.285 319.389 222.241 319.389 222.096Z" fill="#263238"/>
<path d="M318.822 251.354C318.822 251.354 330.873 251.66 342.487 244.043C342.487 244.043 336.956 256.64 319.011 255.665L318.822 251.354Z" fill="#EB996E"/>
<path d="M320.67 228.009C321.514 226.8 323.042 226.101 324.585 226.203C325.662 226.275 326.754 226.756 327.438 227.601C328.122 228.445 328.311 229.683 327.743 230.528C327.118 231.489 325.735 231.766 324.541 231.475C323.348 231.183 322.315 230.455 321.325 229.712C321.048 229.509 320.772 229.29 320.597 229.013C320.423 228.722 320.364 228.344 320.568 228.096" fill="#EB996E"/>
<path d="M326.71 223.523C326.302 223.508 326.404 226.188 324.192 228.183C321.98 230.178 319.113 229.989 319.113 230.368C319.084 230.542 319.768 230.863 320.976 230.848C322.155 230.848 323.872 230.397 325.225 229.173C326.579 227.95 327.117 226.377 327.161 225.27C327.219 224.149 326.899 223.508 326.71 223.523Z" fill="#263238"/>
<path d="M326.928 196.027C327.19 196.682 329.65 196.274 332.546 196.507C335.457 196.682 337.815 197.439 338.179 196.828C338.339 196.536 337.902 195.925 336.942 195.313C335.981 194.701 334.467 194.148 332.721 194.017C330.974 193.9 329.403 194.235 328.369 194.701C327.321 195.167 326.812 195.706 326.928 196.027Z" fill="#263238"/>
<path d="M303.685 193.128C304.137 193.667 305.81 193.026 307.862 192.91C309.9 192.735 311.647 193.143 312.025 192.546C312.185 192.255 311.894 191.701 311.123 191.206C310.351 190.711 309.1 190.318 307.688 190.42C306.291 190.521 305.097 191.075 304.399 191.672C303.685 192.284 303.482 192.866 303.685 193.128Z" fill="#263238"/>
<path d="M362.28 183.56C358.787 173.308 343.549 159.327 332.765 160.302L315.722 170.992C316.886 176.847 321.529 181.886 327.263 183.502C330.334 184.376 334.002 184.551 335.879 187.143C337.786 189.779 336.781 193.711 338.557 196.435C341.017 200.221 347.551 199.901 349.414 204.008C350.229 205.799 349.866 207.969 350.724 209.746C351.859 212.12 357.972 215.032 360.461 214.188C362.95 213.343 362.877 209.076 363.648 206.833C364.973 202.988 364.361 201.022 363.852 198.896C362.673 193.871 363.954 188.454 362.28 183.56Z" fill="#263238"/>
<path d="M353.126 216.459C353.082 215.134 354.494 211.93 355.804 211.668C359.297 210.983 365.628 211.027 366.021 219.926C366.574 232.101 354.232 230.149 354.203 229.8C354.174 229.538 353.3 221.047 353.126 216.459Z" fill="#FFBE9D"/>
<path d="M357.71 225.023C357.769 224.979 357.929 225.169 358.293 225.314C358.656 225.46 359.253 225.547 359.879 225.271C361.145 224.746 362.135 222.649 362.091 220.45C362.077 219.343 361.785 218.295 361.363 217.435C360.956 216.562 360.345 215.965 359.69 215.877C359.035 215.761 358.598 216.168 358.467 216.518C358.322 216.867 358.409 217.1 358.351 217.13C358.322 217.159 358.074 216.94 358.162 216.431C358.205 216.183 358.336 215.892 358.613 215.644C358.889 215.397 359.311 215.251 359.777 215.28C360.723 215.309 361.596 216.125 362.077 217.071C362.601 218.018 362.95 219.183 362.964 220.436C362.993 222.897 361.844 225.242 360.112 225.839C359.268 226.101 358.54 225.882 358.162 225.606C357.754 225.314 357.667 225.052 357.71 225.023Z" fill="#EB996E"/>
<path d="M364.9 180.4C364.856 176.584 369.615 174.094 373.327 173.235C377.038 172.375 380.953 173.497 384.3 175.332C386.251 176.409 388.216 177.924 388.667 180.109C389.103 182.293 387.008 184.9 384.912 184.114C388.914 185.483 390.937 190.827 388.856 194.497C386.775 198.167 381.157 199.187 377.926 196.463C378.974 199.959 381.244 203.061 384.257 205.114C377.999 206.003 371.347 203.338 367.447 198.342C363.532 193.361 362.528 186.269 364.9 180.4Z" fill="#263238"/>
<path d="M373.341 199.769C373.429 199.784 373.749 198.4 373.793 196.114C373.836 193.828 373.501 190.653 372.395 187.318C371.275 183.997 369.616 181.259 368.189 179.468C366.777 177.676 365.671 176.773 365.613 176.832C365.395 176.992 369.47 181.041 371.624 187.58C373.88 194.09 373.065 199.784 373.341 199.769Z" fill="#FF725E"/>
<path d="M319.273 167.307C318.152 172.273 310.613 178.623 307.309 182.482C301.008 189.852 299.756 192.298 299.814 208.77C296.831 203.075 294.56 197.512 294.778 191.09C295.011 184.667 297.369 178.244 301.823 173.628C306.291 168.997 312.913 166.375 319.273 167.307Z" fill="#263238"/>
<path d="M267.635 302.836C267.635 302.836 280.763 280.947 284.401 276.52C287.822 272.369 292.217 269.922 295.142 268.641C296.772 267.927 298.49 267.432 300.251 267.126L319.113 262.946C319.113 262.946 319.142 275.835 332.648 276.636C346.14 277.437 357.506 258.621 357.506 258.621C357.506 258.621 379.309 262 384.519 264.68C389.729 267.359 397.938 270.782 402.449 293.384L405.622 315.492L368.029 318.973L364.434 374.868L345.79 387.859C345.79 387.859 294.109 401.301 290.805 402.189C287.501 403.078 286.41 318.973 286.41 318.973C286.41 318.973 273.136 310.366 267.635 302.836Z" fill="#FF725E"/>
<path d="M292.377 293.443C292.333 293.428 292.071 293.996 291.649 295.059C291.213 296.108 290.674 297.666 290.063 299.603C288.84 303.477 287.501 308.967 286.73 315.142C285.988 321.317 285.959 326.968 286.221 331.031C286.352 333.056 286.497 334.701 286.672 335.823C286.832 336.944 286.934 337.57 286.992 337.556C287.05 337.556 287.036 336.915 286.963 335.794C286.89 334.658 286.817 333.027 286.759 331.002C286.643 326.954 286.745 321.361 287.487 315.23C288.244 309.113 289.495 303.652 290.572 299.749C291.111 297.797 291.577 296.224 291.926 295.147C292.261 294.069 292.435 293.457 292.377 293.443Z" fill="#263238"/>
<path d="M293.978 385.004L364.755 369.581L368.029 318.958L399.51 316.045C399.51 316.045 398.345 350.649 397.137 360.945C395.391 375.742 386.658 395.927 381.535 399.961C376.427 403.995 290.805 402.175 290.805 402.175L293.978 385.004Z" fill="#FFBE9D"/>
<path d="M253.809 394.179C254.304 395.17 255.337 395.81 256.443 395.709C256.661 395.694 256.894 395.65 257.127 395.563C258.699 395.053 258.539 391.864 258.539 391.864L266.034 390.64C266.034 390.64 275.785 396.932 279.264 401.112C282.728 405.277 291.591 401.898 291.591 401.898L294.662 385.907L280.85 373.412C280.85 373.412 281.694 374.154 280.748 371.824C279.802 369.494 275.451 370.368 275.451 370.368C274.781 369.217 271.943 368.795 271.943 368.795L259.834 370.193C257.345 370.484 255.104 371.882 253.765 374.009L248.642 382.121C248.642 382.121 245.935 387.961 246.372 389.315C247.027 391.369 249.195 390.903 249.195 390.903C249.195 390.903 249.792 394.747 250.796 394.878C251.8 395.01 253.809 394.179 253.809 394.179Z" fill="#FFBE9D"/>
<path d="M279.584 382.689C279.569 382.82 277.954 382.674 275.378 382.776C272.802 382.907 269.222 383.359 265.496 384.626C263.633 385.252 261.915 386.009 260.402 386.81C258.932 387.64 257.418 388.31 256.938 389.373C256.705 389.898 256.807 390.422 257.069 390.815C257.331 391.208 257.68 391.456 257.986 391.587C258.626 391.849 259.034 391.675 259.048 391.747C259.077 391.762 258.67 392.082 257.884 391.878C257.505 391.776 257.069 391.529 256.72 391.077C256.356 390.655 256.152 389.883 256.428 389.184C256.69 388.471 257.287 387.932 257.942 387.48C258.597 387.043 259.296 386.606 260.067 386.199C261.595 385.354 263.342 384.553 265.248 383.912C269.061 382.616 272.744 382.237 275.363 382.252C277.998 382.252 279.599 382.601 279.584 382.689Z" fill="#EB996E"/>
<path d="M280.428 390.407C280.414 390.64 275.48 390.437 269.425 390.786C263.371 391.121 258.495 391.878 258.452 391.66C258.437 391.558 259.63 391.238 261.61 390.888C263.575 390.539 266.325 390.189 269.382 390.014C272.438 389.839 275.203 389.883 277.197 390C279.206 390.131 280.443 390.306 280.428 390.407Z" fill="#EB996E"/>
<path d="M253.881 393.859C253.838 393.859 253.794 393.408 253.736 392.563C253.692 391.733 253.634 390.524 253.721 389.009C253.78 388.252 253.852 387.437 254.056 386.548C254.245 385.66 254.667 384.728 255.249 383.912C256.341 382.266 257.855 380.548 259.79 379.266C261.712 377.999 263.633 376.922 265.583 376.339C267.519 375.756 269.323 375.611 270.808 375.538C272.307 375.48 273.515 375.523 274.344 375.553C275.174 375.582 275.64 375.625 275.64 375.684C275.64 375.815 273.791 375.873 270.837 376.091C269.367 376.222 267.62 376.426 265.787 377.024C263.967 377.606 262.075 378.684 260.227 379.907C258.364 381.16 256.952 382.718 255.832 384.32C254.667 385.849 254.449 387.597 254.26 389.068C253.969 392.009 254.042 393.874 253.881 393.859Z" fill="#EB996E"/>
<path d="M271.375 371.883C271.375 371.999 269.556 372.043 266.674 372.378C263.895 372.8 259.427 373.004 256.894 376.849C254.143 380.344 251.8 383.65 250.781 386.359C249.704 389.053 249.792 390.903 249.632 390.903C249.588 390.903 249.515 390.451 249.559 389.621C249.588 388.791 249.777 387.582 250.257 386.184C251.189 383.33 253.518 379.907 256.283 376.383C256.981 375.494 257.753 374.664 258.641 374.009C259.528 373.339 260.547 372.946 261.493 372.669C263.4 372.13 265.161 371.97 266.631 371.853C269.556 371.635 271.375 371.781 271.375 371.883Z" fill="#EB996E"/>
<path d="M276.63 398.534C276.615 398.549 276.368 398.359 275.916 397.981C275.392 397.558 274.723 397.019 273.893 396.349C272.103 394.966 269.44 393 265.932 390.859L266.107 390.888C263.866 391.267 261.348 391.704 258.612 392.17L258.874 391.849C258.888 392.461 258.859 393.058 258.728 393.684C258.597 394.296 258.408 394.951 257.884 395.49C257.607 395.752 257.214 395.913 256.894 395.942C256.559 396.029 256.196 396.058 255.846 396C255.133 395.898 254.464 395.519 253.983 394.966C253.867 394.835 253.75 394.675 253.663 394.529L253.59 394.412L253.561 394.354L253.547 394.325C253.445 394.281 254.391 394.631 253.983 394.485H253.969H253.954L253.721 394.587C253.401 394.718 253.081 394.82 252.746 394.937C252.412 395.039 252.077 395.126 251.713 395.199C251.538 395.228 251.349 395.257 251.16 395.257C250.971 395.257 250.752 395.272 250.461 395.126C250.039 394.82 249.894 394.471 249.734 394.136C249.588 393.801 249.457 393.451 249.355 393.102C249.151 392.403 248.991 391.704 248.875 390.975L249.311 391.281C248.336 391.456 247.187 391.223 246.517 390.335C246.211 389.927 245.964 389.403 246.008 388.82C246.037 388.296 246.153 387.83 246.27 387.364C246.794 385.529 247.536 383.752 248.336 381.961L248.351 381.946L248.365 381.917C249.239 380.533 250.156 379.077 251.102 377.591C251.684 376.674 252.266 375.756 252.834 374.854C253.416 373.98 253.925 372.989 254.726 372.203C255.497 371.416 256.443 370.805 257.447 370.397C258.451 369.96 259.558 369.858 260.533 369.756C264.55 369.305 268.377 368.868 271.943 368.475H271.987H272.03C272.729 368.591 273.384 368.751 274.039 368.999C274.665 369.246 275.334 369.538 275.771 370.222L275.349 370.091C276.63 369.567 278.114 369.552 279.235 370.31C280.355 371.052 280.879 372.247 281.156 373.383L281.068 373.222C285.027 376.79 288.273 379.703 290.587 381.786C291.649 382.776 292.508 383.563 293.148 384.145C293.731 384.699 294.022 384.99 294.007 385.019C293.993 385.033 293.658 384.786 293.047 384.276C292.377 383.708 291.489 382.965 290.383 382.033C288.025 379.994 284.736 377.155 280.705 373.659L280.646 373.601L280.617 373.499C280.37 372.509 279.846 371.416 278.914 370.834C278.012 370.222 276.702 370.237 275.64 370.688L275.378 370.805L275.218 370.557C274.956 370.149 274.388 369.844 273.806 369.64C273.224 369.421 272.583 369.261 271.943 369.159H272.03C268.45 369.581 264.637 370.033 260.62 370.514C259.601 370.63 258.641 370.717 257.724 371.111C256.821 371.475 255.977 372.043 255.264 372.756C254.551 373.441 254.071 374.373 253.474 375.29C252.906 376.193 252.324 377.111 251.742 378.028C250.811 379.514 249.879 380.97 249.006 382.354L249.035 382.31C248.249 384.058 247.507 385.834 246.997 387.582C246.881 388.019 246.765 388.471 246.75 388.864C246.706 389.213 246.881 389.577 247.114 389.898C247.55 390.509 248.424 390.713 249.166 390.582L249.544 390.524L249.603 390.888C249.719 391.573 249.865 392.272 250.054 392.912C250.228 393.524 250.505 394.281 250.84 394.529C250.854 394.544 250.985 394.573 251.145 394.558C251.291 394.558 251.451 394.529 251.611 394.514C251.917 394.456 252.237 394.383 252.557 394.281C252.863 394.179 253.183 394.078 253.474 393.961L253.692 393.874H253.707C253.314 393.728 254.245 394.063 254.158 394.034L254.173 394.063L254.202 394.107L254.26 394.209C254.333 394.325 254.42 394.456 254.522 394.558C254.9 394.995 255.424 395.301 255.963 395.374C256.239 395.417 256.516 395.403 256.792 395.33C257.098 395.286 257.287 395.199 257.476 395.039C258.189 394.296 258.291 392.971 258.291 391.908V391.631L258.553 391.587C261.289 391.165 263.822 390.757 266.063 390.407L266.165 390.393L266.238 390.437C269.745 392.65 272.365 394.689 274.112 396.146C274.985 396.874 275.625 397.471 276.062 397.879C276.426 398.301 276.644 398.519 276.63 398.534Z" fill="#EB996E"/>
<path d="M176.294 347.634L269.513 348.391C272.54 348.391 275.422 349.847 275.873 352.833L286.061 420.816H334.074C335.617 420.816 336.869 422.068 336.869 423.612C336.869 425.156 335.617 426.408 334.074 426.408H286.89H277.939H180.704L170.225 354.653C169.686 350.969 172.553 347.634 176.294 347.634Z" fill="#E0E0E0"/>
<path d="M176.294 347.634C176.294 347.634 175.784 347.576 174.824 347.765C173.892 347.983 172.422 348.551 171.258 350.124C170.676 350.896 170.239 351.916 170.108 353.095C169.963 354.29 170.297 355.557 170.457 356.926C170.85 359.678 171.302 362.838 171.796 366.392C173.848 380.65 176.803 401.184 180.441 426.452L180.471 426.714H180.718C220.407 426.744 272.554 426.773 329.504 426.802C330.843 426.802 332.182 426.802 333.507 426.802C334.118 426.831 334.991 426.787 335.632 426.394C336.287 426.03 336.811 425.418 337.073 424.705C337.626 423.277 336.971 421.544 335.632 420.831C334.991 420.438 334.147 420.408 333.536 420.438H331.557C326.303 420.438 321.107 420.438 315.969 420.438C305.709 420.438 295.71 420.438 286.075 420.452L286.439 420.758C282.771 396.408 279.351 373.688 276.28 353.314C276.178 352.018 275.596 350.634 274.563 349.76C273.544 348.857 272.263 348.391 270.997 348.187C269.702 347.983 268.465 348.1 267.242 348.056C266.005 348.042 264.797 348.042 263.589 348.027C258.742 347.998 254.071 347.969 249.559 347.94C240.535 347.882 232.196 347.823 224.613 347.78C209.477 347.707 197.412 347.634 189.101 347.59C184.968 347.576 181.78 347.576 179.597 347.576C178.535 347.576 177.72 347.59 177.138 347.59C176.57 347.619 176.294 347.634 176.294 347.634C176.294 347.634 176.57 347.663 177.123 347.678C177.691 347.692 178.506 347.707 179.568 347.736C181.751 347.765 184.939 347.809 189.072 347.867C197.382 347.954 209.448 348.1 224.584 348.26C232.167 348.333 240.506 348.42 249.53 348.508C254.041 348.551 258.728 348.595 263.56 348.639C264.768 348.653 265.99 348.668 267.213 348.668C268.435 348.712 269.702 348.61 270.881 348.799C272.059 348.988 273.238 349.44 274.126 350.241C275.043 351.042 275.523 352.149 275.64 353.43C278.682 373.805 282.058 396.524 285.697 420.889L285.74 421.195H286.046C295.681 421.195 305.679 421.195 315.94 421.209C321.078 421.209 326.273 421.209 331.527 421.209H333.507C334.205 421.195 334.715 421.224 335.239 421.515C336.258 422.054 336.767 423.379 336.345 424.472C336.156 425.01 335.763 425.477 335.253 425.753C334.729 426.045 334.205 426.074 333.507 426.059C332.168 426.059 330.843 426.059 329.504 426.059C272.554 426.088 220.407 426.117 180.718 426.146L181.009 426.394C177.269 401.155 174.227 380.621 172.117 366.377C171.578 362.824 171.112 359.663 170.69 356.926C170.53 355.557 170.166 354.29 170.312 353.139C170.428 351.988 170.836 350.998 171.389 350.241C172.495 348.697 173.921 348.1 174.838 347.867C175.784 347.634 176.294 347.678 176.294 347.634Z" fill="#263238"/>
<path d="M232.691 386.169C232.691 389.388 230.071 392.009 226.854 392.009C223.638 392.009 221.018 389.388 221.018 386.169C221.018 382.951 223.638 380.329 226.854 380.329C230.086 380.329 232.691 382.951 232.691 386.169Z" fill="white"/>
<path d="M282.291 425.797C282.16 425.811 279.191 408.51 275.669 387.13C272.147 365.751 269.382 348.406 269.513 348.391C269.644 348.377 272.613 365.678 276.135 387.058C279.671 408.437 282.422 425.782 282.291 425.797Z" fill="#263238"/>
</g>
<defs>
<clipPath id="clip0_28_2762">
<rect width="650" height="676" fill="white"/>
</clipPath>
</defs>
</svg>
