<svg width="66" height="50" viewBox="0 0 66 50" fill="none" xmlns="http://www.w3.org/2000/svg">
<path fill-rule="evenodd" clip-rule="evenodd" d="M11.2312 0.587891H22.18C23.6319 0.587891 25.0244 1.16466 26.051 2.19131C27.0777 3.21795 27.6544 4.61039 27.6544 6.06229V27.9599C27.6479 33.7655 25.3387 39.3315 21.2336 43.4366C17.1284 47.5418 11.5624 49.851 5.75681 49.8575C4.66789 49.8575 3.62356 49.4249 2.85357 48.6549C2.08358 47.885 1.65101 46.8406 1.65101 45.7517C1.65101 44.6628 2.08358 43.6185 2.85357 42.8485C3.62356 42.0785 4.66789 41.6459 5.75681 41.6459C9.38523 41.6416 12.8638 40.1982 15.4295 37.6326C17.9952 35.0669 19.4385 31.5883 19.4428 27.9599H5.75681C4.30491 27.9599 2.91247 27.3831 1.88582 26.3565C0.859175 25.3298 0.28241 23.9374 0.28241 22.4855V11.5367C0.28241 8.63289 1.43594 5.84802 3.48924 3.79472C5.54254 1.74142 8.32741 0.587891 11.2312 0.587891ZM49.552 0.587891H60.5008C61.9527 0.587891 63.3451 1.16466 64.3718 2.19131C65.3984 3.21795 65.9752 4.61039 65.9752 6.06229V27.9599C65.9687 33.7655 63.6595 39.3315 59.5543 43.4366C55.4491 47.5418 49.8832 49.851 44.0776 49.8575C42.9887 49.8575 41.9443 49.4249 41.1743 48.6549C40.4044 47.885 39.9718 46.8406 39.9718 45.7517C39.9718 44.6628 40.4044 43.6185 41.1743 42.8485C41.9443 42.0785 42.9887 41.6459 44.0776 41.6459C47.706 41.6416 51.1846 40.1982 53.7502 37.6326C56.3159 35.0669 57.7592 31.5883 57.7636 27.9599H44.0776C42.6257 27.9599 41.2332 27.3831 40.2066 26.3565C39.1799 25.3298 38.6032 23.9374 38.6032 22.4855V11.5367C38.6032 8.63289 39.7567 5.84802 41.81 3.79472C43.8633 1.74142 46.6482 0.587891 49.552 0.587891Z" fill="#0467FF"/>
</svg>
