<svg width="150" height="150" viewBox="0 0 150 150" fill="none" xmlns="http://www.w3.org/2000/svg">
<path d="M43.3661 22.2252C48.0723 19.3762 53.0861 17.2223 58.2595 15.7522L61.3248 1.0058L86.2346 0.572754L89.8241 15.2052C95.0431 16.493 100.137 18.4759 104.945 21.154L117.537 12.9032L135.462 30.2138L127.656 43.0913C130.505 47.8092 132.658 52.8235 134.128 57.9973L148.874 61.0628L149.307 85.9745L134.698 89.5414C133.411 94.7608 131.428 99.8548 128.75 104.664L137 117.257L119.691 135.182L106.814 127.376C102.108 130.225 97.0828 132.379 91.9094 133.849L88.8555 148.596L63.9457 149.029L60.3562 134.396C55.1373 133.108 50.0436 131.125 45.2349 128.447L32.6432 136.698L14.7187 119.388L22.5243 106.51C19.6755 101.804 17.5219 96.7779 16.0519 91.6041L1.30656 88.5386L0.873535 63.6269L15.5049 60.0371C16.7926 54.8178 18.7753 49.7238 21.4532 44.9146L13.2031 32.322L30.5123 14.3961L43.3661 22.2252ZM56.6528 55.4104C46.3972 66.0314 46.6935 82.9545 57.3137 93.2109C67.934 103.467 84.8558 103.171 95.1114 92.55C105.367 81.9289 105.071 65.0058 94.4505 54.7494C83.8303 44.493 66.9085 44.7893 56.6528 55.4104Z" fill="#FF735D" fill-opacity="0.2"/>
</svg>
