<svg width="95" height="95" viewBox="0 0 95 95" fill="none" xmlns="http://www.w3.org/2000/svg">
<path d="M27.383 13.7436C30.3685 11.9316 33.5591 10.5641 36.841 9.62963L38.7895 0.273504L54.5946 0L56.8736 9.28775C60.1896 10.1083 63.4144 11.3618 66.4683 13.0598L74.4564 7.81766L85.8287 18.8034L80.8718 26.9744C82.6836 29.9601 84.0511 33.151 84.9855 36.433L94.3409 38.3818L94.6144 54.1994L85.3273 56.4786C84.5069 59.7949 83.2534 63.0199 81.5555 66.0741L86.7973 74.0627L75.8124 85.4359L67.642 80.4786C64.6565 82.2906 61.4659 83.6581 58.1841 84.5926L56.2355 93.9487L40.419 94.2222L38.14 84.9345C34.824 84.114 31.5992 82.8604 28.5453 81.1624L20.5573 86.4046L9.18491 75.4188L14.1418 67.2479C12.33 64.2621 10.9626 61.0712 10.0281 57.7892L0.684126 55.8405L0.410645 40.0228L9.6977 37.7436C10.5181 34.4273 11.7716 31.2023 13.4695 28.1481L8.22772 20.1595L19.2126 8.78632L27.383 13.7436ZM35.804 34.8148C29.2974 41.5613 29.4797 52.2963 36.2256 58.8034C42.9601 65.3105 53.7058 65.1168 60.2124 58.3818C66.719 51.6467 66.5367 40.9003 59.7908 34.3932C53.0562 27.886 42.3106 28.0684 35.804 34.8148Z" fill="#F4DBDA"/>
</svg>
